<?xml version="1.0" standalone="no"?>
<!DOCTYPE svg PUBLIC "-//W3C//DTD SVG 1.1//EN" "http://www.w3.org/Graphics/SVG/1.1/DTD/svg11.dtd" >
<svg xmlns="http://www.w3.org/2000/svg">
<metadata>
Created by FontPrep 20130207 at Fri Jun 20 09:25:24 2014
 By Jo De Baerdemaeker
Copyright (c) 2014 by Jo De Baerdemaeker. All rights reserved.
</metadata>
<defs>
<font id="6cc4fe26f7b7f59309c5f629ea7d0262" horiz-adv-x='1024' >
  <font-face 
    font-family="FlandersArtSerif-Medium"
    font-weight="500"
    font-stretch="normal"
    units-per-em="2048"
    panose-1="0 0 6 0 0 0 0 0 0 0"
    ascent="1536"
    descent="-512"
    x-height="1038"
    cap-height="1318"
    bbox="-270 -660 5529 1987"
    underline-thickness="50"
    underline-position="-155"
    unicode-range="U+000D-FB02"
  />
<missing-glyph horiz-adv-x="600" 
 />
    <glyph glyph-name="fi" unicode="fi" horiz-adv-x="1180" 
d="M1150 94q0 -75 -15 -85q-18 -9 -186 -9h-92q-168 0 -186 9q-15 11 -15 85t9 91q47 16 121 27v601h-392v-601q72 -11 121 -27q9 -17 9 -91t-15 -85q-18 -9 -186 -9h-92q-168 0 -186 9q-15 11 -15 85t9 91q47 16 121 27v601h-130v225h130v4q0 308 242 385q66 21 158 21
t244 -30t238 -69q-2 -79 -8 -157t-12 -82q-88 -25 -179 -16q-9 14 -28 92q-137 37 -203 37q-66 -1 -86 -3q-115 -14 -129 -182h623v-826q72 -11 121 -27q9 -16 9 -91z" />
    <glyph glyph-name="fl" unicode="fl" horiz-adv-x="1180" 
d="M1150 94q0 -75 -15 -85q-18 -9 -186 -9h-92q-168 0 -186 9q-15 11 -15 85t9 91q47 16 121 27v982q-116 29 -178 29q-62 -1 -82 -3q-115 -14 -129 -182h213v-225h-216v-601q72 -11 121 -27q9 -17 9 -91t-15 -85q-18 -9 -186 -9h-92q-168 0 -186 9q-15 11 -15 85t9 91
q47 16 121 27v601h-130v225h130v4q0 308 242 385q66 21 155 21q88 0 231 -28l197 28h35v-1236q72 -11 121 -27q9 -16 9 -91z" />
    <glyph glyph-name="f_f_i" unicode="ffi" horiz-adv-x="1806" 
d="M786 1038v4q0 81 17 147q-129 34 -193 34q-64 -1 -84 -3q-115 -14 -129 -182h389zM548 1448q168 0 390 -63q96 63 218 63t274 -30t238 -69q-2 -79 -8 -157t-12 -82q-88 -25 -179 -16q-9 14 -28 92q-137 37 -203 37q-66 -1 -86 -3q-115 -14 -129 -182h623v-826
q72 -11 121 -27q9 -16 9 -91t-15 -85q-18 -9 -186 -9h-92q-168 0 -186 9q-15 11 -15 85t9 91q47 16 121 27v601h-392v-601q72 -11 121 -27q9 -16 9 -91t-15 -85q-18 -9 -186 -9h-92q-168 0 -186 9q-15 11 -15 85t9 91q47 16 121 27v601h-392v-601q72 -11 121 -27
q9 -17 9 -91t-15 -85q-18 -9 -186 -9h-92q-168 0 -186 9q-15 11 -15 85t9 91q47 16 121 27v601h-130v225h130v4q0 308 242 385q66 21 146 21z" />
    <glyph glyph-name="f_f_l" unicode="ffl" horiz-adv-x="1806" 
d="M786 1038v4q0 81 17 147q-129 34 -193 34q-64 -1 -84 -3q-115 -14 -129 -182h389zM548 1448q168 0 390 -63q97 63 215 63t261 -28l197 28h35v-1236q72 -11 121 -27q9 -16 9 -91t-15 -85q-18 -9 -186 -9h-92q-168 0 -186 9q-15 11 -15 85t9 91q47 16 121 27v982
q-116 29 -178 29q-62 -1 -82 -3q-115 -14 -129 -182h213v-225h-216v-601q72 -11 121 -27q9 -16 9 -91t-15 -85q-18 -9 -186 -9h-92q-168 0 -186 9q-15 11 -15 85t9 91q47 16 121 27v601h-392v-601q72 -11 121 -27q9 -17 9 -91t-15 -85q-18 -9 -186 -9h-92q-168 0 -186 9
q-15 11 -15 85t9 91q47 16 121 27v601h-130v225h130v4q0 308 242 385q66 21 146 21z" />
    <glyph glyph-name="LOGOFL" unicode="fl&#x2a;" horiz-adv-x="5545" 
d="M2451 -77q72 0 72 64v22q-65 0 -84 -5q-31 -6 -31 -34t15 -38t28 -9zM4458 49q0 75 -54 75q-57 0 -71 -75h125zM3253 26q0 -41 22 -74q24 -29 62 -29t61 28q19 28 19 72q0 45 -21 73q-20 28 -60 28t-62 -28t-21 -70zM2933 124q-61 0 -72 -75h125q-4 40 -13 54
q-9 21 -40 21zM5004 -108v265h27l9 -31q30 36 60 36t48 -9l-12 -35q-20 6 -44 6t-49 -34v-198h-39zM4292 22q0 140 114 140q91 0 91 -113v-36h-166q3 -45 29 -67t57 -23q32 0 72 20l1 -1v-36q-38 -19 -83 -19q-45 -1 -80 35t-35 100zM3214 24q0 56 36 97t88 41t84 -40
q34 -40 34 -100t-34 -97q-34 -38 -86 -38t-88 40q-34 41 -34 97zM2934 162q91 0 91 -113v-36h-166q3 -44 29 -67t58 -23q34 0 71 20l1 -1v-36q-38 -19 -83 -19q-45 -1 -80 35t-35 102t29 102t85 36zM2536 -76q-24 -37 -84 -37q-28 0 -54 15q-30 26 -30 68q0 75 102 75l53 -2
v31q0 50 -50 50q-40 0 -80 -18l-9 34q44 22 97 22q81 0 81 -88v-84q0 -53 36 -66l-22 -37q-25 8 -40 37zM4814 185l-61 -178h123zM5237 -10q0 -67 49 -67q20 0 48 15l11 -36q-37 -15 -69 -15t-56 25q-23 25 -23 78v130h-29v37h29v47l39 6h1v-53h74v-37h-74v-130zM3875 -10
q0 -67 47 -67q20 0 50 15l11 -36q-37 -15 -68 -15t-56 23q-23 24 -23 80v130h-30v37h30v47l36 6h3v-53h72v-37h-72v-130zM2731 -113q-83 0 -83 103v130h-28v37h28v47l38 6h3v-53h73v-37h-73v-130q0 -67 48 -67q19 0 49 15l11 -36q-37 -15 -66 -15zM2237 -10q0 -67 49 -67
q20 0 48 15l11 -36q-37 -15 -69 -15t-55 24t-23 79v130h-28v37h28v47l38 6h1v-53h74v-37h-74v-130zM4915 -108l-26 78h-149l-26 -78h-41l116 336h51l118 -336h-43zM2043 196q-57 0 -57 -49q0 -27 12 -36t42 -26q65 -26 80 -48q14 -21 14 -61t-37 -64q-33 -25 -75 -25t-75 14
v36l34 -10l41 -4q76 0 76 56q0 31 -30 47q-7 5 -44 25t-57 35q-19 15 -19 59q0 43 28 65t71 22q42 0 65 -8v-34q-51 6 -69 6zM4233 62v-170h-40v168q0 64 -59 64q-22 0 -43 -10t-26 -13v-209h-39v364l36 6h3v-127q86 56 141 3q27 -24 27 -76zM3531 157q0 105 80 105
q26 0 62 -13l-12 -34q-27 9 -48 9q-43 0 -43 -67h61v-37h-61v-228h-39v228h-42v37h42zM570 638q79 -79 23 -321q-37 -155 11 -282q18 -48 53 -85q73 -79 92 -129t10 -69q-19 25 -83 70q-64 44 -99 76q-69 62 -96 178q-27 115 35 293t56 247zM2698 582q31 0 47 13
q31 16 31 61v26h-28q-51 0 -73 -6q-36 -9 -36 -41q0 -53 59 -53zM4090 849q-32 1 -59 -23q-26 -24 -30 -64h169q-4 45 -26 66t-54 21zM3644 853q-40 -1 -74 -35q-33 -34 -33 -91t27 -95t74 -37q47 0 88 25v223q-42 10 -82 10zM542 893q35 -123 -25 -212q-106 -147 -120 -269
q-8 -58 -2 -118q15 -153 -34 -198q-9 -4 -11 -4q-5 6 -1 14q3 8 1 44q-2 35 -22 84q-47 114 -28 226q23 110 101 208q33 42 62 76q75 90 79 149zM4808 854q-68 0 -68 -39q0 -18 28 -31q7 -5 29 -11l25 -9q25 -10 37 -18q56 -30 56 -101q1 -71 -45 -106t-115 -35t-110 28v88
l3 3q62 -28 105 -28q70 0 70 48q0 34 -58 54t-64 23q-56 26 -56 91q-1 63 43 97t96 34t102 -18v-86l-7 -1q-41 17 -71 17zM4512 849q-38 0 -83 -31v-308h-93v422h79l10 -34q51 44 101 44t91 -18l-30 -96q-37 21 -75 21zM3898 722q0 102 58 160q58 60 133 60q88 0 137 -70
q32 -46 32 -123v-62h-257q23 -92 125 -92q58 0 105 26l5 -1v-92q-57 -24 -135 -24q-79 0 -141 58t-62 160zM3210 942q64 0 108 -36q46 -43 46 -114v-282h-94v252q0 42 -30 69q-26 18 -70 18t-87 -26v-313h-96v422h81l10 -33q68 43 132 43zM2543 641q0 113 130 113
q67 0 103 -3v22q0 80 -81 80q-52 0 -112 -30l-24 83q74 36 147 36q72 0 118 -34t46 -107v-155q0 -28 17 -45q15 -10 46 -19l-44 -78q-54 0 -94 42q-39 -26 -55 -34t-53 -8q-144 0 -144 137zM868 954q0 14 17 14t20 4q3 2 5 10t-2 10q-15 3 -28 3t-33 -27q-3 -2 -9 -2t-5 -3
q-7 -27 12 -43t43 -17q24 0 38 13t13 40h-2l-56 -16q-13 0 -13 14zM846 1017q54 1 94 -25q60 -39 60 -133q0 -56 -11 -56q-17 0 -23 19t7 29q-8 20 -52 26q-45 5 -65 11q-41 11 -71 64q-29 52 -45 52q52 13 106 13zM2311 954h-236v-131h226v-92h-226v-221h-94v536h330v-92z
M517 1059q37 -82 -125 -214q-97 -81 -115 -145q-18 -65 -2 -101q-59 29 -73 96q-19 86 88 174q106 89 148 142t37 67l-5 14zM3820 510h-72l-17 33q-49 -39 -125 -39t-122 59t-45 157q0 98 63 160t162 62q24 0 62 -5v155l80 6h14v-588zM2464 510h-96v582l83 6h13v-588z
M1183 -182v-120q-99 0 -193 78t-112 130q-14 28 -14 58t-4 72q-4 40 -4 68q-2 28 -20 68q-18 42 -46 88t-34 60t-18 48t-24 64q-12 31 -64 305q-53 274 -84 360l-8 23h1q33 0 78 -120t55 -162q10 -40 30 -121t50 -222q10 -40 51 -116q41 -75 51 -127t69 -93q23 -16 63 -16
t84 30t52 67q7 20 3 38q-8 59 -52 79q-18 6 -60 28q-13 9 -31 32q-47 62 -12 84q2 2 10 2q8 1 32 -19t38 -22h2l32 8q22 9 36 9t43 -19v-382q-13 0 -55 8t-75 9l-22 -2q-111 -9 -137 -167q-2 -16 0 -19q2 -4 41 -25q39 -20 111 -42t137 -22zM439 1263q29 -71 -14 -139
q-17 -26 -47 -46q-76 -46 -119 -127q-25 119 37 181q35 35 62 52q74 45 81 79zM1890 -615l-7 -4l-735 2114l10 4z" />
    <glyph glyph-name="LOGOVL" unicode="vl&#x2a;" horiz-adv-x="5729" 
d="M4039 -60q0 35 -85 35h-25q-18 -23 -18 -46q0 -46 53 -46q31 1 53 17t22 40zM4696 88q0 63 -45 63q-21 -1 -37 -17t-22 -46h104zM3087 151q-23 1 -40 -17t-21 -46h105q-5 36 -13 50t-31 13zM2929 88q0 63 -43 63q-23 0 -41 -18q-16 -20 -19 -45h103zM2725 69q0 82 -68 82
q-33 0 -53 -24v-137q27 -8 52 -8t47 24t22 63zM2320 88q0 63 -42 63q-47 0 -63 -63h105zM4014 106q0 20 -14 33t-36 13t-36 -14t-14 -32t13 -32t39 -14t35 14q13 12 13 32zM3326 68q0 -86 66 -86q34 0 53 25v136q-37 9 -57 9t-41 -22t-21 -62zM4504 177h30l-69 -220h-40
l-49 167l-50 -167h-40l-71 220h33l58 -184l55 184h29l55 -184zM3551 -43v220h33v-220h-33zM2126 177h35l-77 -220h-44l-76 220h34l63 -186zM4787 -43v220h22l8 -25q25 28 51 28t39 -8l-11 -28q-24 8 -31 8q-27 0 -45 -31v-164h-33zM4653 180q76 0 76 -92v-30h-139
q3 -35 24 -56q22 -20 50 -20t59 17v-31q-33 -16 -71 -16t-66 32t-29 85q0 111 96 111zM3750 152q-16 0 -58 -22v-173h-33v220h22l6 -20q46 23 74 23t46 -19q24 -17 24 -64v-140h-33v139q0 56 -48 56zM2992 69q0 111 95 111q58 0 70 -50q4 -12 4 -42v-30h-136q1 -32 23 -56
q23 -20 50 -20t59 17v-31q-33 -16 -71 -16t-65 28q-29 36 -29 89zM2886 180q76 0 76 -92v-30h-137q1 -32 23 -54t50 -22t58 17h1v-31q-33 -16 -71 -16t-66 30t-28 87q0 111 94 111zM2412 -43v220h22l8 -25q22 28 53 28t36 -8l-11 -28q-21 8 -39 8t-36 -31v-164h-33zM2184 68
q0 112 86 112q40 0 54 -11q29 -23 29 -81v-30h-138q3 -36 25 -56t50 -20t58 17v-31q-32 -16 -70 -16t-66 28q-28 35 -28 88zM3884 104q0 34 22 56q24 20 54 20t47 -9q2 1 30 17q15 5 28 5l8 -27q-13 -1 -41 -15q13 -17 13 -45q-1 -28 -23 -52q-22 -22 -54 -22t-45 8
q-8 -7 -8 -18q0 -20 27 -20h42q87 0 87 -61q0 -34 -35 -61q-38 -26 -75 -26t-61 21q-22 23 -22 53t26 52l-14 17l-4 19q0 17 17 39q-19 15 -19 49zM5221 -48q-68 0 -68 86v108h-22v31h22v39l31 6h5v-45h59v-31h-59v-108q0 -56 39 -56q17 0 40 15l10 -31q-33 -14 -57 -14z
M3567 215q-21 1 -21 23t21 22q13 0 17 -8q8 -4 8 -14t-8 -16q-4 -7 -17 -7zM4981 69v-112h-33v301l31 5h2v-191l87 105h43l-91 -106q1 -8 33 -44t62 -47l-14 -28q-29 5 -75 55q-26 33 -29 37t-5 8q-2 2 -5 8q-6 6 -6 9zM3478 263v-306h-22l-5 20q-34 -25 -69 -25t-64 36
q-26 38 -26 86t29 73q27 33 83 33q20 0 41 -3v83l31 3h2zM3209 -43v303l31 3h2v-306h-33zM2604 263v-102q30 19 66 19t61 -33q26 -25 26 -79t-26 -80q-29 -36 -77 -36t-83 16v292l32 3h1zM575 649q52 -52 45 -192q-2 -61 -22 -141t-14 -155q11 -135 82 -212t91 -128t10 -69
q-19 24 -83 70q-65 46 -101 78q-69 60 -97 177t34 300q62 182 56 249zM3107 676q-71 0 -93 -7q-35 -5 -35 -37q0 -22 16 -36t42 -14t48 15t22 55v24zM2654 582q71 0 71 70v24q-71 0 -93 -7q-34 -5 -34 -37q0 -22 16 -36t40 -14zM5040 749q-12 81 -73 81q-29 0 -54 -22
t-29 -59h156zM4318 830q-67 0 -84 -81h156q-2 37 -22 59t-50 22zM3921 832q-112 0 -112 -121q0 -45 24 -81q25 -36 67 -36t81 25v205q-27 8 -60 8zM545 905q38 -123 -25 -214q-105 -154 -120 -270q-7 -46 -3 -141q5 -96 -3 -130t-30 -51q-11 -7 -13 -5t0 11q11 55 -10 104
q-30 72 -41 127q-23 118 56 275q16 27 65 87q121 146 124 207zM5384 913q145 0 145 -137v-257h-86v230q0 81 -89 81q-45 0 -84 -25v-286h-88v386h74l9 -29q53 37 119 37zM4790 712q0 94 50 148t125 53q79 -1 125 -61q30 -38 30 -114v-59h-236q9 -44 45 -64q29 -21 74 -21
t93 25h4v-86q-56 -22 -127 -22t-127 53q-56 54 -56 148zM4698 829q-37 0 -77 -27v-283h-87v386h73l10 -29q45 37 85 37q60 0 91 -14l-28 -89q-30 19 -67 19zM4236 679q20 -85 118 -85q42 0 94 25h3v-86q-55 -22 -125 -22t-128 53t-58 148t52 148t123 53q35 0 67 -11t61 -51
q28 -40 28 -113v-59h-235zM3564 749q0 81 -94 81q-42 0 -78 -25v-286h-89v386h73l10 -29q52 37 119 37q146 0 146 -137v-257h-87v230zM2893 636q0 107 121 107q59 0 93 -3v18q0 74 -76 74q-57 0 -102 -27l-22 75q68 35 135 35q151 0 151 -129v-145q0 -48 58 -58l-39 -72
q-54 0 -87 41q-39 -26 -56 -34t-49 -7q-78 0 -105 46q-22 25 -22 79zM2728 758q0 74 -89 74q-44 0 -91 -27l-22 75q68 35 135 35t109 -31t42 -98v-145q0 -48 58 -58l-41 -72q-51 0 -86 41q-55 -41 -104 -41q-127 0 -127 122q0 110 121 110q59 0 95 -3v18zM848 980
q-4 0 -6 -3q-12 -35 24 -53t60 -2q24 15 20 47q-6 1 -16 -3q-25 -9 -38 -12q-14 -3 -16 15q0 13 18 13t21 3q1 2 3 11t-1 11q-26 9 -37 0t-17 -16l-9 -9t-6 -2zM2200 1010h92l-172 -499h-102l-173 499h94l129 -380zM746 1019q148 36 220 -28q50 -45 46 -127q-2 -28 -9 -48
q-19 -6 -27 16t10 31q-10 21 -56 27t-66 12q-41 12 -71 64q-30 51 -47 53zM4070 1058v-539h-67l-16 28q-44 -36 -114 -36q-71 -1 -113 53t-42 146t58 151q56 52 149 52q37 0 56 -3v142l75 6h14zM2353 519v533l75 6h11v-539h-86zM268 656q0 -31 7 -45q-89 55 -71 147
q12 62 99 133q5 4 9 8q169 144 165 198l-4 10h8q25 0 39 -31q47 -76 -125 -219q-127 -104 -127 -201zM1195 80q-11 0 -61 10t-91 6q-109 -4 -137 -148q-6 -32 -4 -39q2 -6 42 -27t112 -42t139 -21v-120q-52 0 -108 25t-121 82t-78 93t-14 74t-6 100q-6 62 -24 104
q-18 41 -46 87t-34 60t-17 46q-12 34 -20 54t-21 79q-14 59 -24 115q-73 388 -110 495l-8 23q4 0 10 -2t47 -68t69 -182q28 -117 44 -181t28 -119q11 -55 19 -89q8 -33 50 -109q41 -76 53 -131t66 -90t123 -3q70 32 83 84q10 87 -53 117l-20 10q-49 23 -72 53q-47 62 -10 82
q13 6 39 -16t39 -22q14 -1 48 12t68 -14v-388zM261 966q-37 142 83 224l57 36q35 26 41 56q39 -127 -61 -188q-80 -52 -120 -128zM1964 -656l-11 -4l-763 2242l11 4z" />
    <glyph glyph-name="leeuw" unicode="vll&#x2a;" horiz-adv-x="1595" 
d="M674 664q52 -51 46 -191q-2 -61 -22 -142t-14 -155q12 -133 83 -211t90 -129t10 -69q-26 33 -77 66q-50 33 -82 60t-58 57q-56 64 -70 175q-14 112 44 282t52 235zM454 153q0 13 -3 34t-16 54q-21 51 -33 105q-28 129 54 281q16 28 65 87q121 146 124 207
q41 -122 -25 -214q-105 -156 -121 -272q-6 -44 -2 -140q5 -95 -4 -129t-25 -46t-17 -10q-2 2 0 16q3 14 3 27zM948 996q-4 0 -6 -3q-11 -35 25 -53q37 -18 61 -3t19 47q-6 1 -25 -5q-18 -7 -26 -9q-17 -4 -19 14q0 13 18 14q19 2 21 4t3 10q3 20 -33 12q-11 -5 -22 -16
q-12 -12 -16 -12zM847 1034q142 28 198 -11q75 -52 66 -153q-2 -23 -8 -39q-18 -5 -27 17t9 30q-10 23 -55 28q-46 4 -66 10q-43 12 -71 64q-30 52 -46 54zM368 672q0 -32 7 -46q-89 54 -71 147q13 62 99 133l9 8q169 144 166 199l-4 10l8 -1q24 0 38 -32q45 -77 -126 -217
q-126 -105 -126 -201zM1295 95q-11 -1 -61 9t-91 7q-119 -5 -140 -167q-2 -16 0 -20q1 -4 41 -26q40 -20 112 -42t139 -22v-121q-69 0 -141 43t-114 90q-42 48 -54 76q-11 28 -12 61t-6 100q-6 67 -24 109t-46 88t-34 60t-18 48t-20 52q-19 47 -71 324q-53 278 -83 365
l-9 23q3 0 9 -2t32 -41q59 -94 102 -270q6 -35 26 -111t31 -132q11 -54 19 -86t49 -109q42 -76 53 -130t65 -90t124 -4q93 43 85 121q-9 58 -55 80l-23 11q-47 23 -68 51q-48 63 -11 83q12 7 39 -15q26 -22 38 -23q15 -1 48 12q32 13 69 -14v-388zM361 981q-23 99 19 158
q28 38 45 52q32 25 49 33q61 33 67 74q29 -79 -13 -143q-18 -26 -48 -45q-81 -54 -119 -129z" />
    <glyph glyph-name=".notdef" horiz-adv-x="600" 
 />
    <glyph glyph-name=".null" horiz-adv-x="0" 
 />
    <glyph glyph-name="nonmarkingreturn" horiz-adv-x="682" 
 />
    <glyph glyph-name="CR" unicode="&#xd;" horiz-adv-x="0" 
 />
    <glyph glyph-name="space" unicode=" " horiz-adv-x="550" 
 />
    <glyph glyph-name="exclam" unicode="!" horiz-adv-x="437" 
d="M80 116q0 58 40 98t98 40t98 -40t41 -98q-1 -58 -41 -96q-40 -40 -98 -40t-98 40q-40 38 -40 96zM97 1428h244q0 -192 -9 -550t-19 -437h-189q-10 78 -18 434t-9 553z" />
    <glyph glyph-name="quotedbl" unicode="&#x22;" horiz-adv-x="855" 
d="M634 1448q54 0 98 -38t43 -123q-1 -86 -73 -185t-157 -145l-52 65q60 102 60 158t-53 132q0 56 40 96t94 40zM221 1448q53 0 97 -38t44 -123q0 -86 -72 -185t-158 -145l-52 65q60 102 60 158t-53 132q0 56 40 96t94 40z" />
    <glyph glyph-name="numbersign" unicode="#" horiz-adv-x="1313" 
d="M746 582l49 183h-199l-49 -183h199zM201 980h203l89 330l9 5l220 -80l-69 -255h200l89 330l9 5l220 -80l-69 -255h123l8 -8l-77 -207h-111l-49 -183h184l8 -8l-77 -207h-173l-88 -331l-10 -4l-220 80l68 255h-199l-88 -331l-10 -4l-220 80l68 255h-150l-9 9l76 206h141
l49 183h-212l-9 9z" />
    <glyph glyph-name="dollar" unicode="$" horiz-adv-x="964" 
d="M339 -149v129q-148 5 -271 58q0 114 6 202t13 94q76 22 162 15q19 -32 44 -144q36 -5 89 -5q135 0 218 48t83 122q0 115 -231 209q-36 15 -86 35t-74 30q-108 50 -180 136t-72 211t82 207t217 116v134h234v-111q129 -8 258 -41q-2 -297 -20 -312q-76 -22 -162 -15
q-22 37 -44 145q-54 4 -83 4q-241 0 -241 -121q0 -113 232 -211q37 -16 87 -35q50 -20 72 -30q112 -49 182 -137t70 -216t-99 -223t-252 -137v-157h-234z" />
    <glyph glyph-name="percent" unicode="%" horiz-adv-x="1707" 
d="M1157 314q0 -52 33 -87q34 -35 86 -35t86 36t35 88t-33 86q-34 36 -86 36t-86 -36t-35 -88zM950 314q0 142 93 238q93 98 237 98t234 -96t90 -238t-93 -239t-237 -97t-234 96t-90 238zM287 1002q0 -52 33 -87q34 -35 86 -35t86 36t35 88t-33 86q-34 36 -86 36t-86 -36
t-35 -88zM1097 1234l192 -135l-686 -977l-192 133zM80 1002q0 142 93 238q93 98 237 98t234 -96t90 -238t-93 -239t-237 -97t-234 96t-90 238z" />
    <glyph glyph-name="ampersand" unicode="&#x26;" horiz-adv-x="1205" 
d="M485 192q128 0 213 97l-279 278q-129 -78 -129 -200q0 -79 52 -127t143 -48zM377 1018q0 -76 80 -172q86 35 124 75q39 40 39 98q0 57 -40 83t-84 26q-79 0 -99 -38t-20 -72zM484 -20q-185 0 -302 104t-117 281q0 232 201 370q-106 129 -106 275t87 237t247 91t263 -101
q78 -76 78 -199t-67 -209t-165 -137l223 -224q53 126 81 292h8l188 -84q-36 -212 -113 -362l180 -180l-160 -154l-152 151q-153 -151 -374 -151z" />
    <glyph glyph-name="quotesingle" unicode="'" horiz-adv-x="437" 
d="M221 957q-53 -1 -97 37t-44 124t72 185t158 145l52 -65q-60 -101 -60 -157t53 -133q0 -55 -40 -95t-94 -41z" />
    <glyph glyph-name="parenleft" unicode="(" horiz-adv-x="594" 
d="M100 684q0 389 215 764h4l175 -98q-161 -333 -161 -663t161 -606l-178 -101h-4q-212 315 -212 704z" />
    <glyph glyph-name="parenright" unicode=")" horiz-adv-x="594" 
d="M261 687q0 330 -161 663l175 98h4q215 -375 215 -764t-212 -704h-4l-178 101q161 276 161 606z" />
    <glyph glyph-name="asterisk" unicode="*" horiz-adv-x="967" 
d="M483 463l84 54v90l-84 54l-83 -54v-90zM887 679v-234q-102 0 -209 12q68 -84 123 -170l-196 -127q-67 103 -122 217q-58 -120 -121 -217l-196 127q59 92 122 170q-107 -12 -208 -12v234q110 0 209 -11q-71 88 -123 169l196 127q64 -99 121 -215q53 109 122 215l196 -127
q-52 -81 -123 -169q98 11 209 11z" />
    <glyph glyph-name="plus" unicode="+" horiz-adv-x="1011" 
d="M398 630v318h215v-318h318v-215h-318v-318h-215v318h-318v215h318z" />
    <glyph glyph-name="comma" unicode="," horiz-adv-x="442" 
d="M221 254q53 0 97 -38t44 -123q0 -86 -72 -185t-158 -145l-52 65q60 102 60 158t-53 132q0 56 40 96t94 40z" />
    <glyph glyph-name="hyphen" unicode="-" horiz-adv-x="855" 
d="M775 630v-215h-695v215h695z" />
    <glyph glyph-name="period" unicode="." horiz-adv-x="437" 
d="M80 116q0 58 40 98t98 40t98 -40t41 -98q-1 -58 -41 -96q-40 -40 -98 -40t-98 40q-40 38 -40 96z" />
    <glyph glyph-name="slash" unicode="/" horiz-adv-x="1048" 
d="M928 1368l-588 -1614l-220 80l588 1614z" />
    <glyph glyph-name="zero" unicode="0" horiz-adv-x="1076" 
d="M304 667q0 -461 237 -461q115 0 173 108t58 349t-58 345t-177 104q-117 0 -175 -106t-58 -339zM536 -19q-106 1 -190 41q-153 74 -219 253q-67 179 -67 405q0 330 128 494t345 163q218 0 350 -163q133 -163 133 -519q-6 -503 -287 -634q-87 -40 -193 -40z" />
    <glyph glyph-name="one" unicode="1" horiz-adv-x="758" 
d="M658 94q0 -74 -15 -85q-18 -9 -186 -9h-92q-168 0 -186 9q-15 11 -15 85t9 91q47 16 121 27v838q-129 -46 -264 -46v220q198 0 338 94h160v-1106q72 -11 121 -27q9 -17 9 -91z" />
    <glyph glyph-name="two" unicode="2" horiz-adv-x="994" 
d="M673 927q0 188 -176 188q-79 0 -149 -19q-29 -157 -48 -188q-91 -9 -179 16q-7 6 -14 114t-7 185q78 49 195 82t205 33t160 -24t130 -68q58 -46 93 -120t35 -168q0 -184 -131 -360t-382 -373h333q23 97 39 124q86 7 162 -15q7 -6 13 -86t6 -149v-99h-913v225
q565 399 619 621q9 38 9 81z" />
    <glyph glyph-name="three" unicode="3" horiz-adv-x="967" 
d="M675 386q0 186 -318 186h-70v225h109q118 0 174 51t57 119t-43 107t-117 39t-139 -17q-29 -160 -49 -192q-91 -9 -179 16q-7 6 -14 114t-7 185q89 57 195 88t173 31q68 0 119 -9q52 -9 108 -33t100 -60t72 -95q28 -60 28 -135q0 -192 -170 -304q214 -75 214 -321
q0 -245 -208 -347q-189 -93 -465 -22q-124 32 -205 90q0 76 7 184t14 115q88 25 179 16q19 -33 48 -189q75 -22 169 -22t156 50t62 130z" />
    <glyph glyph-name="four" unicode="4" horiz-adv-x="1033" 
d="M618 492v416l-292 -416h292zM852 1318v-826h141v-225h-141v-267h-234v267h-578v225l578 826h234z" />
    <glyph glyph-name="five" unicode="5" horiz-adv-x="1082" 
d="M943 1318v-225h-550l-29 -269q243 -4 370 -46q127 -43 197 -132q71 -89 71 -221q0 -240 -137 -343t-330 -102q-126 0 -257 40t-228 105q0 77 7 185t14 114q88 25 179 16q20 -38 48 -188q130 -45 234 -45t163 50t59 142q0 121 -112 169t-362 48h-180l79 702h764z" />
    <glyph glyph-name="six" unicode="6" horiz-adv-x="1030" 
d="M523 588q-77 0 -195 -73q-3 -48 -3 -75q0 -114 59 -178q58 -64 144 -63q86 -1 132 61t46 145t-53 133t-130 50zM870 1338v-222q-258 0 -402 -156q-78 -84 -102 -191q90 38 194 38q162 0 276 -114t114 -271q0 -118 -59 -226q-71 -134 -209 -186q-78 -30 -175 -30
q-211 0 -319 136t-108 385q0 248 126 475q88 158 255 260q166 102 409 102z" />
    <glyph glyph-name="seven" unicode="7" horiz-adv-x="985" 
d="M30 1223v95h926l-532 -1318h-253l441 1093h-335q-28 -152 -47 -185q-91 -9 -179 16q-7 6 -14 114t-7 185z" />
    <glyph glyph-name="eight" unicode="8" horiz-adv-x="1059" 
d="M309 356q-1 -76 65 -120t155 -44t155 44t65 121q1 103 -153 179q-24 12 -67 32q-106 -50 -125 -65q-59 -45 -77 -76t-18 -71zM683 996q0 62 -46 96t-108 34t-108 -34t-46 -94q1 -62 41 -101t113 -71q75 33 115 71q40 37 39 99zM994 330q0 -78 -40 -148t-107 -113
q-139 -89 -318 -89q-263 0 -395 162q-68 84 -69 210q0 127 87 207q87 79 205 129q-109 56 -168 130t-59 182t58 185q113 153 341 153q159 0 279 -87t120 -266q0 -178 -226 -297q212 -92 268 -224q24 -56 24 -134z" />
    <glyph glyph-name="nine" unicode="9" horiz-adv-x="1030" 
d="M507 730q77 0 195 73q3 48 3 75q0 114 -59 178q-58 64 -144 63q-86 1 -132 -61t-46 -145t53 -133t130 -50zM160 202q258 0 402 156q78 84 102 191q-90 -38 -194 -38q-162 0 -276 114t-114 271q0 118 59 226q71 134 209 186q78 30 175 30q211 0 319 -136t108 -385
q0 -248 -126 -475q-88 -158 -255 -260q-166 -102 -409 -102v222z" />
    <glyph glyph-name="colon" unicode=":" horiz-adv-x="437" 
d="M80 116q0 58 40 98t98 40t98 -40t41 -98q-1 -58 -41 -96q-40 -40 -98 -40t-98 40q-40 38 -40 96zM80 920q0 58 40 98t98 40t98 -40t41 -98q-1 -58 -41 -96q-40 -40 -98 -40t-98 40q-40 38 -40 96z" />
    <glyph glyph-name="semicolon" unicode=";" horiz-adv-x="442" 
d="M221 254q53 0 97 -38t44 -123q0 -86 -72 -185t-158 -145l-52 65q60 102 60 158t-53 132q0 56 40 96t94 40zM85 920q0 58 40 98t98 40q59 0 99 -40t40 -98t-40 -96q-40 -40 -99 -40q-58 0 -98 40q-40 38 -40 96z" />
    <glyph glyph-name="less" unicode="&#x3c;" horiz-adv-x="1031" 
d="M911 789l-387 -271l386 -271l-133 -189l-657 460l658 459z" />
    <glyph glyph-name="equal" unicode="=" horiz-adv-x="1031" 
d="M941 429v-215h-851v215h851zM941 816v-215h-851v215h851z" />
    <glyph glyph-name="greater" unicode="&#x3e;" horiz-adv-x="1031" 
d="M254 58l-133 189l386 271l-387 271l133 188l658 -459z" />
    <glyph glyph-name="question" unicode="?" horiz-adv-x="907" 
d="M215 116q0 58 40 98t98 40q59 0 99 -40t40 -98t-40 -96q-40 -40 -99 -40q-58 0 -98 40q-40 38 -40 96zM415 1448q191 0 309 -81t118 -253q0 -124 -74 -216q-32 -40 -72 -79q-98 -97 -150 -181q-74 -119 -74 -304h-235q0 203 65 324t156 207q90 86 114 131t24 87
q0 73 -52 108t-124 35t-152 -32t-131 -84h-9l-78 168q54 70 156 120t209 50z" />
    <glyph glyph-name="at" unicode="@" horiz-adv-x="1413" 
d="M802 375q136 0 181 104q15 35 15 82v63q-185 1 -239 -9q-103 -20 -103 -108q0 -62 40 -97t106 -35zM720 -190q-130 0 -250 54t-211 146t-145 226q-54 133 -54 267t22 238q22 103 76 201t134 168q81 70 207 111q126 42 285 42q218 -1 347 -113q98 -86 98 -229v-386
q-1 -69 39 -104t115 -51l-106 -196q-135 0 -233 109q-116 -85 -194 -101q-38 -8 -86 -8t-91 8q-106 19 -179 94q-72 75 -72 224q0 150 82 222t282 72q121 0 213 -8v52q0 102 -56 148q-57 46 -147 46t-163 -15q-160 -33 -250 -153q-89 -120 -89 -337t124 -359t301 -143
q147 0 286 106l164 -149q-205 -182 -449 -182z" />
    <glyph glyph-name="A" unicode="A" horiz-adv-x="1427" 
d="M884 522l-170 494l-171 -494h341zM1407 94q0 -75 -15 -85q-18 -9 -186 -9h-92q-168 0 -186 9q-15 11 -15 85t9 91q32 11 72 18l-32 94h-496l-33 -94q41 -7 72 -18q9 -17 9 -91t-15 -85q-18 -9 -186 -9h-92q-168 0 -186 9q-15 11 -15 85t9 91q55 18 161 32l387 1121h274
l386 -1121q105 -14 161 -32q9 -16 9 -91z" />
    <glyph glyph-name="B" unicode="B" horiz-adv-x="1139" 
d="M394 199h67q254 0 319 46q64 46 64 134q0 114 -87 152q-87 37 -258 37h-105v-369zM394 793h15q179 0 221 11q82 22 106 57q25 35 25 84t-9 77t-32 45q-46 36 -114 44q-67 7 -190 7h-22v-325zM888 694q201 -82 201 -290q1 -236 -149 -320q-95 -53 -218 -69
q-123 -15 -293 -15h-198q-168 0 -186 9q-15 11 -15 85t9 91q47 16 121 27v894q-74 11 -121 27q-9 17 -9 91t15 85q18 9 186 9h273q292 0 397 -93t105 -269q0 -177 -118 -262z" />
    <glyph glyph-name="C" unicode="C" horiz-adv-x="1134" 
d="M762 1338q174 0 327 -41v-127q0 -78 -7 -184t-14 -112q-88 -25 -179 -16q-11 18 -31 102t-28 151q-13 1 -37 1q-125 0 -222 -38t-154 -104q-114 -130 -114 -312q1 -229 167 -358q121 -94 322 -94q151 0 289 41l8 -4v-222q-153 -41 -327 -41q-348 0 -525 194t-177 506
q6 284 176 466q84 90 218 141t308 51z" />
    <glyph glyph-name="D" unicode="D" horiz-adv-x="1358" 
d="M394 224h175q299 0 421 202q64 106 64 212t-32 182t-94 138q-60 62 -158 98t-219 37h-157v-869zM231 1318h366q157 0 290 -52t222 -141t139 -209t50 -250t-43 -247t-125 -211t-218 -151q-135 -57 -304 -57h-377q-168 0 -186 9q-15 11 -15 85t9 91q47 16 121 27v894
q-74 11 -121 27q-9 17 -9 91t15 85q18 9 186 9z" />
    <glyph glyph-name="E" unicode="E" horiz-adv-x="1023" 
d="M943 0h-712q-168 0 -186 9q-15 11 -15 85t9 91q47 16 121 27v894q-74 11 -121 27q-9 17 -9 91t15 85q18 9 186 9h712v-102q0 -70 -6 -148t-13 -84q-76 -22 -162 -15q-17 28 -39 124h-329v-325h187q20 70 31 88q86 7 162 -15q18 -69 18 -173t-18 -198q-76 -22 -162 -15
q-11 18 -31 88h-187v-318h329q23 97 39 124q86 7 162 -15q6 -6 12 -80t7 -142v-112z" />
    <glyph glyph-name="F" unicode="F" horiz-adv-x="1023" 
d="M822 668q0 -104 -18 -198q-76 -22 -162 -15q-11 18 -31 88h-217v-331q72 -11 121 -27q9 -17 9 -91t-15 -85q-18 -9 -186 -9h-92q-168 0 -186 9q-15 11 -15 85t9 91q47 16 121 27v894q-74 11 -121 27q-9 17 -9 91t15 85q18 9 186 9h742v-107q-1 -69 -7 -145t-12 -82
q-76 -22 -162 -15q-17 28 -39 124h-359v-325h217q20 70 31 88q86 7 162 -15q18 -69 18 -173z" />
    <glyph glyph-name="G" unicode="G" horiz-adv-x="1280" 
d="M798 1338q190 0 342 -42q-1 -396 -19 -412q-76 -22 -162 -15q-13 21 -35 109t-24 136q-38 3 -78 3q-244 0 -386 -112t-142 -328t112 -344t282 -128q169 0 270 95v229h-243v217h457l8 -8v-738h-121l-62 59q-139 -79 -317 -79t-325 90q-145 90 -225 244q-80 155 -80 360
t109 380q109 176 329 246q120 38 310 38z" />
    <glyph glyph-name="H" unicode="H" horiz-adv-x="1337" 
d="M323 0h-92q-168 0 -186 9q-15 11 -15 85t9 91q47 16 121 27v894q-74 11 -121 27q-9 17 -9 91t15 85q18 9 186 9h92q168 0 186 -9q15 -11 15 -85t-9 -91q-49 -16 -121 -27v-338h549v338q-74 11 -121 27q-9 17 -9 91t15 85q18 9 186 9h92q168 0 186 -9q15 -11 15 -85
t-9 -91q-49 -16 -121 -27v-894q72 -11 121 -27q9 -16 9 -91t-15 -85q-18 -9 -186 -9h-92q-168 0 -186 9q-15 11 -15 85t9 91q47 16 121 27v331h-549v-331q72 -11 121 -27q9 -17 9 -91t-15 -85q-18 -9 -186 -9z" />
    <glyph glyph-name="I" unicode="I" 
d="M231 1318h92q168 0 186 -9q15 -11 15 -85t-9 -91q-49 -16 -121 -27v-894q72 -11 121 -27q9 -17 9 -91t-15 -85q-18 -9 -186 -9h-92q-168 0 -186 9q-15 11 -15 85t9 91q47 16 121 27v894q-74 11 -121 27q-9 17 -9 91t15 85q18 9 186 9z" />
    <glyph glyph-name="J" unicode="J" horiz-adv-x="864" 
d="M541 1318h92q168 0 186 -9q15 -11 15 -85t-9 -91q-49 -16 -121 -27v-622q0 -270 -138 -387t-394 -117q-42 0 -142 41v67q0 64 7 142t14 85q84 24 191 16q12 -21 36 -117q96 20 144 94t48 243v555q-74 11 -121 27q-9 17 -9 91t15 85q18 9 186 9z" />
    <glyph glyph-name="K" unicode="K" horiz-adv-x="1259" 
d="M524 94q0 -74 -15 -85q-18 -9 -186 -9h-92q-168 0 -186 9q-15 11 -15 85t9 91q47 16 121 27v894q-74 11 -121 27q-9 17 -9 91t15 85q18 9 186 9h92q168 0 186 -9q15 -11 15 -85t-9 -91q-49 -16 -121 -27v-282l252 300l-29 9q-9 17 -9 91t15 85q18 9 186 9h92
q168 0 186 -9q15 -11 15 -85t-9 -91q-55 -19 -163 -33l-289 -344q27 -84 147 -220t250 -236q68 69 102 90q80 -36 149 -119q-11 -32 -77 -150t-84 -141q-64 0 -164 61q-195 120 -369 335q-90 111 -117 186l-84 -101v-249q72 -11 121 -27q9 -17 9 -91z" />
    <glyph glyph-name="L" unicode="L" horiz-adv-x="982" 
d="M943 0h-716q-164 0 -182 9q-15 11 -15 85t9 91q47 16 121 27v894q-74 11 -121 27q-9 17 -9 91t15 85q18 9 186 9h92q168 0 186 -9q15 -11 15 -85t-9 -91q-49 -16 -121 -27v-881h310q4 49 25 127t33 99q86 7 162 -15q7 -6 13 -86t6 -149v-201z" />
    <glyph glyph-name="M" unicode="M" horiz-adv-x="1436" 
d="M1205 0h-92q-168 0 -186 9q-15 11 -15 85t9 91q47 16 121 27v605l-213 -400h-222l-213 400v-605q72 -11 121 -27q9 -17 9 -91t-15 -85q-18 -9 -186 -9h-92q-168 0 -186 9q-15 11 -15 85t9 91q47 16 121 27v894q-74 11 -121 27q-9 17 -9 91t15 85q18 9 186 9h163v-2
l324 -609l324 609v2h163q168 0 186 -9q15 -11 15 -85t-9 -91q-49 -16 -121 -27v-894q72 -11 121 -27q9 -16 9 -91t-15 -85q-18 -9 -186 -9z" />
    <glyph glyph-name="N" unicode="N" horiz-adv-x="1336" 
d="M524 94q0 -74 -15 -85q-18 -9 -186 -9h-92q-168 0 -186 9q-15 11 -15 85t9 91q47 16 121 27v894q-74 11 -121 27q-9 17 -9 91t15 85q18 9 186 9h163l548 -877v665q-74 11 -121 27q-9 17 -9 91t15 85q18 9 186 9h92q168 0 186 -9q15 -11 15 -85t-9 -91q-49 -16 -121 -27
v-1106h-234l-548 876v-664q72 -11 121 -27q9 -17 9 -91z" />
    <glyph glyph-name="O" unicode="O" horiz-adv-x="1379" 
d="M694 205q188 1 290 123t101 322q-1 109 -35 199t-92 147q-119 118 -274 118t-273 -116q-117 -116 -117 -325t106 -339t294 -129zM60 660q0 190 80 344t226 244t330 90t327 -90t219 -243q76 -155 77 -345q0 -190 -79 -345t-225 -245t-330 -90q-183 0 -327 90t-221 244
q-77 156 -77 346z" />
    <glyph glyph-name="P" unicode="P" horiz-adv-x="1178" 
d="M394 649h148q276 1 334 131q17 38 17 90q0 108 -79 166t-272 57h-148v-444zM323 0h-92q-168 0 -186 9q-15 11 -15 85t9 91q47 16 121 27v894q-74 11 -121 27q-9 17 -9 91t15 85q18 9 186 9h307q433 0 553 -267q37 -81 37 -191t-50 -197t-134 -138q-167 -101 -406 -101
h-144v-212q72 -11 121 -27q9 -17 9 -91t-15 -85q-18 -9 -186 -9z" />
    <glyph glyph-name="Q" unicode="Q" horiz-adv-x="1379" 
d="M694 205q188 1 290 123t101 322q-1 109 -35 199t-92 147q-119 118 -274 118t-273 -116q-117 -116 -117 -325t106 -339t294 -129zM685 -20q-183 0 -327 90t-221 244t-77 346q0 190 80 344t226 244t330 90t327 -90t219 -243q76 -154 77 -352q-1 -197 -93 -361t-253 -245
q24 -21 72 -54q70 74 108 97q80 -36 149 -119q-10 -32 -76 -150t-85 -141q-93 20 -201 103t-191 200q-31 -3 -64 -3z" />
    <glyph glyph-name="R" unicode="R" horiz-adv-x="1321" 
d="M394 619h148q194 1 272 59t79 172q0 180 -182 226q-70 18 -169 17h-148v-474zM323 0h-92q-168 0 -186 9q-15 11 -15 85t9 91q47 16 121 27v894q-74 11 -121 27q-9 17 -9 91t15 85q18 9 186 9h307q297 0 458 -144q58 -52 95 -137t37 -194q0 -254 -226 -372
q36 -85 130 -180q74 78 110 99q80 -36 149 -119q-11 -32 -77 -150t-84 -141q-70 0 -146 43t-138 108q-130 139 -175 271q-57 -8 -133 -8h-144v-182q72 -11 121 -27q9 -17 9 -91t-15 -85q-18 -9 -186 -9z" />
    <glyph glyph-name="S" unicode="S" horiz-adv-x="964" 
d="M561 1338q118 0 270 -42q-2 -297 -20 -312q-76 -22 -162 -15q-22 37 -44 145q-54 4 -83 4q-241 0 -241 -121q0 -113 232 -211q37 -16 87 -35q50 -20 72 -30q112 -49 182 -137t70 -186t-34 -164q-61 -120 -211 -187q-151 -67 -314 -67t-297 58q0 114 6 202t13 94
q76 22 162 15q19 -32 44 -144q36 -5 89 -5q135 0 218 48t83 122q0 115 -231 209q-36 15 -86 35t-74 30q-108 50 -180 136t-72 192t43 176t116 110t159 60t203 20z" />
    <glyph glyph-name="T" unicode="T" horiz-adv-x="1114" 
d="M1074 1318v-199q0 -69 -6 -149t-13 -86q-76 -22 -162 -15q-12 19 -33 97t-25 127h-161v-881q72 -11 121 -27q9 -17 9 -91t-15 -85q-18 -9 -186 -9h-92q-168 0 -186 9q-15 11 -15 85t9 91q47 16 121 27v881h-162q-4 -49 -24 -126t-33 -98q-86 -7 -162 15q-7 6 -13 86
t-6 149v199h1034z" />
    <glyph glyph-name="U" unicode="U" horiz-adv-x="1406" 
d="M1083 1318h92q168 0 186 -9q15 -11 15 -85t-9 -91q-49 -16 -121 -27v-597q0 -270 -142 -399q-142 -130 -390 -130h-22q-429 0 -513 354q-19 80 -19 175v597q-74 11 -121 27q-9 17 -9 91t15 85q18 9 186 9h92q168 0 186 -9q15 -11 15 -85t-9 -91q-49 -16 -121 -27v-530
q0 -256 120 -328q70 -42 159 -43q91 0 135 9q103 21 153 104q51 83 51 258v530q-74 11 -121 27q-9 17 -9 91t15 85q18 9 186 9z" />
    <glyph glyph-name="V" unicode="V" horiz-adv-x="1432" 
d="M1109 1318h92q168 0 186 -9q15 -11 15 -85t-9 -91q-58 -19 -154 -31l-386 -1122h-274l-387 1122q-97 12 -153 31q-9 17 -9 91t15 85q18 9 186 9h92q168 0 186 -9q15 -11 15 -85t-9 -91q-26 -9 -79 -20l280 -811l279 811q-53 11 -78 20q-9 17 -9 91t15 85q18 9 186 9z" />
    <glyph glyph-name="W" unicode="W" horiz-adv-x="2059" 
d="M1736 1318h92q168 0 186 -9q15 -11 15 -85t-9 -91q-58 -19 -146 -30l-328 -1123h-259l-257 902l-257 -902h-259l-328 1122q-93 14 -147 31q-9 17 -9 91t15 85q18 9 186 9h92q168 0 186 -9q15 -11 15 -85t-9 -91q-34 -11 -84 -21l211 -721l264 927h248l264 -927l210 721
q-50 10 -84 21q-9 17 -9 91t15 85q18 9 186 9z" />
    <glyph glyph-name="X" unicode="X" horiz-adv-x="1346" 
d="M965 1318h92q168 0 186 -9q15 -11 15 -85t-9 -91q-63 -21 -180 -35l-256 -395l314 -484q115 -14 180 -34q9 -16 9 -91t-15 -85q-18 -9 -186 -9h-92q-168 0 -186 9q-15 11 -15 85t9 91q18 6 28 8l-189 291l-189 -290l34 -9q9 -17 9 -91t-15 -85q-18 -9 -186 -9h-92
q-168 0 -186 9q-15 11 -15 85t9 91q64 20 180 34l303 467l-269 412q-115 14 -177 35q-9 17 -9 91t15 85q18 9 186 9h92q168 0 186 -9q15 -11 15 -85t-9 -91q-2 -1 -32 -9l143 -221l143 220q-21 5 -33 10q-9 17 -9 91t15 85q18 9 186 9z" />
    <glyph glyph-name="Y" unicode="Y" horiz-adv-x="1252" 
d="M30 1224q0 74 15 85q18 9 186 9h92q168 0 186 -9q15 -11 15 -85t-9 -91q-29 -10 -68 -18l179 -352l179 352q-39 8 -68 18q-9 17 -9 91t15 85q18 9 186 9h92q168 0 186 -9q15 -11 15 -85t-9 -91q-57 -19 -153 -31l-316 -623v-267q72 -11 121 -27q9 -17 9 -91t-15 -85
q-18 -9 -186 -9h-92q-168 0 -186 9q-15 11 -15 85t9 91q47 16 121 27v265l-319 625q-96 12 -152 31q-9 17 -9 91z" />
    <glyph glyph-name="Z" unicode="Z" horiz-adv-x="1008" 
d="M958 0h-881l-27 27l543 1066h-303q-25 -101 -39 -124q-86 -7 -162 15q-7 6 -13 102t-6 232h871l15 -28l-543 -1065h325q23 97 39 124q86 7 162 -15q9 -9 14 -124q5 -116 5 -210z" />
    <glyph glyph-name="bracketleft" unicode="[" horiz-adv-x="680" 
d="M560 1448v-225h-206v-998h206v-225h-440v1448h440z" />
    <glyph glyph-name="backslash" unicode="\" horiz-adv-x="1048" 
d="M708 -246l-588 1614l220 80l588 -1614z" />
    <glyph glyph-name="bracketright" unicode="]" horiz-adv-x="680" 
d="M120 0v225h206v998h-206v225h440v-1448h-440z" />
    <glyph glyph-name="underscore" unicode="_" horiz-adv-x="872" 
d="M872 225v-225h-872v225h872z" />
    <glyph glyph-name="grave" unicode="`" horiz-adv-x="767" 
d="M192 1664q222 -197 495 -319q-3 -38 -21 -85t-32 -60q-156 30 -332 134t-222 173q8 50 40 93t72 64z" />
    <glyph glyph-name="a" unicode="a" horiz-adv-x="1051" 
d="M440 171q136 0 181 104q15 35 15 82v63q-185 1 -239 -9q-103 -20 -103 -108q0 -62 40 -97t106 -35zM480 1059q291 1 366 -209q21 -58 21 -133v-386q-1 -69 39 -104t115 -51l-106 -196q-135 0 -233 109q-116 -85 -194 -101q-38 -8 -86 -8t-91 8q-106 19 -179 94
q-72 75 -72 224q0 150 82 222t282 72q121 0 213 -8v52q0 102 -56 148t-147 46q-29 0 -66 -5q-9 -81 -20 -91t-76 -28q-65 -16 -96 -16q-19 7 -43 103q-23 95 -32 170l5 3q184 85 374 85z" />
    <glyph glyph-name="b" unicode="b" horiz-adv-x="1180" 
d="M610 833q-114 0 -216 -65v-535q94 -30 208 -30t185 94t71 222t-67 221t-181 93zM30 1304q0 75 9 93q69 23 169 37t150 14h36v-478q124 88 248 88q234 0 346 -148t112 -331q0 -182 -58 -312q-58 -131 -176 -209q-120 -78 -285 -78q-95 0 -213 25t-208 64v1145
q-108 4 -113 7q-17 8 -17 83z" />
    <glyph glyph-name="c" unicode="c" horiz-adv-x="965" 
d="M599 833q-37 0 -89 -17q-188 -62 -188 -295t198 -299q54 -18 116 -18q130 0 260 68l9 -3v-227q-127 -62 -266 -62t-235 34t-168 101q-72 65 -114 169t-42 233t42 233t112 170q148 138 370 138q174 0 301 -62q0 -76 -7 -184t-14 -115q-88 -25 -179 -16q-16 27 -41 150
q-28 2 -65 2z" />
    <glyph glyph-name="d" unicode="d" horiz-adv-x="1239" 
d="M569 205q113 0 217 64v549q-85 22 -166 22q-138 0 -218 -82t-80 -225q0 -142 67 -235t180 -93zM1020 1448v-1231q93 16 170 16q36 -69 6 -175q-8 -2 -65 -14q-175 -37 -245 -64h-32l-53 98q-131 -98 -279 -98q-108 0 -194 42t-139 111q-109 144 -109 343q0 290 153 436
t400 146q76 0 153 -10v166q-108 4 -114 7q-16 8 -16 83t9 93q71 23 171 37t149 14h35z" />
    <glyph glyph-name="e" unicode="e" horiz-adv-x="1048" 
d="M553 833q-75 0 -139 -55t-84 -161h419q-8 108 -64 162t-132 54zM963 588v-156h-630q27 -118 111 -173t206 -55q121 0 251 68l9 -3v-227q-128 -62 -266 -62t-234 34t-170 100t-117 170t-43 232t40 234q40 104 106 170q139 138 315 138q177 0 289 -103q134 -122 133 -367z
" />
    <glyph glyph-name="f" unicode="f" horiz-adv-x="666" 
d="M574 1223q-101 1 -138 -45t-41 -140h215v-225h-216v-601q72 -11 121 -27q9 -17 9 -91t-15 -85q-18 -9 -186 -9h-92q-168 0 -186 9q-15 11 -15 85t9 91q47 16 121 27v601h-130v225h130v4q0 250 164 350q93 56 222 56q62 0 146 -11t134 -28q0 -77 -7 -185t-14 -114
q-88 -25 -179 -16q-15 27 -37 129h-15z" />
    <glyph glyph-name="g" unicode="g" horiz-adv-x="1033" 
d="M299 -108q0 -67 50 -107t148 -40t169 51t71 122t-72 91t-194 20h-110q-62 -70 -62 -137zM468 852q-74 0 -118 -46t-44 -103q0 -58 44 -103t120 -45t117 44q42 45 42 103t-43 104t-118 46zM88 709q0 153 108 251t276 98q111 0 201 -48q65 48 138 76t127 29l24 -70h1
l40 -114l-5 -19q-87 -17 -174 -67q25 -63 25 -129q0 -150 -110 -258t-277 -108q-65 0 -119 16q-20 -30 -20 -60q1 -30 31 -48t85 -19h120q207 1 313 -87t106 -212t-80 -218t-202 -148q-122 -52 -252 -52q-174 0 -279 94t-105 237q0 63 33 134t91 130q-40 23 -62 71t-23 96
q0 88 75 181q-86 92 -86 244z" />
    <glyph glyph-name="h" unicode="h" horiz-adv-x="1249" 
d="M1219 94q0 -75 -15 -85q-18 -9 -186 -9h-92q-168 0 -186 9q-15 11 -15 85t9 91q47 16 121 27v408q-1 108 -67 160t-180 53q-114 0 -214 -64v-557q72 -11 121 -27q9 -17 9 -91t-15 -85q-18 -9 -186 -9h-92q-168 0 -186 9q-15 11 -15 85t9 91q47 16 121 27v1002
q-108 4 -114 7q-16 8 -16 83t9 93q71 23 171 37t149 14h35v-483q145 92 309 92t275 -89t111 -279v-477q72 -11 121 -27q9 -16 9 -91z" />
    <glyph glyph-name="i" unicode="i" 
d="M524 94q0 -74 -15 -85q-18 -9 -186 -9h-92q-168 0 -186 9q-15 11 -15 85t9 91q47 16 121 27v612q-108 4 -114 7q-16 8 -16 83t9 93q71 23 171 37t149 14h35v-846q72 -11 121 -27q9 -17 9 -91zM276 1174q-58 0 -98 40t-40 96q0 58 40 98t98 40t98 -40t41 -98
q-1 -58 -41 -96q-40 -40 -98 -40z" />
    <glyph glyph-name="j" unicode="j" horiz-adv-x="515" 
d="M384 1058v-1130q0 -303 -262 -384q-70 -22 -174 -22t-218 38q0 72 8 179t13 120q88 25 179 16q11 -20 38 -128q94 0 134 39t46 128q2 32 2 87v823q-108 4 -114 7q-16 8 -16 83t9 93q71 23 171 37t149 14h35zM128 1310q0 58 40 98t98 40t98 -40t41 -98q-1 -58 -41 -96
q-40 -40 -98 -40t-98 40q-40 38 -40 96z" />
    <glyph glyph-name="k" unicode="k" horiz-adv-x="1152" 
d="M524 94q0 -74 -15 -85q-18 -9 -186 -9h-92q-168 0 -186 9q-15 11 -15 85t9 91q47 16 121 27v1002q-108 4 -114 7q-16 8 -16 83t9 93q71 23 171 37t149 14h35v-856l205 243q-43 8 -71 18q-9 17 -9 91t15 85q18 9 186 9h97q168 0 186 -9q15 -11 15 -85t-9 -91
q-55 -18 -143 -30l-222 -263q39 -56 108 -131t141 -134q66 68 97 86q62 -27 132 -110q-10 -32 -76 -150t-85 -141q-146 8 -384 272q-58 64 -106 129l-77 -94v-75q72 -11 121 -27q9 -17 9 -91z" />
    <glyph glyph-name="l" unicode="l" 
d="M524 94q0 -74 -15 -85q-18 -9 -186 -9h-92q-168 0 -186 9q-15 11 -15 85t9 91q47 16 121 27v1002q-108 4 -114 7q-16 8 -16 83t9 93q71 23 171 37t149 14h35v-1236q72 -11 121 -27q9 -17 9 -91z" />
    <glyph glyph-name="m" unicode="m" horiz-adv-x="1711" 
d="M1681 94q0 -75 -15 -85q-18 -9 -186 -9h-92q-168 0 -186 9q-15 11 -15 85t9 91q47 16 121 27v414q1 106 -49 156t-132 51q-82 0 -170 -53q7 -46 7 -85v-483q72 -11 121 -27q9 -16 9 -91t-15 -85q-18 -9 -186 -9h-92q-168 0 -186 9q-15 11 -15 85t9 91q47 16 121 27v414
q1 106 -47 156t-128 51q-80 0 -169 -59v-562q72 -11 121 -27q9 -17 9 -91t-15 -85q-18 -9 -186 -9h-92q-168 0 -186 9q-15 11 -15 85t9 91q47 16 121 27v592q-109 4 -115 7q-16 8 -16 83t9 93q71 23 171 37t149 14l21 -73q131 93 286 93t242 -122q144 122 300 122t250 -94
q93 -94 93 -275v-477q72 -11 121 -27q9 -16 9 -91z" />
    <glyph glyph-name="n" unicode="n" horiz-adv-x="1250" 
d="M1219 94q0 -75 -15 -85q-18 -9 -186 -9h-92q-168 0 -186 9q-15 11 -15 85t9 91q47 16 121 27v164h1v244q0 108 -66 160t-180 53q-114 0 -215 -64v-519h-1v-38q72 -11 121 -27q9 -17 9 -91t-15 -85q-18 -9 -186 -9h-92q-168 0 -186 9q-15 11 -15 85t9 91q47 16 121 27v164
h1v428q-109 4 -115 7q-16 8 -16 83t9 93q71 23 171 37t149 14l23 -81q152 101 320 101t278 -90t110 -279v-447h-1v-30q72 -11 121 -27q9 -16 9 -91z" />
    <glyph glyph-name="o" unicode="o" horiz-adv-x="1178" 
d="M319 524q0 -138 71 -228t202 -91q130 0 198 85q68 84 68 224t-68 230t-200 89q-131 0 -201 -86q-70 -85 -70 -223zM80 515q0 153 65 277t183 194q118 72 266 72t264 -72t178 -193q62 -122 62 -273q0 -150 -64 -274t-182 -195t-267 -71q-225 0 -365 153t-140 382z" />
    <glyph glyph-name="p" unicode="p" horiz-adv-x="1180" 
d="M587 203q129 0 200 94t71 222t-67 221t-181 93t-216 -65v-529q96 -36 193 -36zM658 1058q108 0 194 -42t139 -111q109 -144 109 -326t-58 -312q-58 -131 -176 -209q-120 -78 -285 -78q-107 0 -187 29v-255q72 -11 121 -27q9 -16 9 -91t-15 -85q-18 -9 -186 -9h-92
q-168 0 -186 9q-15 11 -15 85t9 91q47 16 121 27v1050q-108 4 -114 7q-16 8 -16 83t9 93q71 23 171 37t149 14l21 -77q130 97 278 97z" />
    <glyph glyph-name="q" unicode="q" horiz-adv-x="1180" 
d="M569 205q113 0 217 64v549q-85 22 -166 22q-138 0 -218 -82t-80 -225q0 -142 67 -235t180 -93zM1150 -364q0 -75 -15 -85q-18 -9 -186 -9h-92q-168 0 -186 9q-15 11 -15 85t9 91q47 16 121 27v313q-124 -87 -248 -87q-233 0 -346 148q-112 148 -112 348q0 290 153 436
t388 146q234 0 399 -68v-1236q72 -11 121 -27q9 -16 9 -91z" />
    <glyph glyph-name="r" unicode="r" horiz-adv-x="903" 
d="M653 1058q137 0 210 -41q1 -79 -7 -197t-14 -123q-88 -25 -179 -16q-15 23 -41 151h-9q-111 0 -209 -76v-544q72 -11 121 -27q9 -17 9 -91t-15 -85q-18 -9 -186 -9h-92q-168 0 -186 9q-15 11 -15 85t9 91q47 16 121 27v612q-108 4 -114 7q-16 8 -16 83t9 93q71 23 168 37
t145 14l30 -105q124 105 261 105z" />
    <glyph glyph-name="s" unicode="s" horiz-adv-x="826" 
d="M355 203q72 -1 122 29t50 81t-24 79q-25 28 -63 42q-38 16 -84 30q-116 36 -180 82q-86 64 -86 203q0 228 222 291q64 18 137 18q139 0 297 -62q0 -76 -7 -184t-14 -115q-88 -25 -179 -16q-17 28 -43 161h-14q-71 0 -118 -24t-47 -60q0 -38 24 -60t62 -36t84 -28
q105 -33 183 -99q79 -65 79 -208q0 -176 -119 -261q-119 -86 -287 -86t-280 71q0 77 7 185t14 114q88 25 179 16q16 -31 43 -161q28 -2 42 -2z" />
    <glyph glyph-name="t" unicode="t" horiz-adv-x="866" 
d="M170 1038v260l204 20h30v-280h309v-225h-309v-354q0 -143 28 -188q28 -46 69 -56t83 -10h15q22 103 37 129q91 9 179 -16q7 -6 14 -114t7 -185q-50 -17 -134 -28t-146 -11t-117 13q-119 28 -194 124t-75 269v427h-130v225h130z" />
    <glyph glyph-name="u" unicode="u" horiz-adv-x="1282" 
d="M1089 1058v-837q77 12 144 12q36 -69 6 -175q-8 -2 -65 -14q-175 -37 -245 -64h-32l-30 101q-150 -101 -318 -101t-279 90q-110 90 -110 279v475q-108 4 -114 7q-16 8 -16 83t9 93q71 23 171 37t149 14h35v-640q0 -110 66 -162t178 -52t217 64v556q-108 4 -114 7
q-16 8 -16 83t9 93q70 23 170 37t150 14h35z" />
    <glyph glyph-name="v" unicode="v" horiz-adv-x="1216" 
d="M30 944q0 74 15 85q18 9 186 9h97q168 0 186 -9q15 -11 15 -85t-9 -91q-26 -9 -79 -20l163 -473h6l162 474q-47 8 -76 19q-9 17 -9 91t15 85q18 9 186 9h97q168 0 186 -9q15 -11 15 -85t-9 -91q-54 -18 -155 -32l-282 -821h-266l-283 822q-96 12 -152 31q-9 17 -9 91z
" />
    <glyph glyph-name="w" unicode="w" horiz-adv-x="1849" 
d="M1521 1038h97q168 0 186 -9q15 -11 15 -85t-9 -91q-58 -19 -154 -31l-276 -822h-257l-199 656l-198 -656h-257l-277 822q-97 12 -153 31q-9 17 -9 91t15 85q18 9 186 9h97q168 0 186 -9q15 -11 15 -85t-9 -91q-27 -10 -78 -20l157 -473h5l205 678h231l204 -678h6l157 473
q-53 11 -78 20q-9 17 -9 91t15 85q18 9 186 9z" />
    <glyph glyph-name="x" unicode="x" horiz-adv-x="1155" 
d="M924 0h-104q-168 0 -186 9q-15 11 -15 85t9 91l46 12l-97 137l-97 -136q23 -5 48 -13q9 -17 9 -91t-15 -85q-18 -9 -186 -9h-105q-168 0 -186 9q-15 11 -15 85t9 91q61 20 175 34l213 300l-212 300q-120 15 -176 34q-9 17 -9 91t15 85q18 9 186 9h105q168 0 186 -9
q15 -11 15 -85t-9 -91q-18 -6 -28 -8l79 -111l78 110l-29 9q-9 17 -9 91t15 85q18 9 186 9h104q168 0 186 -9q15 -11 15 -85t-9 -91q-71 -23 -199 -37l-2 -4v-4h-3l-186 -263l234 -329q99 -12 156 -31q9 -16 9 -91t-15 -85q-18 -9 -186 -9z" />
    <glyph glyph-name="y" unicode="y" horiz-adv-x="1256" 
d="M263 1038h97q168 0 186 -9q15 -11 15 -85t-9 -91q-26 -9 -79 -20l163 -473h6l168 474q-38 7 -74 19q-9 17 -9 91t15 85q18 9 186 9h97q168 0 186 -9q15 -11 15 -85t-9 -91q-54 -18 -155 -32l-276 -803q-76 -222 -208 -359t-274 -137t-274 71q0 77 7 185t14 114
q88 25 179 16q17 -30 42 -158q74 9 140 78t93 173l-282 821q-96 12 -152 31q-9 17 -9 91t15 85q18 9 186 9z" />
    <glyph glyph-name="z" unicode="z" horiz-adv-x="1048" 
d="M978 22v-22h-876l-27 17l496 796h-267q-22 -97 -34 -119q-91 -9 -179 16q-7 6 -14 114t-7 185v29h891l16 -16l-498 -797h267q20 87 32 109q91 9 179 -16q7 -6 14 -112t7 -184z" />
    <glyph glyph-name="braceleft" unicode="{" horiz-adv-x="799" 
d="M100 826h10q96 2 134 46t38 131v39q0 250 164 350q93 56 222 56h31v-225q-105 0 -143 -50t-39 -147v-23q0 -187 -94 -289q94 -102 94 -289v-23q1 -97 39 -147t143 -50v-225h-31q-204 0 -308 133q-78 100 -78 273v39q0 86 -38 130t-134 47h-10v224z" />
    <glyph glyph-name="bar" unicode="|" horiz-adv-x="494" 
d="M364 1448v-1718h-234v1718h234z" />
    <glyph glyph-name="braceright" unicode="}" horiz-adv-x="799" 
d="M699 602h-10q-97 -3 -135 -47t-37 -130v-39q0 -250 -164 -350q-93 -57 -222 -56h-31v225q106 0 144 50t38 147v23q0 187 94 289q-94 102 -94 289v23q0 97 -38 147t-144 50v225h31q204 0 308 -133q78 -100 78 -273v-39q-1 -87 37 -131t135 -46h10v-224z" />
    <glyph glyph-name="asciitilde" unicode="~" horiz-adv-x="1037" 
d="M384 503q-38 -1 -66 -25t-29 -70q-18 -2 -46 -2t-72 13t-71 38q14 105 88 183t185 78q45 0 92 -24t91 -48t86 -24q40 0 73 24t33 72q18 2 46 2t72 -13t71 -38q-13 -105 -94 -183t-193 -78q-44 0 -92 24t-91 48q-45 24 -83 23z" />
    <glyph glyph-name="exclamdown" unicode="&#xa1;" horiz-adv-x="437" 
d="M341 -410h-244q1 197 9 553t18 434h189q10 -79 19 -437t9 -550zM80 902q0 58 40 96q40 40 98 40t98 -40t41 -96q-1 -58 -41 -98t-98 -40t-98 40t-40 98z" />
    <glyph glyph-name="cent" unicode="&#xa2;" horiz-adv-x="965" 
d="M492 -150v141q-184 34 -298 170q-114 137 -114 357t114 358t298 172v160h234v-160q104 -15 179 -52q0 -76 -7 -184t-14 -115q-88 -25 -179 -16q-16 27 -41 150q-28 2 -65 2t-89 -17q-188 -62 -188 -295t198 -299q54 -18 116 -18q130 0 260 68l9 -3v-227q-77 -38 -179 -53
v-139h-234z" />
    <glyph glyph-name="sterling" unicode="&#xa3;" horiz-adv-x="1056" 
d="M639 1123q-89 -1 -143 -47t-54 -151q0 -57 14 -135h332v-215h-292q22 -119 22 -167q0 -103 -44 -183h283q4 49 25 127t33 99q86 7 162 -15q7 -6 13 -86t6 -149v-201h-956v225q134 -1 188 49t54 153q0 56 -19 148h-215v215h173q-13 80 -13 152q0 204 101 300t266 96
q77 0 177 -19t168 -49q0 -76 -7 -184t-14 -115q-88 -25 -179 -16q-18 29 -44 165q-16 3 -37 3z" />
    <glyph glyph-name="yen" unicode="&#xa5;" horiz-adv-x="1252" 
d="M30 1224q0 74 15 85q18 9 186 9h92q168 0 186 -9q15 -11 15 -85t-9 -91q-29 -10 -68 -18l179 -352l179 352q-39 8 -68 18q-9 17 -9 91t15 85q18 9 186 9h92q168 0 186 -9q15 -11 15 -85t-9 -91q-57 -19 -153 -31l-187 -369h179v-215h-289l-19 -39v-22h308v-215h-308v-30
q72 -11 121 -27q9 -17 9 -91t-15 -85q-18 -9 -186 -9h-92q-168 0 -186 9q-15 11 -15 85t9 91q47 16 121 27v30h-309v215h309v20l-21 41h-288v215h179l-189 369q-96 12 -152 31q-9 17 -9 91z" />
    <glyph glyph-name="brokenbar" unicode="&#xa6;" horiz-adv-x="494" 
d="M364 -270h-234v700h234v-700zM130 1448h234v-700h-234v700z" />
    <glyph glyph-name="section" unicode="&#xa7;" horiz-adv-x="1012" 
d="M759 356q1 56 -23 105t-61 83q-69 64 -191 137q-122 74 -191 150q-40 -63 -40 -119q-1 -56 23 -104t61 -82q74 -69 191 -139q117 -69 191 -149q40 62 40 118zM972 379q0 -86 -42 -178t-113 -164q5 -35 5 -65q0 -91 -38 -161t-102 -110q-129 -80 -301 -80q-108 0 -206 31
v211q113 -23 208 -23q214 0 214 123q-1 71 -71 129q-43 35 -125 86q-83 50 -129 82q-232 159 -232 421q0 95 42 187t113 164q-5 33 -5 65q0 91 38 161t102 110q129 80 301 80q108 0 206 -31v-211q-113 23 -208 23q-214 0 -214 -123q1 -72 71 -130q43 -35 125 -85
q83 -51 129 -83t88 -72q42 -42 74 -90t51 -115q19 -66 19 -152z" />
    <glyph glyph-name="dieresis" unicode="&#xa8;" horiz-adv-x="855" 
d="M498 1336q0 58 40 98t98 40t98 -40t41 -98q-1 -58 -41 -96q-40 -40 -98 -40t-98 40q-40 38 -40 96zM80 1336q0 58 40 98t98 40t98 -40t41 -98q-1 -58 -41 -96q-40 -40 -98 -40t-98 40q-40 38 -40 96z" />
    <glyph glyph-name="copyright" unicode="&#xa9;" horiz-adv-x="1604" 
d="M882 941q-125 1 -190 -69t-65 -164t65 -164t190 -71q76 0 168 23l4 -1v-184q-92 -23 -192 -23q-210 0 -321 118t-110 305t113 301t319 114q99 0 191 -23v-184l-4 -3q-100 25 -168 25zM806 1269q-238 0 -394 -161q-155 -161 -155 -397q-1 -237 151 -395q152 -159 392 -159
t392 161q154 161 154 395q0 235 -151 396q-151 160 -389 160zM80 710q0 152 53 287t151 237t232 158t292 56q317 0 519 -214q93 -100 145 -234t52 -285t-53 -286t-151 -237t-232 -158t-292 -56q-317 0 -516 212q-200 212 -200 520z" />
    <glyph glyph-name="guillemotleft" unicode="&#xab;" horiz-adv-x="1371" 
d="M1044 1460l203 -119l-361 -627l365 -628l-201 -119l-429 747zM543 1460l203 -119l-361 -627l365 -628l-201 -119l-429 747z" />
    <glyph glyph-name="registered" unicode="&#xae;" horiz-adv-x="1262" 
d="M547 918h28q113 0 149 18t35 62q1 42 -13 62q-30 44 -171 43h-28v-185zM414 1217h159q149 0 215 -35q104 -54 104 -179q0 -124 -118 -171q21 -40 64 -87t84 -71l4 -8l-109 -70q-57 28 -107 92t-71 118q-22 -2 -66 -2h-26v-200h-133v613zM223 908q0 -176 113 -296
q112 -120 292 -119t295 121t115 296t-112 295q-112 120 -292 120q-179 -1 -295 -121t-116 -296zM80 908q0 154 70 282t198 204t287 76q161 0 287 -76t193 -203t67 -281t-70 -283q-70 -127 -197 -203q-128 -76 -288 -76q-161 0 -287 76t-193 202q-67 128 -67 282z" />
    <glyph glyph-name="macron" unicode="&#xaf;" horiz-adv-x="842" 
d="M742 1338v-215h-642v215h642z" />
    <glyph glyph-name="degree" unicode="&#xb0;" horiz-adv-x="814" 
d="M271 1002q-1 -59 37 -99t98 -40t98 41q38 42 39 100t-37 98t-98 41q-60 0 -98 -41q-39 -41 -39 -100zM80 1002q0 142 93 238q93 98 237 98t234 -96t90 -238t-93 -239t-237 -97t-234 96t-90 238z" />
    <glyph glyph-name="plusminus" unicode="&#xb1;" horiz-adv-x="1011" 
d="M398 720v318h215v-318h318v-215h-318v-290h318v-215h-851v215h318v290h-318v215h318z" />
    <glyph glyph-name="acute" unicode="&#xb4;" horiz-adv-x="767" 
d="M575 1666q41 -22 73 -66t39 -92q-45 -69 -221 -173t-333 -135q-15 12 -31 60t-22 86q271 122 495 320z" />
    <glyph glyph-name="paragraph" unicode="&#xb6;" horiz-adv-x="1339" 
d="M296 912q0 -120 164 -123v289q-84 -18 -124 -62t-40 -104zM791 0v1082q-46 7 -97 9v-1091h-234v537q-206 10 -293 103t-87 253q0 348 372 424q98 20 203 20q206 1 367 -65t237 -180l-139 -145h-4q-32 33 -91 74v-1021h-234z" />
    <glyph glyph-name="periodcentered" unicode="&#xb7;" horiz-adv-x="437" 
d="M80 728q0 58 40 98t98 40t98 -40t41 -98q-1 -58 -41 -96q-40 -40 -98 -40t-98 40q-40 38 -40 96z" />
    <glyph glyph-name="cedilla" unicode="&#xb8;" horiz-adv-x="623" 
d="M405 -80q133 -48 133 -205q0 -81 -69 -137t-180 -56t-189 51q4 29 24 73t35 56q61 -26 129 -26t69 57q0 37 -53 59t-99 22v186h200v-80z" />
    <glyph glyph-name="guillemotright" unicode="&#xbb;" horiz-adv-x="1371" 
d="M621 86l364 628l-360 627l203 119l423 -746l-429 -747zM120 86l364 628l-360 627l203 119l423 -746l-429 -747z" />
    <glyph glyph-name="questiondown" unicode="&#xbf;" horiz-adv-x="907" 
d="M492 -478q-190 0 -308 81t-119 253q-1 124 73 216q32 40 72 79q100 97 152 181q74 119 73 304h235q0 -203 -65 -324t-156 -207q-90 -86 -114 -131t-24 -87q0 -73 52 -108t124 -35q71 0 151 32t132 84h9l78 -168q-53 -70 -155 -120t-210 -50zM692 854q0 -58 -40 -98
t-98 -40t-98 40t-41 98q1 58 41 96q40 40 98 40t98 -40q40 -38 40 -96z" />
    <glyph glyph-name="Agrave" unicode="&#xc0;" horiz-adv-x="1427" 
d="M884 522l-170 494l-171 -494h341zM1407 94q0 -75 -15 -85q-18 -9 -186 -9h-92q-168 0 -186 9q-15 11 -15 85t9 91q32 11 72 18l-32 94h-496l-33 -94q41 -7 72 -18q9 -17 9 -91t-15 -85q-18 -9 -186 -9h-92q-168 0 -186 9q-15 11 -15 85t9 91q55 18 161 32l387 1121h274
l386 -1121q105 -14 161 -32q9 -16 9 -91zM522 1872q222 -197 495 -319q-3 -38 -21 -85t-32 -60q-156 30 -332 134t-222 173q8 50 40 93t72 64z" />
    <glyph glyph-name="Aacute" unicode="&#xc1;" horiz-adv-x="1427" 
d="M884 522l-170 494l-171 -494h341zM1407 94q0 -75 -15 -85q-18 -9 -186 -9h-92q-168 0 -186 9q-15 11 -15 85t9 91q32 11 72 18l-32 94h-496l-33 -94q41 -7 72 -18q9 -17 9 -91t-15 -85q-18 -9 -186 -9h-92q-168 0 -186 9q-15 11 -15 85t9 91q55 18 161 32l387 1121h274
l386 -1121q105 -14 161 -32q9 -16 9 -91zM905 1874q41 -22 73 -66t39 -92q-45 -69 -221 -173t-333 -135q-15 12 -31 60t-22 86q271 122 495 320z" />
    <glyph glyph-name="Acircumflex" unicode="&#xc2;" horiz-adv-x="1427" 
d="M884 522l-170 494l-171 -494h341zM1407 94q0 -75 -15 -85q-18 -9 -186 -9h-92q-168 0 -186 9q-15 11 -15 85t9 91q32 11 72 18l-32 94h-496l-33 -94q41 -7 72 -18q9 -17 9 -91t-15 -85q-18 -9 -186 -9h-92q-168 0 -186 9q-15 11 -15 85t9 91q55 18 161 32l387 1121h274
l386 -1121q105 -14 161 -32q9 -16 9 -91zM710 1586q-146 -136 -375 -248q-15 12 -33 70t-21 98q225 120 426 315h11q205 -197 427 -315q-3 -40 -21 -98t-33 -70q-224 109 -376 248h-5z" />
    <glyph glyph-name="Atilde" unicode="&#xc3;" horiz-adv-x="1427" 
d="M884 522l-170 494l-171 -494h341zM1407 94q0 -75 -15 -85q-18 -9 -186 -9h-92q-168 0 -186 9q-15 11 -15 85t9 91q32 11 72 18l-32 94h-496l-33 -94q41 -7 72 -18q9 -17 9 -91t-15 -85q-18 -9 -186 -9h-92q-168 0 -186 9q-15 11 -15 85t9 91q55 18 161 32l387 1121h274
l386 -1121q105 -14 161 -32q9 -16 9 -91zM986 1720q26 0 72 -14q45 -14 73 -40q-13 -108 -87 -183t-180 -75q-104 0 -164 49q-59 49 -108 49q-48 0 -78 -24t-30 -72q-18 -2 -46 -2t-72 13t-71 38q13 105 87 183t186 78q50 0 94 -24t86 -50q42 -24 84 -24t76 24t34 72
q18 2 44 2z" />
    <glyph glyph-name="Adieresis" unicode="&#xc4;" horiz-adv-x="1427" 
d="M884 522l-170 494l-171 -494h341zM1407 94q0 -75 -15 -85q-18 -9 -186 -9h-92q-168 0 -186 9q-15 11 -15 85t9 91q32 11 72 18l-32 94h-496l-33 -94q41 -7 72 -18q9 -17 9 -91t-15 -85q-18 -9 -186 -9h-92q-168 0 -186 9q-15 11 -15 85t9 91q55 18 161 32l387 1121h274
l386 -1121q105 -14 161 -32q9 -16 9 -91zM784 1544q0 58 40 98t98 40t98 -40t41 -98q-1 -58 -41 -96q-40 -40 -98 -40t-98 40q-40 38 -40 96zM366 1544q0 58 40 98t98 40t98 -40t41 -98q-1 -58 -41 -96q-40 -40 -98 -40t-98 40q-40 38 -40 96z" />
    <glyph glyph-name="Aring" unicode="&#xc5;" horiz-adv-x="1427" 
d="M884 522l-170 494l-171 -494h341zM713 1574q-25 0 -45 -20t-20 -45t20 -45t45 -20q26 0 46 20t20 45t-20 45t-46 20zM1407 94q0 -75 -15 -85q-18 -9 -186 -9h-92q-168 0 -186 9q-15 11 -15 85t9 91q32 11 72 18l-32 94h-496l-33 -94q41 -7 72 -18q9 -17 9 -91t-15 -85
q-18 -9 -186 -9h-92q-168 0 -186 9q-15 11 -15 85t9 91q55 18 161 32l387 1121q-84 68 -84 164t65 160q64 64 154 64t156 -64t66 -160t-85 -164h2l386 -1121q105 -14 161 -32q9 -16 9 -91z" />
    <glyph glyph-name="AE" unicode="&#xc6;" horiz-adv-x="1736" 
d="M892 498l-178 518l-179 -518h357zM1505 668q0 -104 -18 -198q-76 -22 -162 -15q-11 18 -31 88h-169l109 -318h202q23 97 39 124q86 7 162 -15q17 -17 19 -334h-542q-168 0 -186 9q-15 11 -15 85t9 91q32 11 72 18l-24 70h-512l-24 -70q40 -8 71 -18q9 -17 9 -91t-15 -85
q-18 -9 -186 -9h-92q-168 0 -186 9q-15 11 -15 85t9 91q55 18 161 32l380 1101h1086q0 -136 -6 -232t-13 -102q-76 -22 -162 -15q-17 28 -39 124h-501l112 -325h247q20 70 31 88q86 7 162 -15q18 -69 18 -173z" />
    <glyph glyph-name="Ccedilla" unicode="&#xc7;" horiz-adv-x="1134" 
d="M846 -80q133 -48 133 -205q0 -81 -69 -137t-180 -56t-189 51q3 29 23 73t36 56q62 -26 130 -26t68 57q0 37 -53 59t-99 22v172q-286 32 -436 218t-150 476q6 284 176 466q84 90 218 141t308 51t327 -41v-127q0 -78 -7 -184t-14 -112q-88 -25 -179 -16q-11 18 -31 102
t-28 151q-13 1 -37 1q-125 0 -222 -38t-154 -104q-114 -130 -114 -312q1 -229 167 -358q121 -94 322 -94q151 0 289 41l8 -4v-222q-107 -28 -243 -38v-63z" />
    <glyph glyph-name="Egrave" unicode="&#xc8;" horiz-adv-x="1023" 
d="M943 0h-712q-168 0 -186 9q-15 11 -15 85t9 91q47 16 121 27v894q-74 11 -121 27q-9 17 -9 91t15 85q18 9 186 9h712v-102q0 -70 -6 -148t-13 -84q-76 -22 -162 -15q-17 28 -39 124h-329v-325h187q20 70 31 88q86 7 162 -15q18 -69 18 -173t-18 -198q-76 -22 -162 -15
q-11 18 -31 88h-187v-318h329q23 97 39 124q86 7 162 -15q6 -6 12 -80t7 -142v-112zM277 1872q222 -197 495 -319q-4 -38 -22 -85t-31 -60q-156 30 -332 134t-222 173q7 50 39 93t73 64z" />
    <glyph glyph-name="Eacute" unicode="&#xc9;" horiz-adv-x="1023" 
d="M943 0h-712q-168 0 -186 9q-15 11 -15 85t9 91q47 16 121 27v894q-74 11 -121 27q-9 17 -9 91t15 85q18 9 186 9h712v-102q0 -70 -6 -148t-13 -84q-76 -22 -162 -15q-17 28 -39 124h-329v-325h187q20 70 31 88q86 7 162 -15q18 -69 18 -173t-18 -198q-76 -22 -162 -15
q-11 18 -31 88h-187v-318h329q23 97 39 124q86 7 162 -15q6 -6 12 -80t7 -142v-112zM743 1874q41 -22 73 -66t39 -92q-45 -69 -221 -173t-333 -135q-15 12 -31 60t-22 86q271 122 495 320z" />
    <glyph glyph-name="Ecircumflex" unicode="&#xca;" horiz-adv-x="1023" 
d="M943 0h-712q-168 0 -186 9q-15 11 -15 85t9 91q47 16 121 27v894q-74 11 -121 27q-9 17 -9 91t15 85q18 9 186 9h712v-102q0 -70 -6 -148t-13 -84q-76 -22 -162 -15q-17 28 -39 124h-329v-325h187q20 70 31 88q86 7 162 -15q18 -69 18 -173t-18 -198q-76 -22 -162 -15
q-11 18 -31 88h-187v-318h329q23 97 39 124q86 7 162 -15q6 -6 12 -80t7 -142v-112zM506 1656q-146 -136 -375 -248q-15 12 -33 70t-21 98q225 120 426 315h11q205 -197 427 -315q-3 -40 -21 -98t-33 -70q-224 109 -376 248h-5z" />
    <glyph glyph-name="Edieresis" unicode="&#xcb;" horiz-adv-x="1023" 
d="M943 0h-712q-168 0 -186 9q-15 11 -15 85t9 91q47 16 121 27v894q-74 11 -121 27q-9 17 -9 91t15 85q18 9 186 9h712v-102q0 -70 -6 -148t-13 -84q-76 -22 -162 -15q-17 28 -39 124h-329v-325h187q20 70 31 88q86 7 162 -15q18 -69 18 -173t-18 -198q-76 -22 -162 -15
q-11 18 -31 88h-187v-318h329q23 97 39 124q86 7 162 -15q6 -6 12 -80t7 -142v-112zM587 1584q0 58 40 98t98 40q59 0 99 -40t40 -98t-40 -96q-40 -40 -99 -40q-58 0 -98 40q-40 38 -40 96zM169 1584q0 58 40 98t98 40q59 0 99 -40t40 -98t-40 -96q-40 -40 -99 -40
q-58 0 -98 40q-40 38 -40 96z" />
    <glyph glyph-name="Igrave" unicode="&#xcc;" 
d="M231 1318h92q168 0 186 -9q15 -11 15 -85t-9 -91q-49 -16 -121 -27v-894q72 -11 121 -27q9 -17 9 -91t-15 -85q-18 -9 -186 -9h-92q-168 0 -186 9q-15 11 -15 85t9 91q47 16 121 27v894q-74 11 -121 27q-9 17 -9 91t15 85q18 9 186 9zM86 1872q222 -197 495 -319
q-3 -38 -21 -85t-32 -60q-156 30 -332 134t-222 173q8 50 40 93t72 64z" />
    <glyph glyph-name="Iacute" unicode="&#xcd;" 
d="M231 1318h92q168 0 186 -9q15 -11 15 -85t-9 -91q-49 -16 -121 -27v-894q72 -11 121 -27q9 -17 9 -91t-15 -85q-18 -9 -186 -9h-92q-168 0 -186 9q-15 11 -15 85t9 91q47 16 121 27v894q-74 11 -121 27q-9 17 -9 91t15 85q18 9 186 9zM475 1874q41 -22 73 -66t39 -92
q-45 -69 -221 -173t-333 -135q-15 12 -31 60t-22 86q271 122 495 320z" />
    <glyph glyph-name="Icircumflex" unicode="&#xce;" 
d="M231 1318h92q168 0 186 -9q15 -11 15 -85t-9 -91q-49 -16 -121 -27v-894q72 -11 121 -27q9 -17 9 -91t-15 -85q-18 -9 -186 -9h-92q-168 0 -186 9q-15 11 -15 85t9 91q47 16 121 27v894q-74 11 -121 27q-9 17 -9 91t15 85q18 9 186 9zM274 1586q-146 -136 -375 -248
q-15 12 -33 70t-21 98q225 120 426 315h11q205 -197 427 -315q-3 -40 -21 -98t-33 -70q-224 109 -376 248h-5z" />
    <glyph glyph-name="Idieresis" unicode="&#xcf;" 
d="M231 1318h92q168 0 186 -9q15 -11 15 -85t-9 -91q-49 -16 -121 -27v-894q72 -11 121 -27q9 -17 9 -91t-15 -85q-18 -9 -186 -9h-92q-168 0 -186 9q-15 11 -15 85t9 91q47 16 121 27v894q-74 11 -121 27q-9 17 -9 91t15 85q18 9 186 9zM348 1544q0 58 40 98t98 40t98 -40
t41 -98q-1 -58 -41 -96q-40 -40 -98 -40t-98 40q-40 38 -40 96zM-70 1544q0 58 40 98t98 40t98 -40t41 -98q-1 -58 -41 -96q-40 -40 -98 -40t-98 40q-40 38 -40 96z" />
    <glyph glyph-name="Eth" unicode="&#xd0;" horiz-adv-x="1368" 
d="M404 764h173v-214h-173v-326h175q299 0 421 202q64 106 64 212t-32 182t-94 138q-60 62 -158 98t-219 37h-157v-329zM170 764v342q-74 11 -121 27q-9 17 -9 91t15 85q18 9 186 9h366q157 0 290 -52t222 -141t139 -209t50 -250t-43 -247t-125 -211t-218 -151
q-135 -57 -304 -57h-377q-168 0 -186 9q-15 11 -15 85t9 91q47 16 121 27v338h-123v214h123z" />
    <glyph glyph-name="Ntilde" unicode="&#xd1;" horiz-adv-x="1336" 
d="M524 94q0 -74 -15 -85q-18 -9 -186 -9h-92q-168 0 -186 9q-15 11 -15 85t9 91q47 16 121 27v894q-74 11 -121 27q-9 17 -9 91t15 85q18 9 186 9h163l548 -877v665q-74 11 -121 27q-9 17 -9 91t15 85q18 9 186 9h92q168 0 186 -9q15 -11 15 -85t-9 -91q-49 -16 -121 -27
v-1106h-234l-548 876v-664q72 -11 121 -27q9 -17 9 -91zM928 1720q26 0 72 -14q45 -14 73 -40q-13 -108 -87 -183t-180 -75q-104 0 -164 49q-59 49 -108 49q-48 0 -78 -24t-30 -72q-18 -2 -46 -2t-72 13t-71 38q13 105 87 183t186 78q50 0 94 -24t86 -50q42 -24 84 -24
t76 24t34 72q18 2 44 2z" />
    <glyph glyph-name="Ograve" unicode="&#xd2;" horiz-adv-x="1379" 
d="M694 205q188 1 290 123t101 322q-1 109 -35 199t-92 147q-119 118 -274 118t-273 -116q-117 -116 -117 -325t106 -339t294 -129zM60 660q0 190 80 344t226 244t330 90t327 -90t219 -243q76 -155 77 -345q0 -190 -79 -345t-225 -245t-330 -90q-183 0 -327 90t-221 244
q-77 156 -77 346zM532 1872q222 -197 495 -319q-3 -38 -21 -85t-32 -60q-156 30 -332 134t-222 173q8 50 40 93t72 64z" />
    <glyph glyph-name="Oacute" unicode="&#xd3;" horiz-adv-x="1379" 
d="M694 205q188 1 290 123t101 322q-1 109 -35 199t-92 147q-119 118 -274 118t-273 -116q-117 -116 -117 -325t106 -339t294 -129zM60 660q0 190 80 344t226 244t330 90t327 -90t219 -243q76 -155 77 -345q0 -190 -79 -345t-225 -245t-330 -90q-183 0 -327 90t-221 244
q-77 156 -77 346zM881 1874q41 -22 73 -66t39 -92q-45 -69 -221 -173t-333 -135q-15 12 -31 60t-22 86q271 122 495 320z" />
    <glyph glyph-name="Ocircumflex" unicode="&#xd4;" horiz-adv-x="1379" 
d="M694 205q188 1 290 123t101 322q-1 109 -35 199t-92 147q-119 118 -274 118t-273 -116q-117 -116 -117 -325t106 -339t294 -129zM60 660q0 190 80 344t226 244t330 90t327 -90t219 -243q76 -155 77 -345q0 -190 -79 -345t-225 -245t-330 -90q-183 0 -327 90t-221 244
q-77 156 -77 346zM705 1586q-146 -136 -375 -248q-15 12 -33 70t-21 98q225 120 426 315h11q205 -197 427 -315q-3 -40 -21 -98t-33 -70q-224 109 -376 248h-5z" />
    <glyph glyph-name="Otilde" unicode="&#xd5;" horiz-adv-x="1379" 
d="M694 205q188 1 290 123t101 322q-1 109 -35 199t-92 147q-119 118 -274 118t-273 -116q-117 -116 -117 -325t106 -339t294 -129zM60 660q0 190 80 344t226 244t330 90t327 -90t219 -243q76 -155 77 -345q0 -190 -79 -345t-225 -245t-330 -90q-183 0 -327 90t-221 244
q-77 156 -77 346zM962 1720q26 0 72 -14q45 -14 73 -40q-13 -108 -87 -183t-180 -75q-104 0 -164 49q-59 49 -108 49q-48 0 -78 -24t-30 -72q-18 -2 -46 -2t-72 13t-71 38q13 105 87 183t186 78q50 0 94 -24t86 -50q42 -24 84 -24t76 24t34 72q18 2 44 2z" />
    <glyph glyph-name="Odieresis" unicode="&#xd6;" horiz-adv-x="1379" 
d="M694 205q188 1 290 123t101 322q-1 109 -35 199t-92 147q-119 118 -274 118t-273 -116q-117 -116 -117 -325t106 -339t294 -129zM60 660q0 190 80 344t226 244t330 90t327 -90t219 -243q76 -155 77 -345q0 -190 -79 -345t-225 -245t-330 -90q-183 0 -327 90t-221 244
q-77 156 -77 346zM770 1544q0 58 40 98t98 40t98 -40t41 -98q-1 -58 -41 -96q-40 -40 -98 -40t-98 40q-40 38 -40 96zM352 1544q0 58 40 98t98 40t98 -40t41 -98q-1 -58 -41 -96q-40 -40 -98 -40t-98 40q-40 38 -40 96z" />
    <glyph glyph-name="multiply" unicode="&#xd7;" horiz-adv-x="953" 
d="M476 674l225 225l152 -152l-225 -225l225 -224l-152 -152l-225 224l-224 -224l-152 152l224 224l-224 225l152 152z" />
    <glyph glyph-name="Oslash" unicode="&#xd8;" horiz-adv-x="1379" 
d="M1085 652q0 202 -119 334l-284 -781h14q186 1 288 123t101 324zM294 656q0 -118 44 -222t129 -163l303 832q-46 11 -104 11t-127 -29t-124 -83t-88 -141t-33 -205zM60 654q0 196 80 350t226 244t330 90q81 0 153 -18l47 128l211 -76l-53 -145q126 -89 196 -238t69 -334
q0 -185 -79 -340t-225 -245t-330 -90q-38 0 -83 5l-62 -171l-211 76l59 162q-154 83 -241 244q-87 162 -87 358z" />
    <glyph glyph-name="Ugrave" unicode="&#xd9;" horiz-adv-x="1406" 
d="M1083 1318h92q168 0 186 -9q15 -11 15 -85t-9 -91q-49 -16 -121 -27v-597q0 -270 -142 -399q-142 -130 -390 -130h-22q-429 0 -513 354q-19 80 -19 175v597q-74 11 -121 27q-9 17 -9 91t15 85q18 9 186 9h92q168 0 186 -9q15 -11 15 -85t-9 -91q-49 -16 -121 -27v-530
q0 -256 120 -328q70 -42 159 -43q91 0 135 9q103 21 153 104q51 83 51 258v530q-74 11 -121 27q-9 17 -9 91t15 85q18 9 186 9zM460 1872q222 -197 495 -319q-3 -38 -21 -85t-32 -60q-156 30 -332 134t-222 173q8 50 40 93t72 64z" />
    <glyph glyph-name="Uacute" unicode="&#xda;" horiz-adv-x="1406" 
d="M1083 1318h92q168 0 186 -9q15 -11 15 -85t-9 -91q-49 -16 -121 -27v-597q0 -270 -142 -399q-142 -130 -390 -130h-22q-429 0 -513 354q-19 80 -19 175v597q-74 11 -121 27q-9 17 -9 91t15 85q18 9 186 9h92q168 0 186 -9q15 -11 15 -85t-9 -91q-49 -16 -121 -27v-530
q0 -256 120 -328q70 -42 159 -43q91 0 135 9q103 21 153 104q51 83 51 258v530q-74 11 -121 27q-9 17 -9 91t15 85q18 9 186 9zM905 1874q41 -22 73 -66t39 -92q-45 -69 -221 -173t-333 -135q-15 12 -31 60t-22 86q271 122 495 320z" />
    <glyph glyph-name="Ucircumflex" unicode="&#xdb;" horiz-adv-x="1406" 
d="M1083 1318h92q168 0 186 -9q15 -11 15 -85t-9 -91q-49 -16 -121 -27v-597q0 -270 -142 -399q-142 -130 -390 -130h-22q-429 0 -513 354q-19 80 -19 175v597q-74 11 -121 27q-9 17 -9 91t15 85q18 9 186 9h92q168 0 186 -9q15 -11 15 -85t-9 -91q-49 -16 -121 -27v-530
q0 -256 120 -328q70 -42 159 -43q91 0 135 9q103 21 153 104q51 83 51 258v530q-74 11 -121 27q-9 17 -9 91t15 85q18 9 186 9zM700 1656q-146 -136 -375 -248q-15 12 -33 70t-21 98q225 120 426 315h11q205 -197 427 -315q-3 -40 -21 -98t-33 -70q-224 109 -376 248h-5z
" />
    <glyph glyph-name="Udieresis" unicode="&#xdc;" horiz-adv-x="1406" 
d="M1083 1318h92q168 0 186 -9q15 -11 15 -85t-9 -91q-49 -16 -121 -27v-597q0 -270 -142 -399q-142 -130 -390 -130h-22q-429 0 -513 354q-19 80 -19 175v597q-74 11 -121 27q-9 17 -9 91t15 85q18 9 186 9h92q168 0 186 -9q15 -11 15 -85t-9 -91q-49 -16 -121 -27v-530
q0 -256 120 -328q70 -42 159 -43q91 0 135 9q103 21 153 104q51 83 51 258v530q-74 11 -121 27q-9 17 -9 91t15 85q18 9 186 9zM756 1544q0 58 40 98t98 40t98 -40t41 -98q-1 -58 -41 -96q-40 -40 -98 -40t-98 40q-40 38 -40 96zM338 1544q0 58 40 98t98 40t98 -40t41 -98
q-1 -58 -41 -96q-40 -40 -98 -40t-98 40q-40 38 -40 96z" />
    <glyph glyph-name="Yacute" unicode="&#xdd;" horiz-adv-x="1252" 
d="M30 1224q0 74 15 85q18 9 186 9h92q168 0 186 -9q15 -11 15 -85t-9 -91q-29 -10 -68 -18l179 -352l179 352q-39 8 -68 18q-9 17 -9 91t15 85q18 9 186 9h92q168 0 186 -9q15 -11 15 -85t-9 -91q-57 -19 -153 -31l-316 -623v-267q72 -11 121 -27q9 -17 9 -91t-15 -85
q-18 -9 -186 -9h-92q-168 0 -186 9q-15 11 -15 85t9 91q47 16 121 27v265l-319 625q-96 12 -152 31q-9 17 -9 91zM862 1874q41 -22 73 -66t39 -92q-45 -69 -221 -173t-333 -135q-16 12 -32 60t-21 86q271 122 495 320z" />
    <glyph glyph-name="Thorn" unicode="&#xde;" horiz-adv-x="1148" 
d="M394 487h148q220 0 306 77q46 41 45 85q0 77 -78 130q-78 52 -273 52h-148v-344zM394 1056h144q294 0 458 -124q132 -100 132 -281q0 -95 -50 -171t-133 -122q-173 -96 -407 -96h-144v-50q72 -11 121 -27q9 -17 9 -91t-15 -85q-18 -9 -186 -9h-92q-168 0 -186 9
q-15 11 -15 85t9 91q47 16 121 27v894q-74 11 -121 27q-9 17 -9 91t15 85q18 9 186 9h92q168 0 186 -9q15 -11 15 -85t-9 -91q-49 -16 -121 -27v-50z" />
    <glyph glyph-name="germandbls" unicode="&#xdf;" horiz-adv-x="1285" 
d="M783 756q0 -36 24 -57q24 -23 62 -37t84 -28q108 -34 185 -99t77 -208q0 -176 -119 -261q-119 -86 -278 -86t-269 71q0 77 7 185t14 114q88 25 179 16q18 -35 43 -163h22q72 -1 122 29t50 81t-24 79t-62 42q-38 16 -86 30q-116 36 -178 82q-86 64 -87 203q0 97 44 167
t120 101t94 64q9 17 9 37q0 52 -58 78t-138 27q-78 0 -116 -10t-60 -26q-50 -36 -50 -218v-757q72 -11 121 -27q9 -17 9 -91t-15 -85q-18 -9 -186 -9h-92q-168 0 -186 9q-15 11 -15 85t9 91q47 16 121 27v612q-108 4 -114 7q-16 8 -16 83t9 93q58 18 121 28v7q0 406 410 406
q225 0 365 -96q52 -36 87 -96q35 -61 35 -121t-8 -94q-7 -34 -27 -63q-20 -30 -37 -50t-51 -44t-54 -36q-21 -12 -59 -34t-38 -58z" />
    <glyph glyph-name="agrave" unicode="&#xe0;" horiz-adv-x="1051" 
d="M440 171q136 0 181 104q15 35 15 82v63q-185 1 -239 -9q-103 -20 -103 -108q0 -62 40 -97t106 -35zM480 1059q291 1 366 -209q21 -58 21 -133v-386q-1 -69 39 -104t115 -51l-106 -196q-135 0 -233 109q-116 -85 -194 -101q-38 -8 -86 -8t-91 8q-106 19 -179 94
q-72 75 -72 224q0 150 82 222t282 72q121 0 213 -8v52q0 102 -56 148t-147 46q-29 0 -66 -5q-9 -81 -20 -91t-76 -28q-65 -16 -96 -16q-19 7 -43 103q-23 95 -32 170l5 3q184 85 374 85zM317 1664q222 -197 495 -319q-4 -38 -22 -85t-31 -60q-156 30 -332 134t-222 173
q7 50 39 93t73 64z" />
    <glyph glyph-name="aacute" unicode="&#xe1;" horiz-adv-x="1051" 
d="M440 171q136 0 181 104q15 35 15 82v63q-185 1 -239 -9q-103 -20 -103 -108q0 -62 40 -97t106 -35zM480 1059q291 1 366 -209q21 -58 21 -133v-386q-1 -69 39 -104t115 -51l-106 -196q-135 0 -233 109q-116 -85 -194 -101q-38 -8 -86 -8t-91 8q-106 19 -179 94
q-72 75 -72 224q0 150 82 222t282 72q121 0 213 -8v52q0 102 -56 148t-147 46q-29 0 -66 -5q-9 -81 -20 -91t-76 -28q-65 -16 -96 -16q-19 7 -43 103q-23 95 -32 170l5 3q184 85 374 85zM666 1666q41 -22 73 -66t39 -92q-45 -69 -221 -173t-333 -135q-16 12 -32 60t-21 86
q271 122 495 320z" />
    <glyph glyph-name="acircumflex" unicode="&#xe2;" horiz-adv-x="1051" 
d="M440 171q136 0 181 104q15 35 15 82v63q-185 1 -239 -9q-103 -20 -103 -108q0 -62 40 -97t106 -35zM480 1059q291 1 366 -209q21 -58 21 -133v-386q-1 -69 39 -104t115 -51l-106 -196q-135 0 -233 109q-116 -85 -194 -101q-38 -8 -86 -8t-91 8q-106 19 -179 94
q-72 75 -72 224q0 150 82 222t282 72q121 0 213 -8v52q0 102 -56 148t-147 46q-29 0 -66 -5q-9 -81 -20 -91t-76 -28q-65 -16 -96 -16q-19 7 -43 103q-23 95 -32 170l5 3q184 85 374 85zM482 1425q-146 -136 -375 -248q-15 13 -33 71t-21 97q225 120 426 315h11
q205 -197 427 -315q-3 -39 -21 -97t-33 -71q-224 109 -376 248h-5z" />
    <glyph glyph-name="atilde" unicode="&#xe3;" horiz-adv-x="1051" 
d="M440 171q136 0 181 104q15 35 15 82v63q-185 1 -239 -9q-103 -20 -103 -108q0 -62 40 -97t106 -35zM480 1059q291 1 366 -209q21 -58 21 -133v-386q-1 -69 39 -104t115 -51l-106 -196q-135 0 -233 109q-116 -85 -194 -101q-38 -8 -86 -8t-91 8q-106 19 -179 94
q-72 75 -72 224q0 150 82 222t282 72q121 0 213 -8v52q0 102 -56 148t-147 46q-29 0 -66 -5q-9 -81 -20 -91t-76 -28q-65 -16 -96 -16q-19 7 -43 103q-23 95 -32 170l5 3q184 85 374 85zM774 1506q26 0 71 -14t73 -40q-14 -108 -88 -183t-179 -75t-165 49q-59 49 -107 49
q-49 0 -79 -24t-29 -72q-18 -2 -46 -2t-72 13t-71 38q14 105 88 183t185 78q49 0 93 -24t87 -50q43 -24 85 -24t76 24t33 72q19 2 45 2z" />
    <glyph glyph-name="adieresis" unicode="&#xe4;" horiz-adv-x="1051" 
d="M440 171q136 0 181 104q15 35 15 82v63q-185 1 -239 -9q-103 -20 -103 -108q0 -62 40 -97t106 -35zM480 1059q291 1 366 -209q21 -58 21 -133v-386q-1 -69 39 -104t115 -51l-106 -196q-135 0 -233 109q-116 -85 -194 -101q-38 -8 -86 -8t-91 8q-106 19 -179 94
q-72 75 -72 224q0 150 82 222t282 72q121 0 213 -8v52q0 102 -56 148t-147 46q-29 0 -66 -5q-9 -81 -20 -91t-76 -28q-65 -16 -96 -16q-19 7 -43 103q-23 95 -32 170l5 3q184 85 374 85zM559 1336q0 58 40 98t98 40q59 0 99 -40t40 -98t-40 -96q-40 -40 -99 -40
q-58 0 -98 40q-40 38 -40 96zM141 1336q0 58 40 98t98 40q59 0 99 -40t40 -98t-40 -96q-40 -40 -99 -40q-58 0 -98 40q-40 38 -40 96z" />
    <glyph glyph-name="aring" unicode="&#xe5;" horiz-adv-x="1051" 
d="M440 171q136 0 181 104q15 35 15 82v63q-185 1 -239 -9q-103 -20 -103 -108q0 -62 40 -97t106 -35zM480 1059q291 1 366 -209q21 -58 21 -133v-386q-1 -69 39 -104t115 -51l-106 -196q-135 0 -233 109q-116 -85 -194 -101q-38 -8 -86 -8t-91 8q-106 19 -179 94
q-72 75 -72 224q0 150 82 222t282 72q121 0 213 -8v52q0 102 -56 148t-147 46q-29 0 -66 -5q-9 -81 -20 -91t-76 -28q-65 -16 -96 -16q-19 7 -43 103q-23 95 -32 170l5 3q184 85 374 85zM418 1411q0 -25 20 -45t45 -20q26 0 46 20t20 45t-20 45t-46 20q-25 0 -45 -20
t-20 -45zM263 1411q0 89 65 153q64 64 154 64t156 -64t66 -153q0 -87 -66 -153t-156 -66t-154 65q-65 65 -65 154z" />
    <glyph glyph-name="ae" unicode="&#xe6;" horiz-adv-x="1577" 
d="M636 357v63q-185 1 -239 -9q-103 -20 -103 -108q0 -62 40 -97t106 -35q136 0 181 104q15 35 15 82zM1107 833q-75 0 -139 -55t-84 -161h419q-8 108 -64 162t-132 54zM494 1059q204 0 304 -122q129 121 301 121q173 0 285 -103q134 -122 133 -367v-156h-630
q27 -118 111 -173t206 -55q121 0 251 68l9 -3v-227q-127 -62 -295 -62q-249 0 -398 157q-57 -71 -151 -114t-218 -43q-250 0 -320 190q-22 60 -22 141q0 145 82 217t282 72q121 0 213 -8v52q0 102 -56 148t-147 46q-29 0 -66 -5q-9 -81 -20 -91t-76 -28q-65 -16 -96 -16
q-19 7 -43 103q-23 95 -32 170l5 3q184 85 388 85z" />
    <glyph glyph-name="ccedilla" unicode="&#xe7;" horiz-adv-x="965" 
d="M711 -80q133 -48 133 -205q0 -81 -69 -137t-180 -56t-189 51q4 29 24 73t35 56q61 -26 129 -26t69 57q0 37 -53 59t-99 22v173q-191 30 -311 167t-120 363q0 129 42 233t112 170q148 138 370 138q174 0 301 -62q0 -76 -7 -184t-14 -115q-88 -25 -179 -16q-16 27 -41 150
q-28 2 -65 2t-89 -17q-188 -62 -188 -295t198 -299q54 -18 116 -18q130 0 260 68l9 -3v-227q-86 -42 -194 -55v-67z" />
    <glyph glyph-name="egrave" unicode="&#xe8;" horiz-adv-x="1023" 
d="M553 833q-75 0 -139 -55t-84 -161h419q-8 108 -64 162t-132 54zM963 588v-156h-630q27 -118 111 -173t206 -55q121 0 251 68l9 -3v-227q-128 -62 -266 -62t-234 34t-170 100t-117 170t-43 232t40 234q40 104 106 170q139 138 315 138q177 0 289 -103q134 -122 133 -367z
M368 1664q222 -197 495 -319q-3 -38 -21 -85t-32 -60q-156 30 -332 134t-222 173q8 50 40 93t72 64z" />
    <glyph glyph-name="eacute" unicode="&#xe9;" horiz-adv-x="1023" 
d="M553 833q-75 0 -139 -55t-84 -161h419q-8 108 -64 162t-132 54zM963 588v-156h-630q27 -118 111 -173t206 -55q121 0 251 68l9 -3v-227q-128 -62 -266 -62t-234 34t-170 100t-117 170t-43 232t40 234q40 104 106 170q139 138 315 138q177 0 289 -103q134 -122 133 -367z
M743 1666q41 -22 73 -66t39 -92q-45 -69 -221 -173t-333 -135q-15 12 -31 60t-22 86q271 122 495 320z" />
    <glyph glyph-name="ecircumflex" unicode="&#xea;" horiz-adv-x="1023" 
d="M553 833q-75 0 -139 -55t-84 -161h419q-8 108 -64 162t-132 54zM963 588v-156h-630q27 -118 111 -173t206 -55q121 0 251 68l9 -3v-227q-128 -62 -266 -62t-234 34t-170 100t-117 170t-43 232t40 234q40 104 106 170q139 138 315 138q177 0 289 -103q134 -122 133 -367z
M556 1425q-146 -136 -375 -248q-15 13 -33 71t-21 97q225 120 426 315h11q205 -197 427 -315q-3 -39 -21 -97t-33 -71q-224 109 -376 248h-5z" />
    <glyph glyph-name="edieresis" unicode="&#xeb;" horiz-adv-x="1023" 
d="M553 833q-75 0 -139 -55t-84 -161h419q-8 108 -64 162t-132 54zM963 588v-156h-630q27 -118 111 -173t206 -55q121 0 251 68l9 -3v-227q-128 -62 -266 -62t-234 34t-170 100t-117 170t-43 232t40 234q40 104 106 170q139 138 315 138q177 0 289 -103q134 -122 133 -367z
M634 1336q0 58 40 98t98 40t98 -40t41 -98q-1 -58 -41 -96q-40 -40 -98 -40t-98 40q-40 38 -40 96zM216 1336q0 58 40 98t98 40t98 -40t41 -98q-1 -58 -41 -96q-40 -40 -98 -40t-98 40q-40 38 -40 96z" />
    <glyph glyph-name="igrave" unicode="&#xec;" 
d="M524 94q0 -74 -15 -85q-18 -9 -186 -9h-92q-168 0 -186 9q-15 11 -15 85t9 91q47 16 121 27v612q-108 4 -114 7q-16 8 -16 83t9 93q71 23 171 37t149 14h35v-846q72 -11 121 -27q9 -17 9 -91zM52 1564q222 -197 495 -319q-3 -38 -21 -85t-32 -60q-156 30 -332 134
t-222 173q8 50 40 93t72 64z" />
    <glyph glyph-name="iacute" unicode="&#xed;" 
d="M524 94q0 -74 -15 -85q-18 -9 -186 -9h-92q-168 0 -186 9q-15 11 -15 85t9 91q47 16 121 27v612q-108 4 -114 7q-16 8 -16 83t9 93q71 23 171 37t149 14h35v-846q72 -11 121 -27q9 -17 9 -91zM404 1584q41 -22 73 -66t39 -92q-45 -69 -221 -173t-333 -135q-16 12 -32 60
t-21 86q271 122 495 320z" />
    <glyph glyph-name="icircumflex" unicode="&#xee;" 
d="M524 94q0 -74 -15 -85q-18 -9 -186 -9h-92q-168 0 -186 9q-15 11 -15 85t9 91q47 16 121 27v612q-108 4 -114 7q-16 8 -16 83t9 93q71 23 171 37t149 14h35v-846q72 -11 121 -27q9 -17 9 -91zM259 1325q-146 -136 -375 -248q-15 13 -33 71t-21 97q225 120 426 315h11
q205 -197 427 -315q-3 -39 -21 -97t-33 -71q-224 109 -376 248h-5z" />
    <glyph glyph-name="idieresis" unicode="&#xef;" 
d="M524 94q0 -74 -15 -85q-18 -9 -186 -9h-92q-168 0 -186 9q-15 11 -15 85t9 91q47 16 121 27v612q-108 4 -114 7q-16 8 -16 83t9 93q71 23 171 37t149 14h35v-846q72 -11 121 -27q9 -17 9 -91zM325 1336q0 58 40 98t98 40q59 0 99 -40t40 -98t-40 -96q-40 -40 -99 -40
q-58 0 -98 40q-40 38 -40 96zM-93 1336q0 58 40 98t98 40q59 0 99 -40t40 -98t-40 -96q-40 -40 -99 -40q-58 0 -98 40q-40 38 -40 96z" />
    <glyph glyph-name="eth" unicode="&#xf0;" horiz-adv-x="1138" 
d="M310 498q0 -134 67 -214q67 -79 195 -79t192 74q64 75 63 211q0 136 -65 214q-64 78 -192 79t-194 -75t-66 -210zM1025 1418q65 0 128 -17q0 -73 -7 -149t-14 -82q-88 -25 -179 -16q-6 10 -20 46l-95 -35q104 -107 162 -277t58 -347q0 -271 -133 -416t-355 -145t-356 141
t-134 370t138 373t354 144q68 0 112 -16q-27 43 -80 90l-251 -92q-72 -27 -136 -27t-127 17q0 72 7 148t14 83q88 25 179 16q6 -12 19 -46l106 39q-90 57 -167 92l111 176q71 -26 173 -80t151 -95l207 78q70 27 135 27z" />
    <glyph glyph-name="ntilde" unicode="&#xf1;" horiz-adv-x="1250" 
d="M1090 689v-477q72 -11 121 -27q9 -16 9 -91t-15 -85q-18 -9 -186 -9h-92q-168 0 -186 9q-15 11 -15 85t9 91q68 5 121 12v423q0 108 -66 160t-180 53q-114 0 -215 -64v-557q72 -11 121 -27q9 -17 9 -91t-15 -85q-18 -9 -186 -9h-92q-168 0 -186 9q-15 11 -15 85t9 91
q68 5 121 12v607q-109 4 -115 7q-16 8 -16 83t9 93q71 23 171 37t149 14l23 -81q152 101 320 101t278 -90t110 -279zM898 1506q26 0 72 -14q45 -14 73 -40q-13 -108 -87 -183t-180 -75q-104 0 -164 49q-59 49 -108 49q-48 0 -78 -24t-30 -72q-18 -2 -46 -2t-72 13t-71 38
q13 105 87 183t186 78q50 0 94 -24t86 -50q42 -24 84 -24t76 24t34 72q18 2 44 2z" />
    <glyph glyph-name="ograve" unicode="&#xf2;" horiz-adv-x="1178" 
d="M319 524q0 -138 71 -228t202 -91q130 0 198 85q68 84 68 224t-68 230t-200 89q-131 0 -201 -86q-70 -85 -70 -223zM80 515q0 153 65 277t183 194q118 72 266 72t264 -72t178 -193q62 -122 62 -273q0 -150 -64 -274t-182 -195t-267 -71q-225 0 -365 153t-140 382z
M412 1664q222 -197 495 -319q-3 -38 -21 -85t-32 -60q-156 30 -332 134t-222 173q8 50 40 93t72 64z" />
    <glyph glyph-name="oacute" unicode="&#xf3;" horiz-adv-x="1178" 
d="M319 524q0 -138 71 -228t202 -91q130 0 198 85q68 84 68 224t-68 230t-200 89q-131 0 -201 -86q-70 -85 -70 -223zM80 515q0 153 65 277t183 194q118 72 266 72t264 -72t178 -193q62 -122 62 -273q0 -150 -64 -274t-182 -195t-267 -71q-225 0 -365 153t-140 382z
M780 1666q41 -22 73 -66t39 -92q-45 -69 -221 -173t-333 -135q-16 12 -32 60t-21 86q271 122 495 320z" />
    <glyph glyph-name="ocircumflex" unicode="&#xf4;" horiz-adv-x="1178" 
d="M319 524q0 -138 71 -228t202 -91q130 0 198 85q68 84 68 224t-68 230t-200 89q-131 0 -201 -86q-70 -85 -70 -223zM80 515q0 153 65 277t183 194q118 72 266 72t264 -72t178 -193q62 -122 62 -273q0 -150 -64 -274t-182 -195t-267 -71q-225 0 -365 153t-140 382z
M593 1425q-146 -136 -375 -248q-15 13 -33 71t-21 97q225 120 426 315h11q205 -197 427 -315q-3 -39 -21 -97t-33 -71q-224 109 -376 248h-5z" />
    <glyph glyph-name="otilde" unicode="&#xf5;" horiz-adv-x="1178" 
d="M319 524q0 -138 71 -228t202 -91q130 0 198 85q68 84 68 224t-68 230t-200 89q-131 0 -201 -86q-70 -85 -70 -223zM80 515q0 153 65 277t183 194q118 72 266 72t264 -72t178 -193q62 -122 62 -273q0 -150 -64 -274t-182 -195t-267 -71q-225 0 -365 153t-140 382z
M862 1506q26 0 72 -14q45 -14 73 -40q-13 -108 -87 -183t-180 -75q-104 0 -164 49q-59 49 -108 49q-48 0 -78 -24t-30 -72q-18 -2 -46 -2t-72 13t-71 38q13 105 87 183t186 78q50 0 94 -24t86 -50q42 -24 84 -24t76 24t34 72q18 2 44 2z" />
    <glyph glyph-name="odieresis" unicode="&#xf6;" horiz-adv-x="1178" 
d="M319 524q0 -138 71 -228t202 -91q130 0 198 85q68 84 68 224t-68 230t-200 89q-131 0 -201 -86q-70 -85 -70 -223zM80 515q0 153 65 277t183 194q118 72 266 72t264 -72t178 -193q62 -122 62 -273q0 -150 -64 -274t-182 -195t-267 -71q-225 0 -365 153t-140 382z
M659 1336q0 58 40 98t98 40q59 0 99 -40t40 -98t-40 -96q-40 -40 -99 -40q-58 0 -98 40q-40 38 -40 96zM241 1336q0 58 40 98t98 40q59 0 99 -40t40 -98t-40 -96q-40 -40 -99 -40q-58 0 -98 40q-40 38 -40 96z" />
    <glyph glyph-name="divide" unicode="&#xf7;" horiz-adv-x="1091" 
d="M404 116q0 58 40 98t98 40t98 -40t41 -98q-1 -58 -41 -96q-40 -40 -98 -40t-98 40q-40 38 -40 96zM971 630v-215h-851v215h851zM404 920q0 58 40 98t98 40t98 -40t41 -98q-1 -58 -41 -96q-40 -40 -98 -40t-98 40q-40 38 -40 96z" />
    <glyph glyph-name="oslash" unicode="&#xf8;" horiz-adv-x="1178" 
d="M858 510q0 132 -57 218l-191 -523q120 5 184 89t64 216zM319 516q0 -144 81 -233l200 549l-11 1q-130 0 -200 -86q-70 -87 -70 -231zM80 517q0 151 65 275t183 194q118 72 266 72q37 0 86 -7l69 190l211 -76l-73 -199q99 -72 155 -189t56 -263t-64 -268
q-64 -124 -182 -195t-267 -71q-29 0 -56 3l-61 -169l-211 76l59 163q-112 69 -174 191t-62 273z" />
    <glyph glyph-name="ugrave" unicode="&#xf9;" horiz-adv-x="1282" 
d="M1089 1058v-837q77 12 144 12q36 -69 6 -175q-8 -2 -65 -14q-175 -37 -245 -64h-32l-30 101q-150 -101 -318 -101t-279 90q-110 90 -110 279v475q-108 4 -114 7q-16 8 -16 83t9 93q71 23 171 37t149 14h35v-640q0 -110 66 -162t178 -52t217 64v556q-108 4 -114 7
q-16 8 -16 83t9 93q70 23 170 37t150 14h35zM412 1664q222 -197 495 -319q-3 -38 -21 -85t-32 -60q-156 30 -332 134t-222 173q8 50 40 93t72 64z" />
    <glyph glyph-name="uacute" unicode="&#xfa;" horiz-adv-x="1282" 
d="M1089 1058v-837q77 12 144 12q36 -69 6 -175q-8 -2 -65 -14q-175 -37 -245 -64h-32l-30 101q-150 -101 -318 -101t-279 90q-110 90 -110 279v475q-108 4 -114 7q-16 8 -16 83t9 93q71 23 171 37t149 14h35v-640q0 -110 66 -162t178 -52t217 64v556q-108 4 -114 7
q-16 8 -16 83t9 93q70 23 170 37t150 14h35zM847 1666q41 -22 73 -66t39 -92q-45 -69 -221 -173t-333 -135q-15 12 -31 60t-22 86q271 122 495 320z" />
    <glyph glyph-name="ucircumflex" unicode="&#xfb;" horiz-adv-x="1282" 
d="M1089 1058v-837q77 12 144 12q36 -69 6 -175q-8 -2 -65 -14q-175 -37 -245 -64h-32l-30 101q-150 -101 -318 -101t-279 90q-110 90 -110 279v475q-108 4 -114 7q-16 8 -16 83t9 93q71 23 171 37t149 14h35v-640q0 -110 66 -162t178 -52t217 64v556q-108 4 -114 7
q-16 8 -16 83t9 93q70 23 170 37t150 14h35zM624 1425q-146 -136 -375 -248q-15 13 -33 71t-21 97q225 120 426 315h11q205 -197 427 -315q-3 -39 -21 -97t-33 -71q-224 109 -376 248h-5z" />
    <glyph glyph-name="udieresis" unicode="&#xfc;" horiz-adv-x="1282" 
d="M1089 1058v-837q77 12 144 12q36 -69 6 -175q-8 -2 -65 -14q-175 -37 -245 -64h-32l-30 101q-150 -101 -318 -101t-279 90q-110 90 -110 279v475q-108 4 -114 7q-16 8 -16 83t9 93q71 23 171 37t149 14h35v-640q0 -110 66 -162t178 -52t217 64v556q-108 4 -114 7
q-16 8 -16 83t9 93q70 23 170 37t150 14h35zM711 1336q0 58 40 98t98 40q59 0 99 -40t40 -98t-40 -96q-40 -40 -99 -40q-58 0 -98 40q-40 38 -40 96zM293 1336q0 58 40 98t98 40q59 0 99 -40t40 -98t-40 -96q-40 -40 -99 -40q-58 0 -98 40q-40 38 -40 96z" />
    <glyph glyph-name="yacute" unicode="&#xfd;" horiz-adv-x="1256" 
d="M263 1038h97q168 0 186 -9q15 -11 15 -85t-9 -91q-26 -9 -79 -20l163 -473h6l168 474q-38 7 -74 19q-9 17 -9 91t15 85q18 9 186 9h97q168 0 186 -9q15 -11 15 -85t-9 -91q-54 -18 -155 -32l-276 -803q-76 -222 -208 -359t-274 -137t-274 71q0 77 7 185t14 114
q88 25 179 16q17 -30 42 -158q74 9 140 78t93 173l-282 821q-96 12 -152 31q-9 17 -9 91t15 85q18 9 186 9zM819 1666q41 -22 73 -66t39 -92q-45 -69 -221 -173t-333 -135q-15 12 -31 60t-22 86q271 122 495 320z" />
    <glyph glyph-name="thorn" unicode="&#xfe;" horiz-adv-x="1180" 
d="M610 833q-114 0 -216 -65v-535q94 -30 208 -30t185 94t71 222t-67 221t-181 93zM394 1448v-478q124 88 248 88q234 0 346 -148t112 -331q0 -182 -58 -312q-58 -131 -176 -209q-120 -78 -285 -78q-79 0 -187 20v-246q72 -11 121 -27q9 -16 9 -91t-15 -85q-18 -9 -186 -9
h-92q-168 0 -186 9q-15 11 -15 85t9 91l121 12v1475q-108 4 -114 7q-16 8 -16 83t9 93q71 23 171 37t149 14h35z" />
    <glyph glyph-name="ydieresis" unicode="&#xff;" horiz-adv-x="1256" 
d="M263 1038h97q168 0 186 -9q15 -11 15 -85t-9 -91q-26 -9 -79 -20l163 -473h6l168 474q-38 7 -74 19q-9 17 -9 91t15 85q18 9 186 9h97q168 0 186 -9q15 -11 15 -85t-9 -91q-54 -18 -155 -32l-276 -803q-76 -222 -208 -359t-274 -137t-274 71q0 77 7 185t14 114
q88 25 179 16q17 -30 42 -158q74 9 140 78t93 173l-282 821q-96 12 -152 31q-9 17 -9 91t15 85q18 9 186 9zM698 1336q0 58 40 98t98 40t98 -40t41 -98q-1 -58 -41 -96q-40 -40 -98 -40t-98 40q-40 38 -40 96zM280 1336q0 58 40 98t98 40t98 -40t41 -98q-1 -58 -41 -96
q-40 -40 -98 -40t-98 40q-40 38 -40 96z" />
    <glyph glyph-name="Amacron" unicode="&#x100;" horiz-adv-x="1427" 
d="M884 522l-170 494l-171 -494h341zM1407 94q0 -75 -15 -85q-18 -9 -186 -9h-92q-168 0 -186 9q-15 11 -15 85t9 91q32 11 72 18l-32 94h-496l-33 -94q41 -7 72 -18q9 -17 9 -91t-15 -85q-18 -9 -186 -9h-92q-168 0 -186 9q-15 11 -15 85t9 91q55 18 161 32l387 1121h274
l386 -1121q105 -14 161 -32q9 -16 9 -91zM1034 1623v-215h-642v215h642z" />
    <glyph glyph-name="amacron" unicode="&#x101;" horiz-adv-x="1051" 
d="M440 171q136 0 181 104q15 35 15 82v63q-185 1 -239 -9q-103 -20 -103 -108q0 -62 40 -97t106 -35zM480 1059q291 1 366 -209q21 -58 21 -133v-386q-1 -69 39 -104t115 -51l-106 -196q-135 0 -233 109q-116 -85 -194 -101q-38 -8 -86 -8t-91 8q-106 19 -179 94
q-72 75 -72 224q0 150 82 222t282 72q121 0 213 -8v52q0 102 -56 148t-147 46q-29 0 -66 -5q-9 -81 -20 -91t-76 -28q-65 -16 -96 -16q-19 7 -43 103q-23 95 -32 170l5 3q184 85 374 85zM830 1448v-215h-642v215h642z" />
    <glyph glyph-name="Abreve" unicode="&#x102;" horiz-adv-x="1427" 
d="M884 522l-170 494l-171 -494h341zM1407 94q0 -75 -15 -85q-18 -9 -186 -9h-92q-168 0 -186 9q-15 11 -15 85t9 91q32 11 72 18l-32 94h-496l-33 -94q41 -7 72 -18q9 -17 9 -91t-15 -85q-18 -9 -186 -9h-92q-168 0 -186 9q-15 11 -15 85t9 91q55 18 161 32l387 1121h274
l386 -1121q105 -14 161 -32q9 -16 9 -91zM716 1408q-212 0 -342 142q5 35 37 76t64 52q87 -93 237 -93t240 93q32 -11 64 -52t37 -76q-125 -142 -337 -142z" />
    <glyph glyph-name="abreve" unicode="&#x103;" horiz-adv-x="1051" 
d="M440 171q136 0 181 104q15 35 15 82v63q-185 1 -239 -9q-103 -20 -103 -108q0 -62 40 -97t106 -35zM480 1059q291 1 366 -209q21 -58 21 -133v-386q-1 -69 39 -104t115 -51l-106 -196q-135 0 -233 109q-116 -85 -194 -101q-38 -8 -86 -8t-91 8q-106 19 -179 94
q-72 75 -72 224q0 150 82 222t282 72q121 0 213 -8v52q0 102 -56 148t-147 46q-29 0 -66 -5q-9 -81 -20 -91t-76 -28q-65 -16 -96 -16q-19 7 -43 103q-23 95 -32 170l5 3q184 85 374 85zM502 1231q-212 0 -341 142q5 35 37 76t64 52q87 -93 237 -93t240 93q32 -11 64 -52
t37 -76q-126 -142 -338 -142z" />
    <glyph glyph-name="Aogonek" unicode="&#x104;" horiz-adv-x="1427" 
d="M884 522l-170 494l-171 -494h341zM1133 -220q0 -83 90 -83q60 0 152 46l7 -5v-165q-72 -51 -182 -51t-181 70t-71 182q0 110 109 227q-117 2 -131 10q-14 9 -13 83q0 74 9 91q32 11 72 18l-32 94h-496l-33 -94q41 -7 72 -18q9 -17 9 -91t-15 -85q-18 -9 -186 -9h-92
q-168 0 -186 9q-15 11 -15 85t9 91q55 18 161 32l387 1121h274l386 -1121q105 -14 161 -32q9 -16 9 -91q0 -74 -12 -82t-100 -10q-72 -35 -117 -100t-45 -122z" />
    <glyph glyph-name="aogonek" unicode="&#x105;" horiz-adv-x="1051" 
d="M636 357v63q-185 1 -239 -9q-103 -20 -103 -108q0 -62 40 -97t106 -35q136 0 181 104q15 35 15 82zM781 -220q0 -83 90 -83q60 0 152 46l7 -5v-165q-72 -51 -182 -51t-181 70t-71 177q0 134 144 267q-34 25 -58 53q-116 -85 -194 -101q-38 -8 -86 -8t-91 8
q-106 19 -179 94q-72 75 -72 224q0 150 82 222t282 72q121 0 213 -8v52q0 102 -56 148t-147 46q-29 0 -66 -5q-9 -81 -20 -91t-76 -28q-65 -16 -96 -16q-19 7 -43 103q-23 95 -32 170l5 3q184 85 374 85q291 1 366 -209q21 -58 21 -133v-386q-1 -69 39 -104t115 -51
l-106 -196q-62 -37 -98 -93t-36 -107z" />
    <glyph glyph-name="Cacute" unicode="&#x106;" horiz-adv-x="1134" 
d="M762 1338q174 0 327 -41v-127q0 -78 -7 -184t-14 -112q-88 -25 -179 -16q-11 18 -31 102t-28 151q-13 1 -37 1q-125 0 -222 -38t-154 -104q-114 -130 -114 -312q1 -229 167 -358q121 -94 322 -94q151 0 289 41l8 -4v-222q-153 -41 -327 -41q-348 0 -525 194t-177 506
q6 284 176 466q84 90 218 141t308 51zM955 1874q41 -22 73 -66t39 -92q-45 -69 -221 -173t-333 -135q-15 12 -31 60t-22 86q271 122 495 320z" />
    <glyph glyph-name="cacute" unicode="&#x107;" horiz-adv-x="965" 
d="M599 833q-37 0 -89 -17q-188 -62 -188 -295t198 -299q54 -18 116 -18q130 0 260 68l9 -3v-227q-127 -62 -266 -62t-235 34t-168 101q-72 65 -114 169t-42 233t42 233t112 170q148 138 370 138q174 0 301 -62q0 -76 -7 -184t-14 -115q-88 -25 -179 -16q-16 27 -41 150
q-28 2 -65 2zM783 1666q41 -22 73 -66t39 -92q-45 -69 -221 -173t-333 -135q-15 12 -31 60t-22 86q271 122 495 320z" />
    <glyph glyph-name="Ccircumflex" unicode="&#x108;" horiz-adv-x="1134" 
d="M762 1338q174 0 327 -41v-127q0 -78 -7 -184t-14 -112q-88 -25 -179 -16q-11 18 -31 102t-28 151q-13 1 -37 1q-125 0 -222 -38t-154 -104q-114 -130 -114 -312q1 -229 167 -358q121 -94 322 -94q151 0 289 41l8 -4v-222q-153 -41 -327 -41q-348 0 -525 194t-177 506
q6 284 176 466q84 90 218 141t308 51zM715 1656q-146 -136 -375 -248q-15 12 -33 70t-21 98q225 120 426 315h11q205 -197 427 -315q-3 -40 -21 -98t-33 -70q-224 109 -376 248h-5z" />
    <glyph glyph-name="ccircumflex" unicode="&#x109;" horiz-adv-x="965" 
d="M599 833q-37 0 -89 -17q-188 -62 -188 -295t198 -299q54 -18 116 -18q130 0 260 68l9 -3v-227q-127 -62 -266 -62t-235 34t-168 101q-72 65 -114 169t-42 233t42 233t112 170q148 138 370 138q174 0 301 -62q0 -76 -7 -184t-14 -115q-88 -25 -179 -16q-16 27 -41 150
q-28 2 -65 2zM601 1425q-146 -136 -375 -248q-15 13 -33 71t-21 97q225 120 426 315h11q205 -197 427 -315q-3 -39 -21 -97t-33 -71q-224 109 -376 248h-5z" />
    <glyph glyph-name="Ccaron" unicode="&#x10c;" horiz-adv-x="1134" 
d="M762 1338q174 0 327 -41v-127q0 -78 -7 -184t-14 -112q-88 -25 -179 -16q-11 18 -31 102t-28 151q-13 1 -37 1q-125 0 -222 -38t-154 -104q-114 -130 -114 -312q1 -229 167 -358q121 -94 322 -94q151 0 289 41l8 -4v-222q-153 -41 -327 -41q-348 0 -525 194t-177 506
q6 284 176 466q84 90 218 141t308 51zM386 1891q229 -112 375 -248h5q152 139 376 248q15 -13 33 -71t21 -97q-222 -118 -427 -315h-11q-201 195 -426 315q3 39 21 97t33 71z" />
    <glyph glyph-name="ccaron" unicode="&#x10d;" horiz-adv-x="965" 
d="M599 833q-37 0 -89 -17q-188 -62 -188 -295t198 -299q54 -18 116 -18q130 0 260 68l9 -3v-227q-127 -62 -266 -62t-235 34t-168 101q-72 65 -114 169t-42 233t42 233t112 170q148 138 370 138q174 0 301 -62q0 -76 -7 -184t-14 -115q-88 -25 -179 -16q-16 27 -41 150
q-28 2 -65 2zM237 1660q229 -112 375 -248h5q152 139 376 248q15 -12 33 -70t21 -98q-222 -118 -427 -315h-11q-201 195 -426 315q3 40 21 98t33 70z" />
    <glyph glyph-name="Dcaron" unicode="&#x10e;" horiz-adv-x="1358" 
d="M394 224h175q299 0 421 202q64 106 64 212t-32 182t-94 138q-60 62 -158 98t-219 37h-157v-869zM231 1318h366q157 0 290 -52t222 -141t139 -209t50 -250t-43 -247t-125 -211t-218 -151q-135 -57 -304 -57h-377q-168 0 -186 9q-15 11 -15 85t9 91q47 16 121 27v894
q-74 11 -121 27q-9 17 -9 91t15 85q18 9 186 9zM210 1891q229 -112 375 -248h5q152 139 376 248q15 -13 33 -71t21 -97q-222 -118 -427 -315h-11q-201 195 -426 315q3 39 21 97t33 71z" />
    <glyph glyph-name="dcaron" unicode="&#x10f;" horiz-adv-x="1681" 
d="M569 205q113 0 217 64v549q-85 22 -166 22q-138 0 -218 -82t-80 -225q0 -142 67 -235t180 -93zM1460 1448q54 0 98 -38t43 -123q-1 -86 -73 -185t-157 -145l-52 65q60 102 60 158t-53 132q0 56 40 96t94 40zM1020 1448v-1231q93 16 170 16q36 -69 6 -175q-8 -2 -65 -14
q-175 -37 -245 -64h-32l-53 98q-131 -98 -279 -98q-108 0 -194 42t-139 111q-109 144 -109 343q0 290 153 436t400 146q76 0 153 -10v166q-108 4 -114 7q-16 8 -16 83t9 93q71 23 171 37t149 14h35z" />
    <glyph glyph-name="dcroat" unicode="&#x111;" horiz-adv-x="1239" 
d="M620 840q-138 0 -218 -82t-80 -225q0 -142 67 -235t180 -93t217 64v549q-85 22 -166 22zM522 -20q-108 0 -194 42t-139 111q-109 144 -109 343q0 290 153 436t400 146q76 0 153 -10v166q-108 4 -114 7q-16 8 -16 83t9 93q71 23 171 37t149 14h35v-235h139v-175h-139v-821
q93 16 170 16q36 -69 6 -175q-8 -2 -65 -14q-175 -37 -245 -64h-32l-53 98q-131 -98 -279 -98z" />
    <glyph glyph-name="Emacron" unicode="&#x112;" horiz-adv-x="1023" 
d="M943 0h-712q-168 0 -186 9q-15 11 -15 85t9 91q47 16 121 27v894q-74 11 -121 27q-9 17 -9 91t15 85q18 9 186 9h712v-102q0 -70 -6 -148t-13 -84q-76 -22 -162 -15q-17 28 -39 124h-329v-325h187q20 70 31 88q86 7 162 -15q18 -69 18 -173t-18 -198q-76 -22 -162 -15
q-11 18 -31 88h-187v-318h329q23 97 39 124q86 7 162 -15q6 -6 12 -80t7 -142v-112zM832 1623v-215h-642v215h642z" />
    <glyph glyph-name="emacron" unicode="&#x113;" horiz-adv-x="1023" 
d="M553 833q-75 0 -139 -55t-84 -161h419q-8 108 -64 162t-132 54zM963 588v-156h-630q27 -118 111 -173t206 -55q121 0 251 68l9 -3v-227q-128 -62 -266 -62t-234 34t-170 100t-117 170t-43 232t40 234q40 104 106 170q139 138 315 138q177 0 289 -103q134 -122 133 -367z
M877 1448v-215h-642v215h642z" />
    <glyph glyph-name="Edotaccent" unicode="&#x116;" horiz-adv-x="1023" 
d="M943 0h-712q-168 0 -186 9q-15 11 -15 85t9 91q47 16 121 27v894q-74 11 -121 27q-9 17 -9 91t15 85q18 9 186 9h712v-102q0 -70 -6 -148t-13 -84q-76 -22 -162 -15q-17 28 -39 124h-329v-325h187q20 70 31 88q86 7 162 -15q18 -69 18 -173t-18 -198q-76 -22 -162 -15
q-11 18 -31 88h-187v-318h329q23 97 39 124q86 7 162 -15q6 -6 12 -80t7 -142v-112zM393 1544q0 58 40 98t98 40q59 0 99 -40t40 -98t-40 -96q-40 -40 -99 -40q-58 0 -98 40q-40 38 -40 96z" />
    <glyph glyph-name="edotaccent" unicode="&#x117;" horiz-adv-x="1023" 
d="M553 833q-75 0 -139 -55t-84 -161h419q-8 108 -64 162t-132 54zM963 588v-156h-630q27 -118 111 -173t206 -55q121 0 251 68l9 -3v-227q-128 -62 -266 -62t-234 34t-170 100t-117 170t-43 232t40 234q40 104 106 170q139 138 315 138q177 0 289 -103q134 -122 133 -367z
M418 1336q0 58 40 98t98 40t98 -40t41 -98q-1 -58 -41 -96q-40 -40 -98 -40t-98 40q-40 38 -40 96z" />
    <glyph glyph-name="Eogonek" unicode="&#x118;" horiz-adv-x="1023" 
d="M767 -220q0 -83 90 -83q60 0 152 46l7 -5v-165q-72 -51 -182 -51t-181 70t-71 180t108 228h-459q-168 0 -186 9q-15 11 -15 85t9 91q47 16 121 27v894q-74 11 -121 27q-9 17 -9 91t15 85q18 9 186 9h712v-102q0 -70 -6 -148t-13 -84q-76 -22 -162 -15q-17 28 -39 124
h-329v-325h187q20 70 31 88q86 7 162 -15q18 -69 18 -173t-18 -198q-76 -22 -162 -15q-11 18 -31 88h-187v-318h329q23 97 39 124q86 7 162 -15q6 -6 12 -80t7 -142v-112q-78 -33 -127 -97t-49 -123z" />
    <glyph glyph-name="eogonek" unicode="&#x119;" horiz-adv-x="1023" 
d="M553 833q-75 0 -139 -55t-84 -161h419q-8 108 -64 162t-132 54zM613 -220q0 -83 90 -83q60 0 152 46l7 -5v-165q-72 -51 -182 -51t-181 70t-71 178q0 107 96 216q-196 26 -320 164t-124 369q0 127 40 231t106 170q139 138 315 138q177 0 289 -103q134 -122 133 -367v-156
h-630q27 -118 111 -173t206 -55q121 0 251 68l9 -3v-227q-62 -31 -150 -48q-66 -36 -106 -98t-41 -116z" />
    <glyph glyph-name="Ecaron" unicode="&#x11a;" horiz-adv-x="1023" 
d="M943 0h-712q-168 0 -186 9q-15 11 -15 85t9 91q47 16 121 27v894q-74 11 -121 27q-9 17 -9 91t15 85q18 9 186 9h712v-102q0 -70 -6 -148t-13 -84q-76 -22 -162 -15q-17 28 -39 124h-329v-325h187q20 70 31 88q86 7 162 -15q18 -69 18 -173t-18 -198q-76 -22 -162 -15
q-11 18 -31 88h-187v-318h329q23 97 39 124q86 7 162 -15q6 -6 12 -80t7 -142v-112zM150 1891q229 -112 375 -248h5q152 139 376 248q15 -13 33 -71t21 -97q-222 -118 -427 -315h-11q-201 195 -426 315q3 39 21 97t33 71z" />
    <glyph glyph-name="ecaron" unicode="&#x11b;" horiz-adv-x="1023" 
d="M553 833q-75 0 -139 -55t-84 -161h419q-8 108 -64 162t-132 54zM963 588v-156h-630q27 -118 111 -173t206 -55q121 0 251 68l9 -3v-227q-128 -62 -266 -62t-234 34t-170 100t-117 170t-43 232t40 234q40 104 106 170q139 138 315 138q177 0 289 -103q134 -122 133 -367z
M176 1660q229 -112 375 -248h5q152 139 376 248q15 -12 33 -70t21 -98q-222 -118 -427 -315h-11q-201 195 -426 315q3 40 21 98t33 70z" />
    <glyph glyph-name="Gcircumflex" unicode="&#x11c;" horiz-adv-x="1280" 
d="M798 1338q190 0 342 -42q-1 -396 -19 -412q-76 -22 -162 -15q-13 21 -35 109t-24 136q-38 3 -78 3q-244 0 -386 -112t-142 -328t112 -344t282 -128q169 0 270 95v229h-243v217h457l8 -8v-738h-121l-62 59q-139 -79 -317 -79t-325 90q-145 90 -225 244q-80 155 -80 360
t109 380q109 176 329 246q120 38 310 38zM690 1656q-146 -136 -375 -248q-15 12 -33 70t-21 98q225 120 426 315h11q205 -197 427 -315q-3 -40 -21 -98t-33 -70q-224 109 -376 248h-5z" />
    <glyph glyph-name="gcircumflex" unicode="&#x11d;" horiz-adv-x="1033" 
d="M299 -108q0 -67 50 -107t148 -40t169 51t71 122t-72 91t-194 20h-110q-62 -70 -62 -137zM468 852q-74 0 -118 -46t-44 -103q0 -58 44 -103t120 -45t117 44q42 45 42 103t-43 104t-118 46zM88 709q0 153 108 251t276 98q111 0 201 -48q65 48 138 76t127 29l24 -70h1
l40 -114l-5 -19q-87 -17 -174 -67q25 -63 25 -129q0 -150 -110 -258t-277 -108q-65 0 -119 16q-20 -30 -20 -60q1 -30 31 -48t85 -19h120q207 1 313 -87t106 -212t-80 -218t-202 -148q-122 -52 -252 -52q-174 0 -279 94t-105 237q0 63 33 134t91 130q-40 23 -62 71t-23 96
q0 88 75 181q-86 92 -86 244zM468 1425q-146 -136 -375 -248q-15 13 -33 71t-21 97q225 120 426 315h11q205 -197 427 -315q-3 -39 -21 -97t-33 -71q-224 109 -376 248h-5z" />
    <glyph glyph-name="Gbreve" unicode="&#x11e;" horiz-adv-x="1280" 
d="M798 1338q190 0 342 -42q-1 -396 -19 -412q-76 -22 -162 -15q-13 21 -35 109t-24 136q-38 3 -78 3q-244 0 -386 -112t-142 -328t112 -344t282 -128q169 0 270 95v229h-243v217h457l8 -8v-738h-121l-62 59q-139 -79 -317 -79t-325 90q-145 90 -225 244q-80 155 -80 360
t109 380q109 176 329 246q120 38 310 38zM690 1408q-212 0 -342 142q5 35 37 76t64 52q87 -93 237 -93t240 93q32 -11 64 -52t37 -76q-125 -142 -337 -142z" />
    <glyph glyph-name="gbreve" unicode="&#x11f;" horiz-adv-x="1033" 
d="M299 -108q0 -67 50 -107t148 -40t169 51t71 122t-72 91t-194 20h-110q-62 -70 -62 -137zM468 852q-74 0 -118 -46t-44 -103q0 -58 44 -103t120 -45t117 44q42 45 42 103t-43 104t-118 46zM88 709q0 153 108 251t276 98q111 0 201 -48q65 48 138 76t127 29l24 -70h1
l40 -114l-5 -19q-87 -17 -174 -67q25 -63 25 -129q0 -150 -110 -258t-277 -108q-65 0 -119 16q-20 -30 -20 -60q1 -30 31 -48t85 -19h120q207 1 313 -87t106 -212t-80 -218t-202 -148q-122 -52 -252 -52q-174 0 -279 94t-105 237q0 63 33 134t91 130q-40 23 -62 71t-23 96
q0 88 75 181q-86 92 -86 244zM490 1231q-212 0 -342 142q5 35 37 76t64 52q87 -93 237 -93t240 93q32 -11 64 -52t37 -76q-125 -142 -337 -142z" />
    <glyph glyph-name="Gdotaccent" unicode="&#x120;" horiz-adv-x="1280" 
d="M798 1338q190 0 342 -42q-1 -396 -19 -412q-76 -22 -162 -15q-13 21 -35 109t-24 136q-38 3 -78 3q-244 0 -386 -112t-142 -328t112 -344t282 -128q169 0 270 95v229h-243v217h457l8 -8v-738h-121l-62 59q-139 -79 -317 -79t-325 90q-145 90 -225 244q-80 155 -80 360
t109 380q109 176 329 246q120 38 310 38zM597 1544q0 58 40 98t98 40q59 0 99 -40t40 -98t-40 -96q-40 -40 -99 -40q-58 0 -98 40q-40 38 -40 96z" />
    <glyph glyph-name="gdotaccent" unicode="&#x121;" horiz-adv-x="1033" 
d="M299 -108q0 -67 50 -107t148 -40t169 51t71 122t-72 91t-194 20h-110q-62 -70 -62 -137zM468 852q-74 0 -118 -46t-44 -103q0 -58 44 -103t120 -45t117 44q42 45 42 103t-43 104t-118 46zM88 709q0 153 108 251t276 98q111 0 201 -48q65 48 138 76t127 29l65 -184l-5 -19
q-87 -17 -174 -67q25 -63 25 -129q0 -150 -110 -258t-277 -108q-65 0 -119 16q-20 -30 -20 -60t31 -48q31 -19 85 -19h120q207 1 313 -87t106 -212t-80 -218t-202 -148q-122 -52 -252 -52q-174 0 -279 94t-105 237q0 63 33 134t91 130q-40 23 -62 71t-23 96q0 88 75 181
q-86 92 -86 244zM351 1336q0 58 40 98t98 40q59 0 99 -40t40 -98t-40 -96q-40 -40 -99 -40q-58 0 -98 40q-40 38 -40 96z" />
    <glyph glyph-name="Gcommaaccent" unicode="&#x122;" horiz-adv-x="1280" 
d="M683 -52q53 0 97 -38t44 -123q0 -86 -72 -185t-158 -145l-52 65q60 102 60 158t-53 132q0 56 40 96t94 40zM798 1338q190 0 342 -42q0 -395 -19 -412q-76 -22 -162 -15q-13 21 -35 109t-24 136q-38 3 -78 3q-244 0 -386 -112t-142 -328t112 -344t282 -128q169 0 270 95
v229h-243v217h457l8 -8v-738h-121l-62 59q-139 -79 -317 -79t-325 90q-145 90 -225 244q-80 155 -80 360t109 380q109 176 329 246q120 38 310 38z" />
    <glyph glyph-name="gcommaaccent" unicode="&#x123;" horiz-adv-x="1033" 
d="M299 -108q0 -67 50 -107t148 -40t169 51t71 122t-72 91t-194 20h-110q-62 -70 -62 -137zM468 852q-74 0 -118 -46t-44 -103q0 -58 44 -103t120 -45t117 44q42 45 42 103t-43 104t-118 46zM88 709q0 153 108 251t276 98q111 0 201 -48q65 48 138 76t127 29l24 -70h1
l40 -114l-5 -19q-87 -17 -174 -67q25 -63 25 -129q0 -150 -110 -258t-277 -108q-65 0 -119 16q-20 -30 -20 -60q1 -30 31 -48t85 -19h120q207 1 313 -87t106 -212t-80 -218t-202 -148q-122 -52 -252 -52q-174 0 -279 94t-105 237q0 63 33 134t91 130q-40 23 -62 71t-23 96
q0 88 75 181q-86 92 -86 244zM487 1168q-53 0 -97 38t-44 123q0 86 72 185t158 145l52 -65q-60 -102 -60 -158t53 -132q0 -56 -40 -96t-94 -40z" />
    <glyph glyph-name="Hcircumflex" unicode="&#x124;" horiz-adv-x="1337" 
d="M323 0h-92q-168 0 -186 9q-15 11 -15 85t9 91q47 16 121 27v894q-74 11 -121 27q-9 17 -9 91t15 85q18 9 186 9h92q168 0 186 -9q15 -11 15 -85t-9 -91q-49 -16 -121 -27v-338h549v338q-74 11 -121 27q-9 17 -9 91t15 85q18 9 186 9h92q168 0 186 -9q15 -11 15 -85
t-9 -91q-49 -16 -121 -27v-894q72 -11 121 -27q9 -16 9 -91t-15 -85q-18 -9 -186 -9h-92q-168 0 -186 9q-15 11 -15 85t9 91q47 16 121 27v331h-549v-331q72 -11 121 -27q9 -17 9 -91t-15 -85q-18 -9 -186 -9zM647 1656q-146 -136 -375 -248q-15 12 -33 70t-21 98
q225 120 426 315h11q205 -197 427 -315q-3 -40 -21 -98t-33 -70q-224 109 -376 248h-5z" />
    <glyph glyph-name="hcircumflex" unicode="&#x125;" horiz-adv-x="1249" 
d="M1219 94q0 -75 -15 -85q-18 -9 -186 -9h-92q-168 0 -186 9q-15 11 -15 85t9 91q47 16 121 27v408q-1 108 -67 160t-180 53q-114 0 -214 -64v-557q72 -11 121 -27q9 -17 9 -91t-15 -85q-18 -9 -186 -9h-92q-168 0 -186 9q-15 11 -15 85t9 91q47 16 121 27v1002
q-108 4 -114 7q-16 8 -16 83t9 93q71 23 171 37t149 14h35v-483q145 92 309 92t275 -89t111 -279v-477q72 -11 121 -27q9 -16 9 -91zM241 1687q-146 -136 -375 -248q-15 13 -33 71t-21 97q225 120 426 315h11q205 -197 427 -315q-3 -39 -21 -97t-33 -71q-224 109 -376 248
h-5z" />
    <glyph glyph-name="Hbar" unicode="&#x126;" horiz-adv-x="1337" 
d="M943 708v105h-549v-105h549zM323 0h-92q-168 0 -186 9q-15 11 -15 85t9 91q47 16 121 27v894q-74 11 -121 27q-9 17 -9 91t15 85q18 9 186 9h92q168 0 186 -9q15 -11 15 -85t-9 -91q-49 -16 -121 -27v-68h549v68q-74 11 -121 27q-9 17 -9 91t15 85q18 9 186 9h92
q168 0 186 -9q15 -11 15 -85t-9 -91q-49 -16 -121 -27v-894q72 -11 121 -27q9 -16 9 -91t-15 -85q-18 -9 -186 -9h-92q-168 0 -186 9q-15 11 -15 85t9 91q47 16 121 27v271h-549v-271q72 -11 121 -27q9 -17 9 -91t-15 -85q-18 -9 -186 -9z" />
    <glyph glyph-name="hbar" unicode="&#x127;" horiz-adv-x="1259" 
d="M1229 94q0 -75 -15 -85q-18 -9 -186 -9h-92q-168 0 -186 9q-15 11 -15 85t9 91q47 16 121 27v408q-1 108 -67 160t-180 53q-114 0 -214 -64v-557q72 -11 121 -27q9 -17 9 -91t-15 -85q-18 -9 -186 -9h-92q-168 0 -186 9q-15 11 -15 85t9 91q47 16 121 27v846h-110v127
h110v29q-108 4 -114 7q-16 8 -16 83t9 93q71 23 171 37t149 14h35v-263h118v-127h-118v-93q145 92 309 92t275 -89t111 -279v-477q72 -11 121 -27q9 -16 9 -91z" />
    <glyph glyph-name="Itilde" unicode="&#x128;" 
d="M231 1318h92q168 0 186 -9q15 -11 15 -85t-9 -91q-49 -16 -121 -27v-894q72 -11 121 -27q9 -17 9 -91t-15 -85q-18 -9 -186 -9h-92q-168 0 -186 9q-15 11 -15 85t9 91q47 16 121 27v894q-74 11 -121 27q-9 17 -9 91t15 85q18 9 186 9zM550 1720q26 0 72 -14
q45 -14 73 -40q-13 -108 -87 -183t-180 -75q-104 0 -164 49q-59 49 -108 49q-48 0 -78 -24t-30 -72q-18 -2 -46 -2t-72 13t-71 38q13 105 87 183t186 78q50 0 94 -24t86 -50q42 -24 84 -24t76 24t34 72q18 2 44 2z" />
    <glyph glyph-name="Imacron" unicode="&#x12a;" 
d="M231 1318h92q168 0 186 -9q15 -11 15 -85t-9 -91q-49 -16 -121 -27v-894q72 -11 121 -27q9 -17 9 -91t-15 -85q-18 -9 -186 -9h-92q-168 0 -186 9q-15 11 -15 85t9 91q47 16 121 27v894q-74 11 -121 27q-9 17 -9 91t15 85q18 9 186 9zM598 1623v-215h-642v215h642z" />
    <glyph glyph-name="imacron" unicode="&#x12b;" 
d="M524 94q0 -74 -15 -85q-18 -9 -186 -9h-92q-168 0 -186 9q-15 11 -15 85t9 91q47 16 121 27v612q-108 4 -114 7q-16 8 -16 83t9 93q71 23 171 37t149 14h35v-846q72 -11 121 -27q9 -17 9 -91zM572 1338v-215h-642v215h642z" />
    <glyph glyph-name="Ibreve" unicode="&#x12c;" 
d="M231 1318h92q168 0 186 -9q15 -11 15 -85t-9 -91q-49 -16 -121 -27v-894q72 -11 121 -27q9 -17 9 -91t-15 -85q-18 -9 -186 -9h-92q-168 0 -186 9q-15 11 -15 85t9 91q47 16 121 27v894q-74 11 -121 27q-9 17 -9 91t15 85q18 9 186 9zM280 1408q-212 0 -342 142
q5 35 37 76t64 52q87 -93 237 -93t240 93q32 -11 64 -52t37 -76q-125 -142 -337 -142z" />
    <glyph glyph-name="ibreve" unicode="&#x12d;" 
d="M524 94q0 -74 -15 -85q-18 -9 -186 -9h-92q-168 0 -186 9q-15 11 -15 85t9 91q47 16 121 27v612q-108 4 -114 7q-16 8 -16 83t9 93q71 23 171 37t149 14h35v-846q72 -11 121 -27q9 -17 9 -91zM256 1173q-212 0 -341 142q5 35 37 76t64 52q87 -93 237 -93t240 93
q32 -11 64 -52t37 -76q-126 -142 -338 -142z" />
    <glyph glyph-name="Iogonek" unicode="&#x12e;" 
d="M333 -220q0 -83 90 -83q60 0 152 46l7 -5v-165q-72 -51 -182 -51t-181 70t-71 180q0 109 102 228h-19q-168 0 -186 9q-15 11 -15 85t9 91q47 16 121 27v894q-74 11 -121 27q-9 17 -9 91t15 85q18 9 186 9h92q168 0 186 -9q15 -11 15 -85t-9 -91q-49 -16 -121 -27v-894
q72 -11 121 -27q9 -17 9 -91t-15 -85q-77 -33 -127 -101t-49 -128z" />
    <glyph glyph-name="iogonek" unicode="&#x12f;" 
d="M333 -220q0 -83 90 -83q60 0 152 46l7 -5v-165q-72 -51 -182 -51t-181 70t-71 180q0 109 102 228h-19q-168 0 -186 9q-15 11 -15 85t9 91q47 16 121 27v612q-108 4 -114 7q-16 8 -16 83t9 93q71 23 171 37t149 14h35v-846q72 -11 121 -27q9 -17 9 -91t-15 -85
q-77 -33 -127 -101t-49 -128zM276 1174q-58 0 -98 40t-40 96q0 58 40 98t98 40t98 -40t41 -98q-1 -58 -41 -96q-40 -40 -98 -40z" />
    <glyph glyph-name="Idotaccent" unicode="&#x130;" 
d="M231 1318h92q168 0 186 -9q15 -11 15 -85t-9 -91q-49 -16 -121 -27v-894q72 -11 121 -27q9 -17 9 -91t-15 -85q-18 -9 -186 -9h-92q-168 0 -186 9q-15 11 -15 85t9 91q47 16 121 27v894q-74 11 -121 27q-9 17 -9 91t15 85q18 9 186 9zM138 1544q0 58 40 98t98 40t98 -40
t41 -98q-1 -58 -41 -96q-40 -40 -98 -40t-98 40q-40 38 -40 96z" />
    <glyph glyph-name="dotlessi" unicode="&#x131;" 
d="M524 94q0 -74 -15 -85q-18 -9 -186 -9h-92q-168 0 -186 9q-15 11 -15 85t9 91q47 16 121 27v612q-108 4 -114 7q-16 8 -16 83t9 93q71 23 171 37t149 14h35v-846q72 -11 121 -27q9 -17 9 -91z" />
    <glyph glyph-name="IJ" unicode="&#x132;" horiz-adv-x="1280" 
d="M1250 1224q0 -74 -9 -91q-49 -16 -121 -27v-706q0 -567 -945 -368q0 76 7 184t14 115q88 25 179 16q5 -8 38 -144q241 -53 357 2t116 222v679q-74 11 -121 27q-9 17 -9 91t15 85q18 9 186 9h92q168 0 186 -9q15 -11 15 -85zM323 385h-92q-168 0 -186 9q-15 10 -15 85
t9 91q47 16 121 27v509q-74 11 -121 27q-9 17 -9 91t15 85q18 9 186 9h92q168 0 186 -9q15 -11 15 -85t-9 -91q-49 -16 -121 -27v-509q72 -11 121 -27q9 -16 9 -91t-15 -85q-18 -9 -186 -9z" />
    <glyph glyph-name="ij" unicode="&#x133;" horiz-adv-x="1182" 
d="M1051 1058v-1130q0 -567 -945 -368q0 76 7 184t14 115q88 25 179 16q5 -8 38 -144q242 -53 358 2t115 222v117q-145 -92 -310 -92t-275 90t-110 279v475q-108 4 -114 7q-16 8 -16 83t9 93q71 23 171 37t149 14h35v-640q0 -110 66 -162t178 -52t217 64v556q-108 4 -114 7
q-16 8 -16 83t9 93q70 23 170 37t150 14h35zM795 1310q0 58 40 98t98 40q59 0 99 -40t40 -98t-40 -96q-40 -40 -99 -40q-58 0 -98 40q-40 38 -40 96zM100 1310q0 58 40 98t98 40t98 -40t41 -98q-1 -58 -41 -96q-40 -40 -98 -40t-98 40q-40 38 -40 96z" />
    <glyph glyph-name="Jcircumflex" unicode="&#x134;" horiz-adv-x="864" 
d="M541 1318h92q168 0 186 -9q15 -11 15 -85t-9 -91q-49 -16 -121 -27v-622q0 -270 -138 -387t-394 -117q-42 0 -142 41v67q0 64 7 142t14 85q84 24 191 16q12 -21 36 -117q96 20 144 94t48 243v555q-74 11 -121 27q-9 17 -9 91t15 85q18 9 186 9zM588 1586
q-146 -136 -375 -248q-15 12 -33 70t-21 98q225 120 426 315h11q205 -197 427 -315q-3 -40 -21 -98t-33 -70q-224 109 -376 248h-5z" />
    <glyph glyph-name="jcircumflex" unicode="&#x135;" horiz-adv-x="515" 
d="M384 1058v-1130q0 -303 -262 -384q-70 -22 -174 -22t-218 38q0 76 7 184t14 115q88 25 179 16q11 -20 38 -128q94 0 134 39t46 128q2 32 2 87v823q-108 4 -114 7q-16 8 -16 83t9 93q71 23 171 37t149 14h35zM253 1425q-146 -136 -375 -248q-15 13 -33 71t-21 97
q225 120 426 315h11q205 -197 427 -315q-3 -39 -21 -97t-33 -71q-224 109 -376 248h-5z" />
    <glyph glyph-name="Kcommaaccent" unicode="&#x136;" horiz-adv-x="1259" 
d="M699 0q53 0 97 -38t44 -123q0 -86 -72 -185t-158 -145l-52 65q60 102 60 158t-53 132q0 56 40 96t94 40zM524 94q0 -74 -15 -85q-18 -9 -186 -9h-92q-168 0 -186 9q-15 11 -15 85t9 91q47 16 121 27v894q-74 11 -121 27q-9 17 -9 91t15 85q18 9 186 9h92q168 0 186 -9
q15 -11 15 -85t-9 -91q-49 -16 -121 -27v-282l252 300l-29 9q-9 17 -9 91t15 85q18 9 186 9h92q168 0 186 -9q15 -11 15 -85t-9 -91q-55 -19 -163 -33l-289 -344q27 -84 147 -220t250 -236q68 69 102 90q80 -36 149 -119q-11 -32 -77 -150t-84 -141q-64 0 -164 61
q-195 120 -369 335q-90 111 -117 186l-84 -101v-249q72 -11 121 -27q9 -17 9 -91z" />
    <glyph glyph-name="kcommaaccent" unicode="&#x137;" horiz-adv-x="1152" 
d="M609 -86q53 0 97 -38t44 -123q0 -86 -72 -185t-158 -145l-52 65q60 102 60 158t-53 132q0 56 40 96t94 40zM524 94q0 -74 -15 -85q-18 -9 -186 -9h-92q-168 0 -186 9q-15 11 -15 85t9 91q47 16 121 27v1002q-108 4 -114 7q-16 8 -16 83t9 93q71 23 171 37t149 14h35v-856
l205 243q-43 8 -71 18q-9 17 -9 91t15 85q18 9 186 9h97q168 0 186 -9q15 -11 15 -85t-9 -91q-55 -18 -143 -30l-222 -263q39 -56 108 -131t141 -134q66 68 97 86q62 -27 132 -110q-10 -32 -76 -150t-85 -141q-146 8 -384 272q-58 64 -106 129l-77 -94v-75q72 -11 121 -27
q9 -17 9 -91z" />
    <glyph glyph-name="Lacute" unicode="&#x139;" horiz-adv-x="982" 
d="M943 0h-716q-164 0 -182 9q-15 11 -15 85t9 91q47 16 121 27v894q-74 11 -121 27q-9 17 -9 91t15 85q18 9 186 9h92q168 0 186 -9q15 -11 15 -85t-9 -91q-49 -16 -121 -27v-881h310q4 49 25 127t33 99q86 7 162 -15q7 -6 13 -86t6 -149v-201zM498 1874q41 -22 73 -66
t39 -92q-45 -69 -221 -173t-333 -135q-16 12 -32 60t-21 86q271 122 495 320z" />
    <glyph glyph-name="lacute" unicode="&#x13a;" 
d="M524 94q0 -74 -15 -85q-18 -9 -186 -9h-92q-168 0 -186 9q-15 11 -15 85t9 91q47 16 121 27v1002q-108 4 -114 7q-16 8 -16 83t9 93q71 23 171 37t149 14h35v-1236q72 -11 121 -27q9 -17 9 -91zM383 1912q41 -22 73 -66t39 -92q-45 -69 -221 -173t-333 -135
q-15 12 -31 60t-22 86q271 122 495 320z" />
    <glyph glyph-name="Lcommaaccent" unicode="&#x13b;" horiz-adv-x="982" 
d="M528 -52q54 0 98 -38t43 -123q-1 -86 -73 -185t-157 -145l-52 65q60 102 60 158t-53 132q0 56 40 96t94 40zM231 1318h92q168 0 186 -9q15 -11 15 -85t-9 -91q-49 -16 -121 -27v-881h310q4 49 25 127t33 99q86 7 162 -15q16 -16 19 -436h-716q-164 0 -182 9
q-15 11 -15 85t9 91q47 16 121 27v894q-74 11 -121 27q-9 17 -9 91t15 85q18 9 186 9z" />
    <glyph glyph-name="lcommaaccent" unicode="&#x13c;" 
d="M282 -86q54 0 98 -38t43 -123q-1 -86 -73 -185t-157 -145l-52 65q60 102 60 158t-53 132q0 56 40 96t94 40zM524 94q0 -74 -15 -85q-18 -9 -186 -9h-92q-168 0 -186 9q-15 11 -15 85t9 91q47 16 121 27v1002q-108 4 -114 7q-16 8 -16 83t9 93q71 23 171 37t149 14h35
v-1236q72 -11 121 -27q9 -17 9 -91z" />
    <glyph glyph-name="Lcaron" unicode="&#x13d;" horiz-adv-x="982" 
d="M812 1318q54 0 98 -38t43 -123q-1 -86 -73 -185t-157 -145l-52 65q60 102 60 158t-53 132q0 56 40 96t94 40zM943 0h-716q-164 0 -182 9q-15 11 -15 85t9 91q47 16 121 27v894q-74 11 -121 27q-9 17 -9 91t15 85q18 9 186 9h92q168 0 186 -9q15 -11 15 -85t-9 -91
q-49 -16 -121 -27v-881h310q4 49 25 127t33 99q86 7 162 -15q7 -6 13 -86t6 -149v-201z" />
    <glyph glyph-name="lcaron" unicode="&#x13e;" horiz-adv-x="933" 
d="M742 1448q54 0 98 -38t43 -123q-1 -86 -73 -185t-157 -145l-52 65q60 102 60 158t-53 132q0 56 40 96t94 40zM564 94q0 -74 -15 -85q-18 -9 -186 -9h-92q-168 0 -186 9q-15 11 -15 85t9 91q47 16 121 27v1002q-108 4 -114 7q-16 8 -16 83t9 93q71 23 171 37t149 14h35
v-1236q72 -11 121 -27q9 -17 9 -91z" />
    <glyph glyph-name="Ldot" unicode="&#x13f;" horiz-adv-x="982" 
d="M661 728q0 58 40 98t98 40q59 0 99 -40t40 -98t-40 -96q-40 -40 -99 -40q-58 0 -98 40q-40 38 -40 96zM227 0q-164 0 -182 9q-15 11 -15 85t9 91q47 16 121 27v894q-74 11 -121 27q-9 17 -9 91t15 85q18 9 186 9h92q168 0 186 -9q15 -11 15 -85t-9 -91q-49 -16 -121 -27
v-881h310q4 49 25 127t33 99q86 7 162 -15q16 -16 19 -436h-716z" />
    <glyph glyph-name="ldot" unicode="&#x140;" 
d="M549 728q0 58 40 98t98 40q59 0 99 -40t40 -98t-40 -96q-40 -40 -99 -40q-58 0 -98 40q-40 38 -40 96zM524 94q0 -74 -15 -85q-18 -9 -186 -9h-92q-168 0 -186 9q-15 11 -15 85t9 91q47 16 121 27v1002q-108 4 -114 7q-16 8 -16 83t9 93q71 23 171 37t149 14h35v-1236
q72 -11 121 -27q9 -17 9 -91z" />
    <glyph glyph-name="lslash" unicode="&#x142;" horiz-adv-x="747" 
d="M622 94q0 -74 -15 -85q-18 -9 -186 -9h-92q-168 0 -186 9q-15 11 -15 85t9 91q47 16 121 27v371l-141 -51l-77 211l218 79v392q-108 4 -114 7q-16 8 -16 83t9 93q71 23 171 37t149 14h35v-542l148 54l77 -211l-225 -82v-455q72 -11 121 -27q9 -17 9 -91z" />
    <glyph glyph-name="Nacute" unicode="&#x143;" horiz-adv-x="1336" 
d="M524 94q0 -74 -15 -85q-18 -9 -186 -9h-92q-168 0 -186 9q-15 11 -15 85t9 91q47 16 121 27v894q-74 11 -121 27q-9 17 -9 91t15 85q18 9 186 9h163l548 -877v665q-74 11 -121 27q-9 17 -9 91t15 85q18 9 186 9h92q168 0 186 -9q15 -11 15 -85t-9 -91q-49 -16 -121 -27
v-1106h-234l-548 876v-664q72 -11 121 -27q9 -17 9 -91zM859 1874q41 -22 73 -66t39 -92q-45 -69 -221 -173t-333 -135q-15 12 -31 60t-22 86q271 122 495 320z" />
    <glyph glyph-name="nacute" unicode="&#x144;" horiz-adv-x="1250" 
d="M1090 689v-477q72 -11 121 -27q9 -16 9 -91t-15 -85q-18 -9 -186 -9h-92q-168 0 -186 9q-15 11 -15 85t9 91q68 5 121 12v423q0 108 -66 160t-180 53q-114 0 -215 -64v-557q72 -11 121 -27q9 -17 9 -91t-15 -85q-18 -9 -186 -9h-92q-168 0 -186 9q-15 11 -15 85t9 91
q68 5 121 12v607q-109 4 -115 7q-16 8 -16 83t9 93q71 23 171 37t149 14l23 -81q152 101 320 101t278 -90t110 -279zM816 1666q41 -22 73 -66t39 -92q-45 -69 -221 -173t-333 -135q-16 12 -32 60t-21 86q271 122 495 320z" />
    <glyph glyph-name="Ncommaaccent" unicode="&#x145;" horiz-adv-x="1336" 
d="M712 0q54 0 98 -38t43 -123q-1 -86 -73 -185t-157 -145l-52 65q60 102 60 158t-53 132q0 56 40 96t94 40zM524 94q0 -74 -15 -85q-18 -9 -186 -9h-92q-168 0 -186 9q-15 11 -15 85t9 91q47 16 121 27v894q-74 11 -121 27q-9 17 -9 91t15 85q18 9 186 9h163l548 -877v665
q-74 11 -121 27q-9 17 -9 91t15 85q18 9 186 9h92q168 0 186 -9q15 -11 15 -85t-9 -91q-49 -16 -121 -27v-1106h-234l-548 876v-664q72 -11 121 -27q9 -17 9 -91z" />
    <glyph glyph-name="ncommaaccent" unicode="&#x146;" horiz-adv-x="1250" 
d="M619 0q53 0 97 -38t44 -123q0 -86 -72 -185t-158 -145l-52 65q60 102 60 158t-53 132q0 56 40 96t94 40zM1090 689v-477q72 -11 121 -27q9 -16 9 -91t-15 -85q-18 -9 -186 -9h-92q-168 0 -186 9q-15 11 -15 85t9 91q68 5 121 12v423q0 108 -66 160t-180 53
q-114 0 -215 -64v-557q72 -11 121 -27q9 -17 9 -91t-15 -85q-18 -9 -186 -9h-92q-168 0 -186 9q-15 11 -15 85t9 91q68 5 121 12v607q-109 4 -115 7q-16 8 -16 83t9 93q71 23 171 37t149 14l23 -81q152 101 320 101t278 -90t110 -279z" />
    <glyph glyph-name="Ncaron" unicode="&#x147;" horiz-adv-x="1336" 
d="M524 94q0 -74 -15 -85q-18 -9 -186 -9h-92q-168 0 -186 9q-15 11 -15 85t9 91q47 16 121 27v894q-74 11 -121 27q-9 17 -9 91t15 85q18 9 186 9h163l548 -877v665q-74 11 -121 27q-9 17 -9 91t15 85q18 9 186 9h92q168 0 186 -9q15 -11 15 -85t-9 -91q-49 -16 -121 -27
v-1106h-234l-548 876v-664q72 -11 121 -27q9 -17 9 -91zM270 1821q229 -112 375 -248h5q152 139 376 248q15 -13 33 -71t21 -97q-222 -118 -427 -315h-11q-201 195 -426 315q3 39 21 97t33 71z" />
    <glyph glyph-name="ncaron" unicode="&#x148;" horiz-adv-x="1250" 
d="M1090 689v-477q72 -11 121 -27q9 -16 9 -91t-15 -85q-18 -9 -186 -9h-92q-168 0 -186 9q-15 11 -15 85t9 91q68 5 121 12v423q0 108 -66 160t-180 53q-114 0 -215 -64v-557q72 -11 121 -27q9 -17 9 -91t-15 -85q-18 -9 -186 -9h-92q-168 0 -186 9q-15 11 -15 85t9 91
q68 5 121 12v607q-109 4 -115 7q-16 8 -16 83t9 93q71 23 171 37t149 14l23 -81q152 101 320 101t278 -90t110 -279zM247 1660q229 -112 375 -248h5q152 139 376 248q15 -12 33 -70t21 -98q-222 -118 -427 -315h-11q-201 195 -426 315q3 40 21 98t33 70z" />
    <glyph glyph-name="Eng" unicode="&#x14a;" horiz-adv-x="1336" 
d="M1306 1224q0 -74 -9 -91q-49 -16 -121 -27v-1106q-6 -255 -144 -367q-139 -111 -388 -111q-42 0 -142 41v67q0 64 7 142t14 85q84 24 191 16q13 -21 36 -116q83 16 130 72t58 177l-544 870v-664q72 -11 121 -27q9 -17 9 -91t-15 -85q-18 -9 -186 -9h-92q-168 0 -186 9
q-15 11 -15 85t9 91q47 16 121 27v894q-74 11 -121 27q-9 17 -9 91t15 85q18 9 186 9h163l548 -877v665q-74 11 -121 27q-9 17 -9 91t15 85q18 9 186 9h92q168 0 186 -9q15 -11 15 -85z" />
    <glyph glyph-name="eng" unicode="&#x14b;" horiz-adv-x="1200" 
d="M1090 689v-761q0 -303 -262 -384q-70 -22 -174 -22t-218 38q0 76 7 184t14 115q88 25 179 16q11 -20 38 -128q86 1 115 25t41 43q26 41 26 185v620q0 108 -66 160t-180 53q-114 0 -215 -64v-557q72 -11 121 -27q9 -17 9 -91t-15 -85q-18 -9 -186 -9h-92q-168 0 -186 9
q-15 11 -15 85t9 91q68 5 121 12v607q-109 4 -115 7q-16 8 -16 83t9 93q71 23 171 37t149 14l23 -81q152 101 320 101t278 -90t110 -279z" />
    <glyph glyph-name="Omacron" unicode="&#x14c;" horiz-adv-x="1379" 
d="M694 205q188 1 290 123t101 322q-1 109 -35 199t-92 147q-119 118 -274 118t-273 -116q-117 -116 -117 -325t106 -339t294 -129zM60 660q0 190 80 344t226 244t330 90t327 -90t219 -243q76 -155 77 -345q0 -190 -79 -345t-225 -245t-330 -90q-183 0 -327 90t-221 244
q-77 156 -77 346zM1030 1623v-215h-642v215h642z" />
    <glyph glyph-name="omacron" unicode="&#x14d;" horiz-adv-x="1178" 
d="M319 524q0 -138 71 -228t202 -91q130 0 198 85q68 84 68 224t-68 230t-200 89q-131 0 -201 -86q-70 -85 -70 -223zM80 515q0 153 65 277t183 194q118 72 266 72t264 -72t178 -193q62 -122 62 -273q0 -150 -64 -274t-182 -195t-267 -71q-225 0 -365 153t-140 382z
M910 1448v-215h-642v215h642z" />
    <glyph glyph-name="Ohungarumlaut" unicode="&#x150;" horiz-adv-x="1379" 
d="M694 205q188 1 290 123t101 322q-1 109 -35 199t-92 147q-119 118 -274 118t-273 -116q-117 -116 -117 -325t106 -339t294 -129zM60 660q0 190 80 344t226 244t330 90t327 -90t219 -243q76 -155 77 -345q0 -190 -79 -345t-225 -245t-330 -90q-183 0 -327 90t-221 244
q-77 156 -77 346zM1152 1987q44 -10 88 -41t67 -75q-23 -80 -158 -233t-274 -230q-18 8 -49 48t-47 73q214 194 373 458zM694 1987q47 -9 91 -40t66 -76q-23 -79 -159 -233t-273 -230q-19 8 -49 47t-47 74q229 208 371 458z" />
    <glyph glyph-name="ohungarumlaut" unicode="&#x151;" horiz-adv-x="1178" 
d="M319 524q0 -138 71 -228t202 -91q130 0 198 85q68 84 68 224t-68 230t-200 89q-131 0 -201 -86q-70 -85 -70 -223zM80 515q0 153 65 277t183 194q118 72 266 72t264 -72t178 -193q62 -122 62 -273q0 -150 -64 -274t-182 -195t-267 -71q-225 0 -365 153t-140 382z
M1074 1779q44 -10 88 -41t67 -75q-23 -80 -158 -233t-274 -230q-18 8 -49 48t-47 73q214 194 373 458zM616 1779q47 -9 91 -40t66 -76q-23 -79 -159 -233t-273 -230q-19 8 -49 47t-47 74q229 208 371 458z" />
    <glyph glyph-name="OE" unicode="&#x152;" horiz-adv-x="1722" 
d="M696 205q90 0 163 26v838q-83 45 -167 45q-163 0 -281 -116q-117 -116 -117 -325t106 -339t296 -129zM1093 1093v-325h187q20 70 31 88q86 7 162 -15q18 -69 18 -173t-18 -198q-76 -22 -162 -15q-11 18 -31 88h-187v-318h329q23 97 39 124q86 7 162 -15q6 -6 12 -80
t7 -142v-112h-712q-46 0 -69 1q-84 -21 -176 -21q-183 0 -327 90t-221 244t-77 346q0 190 80 344t226 244t330 90q89 0 167 -21q22 1 67 1h712v-102q0 -70 -6 -148t-13 -84q-76 -22 -162 -15q-17 28 -39 124h-329z" />
    <glyph glyph-name="oe" unicode="&#x153;" horiz-adv-x="1801" 
d="M1331 833q-75 0 -139 -55t-84 -161h419q-8 108 -64 162t-132 54zM592 205q130 0 198 85q68 84 68 224t-68 230t-200 89q-131 0 -201 -86q-70 -85 -70 -223t71 -228t202 -91zM594 1058q237 0 380 -172q66 84 158 128t193 44q169 0 283 -103q134 -122 133 -367v-156h-630
q27 -118 111 -173t206 -55q121 0 251 68l9 -3v-227q-126 -62 -274 -62q-288 0 -438 178q-148 -178 -382 -178t-374 153t-140 382q0 153 65 277t183 194q118 72 266 72z" />
    <glyph glyph-name="Racute" unicode="&#x154;" horiz-adv-x="1261" 
d="M394 619h148q194 1 272 59t79 172q0 180 -182 226q-70 18 -169 17h-148v-474zM323 0h-92q-168 0 -186 9q-15 11 -15 85t9 91q47 16 121 27v894q-74 11 -121 27q-9 17 -9 91t15 85q18 9 186 9h307q297 0 458 -144q58 -52 95 -137t37 -194q0 -254 -226 -372
q36 -85 130 -180q74 78 110 99q80 -36 149 -119q-11 -32 -77 -150t-84 -141q-70 0 -146 43t-138 108q-130 139 -175 271q-57 -8 -133 -8h-144v-182q72 -11 121 -27q9 -17 9 -91t-15 -85q-18 -9 -186 -9zM720 1874q41 -22 73 -66t39 -92q-45 -69 -221 -173t-333 -135
q-16 12 -32 60t-21 86q271 122 495 320z" />
    <glyph glyph-name="racute" unicode="&#x155;" horiz-adv-x="903" 
d="M653 1058q137 0 210 -41q1 -79 -7 -197t-14 -123q-88 -25 -179 -16q-15 23 -41 151h-9q-111 0 -209 -76v-544q72 -11 121 -27q9 -17 9 -91t-15 -85q-18 -9 -186 -9h-92q-168 0 -186 9q-15 11 -15 85t9 91q47 16 121 27v612q-108 4 -114 7q-16 8 -16 83t9 93q71 23 168 37
t145 14l30 -105q124 105 261 105zM670 1566q41 -22 73 -66t39 -92q-45 -69 -221 -173t-333 -135q-16 12 -32 60t-21 86q271 122 495 320z" />
    <glyph glyph-name="Rcommaaccent" unicode="&#x156;" horiz-adv-x="1261" 
d="M683 0q53 0 97 -38t44 -123q0 -86 -72 -185t-158 -145l-52 65q60 102 60 158t-53 132q0 56 40 96t94 40zM394 619h148q194 1 272 59t79 172q0 180 -182 226q-70 18 -169 17h-148v-474zM323 0h-92q-168 0 -186 9q-15 11 -15 85t9 91q47 16 121 27v894q-74 11 -121 27
q-9 17 -9 91t15 85q18 9 186 9h307q297 0 458 -144q58 -52 95 -137t37 -194q0 -254 -226 -372q36 -85 130 -180q74 78 110 99q80 -36 149 -119q-11 -32 -77 -150t-84 -141q-70 0 -146 43t-138 108q-130 139 -175 271q-57 -8 -133 -8h-144v-182q72 -11 121 -27q9 -17 9 -91
t-15 -85q-18 -9 -186 -9z" />
    <glyph glyph-name="rcommaaccent" unicode="&#x157;" horiz-adv-x="903" 
d="M288 -86q54 0 98 -38t43 -123q-1 -86 -73 -185t-157 -145l-52 65q60 102 60 158t-53 132q0 56 40 96t94 40zM653 1058q137 0 210 -41q1 -79 -7 -197t-14 -123q-88 -25 -179 -16q-15 23 -41 151h-9q-111 0 -209 -76v-544q72 -11 121 -27q9 -17 9 -91t-15 -85
q-18 -9 -186 -9h-92q-168 0 -186 9q-15 11 -15 85t9 91q47 16 121 27v612q-108 4 -114 7q-16 8 -16 83t9 93q71 23 168 37t145 14l30 -105q124 105 261 105z" />
    <glyph glyph-name="Rcaron" unicode="&#x158;" horiz-adv-x="1261" 
d="M394 619h148q194 1 272 59t79 172q0 180 -182 226q-70 18 -169 17h-148v-474zM323 0h-92q-168 0 -186 9q-15 11 -15 85t9 91q47 16 121 27v894q-74 11 -121 27q-9 17 -9 91t15 85q18 9 186 9h307q297 0 458 -144q58 -52 95 -137t37 -194q0 -254 -226 -372
q36 -85 130 -180q74 78 110 99q80 -36 149 -119q-11 -32 -77 -150t-84 -141q-70 0 -146 43t-138 108q-130 139 -175 271q-57 -8 -133 -8h-144v-182q72 -11 121 -27q9 -17 9 -91t-15 -85q-18 -9 -186 -9zM153 1891q229 -112 375 -248h5q152 139 376 248q15 -13 33 -71t21 -97
q-222 -118 -427 -315h-11q-201 195 -426 315q3 39 21 97t33 71z" />
    <glyph glyph-name="rcaron" unicode="&#x159;" horiz-adv-x="903" 
d="M653 1058q137 0 210 -41q1 -79 -7 -197t-14 -123q-88 -25 -179 -16q-15 23 -41 151h-9q-111 0 -209 -76v-544q72 -11 121 -27q9 -17 9 -91t-15 -85q-18 -9 -186 -9h-92q-168 0 -186 9q-15 11 -15 85t9 91q47 16 121 27v612q-108 4 -114 7q-16 8 -16 83t9 93q71 23 168 37
t145 14l30 -105q124 105 261 105zM59 1600q229 -112 375 -248h5q152 139 376 248q15 -12 33 -70t21 -98q-222 -118 -427 -315h-11q-201 195 -426 315q3 40 21 98t33 70z" />
    <glyph glyph-name="Sacute" unicode="&#x15a;" horiz-adv-x="964" 
d="M561 1338q118 0 270 -42q-2 -297 -20 -312q-76 -22 -162 -15q-22 37 -44 145q-54 4 -83 4q-241 0 -241 -121q0 -113 232 -211q37 -16 87 -35q50 -20 72 -30q112 -49 182 -137t70 -186t-34 -164q-61 -120 -211 -187q-151 -67 -314 -67t-297 58q0 114 6 202t13 94
q76 22 162 15q19 -32 44 -144q36 -5 89 -5q135 0 218 48t83 122q0 115 -231 209q-36 15 -86 35t-74 30q-108 50 -180 136t-72 192t43 176t116 110t159 60t203 20zM703 1874q41 -22 73 -66t39 -92q-45 -69 -221 -173t-333 -135q-15 12 -31 60t-22 86q271 122 495 320z" />
    <glyph glyph-name="sacute" unicode="&#x15b;" horiz-adv-x="826" 
d="M355 203q72 -1 122 29t50 81t-24 79q-25 28 -63 42q-38 16 -84 30q-116 36 -180 82q-86 64 -86 203q0 228 222 291q64 18 137 18q139 0 297 -62q0 -76 -7 -184t-14 -115q-88 -25 -179 -16q-17 28 -43 161h-14q-71 0 -118 -24t-47 -60q0 -38 24 -60t62 -36t84 -28
q105 -33 183 -99q79 -65 79 -208q0 -176 -119 -261q-119 -86 -287 -86t-280 71q0 77 7 185t14 114q88 25 179 16q16 -31 43 -161q28 -2 42 -2zM652 1666q41 -22 73 -66t39 -92q-45 -69 -221 -173t-333 -135q-16 12 -32 60t-21 86q271 122 495 320z" />
    <glyph glyph-name="Scircumflex" unicode="&#x15c;" horiz-adv-x="964" 
d="M561 1338q118 0 270 -42q-2 -297 -20 -312q-76 -22 -162 -15q-22 37 -44 145q-54 4 -83 4q-241 0 -241 -121q0 -113 232 -211q37 -16 87 -35q50 -20 72 -30q112 -49 182 -137t70 -186t-34 -164q-61 -120 -211 -187q-151 -67 -314 -67t-297 58q0 114 6 202t13 94
q76 22 162 15q19 -32 44 -144q36 -5 89 -5q135 0 218 48t83 122q0 115 -231 209q-36 15 -86 35t-74 30q-108 50 -180 136t-72 192t43 176t116 110t159 60t203 20zM470 1656q-146 -136 -375 -248q-15 12 -33 70t-21 98q225 120 426 315h11q205 -197 427 -315q-3 -40 -21 -98
t-33 -70q-224 109 -376 248h-5z" />
    <glyph glyph-name="scircumflex" unicode="&#x15d;" horiz-adv-x="826" 
d="M355 203q72 -1 122 29t50 81t-24 79q-25 28 -63 42q-38 16 -84 30q-116 36 -180 82q-86 64 -86 203q0 228 222 291q64 18 137 18q139 0 297 -62q0 -76 -7 -184t-14 -115q-88 -25 -179 -16q-17 28 -43 161h-14q-71 0 -118 -24t-47 -60q0 -38 24 -60t62 -36t84 -28
q105 -33 183 -99q79 -65 79 -208q0 -176 -119 -261q-119 -86 -287 -86t-280 71q0 77 7 185t14 114q88 25 179 16q16 -31 43 -161q28 -2 42 -2zM461 1425q-146 -136 -375 -248q-15 13 -33 71t-21 97q225 120 426 315h11q205 -197 427 -315q-3 -39 -21 -97t-33 -71
q-224 109 -376 248h-5z" />
    <glyph glyph-name="Scedilla" unicode="&#x15e;" horiz-adv-x="964" 
d="M499 -52q53 0 97 -38t44 -123q0 -86 -72 -185t-158 -145l-52 65q60 102 60 158t-53 132q0 56 40 96t94 40zM561 1338q118 0 270 -42q-2 -297 -20 -312q-76 -22 -162 -15q-22 37 -44 145q-54 4 -83 4q-241 0 -241 -121q0 -113 232 -211q37 -16 87 -35q50 -20 72 -30
q112 -49 182 -137t70 -186t-34 -164q-61 -120 -211 -187q-151 -67 -314 -67t-297 58q0 114 6 202t13 94q76 22 162 15q19 -32 44 -144q36 -5 89 -5q135 0 218 48t83 122q0 115 -231 209q-36 15 -86 35t-74 30q-108 50 -180 136t-72 192t43 176t116 110t159 60t203 20z" />
    <glyph glyph-name="scedilla" unicode="&#x15f;" horiz-adv-x="826" 
d="M434 -52q54 0 98 -38t43 -123q-1 -86 -73 -185t-157 -145l-52 65q60 102 60 158t-53 132q0 56 40 96t94 40zM355 203q72 -1 122 29t50 81t-24 79q-25 28 -63 42q-38 16 -84 30q-116 36 -180 82q-86 64 -86 203q0 228 222 291q64 18 137 18q139 0 297 -62q0 -76 -7 -184
t-14 -115q-88 -25 -179 -16q-17 28 -43 161h-14q-71 0 -118 -24t-47 -60q0 -38 24 -60t62 -36t84 -28q105 -33 183 -99q79 -65 79 -208q0 -176 -119 -261q-119 -86 -287 -86t-280 71q0 77 7 185t14 114q88 25 179 16q16 -31 43 -161q28 -2 42 -2z" />
    <glyph glyph-name="Scaron" unicode="&#x160;" horiz-adv-x="964" 
d="M561 1338q118 0 270 -42q-2 -297 -20 -312q-76 -22 -162 -15q-22 37 -44 145q-54 4 -83 4q-241 0 -241 -121q0 -113 232 -211q37 -16 87 -35q50 -20 72 -30q112 -49 182 -137t70 -186t-34 -164q-61 -120 -211 -187q-151 -67 -314 -67t-297 58q0 114 6 202t13 94
q76 22 162 15q19 -32 44 -144q36 -5 89 -5q135 0 218 48t83 122q0 115 -231 209q-36 15 -86 35t-74 30q-108 50 -180 136t-72 192t43 176t116 110t159 60t203 20zM124 1891q229 -112 375 -248h5q152 139 376 248q15 -13 33 -71t21 -97q-222 -118 -427 -315h-11
q-201 195 -426 315q3 39 21 97t33 71z" />
    <glyph glyph-name="scaron" unicode="&#x161;" horiz-adv-x="826" 
d="M355 203q72 -1 122 29t50 81t-24 79q-25 28 -63 42q-38 16 -84 30q-116 36 -180 82q-86 64 -86 203q0 228 222 291q64 18 137 18q139 0 297 -62q0 -76 -7 -184t-14 -115q-88 -25 -179 -16q-17 28 -43 161h-14q-71 0 -118 -24t-47 -60q0 -38 24 -60t62 -36t84 -28
q105 -33 183 -99q79 -65 79 -208q0 -176 -119 -261q-119 -86 -287 -86t-280 71q0 77 7 185t14 114q88 25 179 16q16 -31 43 -161q28 -2 42 -2zM77 1660q229 -112 375 -248h5q152 139 376 248q15 -12 33 -70t21 -98q-222 -118 -427 -315h-11q-201 195 -426 315q3 40 21 98
t33 70z" />
    <glyph glyph-name="Tcedilla" unicode="&#x162;" horiz-adv-x="1114" 
d="M564 -52q54 0 98 -38t43 -123q-1 -86 -73 -185t-157 -145l-52 65q60 102 60 158t-53 132q0 56 40 96t94 40zM1074 1318v-199q0 -69 -6 -149t-13 -86q-76 -22 -162 -15q-12 19 -33 97t-25 127h-161v-881q72 -11 121 -27q9 -17 9 -91t-15 -85q-18 -9 -186 -9h-92
q-168 0 -186 9q-15 11 -15 85t9 91q47 16 121 27v881h-162q-4 -49 -24 -126t-33 -98q-86 -7 -162 15q-7 6 -13 86t-6 149v199h1034z" />
    <glyph glyph-name="tcedilla" unicode="&#x163;" horiz-adv-x="866" 
d="M467 -86q53 0 97 -38t44 -123q0 -86 -72 -185t-158 -145l-52 65q60 102 60 158t-53 132q0 56 40 96t94 40zM170 1038v260l204 20h30v-280h309v-225h-309v-354q0 -143 28 -188q28 -46 69 -56t83 -10h15q22 103 37 129q91 9 179 -16q7 -6 14 -114t7 -185q-50 -17 -134 -28
t-146 -11t-117 13q-119 28 -194 124t-75 269v427h-130v225h130z" />
    <glyph glyph-name="Tcaron" unicode="&#x164;" horiz-adv-x="1114" 
d="M1074 1318v-199q0 -69 -6 -149t-13 -86q-76 -22 -162 -15q-12 19 -33 97t-25 127h-161v-881q72 -11 121 -27q9 -17 9 -91t-15 -85q-18 -9 -186 -9h-92q-168 0 -186 9q-15 11 -15 85t9 91q47 16 121 27v881h-162q-4 -49 -24 -126t-33 -98q-86 -7 -162 15q-7 6 -13 86
t-6 149v199h1034zM179 1891q229 -112 375 -248h5q152 139 376 248q15 -13 33 -71t21 -97q-222 -118 -427 -315h-11q-201 195 -426 315q3 39 21 97t33 71z" />
    <glyph glyph-name="tcaron" unicode="&#x165;" horiz-adv-x="1308" 
d="M170 1038v260l204 20h30v-280h309v-225h-309v-354q0 -143 28 -188q28 -46 69 -56t83 -10h15q22 103 37 129q91 9 179 -16q7 -6 14 -114t7 -185q-50 -17 -134 -28t-146 -11t-117 13q-119 28 -194 124t-75 269v427h-130v225h130zM1087 1448q53 0 97 -38t44 -123
q0 -86 -72 -185t-158 -145l-52 65q60 102 60 158t-53 132q0 56 40 96t94 40z" />
    <glyph glyph-name="Tbar" unicode="&#x166;" horiz-adv-x="1114" 
d="M1074 1318v-202q0 -70 -6 -148t-13 -84q-76 -22 -162 -15q-12 19 -33 97t-25 127h-161v-301h179v-225h-179v-355q72 -11 121 -27q9 -17 9 -91t-15 -85q-18 -9 -186 -9h-92q-168 0 -186 9q-15 11 -15 85t9 91q47 16 121 27v355h-185v225h185v301h-162q-4 -49 -24 -126
t-33 -98q-86 -7 -162 15q-7 6 -13 86t-6 149v199h1034z" />
    <glyph glyph-name="tbar" unicode="&#x167;" horiz-adv-x="866" 
d="M170 1038v260l204 20h30v-280h309v-225h-309v-59h309v-225h-309v-70q0 -143 28 -188q28 -46 69 -56t83 -10h15q22 103 37 129q91 9 179 -16q7 -6 14 -114t7 -185q-50 -17 -134 -28t-146 -11t-117 13q-119 28 -194 124t-75 269v143h-130v225h130v59h-130v225h130z" />
    <glyph glyph-name="Utilde" unicode="&#x168;" horiz-adv-x="1406" 
d="M1083 1318h92q168 0 186 -9q15 -11 15 -85t-9 -91q-49 -16 -121 -27v-597q0 -270 -142 -399q-142 -130 -390 -130h-22q-429 0 -513 354q-19 80 -19 175v597q-74 11 -121 27q-9 17 -9 91t15 85q18 9 186 9h92q168 0 186 -9q15 -11 15 -85t-9 -91q-49 -16 -121 -27v-530
q0 -256 120 -328q70 -42 159 -43q91 0 135 9q103 21 153 104q51 83 51 258v530q-74 11 -121 27q-9 17 -9 91t15 85q18 9 186 9zM976 1720q26 0 72 -14q45 -14 73 -40q-13 -108 -87 -183t-180 -75q-104 0 -164 49q-59 49 -108 49q-48 0 -78 -24t-30 -72q-18 -2 -46 -2t-72 13
t-71 38q13 105 87 183t186 78q50 0 94 -24t86 -50q42 -24 84 -24t76 24t34 72q18 2 44 2z" />
    <glyph glyph-name="utilde" unicode="&#x169;" horiz-adv-x="1282" 
d="M1089 1058v-837q77 12 144 12q36 -69 6 -175q-8 -2 -65 -14q-175 -37 -245 -64h-32l-30 101q-150 -101 -318 -101t-279 90q-110 90 -110 279v475q-108 4 -114 7q-16 8 -16 83t9 93q71 23 171 37t149 14h35v-640q0 -110 66 -162t178 -52t217 64v556q-108 4 -114 7
q-16 8 -16 83t9 93q70 23 170 37t150 14h35zM884 1506q26 0 71 -14t73 -40q-14 -108 -88 -183t-179 -75t-165 49q-59 49 -107 49q-49 0 -79 -24t-29 -72q-18 -2 -46 -2t-72 13t-71 38q14 105 88 183t185 78q49 0 93 -24t87 -50q43 -24 85 -24t76 24t33 72q19 2 45 2z" />
    <glyph glyph-name="Umacron" unicode="&#x16a;" horiz-adv-x="1406" 
d="M1083 1318h92q168 0 186 -9q15 -11 15 -85t-9 -91q-49 -16 -121 -27v-597q0 -270 -142 -399q-142 -130 -390 -130h-22q-429 0 -513 354q-19 80 -19 175v597q-74 11 -121 27q-9 17 -9 91t15 85q18 9 186 9h92q168 0 186 -9q15 -11 15 -85t-9 -91q-49 -16 -121 -27v-530
q0 -256 120 -328q70 -42 159 -43q91 0 135 9q103 21 153 104q51 83 51 258v530q-74 11 -121 27q-9 17 -9 91t15 85q18 9 186 9zM1011 1623v-215h-642v215h642z" />
    <glyph glyph-name="umacron" unicode="&#x16b;" horiz-adv-x="1282" 
d="M1089 1058v-837q77 12 144 12q36 -69 6 -175q-8 -2 -65 -14q-175 -37 -245 -64h-32l-30 101q-150 -101 -318 -101t-279 90q-110 90 -110 279v475q-108 4 -114 7q-16 8 -16 83t9 93q71 23 171 37t149 14h35v-640q0 -110 66 -162t178 -52t217 64v556q-108 4 -114 7
q-16 8 -16 83t9 93q70 23 170 37t150 14h35zM962 1448v-215h-642v215h642z" />
    <glyph glyph-name="Uring" unicode="&#x16e;" horiz-adv-x="1406" 
d="M1083 1318h92q168 0 186 -9q15 -11 15 -85t-9 -91q-49 -16 -121 -27v-597q0 -270 -142 -399q-142 -130 -390 -130h-22q-429 0 -513 354q-19 80 -19 175v597q-74 11 -121 27q-9 17 -9 91t15 85q18 9 186 9h92q168 0 186 -9q15 -11 15 -85t-9 -91q-49 -16 -121 -27v-530
q0 -256 120 -328q70 -42 159 -43q91 0 135 9q103 21 153 104q51 83 51 258v530q-74 11 -121 27q-9 17 -9 91t15 85q18 9 186 9zM650 1557q0 -25 20 -45t45 -20q26 0 46 20t20 45t-20 45t-46 20q-25 0 -45 -20t-20 -45zM495 1557q0 89 65 153q64 64 154 64t156 -64t66 -153
q0 -87 -66 -153t-156 -66t-154 65q-65 65 -65 154z" />
    <glyph glyph-name="uring" unicode="&#x16f;" horiz-adv-x="1282" 
d="M1089 1058v-837q77 12 144 12q36 -69 6 -175q-8 -2 -65 -14q-175 -37 -245 -64h-32l-30 101q-150 -101 -318 -101t-279 90q-110 90 -110 279v475q-108 4 -114 7q-16 8 -16 83t9 93q71 23 171 37t149 14h35v-640q0 -110 66 -162t178 -52t217 64v556q-108 4 -114 7
q-16 8 -16 83t9 93q70 23 170 37t150 14h35zM530 1411q0 -25 20 -45t45 -20q26 0 46 20t20 45t-20 45t-46 20q-25 0 -45 -20t-20 -45zM375 1411q0 89 65 153q64 64 154 64t156 -64t66 -153q0 -87 -66 -153t-156 -66t-154 65q-65 65 -65 154z" />
    <glyph glyph-name="Uhungarumlaut" unicode="&#x170;" horiz-adv-x="1406" 
d="M1083 1318h92q168 0 186 -9q15 -11 15 -85t-9 -91q-49 -16 -121 -27v-597q0 -270 -142 -399q-142 -130 -390 -130h-22q-429 0 -513 354q-19 80 -19 175v597q-74 11 -121 27q-9 17 -9 91t15 85q18 9 186 9h92q168 0 186 -9q15 -11 15 -85t-9 -91q-49 -16 -121 -27v-530
q0 -256 120 -328q70 -42 159 -43q91 0 135 9q103 21 153 104q51 83 51 258v530q-74 11 -121 27q-9 17 -9 91t15 85q18 9 186 9zM1145 1987q45 -10 89 -41t66 -75q-23 -80 -158 -233t-274 -230q-18 8 -49 48t-47 73q214 194 373 458zM687 1987q47 -9 91 -40t66 -76
q-24 -79 -160 -233t-272 -230q-18 8 -48 47t-48 74q229 208 371 458z" />
    <glyph glyph-name="uhungarumlaut" unicode="&#x171;" horiz-adv-x="1282" 
d="M1089 1058v-837q77 12 144 12q36 -69 6 -175q-8 -2 -65 -14q-175 -37 -245 -64h-32l-30 101q-150 -101 -318 -101t-279 90q-110 90 -110 279v475q-108 4 -114 7q-16 8 -16 83t9 93q71 23 171 37t149 14h35v-640q0 -110 66 -162t178 -52t217 64v556q-108 4 -114 7
q-16 8 -16 83t9 93q70 23 170 37t150 14h35zM1086 1779q44 -10 88 -41t67 -75q-23 -80 -158 -233t-274 -230q-18 8 -49 48t-47 73q214 194 373 458zM628 1779q47 -9 91 -40t66 -76q-23 -79 -159 -233t-273 -230q-19 8 -49 47t-47 74q229 208 371 458z" />
    <glyph glyph-name="Uogonek" unicode="&#x172;" horiz-adv-x="1406" 
d="M749 -220q0 -83 90 -83q60 0 152 46l7 -5v-165q-72 -51 -182 -51t-181 70t-71 176q0 104 91 213q-400 17 -478 361q-17 76 -17 167v597q-74 11 -121 27q-9 17 -9 91t15 85q18 9 186 9h92q168 0 186 -9q15 -11 15 -85t-9 -91q-49 -16 -121 -27v-530q0 -256 120 -328
q70 -42 159 -43q91 0 135 9q103 21 153 104q51 83 51 258v530q-74 11 -121 27q-9 17 -9 91t15 85q18 9 186 9h92q168 0 186 -9q15 -11 15 -85t-9 -91q-49 -16 -121 -27v-597q0 -403 -321 -501q-78 -32 -127 -100t-49 -128z" />
    <glyph glyph-name="uogonek" unicode="&#x173;" horiz-adv-x="1282" 
d="M991 -220q0 -83 90 -83q60 0 152 46l7 -5v-165q-72 -51 -182 -51t-181 70t-71 176q0 104 91 212l-30 101q-150 -101 -318 -101t-279 90q-110 90 -110 279v475q-108 4 -114 7q-16 8 -16 83t9 93q71 23 171 37t149 14h35v-640q0 -110 66 -162t178 -52t217 64v556
q-108 4 -114 7q-16 8 -16 83t9 93q70 23 170 37t150 14h35v-837q77 12 144 12q36 -69 6 -175q-94 -40 -171 -118t-77 -160z" />
    <glyph glyph-name="Wcircumflex" unicode="&#x174;" horiz-adv-x="2059" 
d="M1736 1318h92q168 0 186 -9q15 -11 15 -85t-9 -91q-58 -19 -146 -30l-328 -1123h-259l-257 902l-257 -902h-259l-328 1122q-93 14 -147 31q-9 17 -9 91t15 85q18 9 186 9h92q168 0 186 -9q15 -11 15 -85t-9 -91q-34 -11 -84 -21l211 -721l264 927h248l264 -927l210 721
q-50 10 -84 21q-9 17 -9 91t15 85q18 9 186 9zM1026 1586q-146 -136 -375 -248q-15 12 -33 70t-21 98q225 120 426 315h11q205 -197 427 -315q-3 -40 -21 -98t-33 -70q-224 109 -376 248h-5z" />
    <glyph glyph-name="wcircumflex" unicode="&#x175;" horiz-adv-x="1849" 
d="M1521 1038h97q168 0 186 -9q15 -11 15 -85t-9 -91q-58 -19 -154 -31l-276 -822h-257l-199 656l-198 -656h-257l-277 822q-97 12 -153 31q-9 17 -9 91t15 85q18 9 186 9h97q168 0 186 -9q15 -11 15 -85t-9 -91q-27 -10 -78 -20l157 -473h5l205 678h231l204 -678h6l157 473
q-53 11 -78 20q-9 17 -9 91t15 85q18 9 186 9zM921 1425q-146 -136 -375 -248q-15 13 -33 71t-21 97q225 120 426 315h11q205 -197 427 -315q-3 -39 -21 -97t-33 -71q-224 109 -376 248h-5z" />
    <glyph glyph-name="Ycircumflex" unicode="&#x176;" horiz-adv-x="1252" 
d="M30 1224q0 74 15 85q18 9 186 9h92q168 0 186 -9q15 -11 15 -85t-9 -91q-29 -10 -68 -18l179 -352l179 352q-39 8 -68 18q-9 17 -9 91t15 85q18 9 186 9h92q168 0 186 -9q15 -11 15 -85t-9 -91q-57 -19 -153 -31l-316 -623v-267q72 -11 121 -27q9 -17 9 -91t-15 -85
q-18 -9 -186 -9h-92q-168 0 -186 9q-15 11 -15 85t9 91q47 16 121 27v265l-319 625q-96 12 -152 31q-9 17 -9 91zM626 1656q-146 -136 -375 -248q-15 12 -33 70t-21 98q225 120 426 315h11q205 -197 427 -315q-3 -40 -21 -98t-33 -70q-224 109 -376 248h-5z" />
    <glyph glyph-name="ycircumflex" unicode="&#x177;" horiz-adv-x="1256" 
d="M263 1038h97q168 0 186 -9q15 -11 15 -85t-9 -91q-26 -9 -79 -20l163 -473h6l168 474q-38 7 -74 19q-9 17 -9 91t15 85q18 9 186 9h97q168 0 186 -9q15 -11 15 -85t-9 -91q-54 -18 -155 -32l-276 -803q-76 -222 -208 -359t-274 -137t-274 71q0 77 7 185t14 114
q88 25 179 16q17 -30 42 -158q74 9 140 78t93 173l-282 821q-96 12 -152 31q-9 17 -9 91t15 85q18 9 186 9zM625 1425q-146 -136 -375 -248q-15 13 -33 71t-21 97q225 120 426 315h11q205 -197 427 -315q-3 -39 -21 -97t-33 -71q-224 109 -376 248h-5z" />
    <glyph glyph-name="Ydieresis" unicode="&#x178;" horiz-adv-x="1252" 
d="M30 1224q0 74 15 85q18 9 186 9h92q168 0 186 -9q15 -11 15 -85t-9 -91q-29 -10 -68 -18l179 -352l179 352q-39 8 -68 18q-9 17 -9 91t15 85q18 9 186 9h92q168 0 186 -9q15 -11 15 -85t-9 -91q-57 -19 -153 -31l-316 -623v-267q72 -11 121 -27q9 -17 9 -91t-15 -85
q-18 -9 -186 -9h-92q-168 0 -186 9q-15 11 -15 85t9 91q47 16 121 27v265l-319 625q-96 12 -152 31q-9 17 -9 91zM696 1584q0 58 40 98t98 40t98 -40t41 -98q-1 -58 -41 -96q-40 -40 -98 -40t-98 40q-40 38 -40 96zM278 1584q0 58 40 98t98 40t98 -40t41 -98q-1 -58 -41 -96
q-40 -40 -98 -40t-98 40q-40 38 -40 96z" />
    <glyph glyph-name="Zacute" unicode="&#x179;" horiz-adv-x="1008" 
d="M958 0h-881l-27 27l543 1066h-303q-25 -101 -39 -124q-86 -7 -162 15q-7 6 -13 102t-6 232h871l15 -28l-543 -1065h325q23 97 39 124q86 7 162 -15q9 -9 14 -124q5 -116 5 -210zM747 1874q41 -22 73 -66t39 -92q-45 -69 -221 -173t-333 -135q-15 12 -31 60t-22 86
q271 122 495 320z" />
    <glyph glyph-name="zacute" unicode="&#x17a;" horiz-adv-x="1048" 
d="M978 22v-22h-876l-27 17l496 796h-267q-22 -97 -34 -119q-91 -9 -179 16q-7 6 -14 114t-7 185v29h891l16 -16l-498 -797h267q20 87 32 109q91 9 179 -16q7 -6 14 -112t7 -184zM715 1666q41 -22 73 -66t39 -92q-45 -69 -221 -173t-333 -135q-15 12 -31 60t-22 86
q271 122 495 320z" />
    <glyph glyph-name="Zdotaccent" unicode="&#x17b;" horiz-adv-x="1008" 
d="M958 0h-881l-27 27l543 1066h-303q-25 -101 -39 -124q-86 -7 -162 15q-7 6 -13 86t-6 149v99h871l15 -28l-543 -1065h325q23 97 39 124q86 7 162 -15q9 -9 14 -124q5 -116 5 -210zM382 1544q0 58 40 98t98 40t98 -40t41 -98q-1 -58 -41 -96q-40 -40 -98 -40t-98 40
q-40 38 -40 96z" />
    <glyph glyph-name="zdotaccent" unicode="&#x17c;" horiz-adv-x="1048" 
d="M978 19v-19h-876l-27 17l496 796h-267q-22 -97 -34 -119q-91 -9 -179 16q-7 6 -14 114t-7 185v29h891l16 -16l-498 -797h267q20 87 32 109q91 9 179 -16q7 -6 14 -114t7 -185zM391 1336q0 58 40 98t98 40q59 0 99 -40t40 -98t-40 -96q-40 -40 -99 -40q-58 0 -98 40
q-40 38 -40 96z" />
    <glyph glyph-name="Zcaron" unicode="&#x17d;" horiz-adv-x="1008" 
d="M958 0h-881l-27 27l543 1066h-303q-25 -101 -39 -124q-86 -7 -162 15q-7 6 -13 102t-6 232h871l15 -28l-543 -1065h325q23 97 39 124q86 7 162 -15q9 -9 14 -124q5 -116 5 -210zM146 1821q229 -112 375 -248h5q152 139 376 248q15 -13 33 -71t21 -97q-222 -118 -427 -315
h-11q-201 195 -426 315q3 39 21 97t33 71z" />
    <glyph glyph-name="zcaron" unicode="&#x17e;" horiz-adv-x="1048" 
d="M978 22v-22h-876l-27 17l496 796h-267q-22 -97 -34 -119q-91 -9 -179 16q-7 6 -14 114t-7 185v29h891l16 -16l-498 -797h267q20 87 32 109q91 9 179 -16q7 -6 14 -112t7 -184zM146 1660q229 -112 375 -248h5q152 139 376 248q15 -12 33 -70t21 -98q-222 -118 -427 -315
h-11q-201 195 -426 315q3 40 21 98t33 70z" />
    <glyph glyph-name="florin" unicode="&#x192;" horiz-adv-x="666" 
d="M160 1038v4q0 250 164 350q93 56 222 56q62 0 146 -11t134 -28q0 -77 -7 -185t-14 -114q-88 -25 -179 -16q-15 27 -37 129h-15q-101 1 -138 -45t-41 -140h215v-225h-216v-885q0 -303 -262 -384q-70 -22 -174 -22t-218 38q0 76 7 184t14 115q88 25 179 16q11 -20 38 -128
q94 0 134 39t46 128q2 32 2 87v812h-130v225h130z" />
    <glyph glyph-name="lbar" unicode="&#x19a;" horiz-adv-x="747" 
d="M622 94q0 -74 -15 -85q-18 -9 -186 -9h-92q-168 0 -186 9q-15 11 -15 85t9 91q47 16 121 27v371l-141 -51l-77 211l218 79v392q-108 4 -114 7q-16 8 -16 83t9 93q71 23 171 37t149 14h35v-542l148 54l77 -211l-225 -82v-455q72 -11 121 -27q9 -17 9 -91z" />
    <glyph glyph-name="Ezh" unicode="&#x1b7;" horiz-adv-x="1020" 
d="M715 386q0 186 -318 186h-150v225l251 296h-239q-22 -96 -39 -124q-86 -7 -162 15q-7 6 -13 84t-6 148v102h926l15 -28l-427 -499q405 -43 405 -414q0 -140 -68 -230q-68 -91 -171 -129q-102 -38 -206 -38t-230 32t-203 90l48 204l8 7q170 -107 343 -107q113 0 175 50
t61 130z" />
    <glyph glyph-name="Gstroke" unicode="&#x1e4;" horiz-adv-x="1280" 
d="M798 1338q190 0 342 -42q-1 -396 -19 -412q-76 -22 -162 -15q-13 21 -35 109t-24 136q-38 3 -78 3q-244 0 -386 -112t-142 -328t112 -344t295 -128q145 0 245 84h-230v175h242v65h-243v217h457l8 -8v-274h78v-175h-78v-289h-121l-62 59q-139 -79 -317 -79t-325 90
q-145 90 -225 244q-80 155 -80 360t109 380q109 176 329 246q120 38 310 38z" />
    <glyph glyph-name="gstroke" unicode="&#x1e5;" horiz-adv-x="1033" 
d="M490 -255q122 0 197 68h-365q46 -68 168 -68zM471 29h-110q-26 -31 -42 -61h404q-25 38 -85 50t-167 11zM468 852q-74 0 -118 -46t-44 -103q0 -58 44 -103t120 -45t117 44q42 45 42 103t-43 104t-118 46zM88 709q0 153 108 251t276 98q111 0 201 -48q65 48 138 76t127 29
l24 -70h1l40 -114l-5 -19q-87 -17 -174 -67q25 -63 25 -129q0 -150 -110 -258t-277 -108q-65 0 -119 16q-20 -30 -20 -60q1 -30 31 -48t85 -19h120q189 -1 295 -75t121 -196h62v-155h-82q-53 -127 -201 -209t-309 -82q-162 0 -265 82t-118 209h-69v155h92q33 81 99 149
q-40 23 -62 71t-23 96q0 88 75 181q-86 92 -86 244z" />
    <glyph glyph-name="Gcaron" unicode="&#x1e6;" horiz-adv-x="1280" 
d="M798 1338q190 0 342 -42q-1 -396 -19 -412q-76 -22 -162 -15q-13 21 -35 109t-24 136q-38 3 -78 3q-244 0 -386 -112t-142 -328t112 -344t282 -128q169 0 270 95v229h-243v217h457l8 -8v-738h-121l-62 59q-139 -79 -317 -79t-325 90q-145 90 -225 244q-80 155 -80 360
t109 380q109 176 329 246q120 38 310 38zM302 1870q229 -112 375 -248h5q152 139 376 248q15 -12 33 -70t21 -98q-222 -118 -427 -315h-11q-201 195 -426 315q3 40 21 98t33 70z" />
    <glyph glyph-name="gcaron" unicode="&#x1e7;" horiz-adv-x="1033" 
d="M299 -108q0 -67 50 -107t148 -40t169 51t71 122t-72 91t-194 20h-110q-62 -70 -62 -137zM468 852q-74 0 -118 -46t-44 -103q0 -58 44 -103t120 -45t117 44q42 45 42 103t-43 104t-118 46zM88 709q0 153 108 251t276 98q111 0 201 -48q65 48 138 76t127 29l24 -70h1
l40 -114l-5 -19q-87 -17 -174 -67q25 -63 25 -129q0 -150 -110 -258t-277 -108q-65 0 -119 16q-20 -30 -20 -60q1 -30 31 -48t85 -19h120q207 1 313 -87t106 -212t-80 -218t-202 -148q-122 -52 -252 -52q-174 0 -279 94t-105 237q0 63 33 134t91 130q-40 23 -62 71t-23 96
q0 88 75 181q-86 92 -86 244zM91 1660q229 -112 375 -248h5q152 139 376 248q15 -12 33 -70t21 -98q-222 -118 -427 -315h-11q-201 195 -426 315q3 40 21 98t33 70z" />
    <glyph glyph-name="Kcaron" unicode="&#x1e8;" horiz-adv-x="1259" 
d="M524 94q0 -74 -15 -85q-18 -9 -186 -9h-92q-168 0 -186 9q-15 11 -15 85t9 91q47 16 121 27v894q-74 11 -121 27q-9 17 -9 91t15 85q18 9 186 9h92q168 0 186 -9q15 -11 15 -85t-9 -91q-49 -16 -121 -27v-282l252 300l-29 9q-9 17 -9 91t15 85q18 9 186 9h92
q168 0 186 -9q15 -11 15 -85t-9 -91q-55 -19 -163 -33l-289 -344q27 -84 147 -220t250 -236q68 69 102 90q80 -36 149 -119q-11 -32 -77 -150t-84 -141q-64 0 -164 61q-195 120 -369 335q-90 111 -117 186l-84 -101v-249q72 -11 121 -27q9 -17 9 -91zM185 1870
q229 -112 375 -248h5q152 139 376 248q15 -12 33 -70t21 -98q-222 -118 -427 -315h-11q-201 195 -426 315q3 40 21 98t33 70z" />
    <glyph glyph-name="kcaron" unicode="&#x1e9;" horiz-adv-x="1152" 
d="M524 94q0 -74 -15 -85q-18 -9 -186 -9h-92q-168 0 -186 9q-15 11 -15 85t9 91q47 16 121 27v1002q-108 4 -114 7q-16 8 -16 83t9 93q71 23 171 37t149 14h35v-856l205 243q-43 8 -71 18q-9 17 -9 91t15 85q18 9 186 9h97q168 0 186 -9q15 -11 15 -85t-9 -91
q-55 -18 -143 -30l-222 -263q39 -56 108 -131t141 -134q66 68 97 86q62 -27 132 -110q-10 -32 -76 -150t-85 -141q-146 8 -384 272q-58 64 -106 129l-77 -94v-75q72 -11 121 -27q9 -17 9 -91zM-111 1950q229 -112 375 -248h5q152 139 376 248q15 -12 33 -70t21 -98
q-222 -118 -427 -315h-11q-201 195 -426 315q3 40 21 98t33 70z" />
    <glyph glyph-name="Ezhcaron" unicode="&#x1ee;" horiz-adv-x="1020" 
d="M715 386q0 186 -318 186h-150v225l251 296h-239q-22 -96 -39 -124q-86 -7 -162 15q-7 6 -13 84t-6 148v102h926l15 -28l-427 -499q405 -43 405 -414q0 -140 -68 -230q-68 -91 -171 -129q-102 -38 -206 -38t-230 32t-203 90l48 204l8 7q170 -107 343 -107q113 0 175 50
t61 130zM152 1870q229 -112 375 -248h5q152 139 376 248q15 -12 33 -70t21 -98q-222 -118 -427 -315h-11q-201 195 -426 315q3 40 21 98t33 70z" />
    <glyph glyph-name="ezhcaron" unicode="&#x1ef;" horiz-adv-x="1020" 
d="M715 106q0 186 -318 186h-150v225l251 296h-239q-22 -96 -39 -124q-86 -7 -162 15q-7 6 -13 84t-6 148v102h926l15 -28l-427 -499q405 -43 405 -414q0 -140 -68 -230q-68 -91 -171 -129q-102 -38 -206 -38t-230 32t-203 90l48 204l8 7q170 -107 343 -107q113 0 175 50
t61 130zM134 1660q229 -112 375 -248h5q152 139 376 248q15 -12 33 -70t21 -98q-222 -118 -427 -315h-11q-201 195 -426 315q3 40 21 98t33 70z" />
    <glyph glyph-name="AEacute" unicode="&#x1fc;" horiz-adv-x="1736" 
d="M892 498l-178 518l-179 -518h357zM1505 668q0 -104 -18 -198q-76 -22 -162 -15q-11 18 -31 88h-169l109 -318h202q23 97 39 124q86 7 162 -15q17 -17 19 -334h-542q-168 0 -186 9q-15 11 -15 85t9 91q32 11 72 18l-24 70h-512l-24 -70q40 -8 71 -18q9 -17 9 -91t-15 -85
q-18 -9 -186 -9h-92q-168 0 -186 9q-15 11 -15 85t9 91q55 18 161 32l380 1101h1086q0 -136 -6 -232t-13 -102q-76 -22 -162 -15q-17 28 -39 124h-501l112 -325h247q20 70 31 88q86 7 162 -15q18 -69 18 -173zM1268 1804q41 -22 73 -66t39 -92q-45 -69 -221 -173t-333 -135
q-16 12 -32 60t-21 86q271 122 495 320z" />
    <glyph glyph-name="Oslashacute" unicode="&#x1fe;" horiz-adv-x="1379" 
d="M1085 652q0 202 -119 334l-284 -781h14q186 1 288 123t101 324zM294 656q0 -118 44 -222t129 -163l303 832q-46 11 -104 11t-127 -29t-124 -83t-88 -141t-33 -205zM60 654q0 196 80 350t226 244t330 90q81 0 153 -18l47 128l211 -76l-53 -145q126 -89 196 -238t69 -334
q0 -185 -79 -340t-225 -245t-330 -90q-38 0 -83 5l-62 -171l-211 76l59 162q-154 83 -241 244q-87 162 -87 358zM960 1875q41 -21 73 -65t39 -93q-45 -69 -221 -173t-333 -135q-16 11 -32 59t-21 87q271 122 495 320z" />
    <glyph glyph-name="oslashacute" unicode="&#x1ff;" horiz-adv-x="1178" 
d="M858 510q0 132 -57 218l-191 -523q120 5 184 89t64 216zM319 516q0 -144 81 -233l200 549l-11 1q-130 0 -200 -86q-70 -87 -70 -231zM80 517q0 151 65 275t183 194q118 72 266 72q37 0 86 -7l69 190l211 -76l-73 -199q99 -72 155 -189t56 -263t-64 -268
q-64 -124 -182 -195t-267 -71q-29 0 -56 3l-61 -169l-211 76l59 163q-112 69 -174 191t-62 273zM840 1666q41 -22 73 -66t39 -92q-45 -69 -221 -173t-333 -135q-16 12 -32 60t-21 86q271 122 495 320z" />
    <glyph glyph-name="uni023D" unicode="&#x23d;" horiz-adv-x="1044" 
d="M92 1224q0 74 15 85q18 9 186 9h92q168 0 186 -9q15 -11 15 -85t-9 -91q-49 -16 -121 -27v-253l184 67l77 -211l-261 -95v-389h310q4 49 25 127t33 99q86 7 162 -15q16 -16 19 -436h-716q-164 0 -182 9q-15 11 -15 85t9 91q47 16 121 27v318l-105 -38l-77 211l182 66v337
q-74 11 -121 27q-9 17 -9 91z" />
    <glyph glyph-name="ezh" unicode="&#x292;" horiz-adv-x="1020" 
d="M715 106q0 186 -318 186h-150v225l251 296h-239q-22 -96 -39 -124q-86 -7 -162 15q-7 6 -13 84t-6 148v102h926l15 -28l-427 -499q405 -43 405 -414q0 -140 -68 -230q-68 -91 -171 -129q-102 -38 -206 -38t-230 32t-203 90l48 204l8 7q170 -107 343 -107q113 0 175 50
t61 130z" />
    <glyph glyph-name="circumflex" unicode="&#x2c6;" horiz-adv-x="1024" 
d="M509 1425q-146 -136 -375 -248q-15 13 -33 71t-21 97q225 120 426 315h11q205 -197 427 -315q-3 -39 -21 -97t-33 -71q-224 109 -376 248h-5z" />
    <glyph glyph-name="caron" unicode="&#x2c7;" horiz-adv-x="1024" 
d="M134 1660q229 -112 375 -248h5q152 139 376 248q15 -12 33 -70t21 -98q-222 -118 -427 -315h-11q-201 195 -426 315q3 40 21 98t33 70z" />
    <glyph glyph-name="breve" unicode="&#x2d8;" horiz-adv-x="919" 
d="M462 1058q-212 0 -342 142q5 35 37 76t64 52q87 -93 237 -93t240 93q32 -11 64 -52t37 -76q-125 -142 -337 -142z" />
    <glyph glyph-name="dotaccent" unicode="&#x2d9;" horiz-adv-x="437" 
d="M80 1336q0 58 40 98t98 40t98 -40t41 -98q-1 -58 -41 -96q-40 -40 -98 -40t-98 40q-40 38 -40 96z" />
    <glyph glyph-name="ring" unicode="&#x2da;" horiz-adv-x="641" 
d="M255 1411q-1 -25 19 -45t46 -20t46 20t20 45t-20 45t-46 20t-46 -20t-19 -45zM100 1411q0 89 65 153t155 64t155 -64q66 -64 66 -153q0 -87 -66 -153q-65 -66 -155 -66t-155 65t-65 154z" />
    <glyph glyph-name="ogonek" unicode="&#x2db;" 
d="M245 -220q0 -83 90 -83q60 0 152 46l7 -5v-165q-72 -51 -182 -51t-181 70t-71 166q0 95 61 183t153 149l147 -82q-78 -32 -127 -100t-49 -128z" />
    <glyph glyph-name="tilde" unicode="&#x2dc;" horiz-adv-x="1036" 
d="M792 1650q26 0 71 -14t73 -40q-14 -108 -88 -183t-179 -75t-165 49q-59 49 -107 49q-49 0 -79 -24t-29 -72q-18 -2 -46 -2t-72 13t-71 38q14 105 88 183t185 78q49 0 93 -24t87 -50q43 -24 85 -24t76 24t33 72q19 2 45 2z" />
    <glyph glyph-name="hungarumlaut" unicode="&#x2dd;" horiz-adv-x="1144" 
d="M909 1779q45 -10 89 -41t66 -75q-23 -80 -158 -233t-274 -230q-18 8 -49 48t-47 73q214 194 373 458zM451 1779q47 -9 91 -40t66 -76q-24 -79 -160 -233t-272 -230q-18 8 -48 47t-48 74q229 208 371 458z" />
    <glyph glyph-name="Ygrave" unicode="&#x1ef2;" horiz-adv-x="1252" 
d="M30 1224q0 74 15 85q18 9 186 9h92q168 0 186 -9q15 -11 15 -85t-9 -91q-29 -10 -68 -18l179 -352l179 352q-39 8 -68 18q-9 17 -9 91t15 85q18 9 186 9h92q168 0 186 -9q15 -11 15 -85t-9 -91q-57 -19 -153 -31l-316 -623v-267q72 -11 121 -27q9 -17 9 -91t-15 -85
q-18 -9 -186 -9h-92q-168 0 -186 9q-15 11 -15 85t9 91q47 16 121 27v265l-319 625q-96 12 -152 31q-9 17 -9 91zM425 1872q222 -197 495 -319q-4 -38 -22 -85t-31 -60q-156 30 -332 134t-222 173q7 50 39 93t73 64z" />
    <glyph glyph-name="ygrave" unicode="&#x1ef3;" horiz-adv-x="1256" 
d="M263 1038h97q168 0 186 -9q15 -11 15 -85t-9 -91q-26 -9 -79 -20l163 -473h6l168 474q-38 7 -74 19q-9 17 -9 91t15 85q18 9 186 9h97q168 0 186 -9q15 -11 15 -85t-9 -91q-54 -18 -155 -32l-276 -803q-76 -222 -208 -359t-274 -137t-274 71q0 77 7 185t14 114
q88 25 179 16q17 -30 42 -158q74 9 140 78t93 173l-282 821q-96 12 -152 31q-9 17 -9 91t15 85q18 9 186 9zM436 1664q222 -197 495 -319q-3 -38 -21 -85t-32 -60q-156 30 -332 134t-222 173q8 50 40 93t72 64z" />
    <glyph glyph-name="endash" unicode="&#x2013;" horiz-adv-x="1101" 
d="M1021 630v-215h-941v215h941z" />
    <glyph glyph-name="emdash" unicode="&#x2014;" horiz-adv-x="1277" 
d="M1197 630v-215h-1117v215h1117z" />
    <glyph glyph-name="quoteleft" unicode="&#x2018;" horiz-adv-x="442" 
d="M221 957q-53 -1 -97 37t-44 124t72 185t158 145l52 -65q-60 -101 -60 -157t53 -133q0 -55 -40 -95t-94 -41z" />
    <glyph glyph-name="quoteright" unicode="&#x2019;" horiz-adv-x="442" 
d="M221 1448q53 0 97 -38t44 -123q0 -86 -72 -185t-158 -145l-52 65q60 102 60 158t-53 132q0 56 40 96t94 40z" />
    <glyph glyph-name="quotesinglbase" unicode="&#x201a;" horiz-adv-x="442" 
d="M221 254q53 0 97 -38t44 -123q0 -86 -72 -185t-158 -145l-52 65q60 102 60 158t-53 132q0 56 40 96t94 40z" />
    <glyph glyph-name="quotedblleft" unicode="&#x201c;" horiz-adv-x="855" 
d="M634 957q-54 -1 -98 37t-43 124t73 185t157 145l52 -65q-60 -101 -60 -157t53 -133q0 -55 -40 -95t-94 -41zM221 957q-53 -1 -97 37t-44 124t72 185t158 145l52 -65q-60 -101 -60 -157t53 -133q0 -55 -40 -95t-94 -41z" />
    <glyph glyph-name="quotedblright" unicode="&#x201d;" horiz-adv-x="855" 
d="M634 1448q54 0 98 -38t43 -123q-1 -86 -73 -185t-157 -145l-52 65q60 102 60 158t-53 132q0 56 40 96t94 40zM221 1448q53 0 97 -38t44 -123q0 -86 -72 -185t-158 -145l-52 65q60 102 60 158t-53 132q0 56 40 96t94 40z" />
    <glyph glyph-name="quotedblbase" unicode="&#x201e;" horiz-adv-x="855" 
d="M634 254q54 0 98 -38t43 -123q-1 -86 -73 -185t-157 -145l-52 65q60 102 60 158t-53 132q0 56 40 96t94 40zM221 254q53 0 97 -38t44 -123q0 -86 -72 -185t-158 -145l-52 65q60 102 60 158t-53 132q0 56 40 96t94 40z" />
    <glyph glyph-name="dagger" unicode="&#x2020;" horiz-adv-x="951" 
d="M358 804h234q0 -256 -8 -616t-19 -456h-182q-25 200 -25 1072zM901 1073v-215h-851v215h851zM592 1128h-234q0 153 27 320h182q25 -163 25 -320z" />
    <glyph glyph-name="daggerdbl" unicode="&#x2021;" horiz-adv-x="951" 
d="M358 -90h234q0 -158 -25 -320h-182q-27 167 -27 320zM901 179v-215h-851v215h851zM358 804h234q0 -142 -20 -285q20 -142 20 -285h-234q0 135 21 285q-21 150 -21 285zM901 1073v-215h-851v215h851zM592 1128h-234q0 153 27 320h182q25 -163 25 -320z" />
    <glyph glyph-name="bullet" unicode="&#x2022;" horiz-adv-x="901" 
d="M80 518q0 149 108 258t262 109q152 1 262 -109t109 -258q1 -148 -109 -258t-262 -109q-152 0 -262 109q-108 109 -108 258z" />
    <glyph glyph-name="ellipsis" unicode="&#x2026;" horiz-adv-x="1311" 
d="M954 116q0 58 40 98t98 40t98 -40t41 -98q-1 -58 -41 -96q-40 -40 -98 -40t-98 40q-40 38 -40 96zM517 116q0 58 40 98t98 40q59 0 99 -40t40 -98t-40 -96q-40 -40 -99 -40q-58 0 -98 40q-40 38 -40 96zM80 116q0 58 40 98t98 40t98 -40t41 -98q-1 -58 -41 -96
q-40 -40 -98 -40t-98 40q-40 38 -40 96z" />
    <glyph glyph-name="perthousand" unicode="&#x2030;" horiz-adv-x="1707" 
d="M1895 314q0 -52 33 -87q34 -35 86 -35t86 36t35 88t-33 86q-34 36 -86 36t-86 -36t-35 -88zM1157 314q0 -52 33 -87q34 -35 86 -35t86 36t35 88t-33 86q-34 36 -86 36t-86 -36t-35 -88zM1688 314q0 142 93 238q93 98 237 98t234 -96t90 -238t-93 -239t-237 -97t-234 96
t-90 238zM950 314q0 142 93 238q93 98 237 98t234 -96t90 -238t-93 -239t-237 -97t-234 96t-90 238zM287 1002q0 -52 33 -87q34 -35 86 -35t86 36t35 88t-33 86q-34 36 -86 36t-86 -36t-35 -88zM1097 1234l192 -135l-686 -977l-192 133zM80 1002q0 142 93 238q93 98 237 98
t234 -96t90 -238t-93 -239t-237 -97t-234 96t-90 238z" />
    <glyph glyph-name="guilsinglleft" unicode="&#x2039;" horiz-adv-x="870" 
d="M543 1460l203 -119l-361 -627l365 -628l-201 -119l-429 747z" />
    <glyph glyph-name="guilsinglright" unicode="&#x203a;" horiz-adv-x="870" 
d="M120 86l364 628l-360 627l203 119l423 -746l-429 -747z" />
    <glyph glyph-name="fraction" unicode="&#x2044;" horiz-adv-x="1118" 
d="M806 1212l192 -135l-686 -977l-192 133z" />
    <glyph glyph-name="uni2063" unicode="&#x2063;" horiz-adv-x="600" 
 />
    <glyph glyph-name="Euro" unicode="&#x20ac;" horiz-adv-x="1232" 
d="M890 206q151 0 289 41l8 -4v-222q-153 -41 -330 -41q-253 0 -419 109t-235 304h-158l-5 6l76 209h45q-3 34 -3 60t1 33h-108l-5 6l76 209h75q65 194 233 308t428 114q176 0 329 -41l-77 -210h-9q-119 25 -239 25t-226 -52q-104 -52 -163 -144h560l6 -7l-77 -208h-559
q-2 -15 -2 -38t2 -55h522l6 -7l-77 -208h-376q128 -187 412 -187z" />
    <glyph glyph-name="trademark" unicode="&#x2122;" horiz-adv-x="1440" 
d="M857 678h-164v660h164v-4l144 -269l145 273h164v-660h-164v310l-67 -125h-156l-66 124v-309zM624 1338v-157h-210v-503h-164v503h-210v157h584z" />
    <glyph glyph-name="estimated" unicode="&#x212e;" horiz-adv-x="1712" 
d="M1314 713v338q-107 110 -207 156t-249 48q-145 -3 -245 -49t-203 -155v-338h904zM410 627v-366q174 -196 460 -196q147 0 255 49t196 154h153v-55q-222 -233 -619 -233q-317 0 -541 187t-224 495t224 492t554 185q332 -1 543 -197t211 -515h-1212z" />
    <glyph glyph-name="minus" unicode="&#x2212;" horiz-adv-x="1011" 
d="M931 630v-215h-851v215h851z" />
    <glyph glyph-name="approxequal" unicode="&#x2248;" horiz-adv-x="1017" 
d="M374 261q-38 -1 -66 -25t-29 -70q-18 -2 -46 -2t-72 13t-71 38q14 105 88 183t185 78q45 0 92 -24t91 -48t86 -24q40 0 73 24t33 72q18 2 46 2t72 -13t71 -38q-13 -105 -94 -183t-193 -78q-44 0 -92 24t-91 48q-45 24 -83 23zM374 651q-38 -1 -66 -25t-29 -70
q-18 -2 -46 -2t-72 13t-71 38q14 105 88 183t185 78q45 0 92 -24t91 -48t86 -24q40 0 73 24t33 72q18 2 46 2t72 -13t71 -38q-13 -105 -94 -183t-193 -78q-44 0 -92 24t-91 48q-45 24 -83 23z" />
    <glyph glyph-name="notequal" unicode="&#x2260;" horiz-adv-x="1031" 
d="M941 429v-215h-445l-61 -167l-144 53l41 114h-242v215h321l62 172h-383v215h462l49 136l144 -53l-30 -83h226v-215h-304l-63 -172h367z" />
    <glyph glyph-name="lessequal" unicode="&#x2264;" horiz-adv-x="1031" 
d="M941 215v-215h-851v215h684l-657 460l658 459l133 -188l-387 -271l386 -271l-133 -189h167z" />
    <glyph glyph-name="greaterequal" unicode="&#x2265;" horiz-adv-x="1031" 
d="M941 215v-215h-851v215h167l-133 189l386 271l-387 271l133 188l658 -459l-657 -460h684z" />
    <glyph glyph-name="f.ss01" horiz-adv-x="616" 
d="M170 1038v4q0 250 164 350q93 56 222 56q62 0 146 -11t134 -28q0 -77 -7 -185t-14 -114q-88 -25 -179 -16q-15 27 -37 129h-15q-101 1 -138 -45t-41 -140h202v-225h-203v-836q0 -222 -47 -435h-233l-9 8q55 229 55 427v836h-130v225h130z" />
    <glyph glyph-name="g.ss01" horiz-adv-x="1130" 
d="M569 205q113 0 217 64v549q-85 22 -166 22q-138 0 -218 -82t-80 -225q0 -142 67 -235t180 -93zM576 -478q-243 0 -465 111q0 77 7 185t14 114q88 25 179 16q18 -32 43 -163q121 -41 212 -41q220 0 220 257v66q-124 -87 -248 -87q-233 0 -346 148q-112 148 -112 348
q0 290 153 436t400 146q94 0 193 -16l158 16h36v-1130q0 -310 -274 -385q-76 -21 -170 -21z" />
    <glyph glyph-name="g.ss02" horiz-adv-x="1130" 
d="M522 -20q-66 0 -123 15q-35 -52 -35 -114q0 -63 55 -101t151 -38t156 57t60 202v66q-125 -87 -264 -87zM569 205q113 0 217 64v549q-85 22 -166 22q-138 0 -218 -82t-80 -225q0 -142 67 -235t180 -93zM80 476q0 290 153 436t400 146q94 0 193 -16l158 16h36v-1130
q0 -406 -476 -406q-198 0 -308 94t-111 225q0 132 101 250q-146 140 -146 385z" />
    <glyph glyph-name="zero.osf" horiz-adv-x="1089" 
d="M305 534q0 -104 26 -171q25 -68 83 -113t137 -45q113 -1 173 85t59 212q0 126 -58 218q-58 91 -174 91q-117 -1 -181 -87t-65 -190zM60 507q0 149 60 269t174 190q112 70 256 70q216 0 348 -149t131 -377t-135 -379t-351 -151q-144 0 -255 70q-112 70 -170 189t-58 268z
" />
    <glyph glyph-name="one.osf" horiz-adv-x="758" 
d="M658 94q0 -74 -15 -85q-18 -9 -186 -9h-92q-168 0 -186 9q-15 11 -15 85t9 91q47 16 121 27v558q-129 -46 -264 -46v220q198 0 338 94h160v-826q72 -11 121 -27q9 -17 9 -91z" />
    <glyph glyph-name="two.osf" horiz-adv-x="994" 
d="M492 1055q298 0 380 -187q24 -56 24 -128q0 -151 -100 -283t-275 -232h217q23 97 39 124q86 7 162 -15q7 -6 13 -84t6 -148v-102h-913v225q286 115 446 247t160 231q0 58 -56 92t-131 34t-141 -16q-28 -152 -47 -185q-91 -9 -179 16q-7 6 -14 114t-7 185q181 112 416 112
z" />
    <glyph glyph-name="three.osf" horiz-adv-x="967" 
d="M675 106q0 186 -318 186h-70v225h109q118 0 174 51t57 119t-43 107t-117 39t-139 -17q-29 -160 -49 -192q-91 -9 -179 16q-7 6 -14 114t-7 185q89 57 195 88t173 31q68 0 119 -9q52 -9 108 -33t100 -60t72 -95q28 -60 28 -135q0 -192 -170 -304q214 -75 214 -321
q0 -245 -208 -347q-109 -54 -225 -54t-240 32t-205 90q0 76 7 184t14 115q88 25 179 16q19 -33 48 -189q81 -22 172 -22t153 50t62 130z" />
    <glyph glyph-name="four.osf" horiz-adv-x="1033" 
d="M618 225v416l-292 -416h292zM852 1051v-826h141v-225h-141v-245h-234v245h-578v225l578 826h234z" />
    <glyph glyph-name="five.osf" horiz-adv-x="1082" 
d="M944 1038v-225h-551l-29 -269q243 -4 370 -46q127 -43 197 -132q71 -89 71 -221q0 -241 -137 -343t-330 -102q-126 0 -257 40t-228 105q0 77 7 185t14 114q88 25 179 16q20 -38 48 -188q134 -45 236 -45t161 50t59 142q0 121 -112 169t-362 48h-180l79 702h765z" />
    <glyph glyph-name="six.osf" horiz-adv-x="1030" 
d="M523 588q-77 0 -195 -73q-3 -48 -3 -75q0 -114 59 -178q58 -64 144 -63q86 -1 132 61t46 145t-53 133t-130 50zM870 1338v-222q-258 0 -402 -156q-78 -84 -102 -191q90 38 194 38q162 0 276 -114t114 -271q0 -118 -59 -226q-71 -134 -209 -186q-78 -30 -175 -30
q-211 0 -319 136t-108 385q0 248 126 475q88 158 255 260q166 102 409 102z" />
    <glyph glyph-name="seven.osf" horiz-adv-x="985" 
d="M30 943v95h926l-532 -1318h-253l441 1093h-335q-28 -152 -47 -185q-91 -9 -179 16q-7 6 -14 114t-7 185z" />
    <glyph glyph-name="eight.osf" horiz-adv-x="1059" 
d="M309 356q-1 -76 65 -120t155 -44t155 44t65 121q1 103 -153 179q-24 12 -67 32q-106 -50 -125 -65q-59 -45 -77 -76t-18 -71zM683 996q0 62 -46 96t-108 34t-108 -34t-46 -94q1 -62 41 -101t113 -71q75 33 115 71q40 37 39 99zM994 330q0 -78 -40 -148t-107 -113
q-139 -89 -318 -89q-263 0 -395 162q-68 84 -69 210q0 127 87 207q87 79 205 129q-109 56 -168 130t-59 182t58 185q113 153 341 153q159 0 279 -87t120 -266q0 -178 -226 -297q212 -92 268 -224q24 -56 24 -134z" />
    <glyph glyph-name="nine.osf" horiz-adv-x="1030" 
d="M507 450q77 0 195 73q3 48 3 75q0 114 -59 178q-58 64 -144 63q-86 1 -132 -61t-46 -145t53 -133t130 -50zM160 -78q258 0 402 156q78 84 102 191q-90 -38 -194 -38q-162 0 -276 114t-114 271q0 118 59 226q71 134 209 186q78 30 175 30q211 0 319 -136t108 -385
q0 -248 -126 -475q-88 -158 -255 -260q-166 -102 -409 -102v222z" />
    <glyph glyph-name="zero.tf" horiz-adv-x="1196" 
d="M364 667q0 -461 237 -461q115 0 173 108t58 349t-58 345t-177 104q-117 0 -175 -106t-58 -339zM596 -19q-106 1 -190 41q-153 74 -219 253q-67 179 -67 405q0 330 128 494t345 163q218 0 350 -163q133 -163 133 -519q-6 -503 -287 -634q-87 -40 -193 -40z" />
    <glyph glyph-name="one.tf" horiz-adv-x="828" 
d="M728 94q0 -74 -15 -85q-18 -9 -186 -9h-92q-168 0 -186 9q-15 11 -15 85t9 91q47 16 121 27v838q-129 -46 -264 -46v220q198 0 338 94h160v-1106q72 -11 121 -27q9 -17 9 -91z" />
    <glyph glyph-name="two.tf" horiz-adv-x="1153" 
d="M748 927q0 188 -176 188q-79 0 -149 -19q-29 -157 -48 -188q-91 -9 -179 16q-7 6 -14 114t-7 185q78 49 195 82t205 33q87 0 159 -24t130 -68q58 -46 94 -120q35 -74 35 -168q0 -184 -131 -360t-382 -373h333q23 97 39 124q86 7 162 -15q7 -6 13 -86t6 -149v-99h-913v225
q565 399 619 621q9 38 9 81z" />
    <glyph glyph-name="three.tf" horiz-adv-x="1118" 
d="M755 386q0 186 -318 186h-70v225h109q118 0 174 51t57 119t-43 107t-117 39t-139 -17q-29 -160 -49 -192q-91 -9 -179 16q-7 6 -14 114t-7 185q89 57 195 88t173 31q68 0 119 -9q52 -9 108 -33t100 -60t72 -95q28 -60 28 -135q0 -192 -170 -304q214 -75 214 -321
q0 -245 -208 -347q-189 -93 -465 -22q-124 32 -205 90q0 76 7 184t14 115q88 25 179 16q19 -33 48 -189q75 -22 169 -22t156 50t62 130z" />
    <glyph glyph-name="four.tf" horiz-adv-x="1193" 
d="M698 492v416l-292 -416h292zM932 1318v-826h141v-225h-141v-267h-234v267h-578v225l578 826h234z" />
    <glyph glyph-name="five.tf" horiz-adv-x="1192" 
d="M1013 1318v-225h-550l-29 -269q243 -4 370 -46q127 -43 197 -132q71 -89 71 -221q0 -240 -137 -343t-330 -102q-126 0 -257 40t-228 105q0 77 7 185t14 114q88 25 179 16q20 -38 48 -188q130 -45 234 -45t163 50t59 142q0 121 -112 169t-362 48h-180l79 702h764z" />
    <glyph glyph-name="six.tf" horiz-adv-x="1110" 
d="M563 588q-77 0 -195 -73q-3 -48 -3 -75q0 -114 59 -178q58 -64 144 -63q86 -1 132 61t46 145t-53 133t-130 50zM910 1338v-222q-258 0 -402 -156q-78 -84 -102 -191q90 38 194 38q162 0 276 -114t114 -271q0 -118 -59 -226q-71 -134 -209 -186q-78 -30 -175 -30
q-211 0 -319 136t-108 385q0 248 126 475q88 158 255 260q166 102 409 102z" />
    <glyph glyph-name="seven.tf" horiz-adv-x="1166" 
d="M120 1223v95h926l-532 -1318h-253l441 1093h-335q-28 -152 -47 -185q-91 -9 -179 16q-7 6 -14 114t-7 185z" />
    <glyph glyph-name="eight.tf" horiz-adv-x="1169" 
d="M364 356q0 -76 66 -120t154 -44t154 44t66 121q0 103 -154 179q-24 12 -66 32q-106 -50 -125 -65q-59 -45 -77 -76t-18 -71zM738 996q0 62 -46 96t-108 34t-108 -34t-46 -94q0 -62 40 -101t114 -71q74 33 114 71q40 37 40 99zM1049 330q0 -78 -40 -148t-107 -113
q-139 -89 -318 -89q-264 0 -396 162q-68 84 -68 210q0 127 87 207q87 79 205 129q-109 56 -168 130t-59 182q-1 108 57 185q113 153 342 153q159 0 279 -87t120 -266q0 -178 -226 -297q212 -92 268 -224q24 -56 24 -134z" />
    <glyph glyph-name="nine.tf" horiz-adv-x="1110" 
d="M547 730q77 0 195 73q3 48 3 75q0 114 -59 178q-58 64 -144 63q-86 1 -132 -61t-46 -145t53 -133t130 -50zM200 202q258 0 402 156q78 84 102 191q-90 -38 -194 -38q-162 0 -276 114t-114 271q0 118 59 226q71 134 209 186q78 30 175 30q211 0 319 -136t108 -385
q0 -248 -126 -475q-88 -158 -255 -260q-166 -102 -409 -102v222z" />
    <glyph glyph-name="zero.tosf" horiz-adv-x="1209" 
d="M365 534q0 -104 26 -171q25 -68 83 -113t137 -45q113 -1 173 85t59 212q0 126 -58 218q-58 91 -174 91q-117 -1 -181 -87t-65 -190zM120 507q0 149 60 269t174 190q112 70 256 70q216 0 348 -149t131 -377t-135 -379t-351 -151q-144 0 -255 70q-112 70 -170 189t-58 268z
" />
    <glyph glyph-name="one.tosf" horiz-adv-x="828" 
d="M728 94q0 -74 -15 -85q-18 -9 -186 -9h-92q-168 0 -186 9q-15 11 -15 85t9 91q47 16 121 27v558q-129 -46 -264 -46v220q198 0 338 94h160v-826q72 -11 121 -27q9 -17 9 -91z" />
    <glyph glyph-name="two.tosf" horiz-adv-x="1153" 
d="M567 1055q297 0 379 -187q24 -56 25 -128q-1 -151 -101 -283t-274 -232h217q23 97 39 124q86 7 162 -15q7 -6 13 -84t6 -148v-102h-913v225q286 115 446 247t160 231q0 58 -56 92t-131 34t-141 -16q-28 -152 -47 -185q-91 -9 -179 16q-7 6 -14 114t-7 185
q181 112 416 112z" />
    <glyph glyph-name="three.tosf" horiz-adv-x="1118" 
d="M755 106q0 186 -318 186h-70v225h109q118 0 174 51t57 119t-43 107t-117 39t-139 -17q-29 -160 -49 -192q-91 -9 -179 16q-7 6 -14 114t-7 185q89 57 195 88t173 31q68 0 119 -9q52 -9 108 -33t100 -60t72 -95q28 -60 28 -135q0 -192 -170 -304q214 -75 214 -321
q0 -245 -208 -347q-109 -54 -225 -54t-240 32t-205 90q0 76 7 184t14 115q88 25 179 16q19 -33 48 -189q81 -22 172 -22t153 50t62 130z" />
    <glyph glyph-name="four.tosf" horiz-adv-x="1193" 
d="M698 225v416l-292 -416h292zM932 1051v-826h141v-225h-141v-245h-234v245h-578v225l578 826h234z" />
    <glyph glyph-name="five.tosf" horiz-adv-x="1192" 
d="M1014 1038v-225h-551l-29 -269q243 -4 370 -46q127 -43 197 -132q71 -89 71 -221q0 -241 -137 -343t-330 -102q-126 0 -257 40t-228 105q0 77 7 185t14 114q88 25 179 16q20 -38 48 -188q134 -45 236 -45t161 50t59 142q0 121 -112 169t-362 48h-180l79 702h765z" />
    <glyph glyph-name="six.tosf" horiz-adv-x="1110" 
d="M563 588q-77 0 -195 -73q-3 -48 -3 -75q0 -114 59 -178q58 -64 144 -63q86 -1 132 61t46 145t-53 133t-130 50zM910 1338v-222q-258 0 -402 -156q-78 -84 -102 -191q90 38 194 38q162 0 276 -114t114 -271q0 -118 -59 -226q-71 -134 -209 -186q-78 -30 -175 -30
q-211 0 -319 136t-108 385q0 248 126 475q88 158 255 260q166 102 409 102z" />
    <glyph glyph-name="seven.tosf" horiz-adv-x="1166" 
d="M120 943v95h926l-532 -1318h-253l441 1093h-335q-28 -152 -47 -185q-91 -9 -179 16q-7 6 -14 114t-7 185z" />
    <glyph glyph-name="eight.tosf" horiz-adv-x="1169" 
d="M364 356q0 -76 66 -120t154 -44t154 44t66 121q0 103 -154 179q-24 12 -66 32q-106 -50 -125 -65q-59 -45 -77 -76t-18 -71zM738 996q0 62 -46 96t-108 34t-108 -34t-46 -94q0 -62 40 -101t114 -71q74 33 114 71q40 37 40 99zM1049 330q0 -78 -40 -148t-107 -113
q-139 -89 -318 -89q-264 0 -396 162q-68 84 -68 210q0 127 87 207q87 79 205 129q-109 56 -168 130t-59 182q-1 108 57 185q113 153 342 153q159 0 279 -87t120 -266q0 -178 -226 -297q212 -92 268 -224q24 -56 24 -134z" />
    <glyph glyph-name="nine.tosf" horiz-adv-x="1110" 
d="M547 450q77 0 195 73q3 48 3 75q0 114 -59 178q-58 64 -144 63q-86 1 -132 -61t-46 -145t53 -133t130 -50zM200 -78q258 0 402 156q78 84 102 191q-90 -38 -194 -38q-162 0 -276 114t-114 271q0 118 59 226q71 134 209 186q78 30 175 30q211 0 319 -136t108 -385
q0 -248 -126 -475q-88 -158 -255 -260q-166 -102 -409 -102v222z" />
    <glyph glyph-name="null" horiz-adv-x="0" 
 />
    </font>
</defs>
</svg>
