<?xml version="1.0" standalone="no"?>
<!DOCTYPE svg PUBLIC "-//W3C//DTD SVG 20010904//EN"
 "http://www.w3.org/TR/2001/REC-SVG-20010904/DTD/svg10.dtd">
<svg version="1.0" xmlns="http://www.w3.org/2000/svg"
 width="192.000000pt" height="192.000000pt" viewBox="0 0 192.000000 192.000000"
 preserveAspectRatio="xMidYMid meet">
<metadata>
Created by potrace 1.11, written by Peter Selinger 2001-2013
</metadata>
<g transform="translate(0.000000,192.000000) scale(0.100000,-0.100000)"
fill="#000000" stroke="none">
<path d="M480 1573 c0 -6 -22 -27 -50 -47 -27 -19 -57 -47 -66 -61 -15 -23
-33 -115 -22 -115 2 0 36 31 75 68 73 71 95 114 74 149 -6 10 -11 13 -11 6z"/>
<path d="M585 1453 c9 -25 37 -149 80 -352 38 -184 52 -228 95 -302 36 -61 47
-99 55 -193 7 -78 8 -80 57 -132 51 -55 108 -88 166 -100 l33 -7 -3 49 -3 49
-54 8 c-30 4 -81 19 -113 34 -57 25 -59 27 -52 57 19 90 70 124 160 108 30 -5
56 -7 59 -4 3 3 5 70 5 148 0 131 -2 144 -19 154 -11 5 -33 7 -50 4 -20 -4
-39 -1 -55 9 -21 14 -26 14 -36 2 -17 -21 12 -64 68 -100 48 -31 59 -54 48
-101 -8 -31 -61 -64 -102 -64 -36 0 -80 31 -89 63 -4 12 -24 60 -45 107 -22
48 -50 137 -65 205 -34 152 -70 267 -103 328 -24 45 -52 67 -37 30z"/>
<path d="M510 1434 c0 -9 -42 -60 -94 -113 -51 -53 -99 -106 -105 -118 -19
-36 -13 -71 19 -105 l29 -33 1 38 c0 53 18 82 100 162 87 84 109 125 85 161
-18 28 -35 31 -35 8z"/>
<path d="M763 1392 c-18 -2 -33 -7 -33 -11 0 -4 16 -26 35 -48 28 -32 44 -43
82 -49 37 -7 48 -13 48 -28 0 -25 25 -33 27 -9 2 24 -1 53 -7 80 -10 42 -81
72 -152 65z m75 -33 c-27 -15 -22 -30 8 -23 20 5 25 3 22 -7 -7 -21 -50 -24
-65 -3 -16 22 0 44 31 44 19 -1 19 -2 4 -11z"/>
<path d="M557 1269 c-4 -13 -31 -55 -62 -94 -84 -106 -119 -185 -118 -265 0
-39 9 -88 22 -124 11 -33 21 -71 21 -85 0 -24 1 -24 18 -8 14 15 17 37 18 130
1 130 14 180 76 283 42 70 58 137 41 169 -9 16 -11 15 -16 -6z"/>
<path d="M585 1049 c-4 -30 -18 -88 -31 -129 -62 -199 -50 -304 43 -391 62
-57 134 -112 140 -106 12 13 -9 56 -61 125 -31 40 -60 89 -66 110 -13 48 -12
135 1 192 17 71 16 190 -3 224 l-16 30 -7 -55z"/>
</g>
</svg>
