<?xml version="1.0" standalone="no"?>
<!DOCTYPE svg PUBLIC "-//W3C//DTD SVG 1.1//EN" "http://www.w3.org/Graphics/SVG/1.1/DTD/svg11.dtd" >
<svg xmlns="http://www.w3.org/2000/svg">
<metadata>
Created by FontPrep 20130207 at Fri Jun 20 09:25:23 2014
 By Jo De Baerdemaeker
Copyright (c) 2014 by Jo De Baerdemaeker. All rights reserved.
</metadata>
<defs>
<font id="75741ca1c4b33697eafd6e685d23c69c" horiz-adv-x='1024' >
  <font-face 
    font-family="FlandersArtSerif-Light"
    font-weight="300"
    font-stretch="normal"
    units-per-em="2048"
    panose-1="0 0 4 0 0 0 0 0 0 0"
    ascent="1536"
    descent="-512"
    x-height="1038"
    cap-height="1318"
    bbox="-167 -660 5529 1883"
    underline-thickness="50"
    underline-position="-130"
    unicode-range="U+000D-FB02"
  />
<missing-glyph horiz-adv-x="600" 
 />
    <glyph glyph-name="fi" unicode="fi" horiz-adv-x="1170" 
d="M985 1058v-950q60 -8 100 -16q6 -12 6 -43q1 -31 -5 -37t-34 -8q-39 -4 -81 -4h-86q-105 0 -110 6t-7 18t-3 34q0 22 6 34q40 8 100 16v832q-75 0 -101 6q-6 8 -7 40t4 45q46 15 123 23l50 3q14 1 26 1h19zM556 1448q145 0 420 -42q0 -52 -6 -142t-7 -96q-36 -17 -84 -9
q-10 17 -17 71q-6 54 -10 85q-162 24 -268 24t-168 -60q-63 -60 -63 -228v-13h255v-113h-255v-817q60 -8 100 -16q6 -12 6 -43q1 -31 -5 -37t-34 -8q-39 -3 -81 -4h-86q-105 0 -110 6t-7 18t-3 34q0 22 6 34q40 8 100 16v817h-189v113h189v13q0 231 95 323q77 74 222 74z
" />
    <glyph glyph-name="fl" unicode="fl" horiz-adv-x="1171" 
d="M984 1448v-1340q60 -8 100 -16q6 -12 6 -43t-6 -37t-34 -8q-38 -4 -80 -4h-86q-105 0 -110 6q-6 6 -8 18t-2 34t6 34q40 8 100 16v1204q-166 27 -278 27t-176 -60q-63 -60 -63 -228v-13h255v-113h-255v-817q60 -8 100 -16q6 -12 6 -43q1 -31 -5 -37t-34 -8q-39 -3 -81 -4
h-86q-105 0 -110 6t-7 18t-3 34q0 22 6 34q40 8 100 16v817h-189v113h189v13q0 231 95 323q77 74 243 74q108 0 318 -30l77 30h12z" />
    <glyph glyph-name="f_f_i" unicode="ffi" horiz-adv-x="1803" 
d="M1616 1058v-950q60 -8 100 -16q6 -12 6 -43t-6 -37t-34 -8q-38 -4 -80 -4h-86q-105 0 -110 6q-6 6 -8 18t-2 34t6 34q40 8 100 16v832q-75 0 -101 6q-6 8 -7 40t4 45q46 15 123 23l50 3q14 1 26 1h19zM607 1339q-128 0 -191 -60t-63 -228v-13h517v13q0 170 51 263
q-186 25 -314 25zM1210 1448q122 0 397 -42q1 -52 -5 -142t-8 -96q-36 -17 -84 -9q-10 17 -17 71q-6 54 -10 85q-161 24 -267 24t-169 -60t-63 -228v-13h255v-113h-255v-817q60 -8 100 -16q6 -12 6 -43t-6 -37t-34 -8q-38 -4 -80 -4h-86q-105 0 -110 6q-6 6 -8 18t-2 34
t6 34q40 8 100 16v817h-517v-817q60 -8 100 -16q6 -12 6 -43q1 -31 -5 -37t-34 -8q-39 -3 -81 -4h-86q-105 0 -110 6t-7 18t-3 34q0 22 6 34q40 8 100 16v817h-189v113h189v13q0 231 95 323q77 74 234 74t450 -37q70 37 192 37z" />
    <glyph glyph-name="f_f_l" unicode="ffl" horiz-adv-x="1802" 
d="M607 1339q-128 0 -191 -60t-63 -228v-13h517v13q0 170 51 263q-186 25 -314 25zM568 1448q157 0 450 -37q70 37 184 37t324 -30l77 30h12v-1340q60 -8 100 -16q6 -12 6 -43q1 -31 -5 -37t-34 -8q-39 -3 -81 -4h-86q-105 0 -110 6t-7 18t-3 34q0 22 6 34q40 8 100 16v1204
q-167 27 -279 27t-175 -60t-63 -228v-13h255v-113h-255v-817q60 -8 100 -16q6 -12 6 -43t-6 -37t-34 -8q-38 -4 -80 -4h-86q-105 0 -110 6q-6 6 -8 18t-2 34t6 34q40 8 100 16v817h-517v-817q60 -8 100 -16q6 -12 6 -43q1 -31 -5 -37t-34 -8q-39 -3 -81 -4h-86
q-105 0 -110 6t-7 18t-3 34q0 22 6 34q40 8 100 16v817h-189v113h189v13q0 231 95 323q77 74 234 74z" />
    <glyph glyph-name="LOGOFL" unicode="fl&#x2a;" horiz-adv-x="5545" 
d="M2451 -77q72 0 72 64v22q-65 0 -84 -5q-31 -6 -31 -34t15 -38t28 -9zM4458 49q0 75 -54 75q-57 0 -71 -75h125zM3253 26q0 -41 22 -74q24 -29 62 -29t61 28q19 28 19 72q0 45 -21 73q-20 28 -60 28t-62 -28t-21 -70zM2933 124q-61 0 -72 -75h125q-4 40 -13 54
q-9 21 -40 21zM5004 -108v265h27l9 -31q30 36 60 36t48 -9l-12 -35q-20 6 -44 6t-49 -34v-198h-39zM4292 22q0 140 114 140q91 0 91 -113v-36h-166q3 -45 29 -67t57 -23q32 0 72 20l1 -1v-36q-38 -19 -83 -19q-45 -1 -80 35t-35 100zM3214 24q0 56 36 97t88 41t84 -40
q34 -40 34 -100t-34 -97q-34 -38 -86 -38t-88 40q-34 41 -34 97zM2934 162q91 0 91 -113v-36h-166q3 -44 29 -67t58 -23q34 0 71 20l1 -1v-36q-38 -19 -83 -19q-45 -1 -80 35t-35 102t29 102t85 36zM2536 -76q-24 -37 -84 -37q-28 0 -54 15q-30 26 -30 68q0 75 102 75l53 -2
v31q0 50 -50 50q-40 0 -80 -18l-9 34q44 22 97 22q81 0 81 -88v-84q0 -53 36 -66l-22 -37q-25 8 -40 37zM4814 185l-61 -178h123zM5237 -10q0 -67 49 -67q20 0 48 15l11 -36q-37 -15 -69 -15t-56 25q-23 25 -23 78v130h-29v37h29v47l39 6h1v-53h74v-37h-74v-130zM3875 -10
q0 -67 47 -67q20 0 50 15l11 -36q-37 -15 -68 -15t-56 23q-23 24 -23 80v130h-30v37h30v47l36 6h3v-53h72v-37h-72v-130zM2731 -113q-83 0 -83 103v130h-28v37h28v47l38 6h3v-53h73v-37h-73v-130q0 -67 48 -67q19 0 49 15l11 -36q-37 -15 -66 -15zM2237 -10q0 -67 49 -67
q20 0 48 15l11 -36q-37 -15 -69 -15t-55 24t-23 79v130h-28v37h28v47l38 6h1v-53h74v-37h-74v-130zM4915 -108l-26 78h-149l-26 -78h-41l116 336h51l118 -336h-43zM2043 196q-57 0 -57 -49q0 -27 12 -36t42 -26q65 -26 80 -48q14 -21 14 -61t-37 -64q-33 -25 -75 -25t-75 14
v36l34 -10l41 -4q76 0 76 56q0 31 -30 47q-7 5 -44 25t-57 35q-19 15 -19 59q0 43 28 65t71 22q42 0 65 -8v-34q-51 6 -69 6zM4233 62v-170h-40v168q0 64 -59 64q-22 0 -43 -10t-26 -13v-209h-39v364l36 6h3v-127q86 56 141 3q27 -24 27 -76zM3531 157q0 105 80 105
q26 0 62 -13l-12 -34q-27 9 -48 9q-43 0 -43 -67h61v-37h-61v-228h-39v228h-42v37h42zM570 638q79 -79 23 -321q-37 -155 11 -282q18 -48 53 -85q73 -79 92 -129t10 -69q-19 25 -83 70q-64 44 -99 76q-69 62 -96 178q-27 115 35 293t56 247zM2698 582q31 0 47 13
q31 16 31 61v26h-28q-51 0 -73 -6q-36 -9 -36 -41q0 -53 59 -53zM4090 849q-32 1 -59 -23q-26 -24 -30 -64h169q-4 45 -26 66t-54 21zM3644 853q-40 -1 -74 -35q-33 -34 -33 -91t27 -95t74 -37q47 0 88 25v223q-42 10 -82 10zM542 893q35 -123 -25 -212q-106 -147 -120 -269
q-8 -58 -2 -118q15 -153 -34 -198q-9 -4 -11 -4q-5 6 -1 14q3 8 1 44q-2 35 -22 84q-47 114 -28 226q23 110 101 208q33 42 62 76q75 90 79 149zM4808 854q-68 0 -68 -39q0 -18 28 -31q7 -5 29 -11l25 -9q25 -10 37 -18q56 -30 56 -101q1 -71 -45 -106t-115 -35t-110 28v88
l3 3q62 -28 105 -28q70 0 70 48q0 34 -58 54t-64 23q-56 26 -56 91q-1 63 43 97t96 34t102 -18v-86l-7 -1q-41 17 -71 17zM4512 849q-38 0 -83 -31v-308h-93v422h79l10 -34q51 44 101 44t91 -18l-30 -96q-37 21 -75 21zM3898 722q0 102 58 160q58 60 133 60q88 0 137 -70
q32 -46 32 -123v-62h-257q23 -92 125 -92q58 0 105 26l5 -1v-92q-57 -24 -135 -24q-79 0 -141 58t-62 160zM3210 942q64 0 108 -36q46 -43 46 -114v-282h-94v252q0 42 -30 69q-26 18 -70 18t-87 -26v-313h-96v422h81l10 -33q68 43 132 43zM2543 641q0 113 130 113
q67 0 103 -3v22q0 80 -81 80q-52 0 -112 -30l-24 83q74 36 147 36q72 0 118 -34t46 -107v-155q0 -28 17 -45q15 -10 46 -19l-44 -78q-54 0 -94 42q-39 -26 -55 -34t-53 -8q-144 0 -144 137zM868 954q0 14 17 14t20 4q3 2 5 10t-2 10q-15 3 -28 3t-33 -27q-3 -2 -9 -2t-5 -3
q-7 -27 12 -43t43 -17q24 0 38 13t13 40h-2l-56 -16q-13 0 -13 14zM846 1017q54 1 94 -25q60 -39 60 -133q0 -56 -11 -56q-17 0 -23 19t7 29q-8 20 -52 26q-45 5 -65 11q-41 11 -71 64q-29 52 -45 52q52 13 106 13zM2311 954h-236v-131h226v-92h-226v-221h-94v536h330v-92z
M517 1059q37 -82 -125 -214q-97 -81 -115 -145q-18 -65 -2 -101q-59 29 -73 96q-19 86 88 174q106 89 148 142t37 67l-5 14zM3820 510h-72l-17 33q-49 -39 -125 -39t-122 59t-45 157q0 98 63 160t162 62q24 0 62 -5v155l80 6h14v-588zM2464 510h-96v582l83 6h13v-588z
M1183 -182v-120q-99 0 -193 78t-112 130q-14 28 -14 58t-4 72q-4 40 -4 68q-2 28 -20 68q-18 42 -46 88t-34 60t-18 48t-24 64q-12 31 -64 305q-53 274 -84 360l-8 23h1q33 0 78 -120t55 -162q10 -40 30 -121t50 -222q10 -40 51 -116q41 -75 51 -127t69 -93q23 -16 63 -16
t84 30t52 67q7 20 3 38q-8 59 -52 79q-18 6 -60 28q-13 9 -31 32q-47 62 -12 84q2 2 10 2q8 1 32 -19t38 -22h2l32 8q22 9 36 9t43 -19v-382q-13 0 -55 8t-75 9l-22 -2q-111 -9 -137 -167q-2 -16 0 -19q2 -4 41 -25q39 -20 111 -42t137 -22zM439 1263q29 -71 -14 -139
q-17 -26 -47 -46q-76 -46 -119 -127q-25 119 37 181q35 35 62 52q74 45 81 79zM1890 -615l-7 -4l-735 2114l10 4z" />
    <glyph glyph-name="LOGOVL" unicode="vl&#x2a;" horiz-adv-x="5729" 
d="M4039 -60q0 35 -85 35h-25q-18 -23 -18 -46q0 -46 53 -46q31 1 53 17t22 40zM4696 88q0 63 -45 63q-21 -1 -37 -17t-22 -46h104zM3087 151q-23 1 -40 -17t-21 -46h105q-5 36 -13 50t-31 13zM2929 88q0 63 -43 63q-23 0 -41 -18q-16 -20 -19 -45h103zM2725 69q0 82 -68 82
q-33 0 -53 -24v-137q27 -8 52 -8t47 24t22 63zM2320 88q0 63 -42 63q-47 0 -63 -63h105zM4014 106q0 20 -14 33t-36 13t-36 -14t-14 -32t13 -32t39 -14t35 14q13 12 13 32zM3326 68q0 -86 66 -86q34 0 53 25v136q-37 9 -57 9t-41 -22t-21 -62zM4504 177h30l-69 -220h-40
l-49 167l-50 -167h-40l-71 220h33l58 -184l55 184h29l55 -184zM3551 -43v220h33v-220h-33zM2126 177h35l-77 -220h-44l-76 220h34l63 -186zM4787 -43v220h22l8 -25q25 28 51 28t39 -8l-11 -28q-24 8 -31 8q-27 0 -45 -31v-164h-33zM4653 180q76 0 76 -92v-30h-139
q3 -35 24 -56q22 -20 50 -20t59 17v-31q-33 -16 -71 -16t-66 32t-29 85q0 111 96 111zM3750 152q-16 0 -58 -22v-173h-33v220h22l6 -20q46 23 74 23t46 -19q24 -17 24 -64v-140h-33v139q0 56 -48 56zM2992 69q0 111 95 111q58 0 70 -50q4 -12 4 -42v-30h-136q1 -32 23 -56
q23 -20 50 -20t59 17v-31q-33 -16 -71 -16t-65 28q-29 36 -29 89zM2886 180q76 0 76 -92v-30h-137q1 -32 23 -54t50 -22t58 17h1v-31q-33 -16 -71 -16t-66 30t-28 87q0 111 94 111zM2412 -43v220h22l8 -25q22 28 53 28t36 -8l-11 -28q-21 8 -39 8t-36 -31v-164h-33zM2184 68
q0 112 86 112q40 0 54 -11q29 -23 29 -81v-30h-138q3 -36 25 -56t50 -20t58 17v-31q-32 -16 -70 -16t-66 28q-28 35 -28 88zM3884 104q0 34 22 56q24 20 54 20t47 -9q2 1 30 17q15 5 28 5l8 -27q-13 -1 -41 -15q13 -17 13 -45q-1 -28 -23 -52q-22 -22 -54 -22t-45 8
q-8 -7 -8 -18q0 -20 27 -20h42q87 0 87 -61q0 -34 -35 -61q-38 -26 -75 -26t-61 21q-22 23 -22 53t26 52l-14 17l-4 19q0 17 17 39q-19 15 -19 49zM5221 -48q-68 0 -68 86v108h-22v31h22v39l31 6h5v-45h59v-31h-59v-108q0 -56 39 -56q17 0 40 15l10 -31q-33 -14 -57 -14z
M3567 215q-21 1 -21 23t21 22q13 0 17 -8q8 -4 8 -14t-8 -16q-4 -7 -17 -7zM4981 69v-112h-33v301l31 5h2v-191l87 105h43l-91 -106q1 -8 33 -44t62 -47l-14 -28q-29 5 -75 55q-26 33 -29 37t-5 8q-2 2 -5 8q-6 6 -6 9zM3478 263v-306h-22l-5 20q-34 -25 -69 -25t-64 36
q-26 38 -26 86t29 73q27 33 83 33q20 0 41 -3v83l31 3h2zM3209 -43v303l31 3h2v-306h-33zM2604 263v-102q30 19 66 19t61 -33q26 -25 26 -79t-26 -80q-29 -36 -77 -36t-83 16v292l32 3h1zM575 649q52 -52 45 -192q-2 -61 -22 -141t-14 -155q11 -135 82 -212t91 -128t10 -69
q-19 24 -83 70q-65 46 -101 78q-69 60 -97 177t34 300q62 182 56 249zM3107 676q-71 0 -93 -7q-35 -5 -35 -37q0 -22 16 -36t42 -14t48 15t22 55v24zM2654 582q71 0 71 70v24q-71 0 -93 -7q-34 -5 -34 -37q0 -22 16 -36t40 -14zM5040 749q-12 81 -73 81q-29 0 -54 -22
t-29 -59h156zM4318 830q-67 0 -84 -81h156q-2 37 -22 59t-50 22zM3921 832q-112 0 -112 -121q0 -45 24 -81q25 -36 67 -36t81 25v205q-27 8 -60 8zM545 905q38 -123 -25 -214q-105 -154 -120 -270q-7 -46 -3 -141q5 -96 -3 -130t-30 -51q-11 -7 -13 -5t0 11q11 55 -10 104
q-30 72 -41 127q-23 118 56 275q16 27 65 87q121 146 124 207zM5384 913q145 0 145 -137v-257h-86v230q0 81 -89 81q-45 0 -84 -25v-286h-88v386h74l9 -29q53 37 119 37zM4790 712q0 94 50 148t125 53q79 -1 125 -61q30 -38 30 -114v-59h-236q9 -44 45 -64q29 -21 74 -21
t93 25h4v-86q-56 -22 -127 -22t-127 53q-56 54 -56 148zM4698 829q-37 0 -77 -27v-283h-87v386h73l10 -29q45 37 85 37q60 0 91 -14l-28 -89q-30 19 -67 19zM4236 679q20 -85 118 -85q42 0 94 25h3v-86q-55 -22 -125 -22t-128 53t-58 148t52 148t123 53q35 0 67 -11t61 -51
q28 -40 28 -113v-59h-235zM3564 749q0 81 -94 81q-42 0 -78 -25v-286h-89v386h73l10 -29q52 37 119 37q146 0 146 -137v-257h-87v230zM2893 636q0 107 121 107q59 0 93 -3v18q0 74 -76 74q-57 0 -102 -27l-22 75q68 35 135 35q151 0 151 -129v-145q0 -48 58 -58l-39 -72
q-54 0 -87 41q-39 -26 -56 -34t-49 -7q-78 0 -105 46q-22 25 -22 79zM2728 758q0 74 -89 74q-44 0 -91 -27l-22 75q68 35 135 35t109 -31t42 -98v-145q0 -48 58 -58l-41 -72q-51 0 -86 41q-55 -41 -104 -41q-127 0 -127 122q0 110 121 110q59 0 95 -3v18zM848 980
q-4 0 -6 -3q-12 -35 24 -53t60 -2q24 15 20 47q-6 1 -16 -3q-25 -9 -38 -12q-14 -3 -16 15q0 13 18 13t21 3q1 2 3 11t-1 11q-26 9 -37 0t-17 -16l-9 -9t-6 -2zM2200 1010h92l-172 -499h-102l-173 499h94l129 -380zM746 1019q148 36 220 -28q50 -45 46 -127q-2 -28 -9 -48
q-19 -6 -27 16t10 31q-10 21 -56 27t-66 12q-41 12 -71 64q-30 51 -47 53zM4070 1058v-539h-67l-16 28q-44 -36 -114 -36q-71 -1 -113 53t-42 146t58 151q56 52 149 52q37 0 56 -3v142l75 6h14zM2353 519v533l75 6h11v-539h-86zM268 656q0 -31 7 -45q-89 55 -71 147
q12 62 99 133q5 4 9 8q169 144 165 198l-4 10h8q25 0 39 -31q47 -76 -125 -219q-127 -104 -127 -201zM1195 80q-11 0 -61 10t-91 6q-109 -4 -137 -148q-6 -32 -4 -39q2 -6 42 -27t112 -42t139 -21v-120q-52 0 -108 25t-121 82t-78 93t-14 74t-6 100q-6 62 -24 104
q-18 41 -46 87t-34 60t-17 46q-12 34 -20 54t-21 79q-14 59 -24 115q-73 388 -110 495l-8 23q4 0 10 -2t47 -68t69 -182q28 -117 44 -181t28 -119q11 -55 19 -89q8 -33 50 -109q41 -76 53 -131t66 -90t123 -3q70 32 83 84q10 87 -53 117l-20 10q-49 23 -72 53q-47 62 -10 82
q13 6 39 -16t39 -22q14 -1 48 12t68 -14v-388zM261 966q-37 142 83 224l57 36q35 26 41 56q39 -127 -61 -188q-80 -52 -120 -128zM1964 -656l-11 -4l-763 2242l11 4z" />
    <glyph glyph-name="leeuw" unicode="vll&#x2a;" horiz-adv-x="1595" 
d="M674 664q52 -51 46 -191q-2 -61 -22 -142t-14 -155q12 -133 83 -211t90 -129t10 -69q-26 33 -77 66q-50 33 -82 60t-58 57q-56 64 -70 175q-14 112 44 282t52 235zM454 153q0 13 -3 34t-16 54q-21 51 -33 105q-28 129 54 281q16 28 65 87q121 146 124 207
q41 -122 -25 -214q-105 -156 -121 -272q-6 -44 -2 -140q5 -95 -4 -129t-25 -46t-17 -10q-2 2 0 16q3 14 3 27zM948 996q-4 0 -6 -3q-11 -35 25 -53q37 -18 61 -3t19 47q-6 1 -25 -5q-18 -7 -26 -9q-17 -4 -19 14q0 13 18 14q19 2 21 4t3 10q3 20 -33 12q-11 -5 -22 -16
q-12 -12 -16 -12zM847 1034q142 28 198 -11q75 -52 66 -153q-2 -23 -8 -39q-18 -5 -27 17t9 30q-10 23 -55 28q-46 4 -66 10q-43 12 -71 64q-30 52 -46 54zM368 672q0 -32 7 -46q-89 54 -71 147q13 62 99 133l9 8q169 144 166 199l-4 10l8 -1q24 0 38 -32q45 -77 -126 -217
q-126 -105 -126 -201zM1295 95q-11 -1 -61 9t-91 7q-119 -5 -140 -167q-2 -16 0 -20q1 -4 41 -26q40 -20 112 -42t139 -22v-121q-69 0 -141 43t-114 90q-42 48 -54 76q-11 28 -12 61t-6 100q-6 67 -24 109t-46 88t-34 60t-18 48t-20 52q-19 47 -71 324q-53 278 -83 365
l-9 23q3 0 9 -2t32 -41q59 -94 102 -270q6 -35 26 -111t31 -132q11 -54 19 -86t49 -109q42 -76 53 -130t65 -90t124 -4q93 43 85 121q-9 58 -55 80l-23 11q-47 23 -68 51q-48 63 -11 83q12 7 39 -15q26 -22 38 -23q15 -1 48 12q32 13 69 -14v-388zM361 981q-23 99 19 158
q28 38 45 52q32 25 49 33q61 33 67 74q29 -79 -13 -143q-18 -26 -48 -45q-81 -54 -119 -129z" />
    <glyph glyph-name=".notdef" horiz-adv-x="600" 
 />
    <glyph glyph-name=".null" horiz-adv-x="0" 
 />
    <glyph glyph-name="nonmarkingreturn" horiz-adv-x="682" 
 />
    <glyph glyph-name="CR" unicode="&#xd;" horiz-adv-x="0" 
 />
    <glyph glyph-name="space" unicode=" " horiz-adv-x="600" 
 />
    <glyph glyph-name="exclam" unicode="!" horiz-adv-x="471" 
d="M234 -20q-36 0 -60 24t-24 60t25 60q25 25 60 25t61 -24q25 -27 25 -61t-25 -59q-26 -25 -62 -25zM177 1428h122q1 -359 -9 -664q-10 -304 -18 -359h-70q-9 61 -17 352q-8 290 -8 671z" />
    <glyph glyph-name="quotedbl" unicode="&#x22;" horiz-adv-x="624" 
d="M437 1448q35 0 61 -24t26 -76t-44 -115t-99 -92l-33 41q38 62 38 98t-34 82q0 34 26 60t59 26zM188 1448q34 0 61 -24t27 -76q0 -54 -45 -116t-99 -91l-32 41q37 63 37 98t-34 82q-1 34 25 60t60 26z" />
    <glyph glyph-name="numbersign" unicode="#" horiz-adv-x="1241" 
d="M490 553h304l21 243h-304zM170 908h237l29 329l113 -9l-28 -320h303l29 329l113 -9l-28 -320h183v-112h-193l-21 -243h164v-112h-173l-29 -337l-113 9l28 328h-303l-29 -337l-113 9l28 328h-247v112h257l21 243h-228v112z" />
    <glyph glyph-name="dollar" unicode="$" horiz-adv-x="954" 
d="M388 92q134 0 232 64t98 177q0 155 -209 253q-15 6 -47 22t-43 21q-143 67 -206 130q-93 93 -93 233t83 225q83 84 217 110v121h114v-110q104 -2 205 -34q1 -52 -5 -142t-8 -96q-36 -17 -84 -9q-12 27 -28 163q-46 6 -91 6q-131 0 -213 -58t-81 -162q0 -142 193 -239
l34 -17q48 -24 76 -36q148 -71 208 -129q94 -93 94 -227t-80 -228t-220 -131v-147h-114v129q-7 -1 -21 -1h-22q-134 0 -251 58l10 202q2 30 3 36q36 17 84 9q10 -21 29 -177q65 -16 136 -16z" />
    <glyph glyph-name="percent" unicode="%" horiz-adv-x="1679" 
d="M1250 89q96 1 156 67t60 160t-60 159q-60 66 -153 66q-95 -1 -155 -67t-60 -160t58 -160t154 -65zM1255 650q143 0 233 -97t91 -238q0 -141 -92 -238t-237 -97t-235 96t-90 238q-1 142 93 238q94 98 237 98zM469 230l646 924l92 -65l-646 -924zM425 777q95 1 155 67
t61 160t-59 159q-60 66 -154 66q-94 -1 -154 -67t-61 -160q1 -94 59 -160t153 -65zM430 1338q144 0 234 -97t90 -238t-92 -238t-237 -97t-235 96t-90 238t94 238q94 98 236 98z" />
    <glyph glyph-name="ampersand" unicode="&#x26;" horiz-adv-x="1186" 
d="M482 90q191 0 313 140l-425 424q-89 -56 -140 -124t-51 -180q0 -110 81 -185t222 -75zM674 1061q0 88 -63 129t-141 41q-78 1 -128 -53q-49 -54 -49 -138q-1 -84 35 -145t89 -114q257 113 257 280zM482 -20q-186 0 -304 104t-118 281q0 115 56 201t178 159
q-118 123 -118 281t80 246q80 86 217 86q138 0 229 -68t91 -206t-97 -233q-59 -57 -203 -130l371 -371q97 183 128 387h8l100 -41q-18 -112 -60 -230t-92 -202l178 -181l-81 -83l-171 170q-156 -170 -392 -170z" />
    <glyph glyph-name="quotesingle" unicode="'" horiz-adv-x="376" 
d="M188 1448q34 0 61 -24t27 -76q0 -54 -45 -116t-99 -91l-32 41q37 63 37 98t-34 82q-1 34 25 60t60 26z" />
    <glyph glyph-name="parenleft" unicode="(" horiz-adv-x="534" 
d="M120 684q0 388 215 764h4l75 -66q-78 -160 -128 -349t-50 -351t48 -329q48 -168 129 -305l-77 -68h-4q-212 316 -212 704z" />
    <glyph glyph-name="parenright" unicode=")" horiz-adv-x="534" 
d="M298 682q0 162 -50 351t-128 349l75 66h4q215 -376 215 -764t-212 -704h-4l-77 68q81 137 129 305q48 167 48 329z" />
    <glyph glyph-name="asterisk" unicode="*" horiz-adv-x="1062" 
d="M503 869q-55 -145 -138 -290l-99 57q74 129 184 264zM614 901q104 -128 182 -265l-99 -57q-76 132 -136 291zM962 1038v-114q-152 0 -320 27v62q156 25 320 25zM100 924v114q156 0 320 -25v-62q-168 -27 -320 -27zM561 1092q60 159 136 291l99 -57q-81 -141 -182 -265z
M450 1062q-110 135 -184 264l99 57q83 -145 138 -290z" />
    <glyph glyph-name="plus" unicode="+" horiz-adv-x="1030" 
d="M120 622h339v339h112v-339h339v-112h-339v-339h-112v339h-339v112z" />
    <glyph glyph-name="comma" unicode="," horiz-adv-x="376" 
d="M188 148q34 0 61 -24t27 -76q0 -54 -45 -116t-99 -91l-32 41q38 65 38 99t-35 81q-1 34 25 60t60 26z" />
    <glyph glyph-name="hyphen" unicode="-" horiz-adv-x="650" 
d="M75 638h500v-112h-500v112z" />
    <glyph glyph-name="period" unicode="." horiz-adv-x="371" 
d="M271 64q0 -34 -26 -59q-27 -25 -61 -25t-59 25t-25 59t26 58q26 26 58 26q34 0 61 -25q26 -25 26 -59z" />
    <glyph glyph-name="slash" unicode="/" horiz-adv-x="933" 
d="M708 1448l105 -39l-588 -1616l-105 39z" />
    <glyph glyph-name="zero" unicode="0" horiz-adv-x="1117" 
d="M556 89q172 -1 258 133t86 440t-87 437q-87 130 -259 130t-254 -135q-82 -136 -83 -426q0 -290 83 -434q84 -144 256 -145zM553 -20q-170 0 -279 111q-174 174 -174 580q0 329 119 498t334 169q464 0 464 -684q-5 -336 -127 -505t-337 -169z" />
    <glyph glyph-name="one" unicode="1" horiz-adv-x="619" 
d="M534 49q0 -31 -6 -37t-34 -8q-38 -4 -80 -4h-86q-105 0 -110 6q-6 6 -8 18t-2 34t6 34q40 8 100 16v1053q-129 -46 -264 -46v109q104 0 160 20t136 74h82v-1210q60 -8 100 -16q6 -12 6 -43z" />
    <glyph glyph-name="two" unicode="2" horiz-adv-x="977" 
d="M878 0h-848v113q13 11 93 71q79 60 205 172t236 245q182 221 183 396q0 118 -80 175t-195 57t-236 -50q-18 -163 -31 -195q-48 -8 -84 9q-13 78 -13 238q172 107 357 107t292 -82t107 -252t-96 -330q-96 -158 -228 -288t-313 -273h524q16 148 30 182q48 8 84 -9
q13 -78 13 -238v-48z" />
    <glyph glyph-name="three" unicode="3" horiz-adv-x="989" 
d="M107 1237q172 101 367 101t302 -129q64 -79 64 -193q0 -209 -168 -313q238 -79 238 -339q0 -133 -68 -220q-68 -88 -170 -126t-202 -38q-99 0 -216 29t-194 80l3 92q1 23 3 71t4 64q0 14 1 20l2 21q36 17 84 9q19 -58 34 -225q149 -52 287 -52q138 -1 230 73t93 204
q0 130 -132 199q-114 59 -314 59h-89v120h133q183 0 275 118q48 62 48 155q0 94 -81 153t-188 59t-217 -40q-15 -149 -32 -199q-48 -8 -84 9q-2 6 -8 93t-5 145z" />
    <glyph glyph-name="four" unicode="4" horiz-adv-x="959" 
d="M659 411v725l-494 -725h494zM774 1318v-907h135v-112h-135v-299h-115v299h-629v112l617 907h127z" />
    <glyph glyph-name="five" unicode="5" horiz-adv-x="977" 
d="M470 93q133 0 221 88q88 87 88 237q-1 150 -131 212t-427 63h-78l68 625h623v-113h-526l-44 -400q178 0 312 -22t218 -100q104 -96 104 -289q0 -194 -132 -304t-308 -110q-86 0 -193 25t-185 78l3 92q1 23 3 71t4 64q0 14 1 20l2 21q36 17 84 9q13 -35 34 -220
q126 -47 259 -47z" />
    <glyph glyph-name="six" unicode="6" horiz-adv-x="1009" 
d="M216 466q0 -176 88 -277t216 -101q126 0 198 97t72 225t-82 208t-194 80q-114 0 -292 -115q-6 -45 -6 -117zM528 807q167 0 274 -112t107 -271q0 -98 -42 -200t-133 -173t-240 -71q-198 0 -296 135t-98 354t79 415t248 326q169 128 427 128v-111q-234 0 -398 -143
t-213 -385q118 108 285 108z" />
    <glyph glyph-name="seven" unicode="7" horiz-adv-x="831" 
d="M60 1318h741l-532 -1318h-123l486 1205h-441q-7 -83 -18 -147q-12 -64 -16 -74q-48 -8 -84 9q-13 78 -13 238v87z" />
    <glyph glyph-name="eight" unicode="8" horiz-adv-x="1029" 
d="M198 327q0 -107 94 -171t221 -64t223 64t95 172q0 108 -99 188q-53 43 -218 124q-157 -74 -219 -125q-97 -80 -97 -188zM772 1007q0 100 -78 159t-180 59q-102 -1 -180 -59t-77 -159q0 -101 77 -170q56 -52 180 -108q127 56 183 109q75 69 75 169zM890 999
q0 -106 -54 -179t-159 -132q123 -57 197 -138t75 -211q0 -171 -129 -265q-128 -94 -306 -94t-306 95t-128 264q0 132 89 228q65 68 183 121q-104 58 -158 132t-55 179q0 157 110 248t263 91q154 0 266 -90t112 -249z" />
    <glyph glyph-name="nine" unicode="9" horiz-adv-x="1009" 
d="M793 852q-1 176 -89 277t-215 101t-199 -97t-71 -225q0 -128 82 -208t197 -80t289 115q6 45 6 117zM140 91q238 0 406 142t220 386q-68 -62 -138 -85t-157 -23q-155 0 -263 113t-108 270q0 92 41 196t133 176t238 72q198 0 298 -135t99 -349q0 -214 -81 -414
q-81 -202 -254 -331t-434 -129v111z" />
    <glyph glyph-name="colon" unicode=":" horiz-adv-x="371" 
d="M271 64q0 -34 -26 -59q-27 -25 -61 -25t-59 25t-25 59t26 58q26 26 58 26q34 0 61 -25q26 -25 26 -59zM271 974q0 -34 -26 -59q-27 -25 -61 -25t-59 25t-25 59t26 58q26 26 58 26q34 0 61 -25q26 -25 26 -59z" />
    <glyph glyph-name="semicolon" unicode=";" horiz-adv-x="376" 
d="M188 148q34 0 61 -24t27 -76q0 -54 -45 -116t-99 -91l-32 41q38 65 38 99t-35 81q-1 34 25 60t60 26zM275 974q0 -34 -26 -59q-27 -25 -61 -25t-59 25t-25 59t26 58q26 26 58 26q34 0 61 -25q26 -25 26 -59z" />
    <glyph glyph-name="less" unicode="&#x3c;" horiz-adv-x="894" 
d="M774 197l-64 -92l-590 413l590 413l64 -92l-459 -321z" />
    <glyph glyph-name="equal" unicode="=" horiz-adv-x="1030" 
d="M120 396h790v-112h-790v112zM120 746h790v-112h-790v112z" />
    <glyph glyph-name="greater" unicode="&#x3e;" horiz-adv-x="894" 
d="M579 518l-459 321l64 92l590 -413l-590 -413l-64 92z" />
    <glyph glyph-name="question" unicode="?" horiz-adv-x="975" 
d="M484 64q0 -34 -26 -59t-60 -25t-60 25q-25 25 -25 59q-1 34 25 58q26 26 60 26t60 -25t26 -59zM465 1448q159 0 275 -88t116 -243t-116 -255t-159 -145q-127 -140 -127 -383h-116q0 180 54 292t147 198q38 34 95 82q106 88 106 198q0 109 -83 172t-183 63t-182 -33
t-130 -92h-9l-33 92q50 64 145 103t200 39z" />
    <glyph glyph-name="at" unicode="@" horiz-adv-x="1419" 
d="M1085 710l-127 9h-33q-89 -1 -157 -11t-119 -51t-51 -129t62 -150t165 -62q170 0 260 172v222zM1186 -6q-155 -147 -443 -147q-287 -1 -465 193t-178 495q0 223 98 372t256 221t350 73t290 -69t104 -251h1v-306q1 -98 41 -170t119 -90l-65 -108q-112 36 -166 162
q-42 -73 -124 -117t-175 -45q-202 0 -292 123q-57 77 -57 212t94 210t303 75q70 0 208 -12v65q0 116 -73 164t-213 48q-267 0 -425 -144t-158 -401t150 -425t388 -167q238 0 353 107z" />
    <glyph glyph-name="A" unicode="A" horiz-adv-x="1240" 
d="M377 436h484l-242 702zM357 49q1 -31 -5 -37t-34 -8q-39 -3 -81 -4h-86q-105 0 -110 6t-7 18t-3 34q0 22 6 34q52 10 105 17l415 1209h124l415 -1209q45 -5 107 -17q6 -12 6 -43q1 -31 -5 -37t-34 -8q-39 -4 -81 -4h-88q-105 0 -110 6t-7 18t-3 34q0 22 6 34q53 10 87 14
l-75 217h-561l-74 -217l87 -14q6 -12 6 -43z" />
    <glyph glyph-name="B" unicode="B" horiz-adv-x="1086" 
d="M288 619v-510h162q234 0 345 54q128 61 128 205t-125 203q-104 48 -331 48h-179zM841 944q0 265 -416 265h-137v-481h88q266 0 357 37q57 23 83 65t25 114zM956 967q0 -220 -166 -284q124 -31 182 -109t59 -222q-1 -144 -87 -226q-86 -80 -219 -103t-334 -23h-210
q-105 0 -110 6t-7 18t-3 34q0 22 6 34q52 10 106 17v1099q-74 9 -106 18q-6 12 -6 43t7 38t78 11h309q501 0 501 -351z" />
    <glyph glyph-name="C" unicode="C" horiz-adv-x="1091" 
d="M748 -19q-320 -1 -484 187t-164 502t180 490q180 178 467 178q164 0 284 -43l-3 -90q-1 -53 -5 -110l-3 -42l-2 -21q-36 -17 -84 -9q-16 32 -32 194q-64 12 -132 12q-275 -1 -414 -153t-139 -415t138 -417t418 -155q69 0 129 9q20 171 32 197q48 8 84 -9l2 -21l3 -43
q4 -60 5 -112l3 -92q-126 -37 -283 -37z" />
    <glyph glyph-name="D" unicode="D" horiz-adv-x="1297" 
d="M282 1209v-1100h240q248 0 404 159t155 390q0 232 -167 391q-167 160 -409 160h-223zM181 0q-105 0 -110 6t-7 18t-3 34q0 22 6 34q40 8 100 16v1101q-48 6 -100 17q-6 12 -6 43t7 38t78 11h367q289 0 487 -185q197 -187 197 -474q0 -288 -191 -474q-191 -185 -478 -185
h-347z" />
    <glyph glyph-name="E" unicode="E" horiz-adv-x="984" 
d="M925 1318v-48q1 -52 -5 -142t-8 -96q-36 -17 -84 -9q-15 38 -30 182h-517v-490h437q14 96 27 113q54 5 83 -9q10 -69 10 -169t-10 -151q-29 -14 -83 -9q-11 14 -27 113h-437v-490h517q16 148 30 182q48 8 84 -9q2 -6 8 -92t5 -146v-48h-744q-105 0 -110 6t-7 18t-3 34
q0 22 6 34q40 8 100 16v1101q-48 6 -100 17q-6 12 -6 43t7 38t78 11h779z" />
    <glyph glyph-name="F" unicode="F" horiz-adv-x="984" 
d="M282 1205v-489h436q14 96 27 112q54 5 83 -9q10 -69 10 -169t-10 -151q-29 -14 -83 -9q-11 14 -27 113h-436v-495q58 -7 99 -16q6 -12 6 -43q1 -31 -5 -37t-34 -8q-39 -3 -81 -4h-86q-105 0 -110 6t-7 18t-3 34q0 22 6 34q40 8 100 16v1101q-48 6 -100 17q-6 12 -6 43
t7 38t78 11h779v-52l-10 -199q-2 -29 -3 -35q-36 -17 -84 -9q-15 38 -30 182h-516z" />
    <glyph glyph-name="G" unicode="G" horiz-adv-x="1274" 
d="M714 89q135 0 277 92v429h-267v113h380v-723h-50l-36 87q-158 -107 -314 -107q-276 0 -440 197t-164 503t177 482t457 176q183 0 331 -50l-3 -104q-1 -63 -5 -135l-3 -52q-2 -24 -2 -25q-36 -17 -84 -9q-10 21 -22 110t-14 138q-87 18 -162 18q-274 -1 -414 -155
t-140 -405t140 -415t358 -165z" />
    <glyph glyph-name="H" unicode="H" horiz-adv-x="1244" 
d="M267 1318q105 0 110 -6t7 -20t3 -34q0 -20 -6 -32q-54 -11 -99 -17v-494h680v494q-45 6 -99 17q-6 12 -6 43t7 38t78 11h121q105 0 110 -6t7 -20t3 -34q0 -20 -6 -32q-52 -11 -100 -17v-1101q60 -8 100 -16q6 -12 6 -43q1 -31 -5 -37t-34 -8q-39 -4 -81 -4h-86
q-105 0 -110 6t-7 18t-3 34q0 22 6 34q41 9 99 16v495h-680v-495q58 -7 99 -16q6 -12 6 -43q1 -31 -5 -37t-34 -8q-39 -3 -81 -4h-86q-105 0 -110 6t-7 18t-3 34q0 22 6 34q40 8 100 16v1101q-48 6 -100 17q-6 12 -6 43t7 38t78 11h121z" />
    <glyph glyph-name="I" unicode="I" horiz-adv-x="448" 
d="M267 1318q105 0 110 -6t7 -20t3 -34q0 -20 -6 -32q-52 -11 -100 -17v-1101q60 -8 100 -16q6 -12 6 -43q1 -31 -5 -37t-34 -8q-39 -3 -81 -4h-86q-105 0 -110 6t-7 18t-3 34q0 22 6 34q40 8 100 16v1101q-48 6 -100 17q-6 12 -6 43t7 38t78 11h121z" />
    <glyph glyph-name="J" unicode="J" horiz-adv-x="703" 
d="M227 114q91 0 143 70t52 223v802q-48 6 -100 17q-6 12 -6 43t10 42q35 7 96 7h115q60 0 95 -7q10 -11 10 -42t-6 -43q-54 -11 -99 -17v-805q0 -176 -65 -278q-80 -126 -251 -126q-95 0 -211 58l10 202q2 30 3 36q36 17 84 9q10 -21 29 -177q51 -14 91 -14z" />
    <glyph glyph-name="K" unicode="K" horiz-adv-x="1095" 
d="M387 49q1 -31 -5 -37t-34 -8q-39 -3 -81 -4h-86q-105 0 -110 6t-7 18t-3 34q0 22 6 34q40 8 100 16v1101q-48 6 -100 17q-6 12 -6 43t7 38t78 11h121q105 0 110 -6t7 -20t3 -34q0 -20 -6 -32q-54 -11 -99 -17v-509l434 518q-34 6 -40 8q-6 12 -6 43t8 39t77 10h121
q105 0 110 -6q6 -6 8 -20t2 -34t-6 -32q-34 -7 -142 -22l-425 -509l2 -4q17 -59 97 -161t190 -210t205 -177q50 57 75 70q34 -7 66 -43q-14 -54 -116 -190q-99 42 -238 174q-138 132 -262 286t-160 242v-574q58 -7 99 -16q6 -12 6 -43z" />
    <glyph glyph-name="L" unicode="L" horiz-adv-x="961" 
d="M901 0h-720q-105 0 -110 6t-7 18t-3 34q0 22 6 34q40 8 100 16v1101q-48 6 -100 17q-6 12 -6 43t7 38t78 11h121q105 0 110 -6t7 -20t3 -34q0 -20 -6 -32q-54 -11 -99 -17v-1096h491q20 166 31 182q55 5 84 -9q8 -8 13 -201v-85z" />
    <glyph glyph-name="M" unicode="M" horiz-adv-x="1297" 
d="M1116 1318q105 0 110 -6q6 -6 8 -20t2 -34t-6 -32q-25 -7 -105 -17l4 -1101q59 -8 101 -16q6 -12 6 -43t-6 -37t-34 -8q-38 -4 -80 -4h-86q-105 0 -110 6q-6 6 -8 18t-2 34t6 34q41 9 99 16l-4 987l-354 -703h-14l-358 704l-4 -988q60 -8 100 -16q6 -12 6 -43
q1 -31 -5 -37t-34 -8q-39 -3 -81 -4h-86q-105 0 -110 6t-7 18t-3 34q0 22 6 34q40 8 100 16l4 1101q-78 10 -104 17q-6 12 -6 43t7 38t78 11h140l360 -702h4l360 702h106z" />
    <glyph glyph-name="N" unicode="N" horiz-adv-x="1257" 
d="M1076 1318q105 0 110 -6q6 -6 8 -20t2 -34t-6 -32q-52 -11 -100 -17v-1209h-114l-695 1110v-1002q60 -8 100 -16q6 -12 6 -43q1 -31 -5 -37t-34 -8q-39 -3 -81 -4h-100q-89 0 -97 9t-9 40q0 31 6 43q40 8 100 16v1101q-48 6 -100 17q-6 12 -6 43t10 42q35 7 96 7h114
l695 -1111v1002q-48 6 -100 17q-6 12 -6 43t10 42q35 7 96 7h100z" />
    <glyph glyph-name="O" unicode="O" horiz-adv-x="1410" 
d="M1194 652q0 251 -131 414t-357 163q-226 1 -358 -157t-132 -406t133 -412t359 -165q226 0 356 156t130 407zM708 1338q270 0 436 -192t166 -488q0 -294 -164 -486t-439 -192q-276 0 -442 194q-165 194 -165 486t170 485q168 193 438 193z" />
    <glyph glyph-name="P" unicode="P" horiz-adv-x="1132" 
d="M936 865q0 344 -530 344h-119v-676h119q258 0 394 76t136 256zM402 1318q326 0 488 -102t162 -326q0 -326 -330 -424q-140 -42 -329 -42h-106v-316q60 -8 100 -16q6 -12 6 -43q1 -31 -5 -37t-34 -8q-39 -3 -81 -4h-86q-105 0 -110 6t-7 18t-3 34q0 22 6 34q40 8 100 16
v1100q-74 9 -106 18q-6 12 -6 43t7 38t78 11h256z" />
    <glyph glyph-name="Q" unicode="Q" horiz-adv-x="1410" 
d="M1194 652q0 251 -131 414t-357 163q-226 1 -358 -157t-132 -406t133 -412t359 -165q226 0 356 156t130 407zM700 -20q-269 0 -435 194q-165 194 -165 486t170 485t438 193q270 0 436 -193t166 -482q0 -227 -104 -399t-284 -243q53 -70 139 -131q51 63 80 76q34 -7 66 -43
q-14 -54 -116 -190q-65 7 -159 87t-141 167q-54 -7 -91 -7z" />
    <glyph glyph-name="R" unicode="R" horiz-adv-x="1246" 
d="M288 1209v-669h118q258 0 385 72q144 80 144 266t-137 265q-116 66 -364 66h-146zM388 431h-100v-323q58 -7 99 -16q6 -12 6 -43q1 -31 -5 -37t-34 -8q-39 -3 -81 -4h-86q-105 0 -110 6t-7 18t-3 34q0 22 6 34q40 8 100 16v1100q-74 9 -106 18q-6 12 -6 43t7 38t78 11
h312q323 0 458 -104t135 -327q0 -285 -232 -388q23 -71 99 -179t157 -177q51 58 74 70q34 -7 66 -43q-14 -54 -116 -190q-52 10 -131 96q-80 86 -154 196t-108 189q-120 -30 -318 -30z" />
    <glyph glyph-name="S" unicode="S" horiz-adv-x="954" 
d="M388 92q134 0 232 64t98 177q0 155 -209 253q-15 6 -47 22t-43 21q-143 67 -206 130q-93 93 -93 249t118 242q118 88 292 88q110 0 209 -34q1 -52 -5 -142t-8 -96q-36 -17 -84 -9q-12 27 -28 163q-46 6 -91 6q-131 0 -213 -58t-81 -162q0 -142 193 -239l34 -17
q48 -24 76 -36q148 -71 208 -129q94 -94 94 -228q0 -165 -126 -271t-331 -106q-134 0 -251 58l10 202q2 30 3 36q36 17 84 9q10 -21 29 -177q65 -16 136 -16z" />
    <glyph glyph-name="T" unicode="T" horiz-adv-x="1030" 
d="M575 1205v-1097q58 -7 99 -16q6 -12 6 -43t-6 -37t-34 -8q-38 -4 -80 -4h-86q-105 0 -110 6q-6 6 -8 18t-2 34t6 34q40 8 100 16v1097h-273q-10 -92 -15 -114q-5 -23 -7 -39t-8 -29q-48 -8 -84 9q-13 78 -13 238v48h910v-51l-10 -200q-2 -29 -3 -35q-36 -17 -84 -9
q-15 38 -30 182h-268z" />
    <glyph glyph-name="U" unicode="U" horiz-adv-x="1278" 
d="M1097 1318q105 0 110 -6t7 -20t3 -34q0 -20 -6 -32q-52 -11 -100 -17v-719q0 -385 -233 -474q-90 -36 -238 -36q-226 0 -334 92q-139 118 -139 418v719q-48 6 -100 17q-6 12 -6 43t7 38t78 11h121q105 0 110 -6t7 -20t3 -34q0 -20 -6 -32q-52 -11 -100 -17v-702
q0 -327 192 -395q64 -23 167 -23q103 -1 179 27t127 120t51 271v702q-48 6 -100 17q-6 12 -6 43t7 38t78 11h121z" />
    <glyph glyph-name="V" unicode="V" horiz-adv-x="1235" 
d="M237 1318q105 0 110 -6t7 -20t3 -34q0 -20 -6 -32q-48 -10 -88 -15l355 -1029l354 1029q-73 10 -88 15q-6 12 -6 43t8 39t77 10h121q105 0 110 -6q6 -6 8 -20t2 -34t-6 -32q-27 -7 -101 -17l-416 -1209h-126l-415 1209q-76 10 -103 17q-6 12 -6 43t7 38t78 11h121z" />
    <glyph glyph-name="W" unicode="W" horiz-adv-x="1841" 
d="M237 1318q105 0 110 -6t7 -20t3 -34q0 -20 -6 -32q-39 -9 -93 -16l285 -995l316 1103h124l315 -1103l285 995q-54 7 -93 16q-6 12 -6 43t8 39t77 10h121q105 0 110 -6q6 -6 8 -20t2 -34t-6 -32q-38 -8 -98 -16l-346 -1210h-123l-316 1101l-316 -1101h-123l-347 1210
q-55 7 -98 16q-6 12 -6 43t7 38t78 11h121z" />
    <glyph glyph-name="X" unicode="X" horiz-adv-x="1242" 
d="M288 1318q105 0 110 -6q6 -6 8 -20t2 -34t-6 -32q-17 -4 -49 -9l272 -418l271 416l-57 11q-6 12 -6 43t7 38t78 11h121q105 0 110 -6t7 -20t3 -34q0 -20 -6 -32q-24 -5 -133 -21l-329 -506l381 -587q81 -8 133 -20q6 -12 6 -43q1 -31 -5 -37t-34 -8q-39 -4 -81 -4h-86
q-105 0 -110 6t-7 18t-3 34q0 22 6 34q3 0 23 4t34 6l-323 497l-323 -498q32 -5 49 -9q6 -12 6 -43q1 -31 -5 -37t-34 -8q-39 -3 -81 -4h-86q-105 0 -110 6t-7 18t-3 34q0 22 6 34q63 13 143 21l380 586l-329 505q-111 15 -143 22q-6 12 -6 43t8 39t77 10h121z" />
    <glyph glyph-name="Y" unicode="Y" horiz-adv-x="1106" 
d="M749 1269q0 31 7 38t78 11h121q105 0 110 -6t7 -20t3 -34q0 -20 -6 -32q-36 -9 -110 -18l-349 -716v-384q60 -8 100 -16q6 -12 6 -49t-20 -39q-52 -4 -86 -4h-114q-90 0 -98 9t-8 40t6 43q40 8 100 16v384l-350 716q-75 9 -109 18q-6 12 -6 43t7 38t78 11h121
q105 0 110 -6t7 -20t3 -34q0 -20 -6 -32q-38 -8 -73 -13l275 -563l274 563q-32 5 -72 13q-6 12 -6 43z" />
    <glyph glyph-name="Z" unicode="Z" horiz-adv-x="1033" 
d="M948 0h-858l-5 5l609 1200h-459q-10 -92 -15 -114q-5 -23 -7 -39t-8 -29q-48 -8 -84 9q-3 8 -6 83t-5 105t-2 42v56h763l5 -5l-612 -1200h557q16 148 30 182q48 8 84 -9q13 -78 13 -238v-48z" />
    <glyph glyph-name="bracketleft" unicode="[" horiz-adv-x="580" 
d="M460 0h-340v1448h340v-112h-226v-1224h226v-112z" />
    <glyph glyph-name="backslash" unicode="\" horiz-adv-x="933" 
d="M813 -168l-105 -39l-588 1616l105 39z" />
    <glyph glyph-name="bracketright" unicode="]" horiz-adv-x="580" 
d="M120 1448h340v-1448h-340v112h226v1224h-226v112z" />
    <glyph glyph-name="underscore" unicode="_" horiz-adv-x="800" 
d="M0 112h800v-112h-800v112z" />
    <glyph glyph-name="grave" unicode="`" horiz-adv-x="670" 
d="M178 1548q189 -163 392 -253q-8 -66 -33 -89q-122 23 -262 106t-175 137q6 39 24 59t54 40z" />
    <glyph glyph-name="a" unicode="a" horiz-adv-x="1039" 
d="M705 483l-127 9h-33q-89 0 -157 -10t-119 -52t-51 -130t62 -150t165 -61q170 0 260 172v222zM449 -20q-202 0 -292 123q-57 77 -57 212t94 210t303 75q70 0 208 -12v144q0 112 -63 164q-64 52 -152 52t-192 -31q-19 -154 -29 -180q-48 -8 -84 9q-13 78 -13 238
q160 74 312 74t244 -80t91 -262v-368q1 -98 41 -170t119 -90l-65 -108q-112 36 -166 162q-42 -74 -124 -118t-175 -44z" />
    <glyph glyph-name="b" unicode="b" horiz-adv-x="1103" 
d="M541 91q148 -1 247 117t99 313q1 195 -83 311t-240 117q-156 0 -259 -110v-688q122 -60 236 -60zM305 1448v-481q119 91 266 91q200 0 316 -150t116 -392t-134 -388q-134 -148 -331 -148q-152 0 -347 94v1256q-75 0 -101 6q-6 8 -7 40t4 45q46 15 123 23l50 3q14 1 26 1
h19z" />
    <glyph glyph-name="c" unicode="c" horiz-adv-x="919" 
d="M584 -20q-214 0 -349 136t-135 410t143 411q125 121 337 121q138 0 279 -49q1 -52 -5 -142t-8 -96q-36 -17 -84 -9q-9 17 -12 47q-4 29 -6 47t-5 31q-2 12 -6 50q-80 11 -138 11q-169 0 -273 -100t-103 -318q-1 -216 105 -328t271 -112q67 0 134 11q21 176 33 205
q48 8 84 -9l2 -21l3 -43q4 -60 5 -112l3 -92q-141 -49 -275 -49z" />
    <glyph glyph-name="d" unicode="d" horiz-adv-x="1141" 
d="M566 89q174 0 265 127v679q-130 54 -223 54q-176 0 -283 -112t-107 -305t82 -310q92 -133 266 -133zM1091 60q0 -40 -7 -51q-96 -29 -215 -29h-6l-32 110q-129 -110 -292 -110q-199 0 -319 160t-120 395t129 379t386 144q84 0 216 -33v305q-75 0 -101 6q-6 8 -7 40t4 45
q46 15 123 23l50 3q14 1 26 1h19v-1340q27 0 83 -2l51 -3q12 -3 12 -43z" />
    <glyph glyph-name="e" unicode="e" horiz-adv-x="960" 
d="M522 948q-134 0 -210 -93q-77 -93 -91 -247h530q0 156 -41 237q-54 103 -188 103zM571 89q139 0 293 75l4 -3v-107q-149 -74 -297 -74q-207 0 -339 140t-132 396t103 400q103 142 325 142q262 0 321 -244q19 -80 21 -206v-113h-653q7 -197 111 -301t243 -105z" />
    <glyph glyph-name="f" unicode="f" horiz-adv-x="682" 
d="M565 1339q-110 -1 -161 -67t-51 -221v-13h255v-113h-255v-817q60 -8 100 -16q6 -12 6 -43q1 -31 -5 -37t-34 -8q-39 -3 -81 -4h-86q-105 0 -110 6t-7 18t-3 34q0 22 6 34q40 8 100 16v817h-189v113h189v13q0 217 80 307t224 90q108 0 239 -42q0 -52 -6 -142t-7 -96
q-36 -17 -84 -9q-14 29 -29 168q-48 12 -91 12z" />
    <glyph glyph-name="g" unicode="g" horiz-adv-x="1047" 
d="M204 -128q0 -110 72 -174t226 -64t272 83t118 195q0 113 -124 158q-96 35 -306 35h-148q-110 -123 -110 -233zM763 701q0 95 -71 171q-72 76 -196 76t-195 -75t-71 -171t72 -169q72 -74 196 -74t195 73q70 73 70 169zM116 705q0 147 109 250t257 103t241 -61
q55 50 125 80t120 30l37 -104q-98 -12 -196 -86q68 -89 68 -225q-1 -136 -109 -240q-108 -102 -275 -102q-119 0 -209 52q-44 -51 -44 -90t34 -67t91 -28h235q201 -1 304 -87t103 -211q1 -79 -45 -152t-124 -128q-165 -117 -350 -117q-186 0 -292 94t-106 235q0 140 125 272
q-85 50 -85 148q0 99 75 192q-89 95 -89 242z" />
    <glyph glyph-name="h" unicode="h" horiz-adv-x="1137" 
d="M606 949q-149 0 -304 -120v-721q60 -8 100 -16q6 -12 6 -43t-6 -37t-34 -8q-38 -4 -80 -4h-86q-105 0 -110 6q-6 6 -8 18t-2 34t6 34q40 8 100 16v1222q-75 0 -101 6q-6 8 -7 40t4 45q46 15 123 23l50 3q14 1 26 1h19v-504q171 114 315 114q143 0 243 -84t100 -249v-617
q60 -8 100 -16q6 -12 6 -43t-6 -37t-34 -8q-38 -3 -80 -4h-86q-105 0 -110 6q-6 6 -8 18t-2 34t6 34q40 8 100 16v575q0 130 -68 198t-172 68z" />
    <glyph glyph-name="i" unicode="i" horiz-adv-x="488" 
d="M303 1058v-950q60 -8 100 -16q6 -12 6 -43q1 -31 -5 -37t-34 -8q-39 -4 -81 -4h-86q-105 0 -110 6t-7 18t-3 34q0 22 6 34q40 8 100 16v832q-75 0 -101 6q-6 8 -7 40t4 45q46 15 123 23l50 3q14 1 26 1h19zM246 1211q-34 0 -60 25q-26 24 -26 58t26 60q27 25 60 25
t60 -25q26 -26 26 -60t-26 -58q-26 -25 -60 -25z" />
    <glyph glyph-name="j" unicode="j" horiz-adv-x="599" 
d="M59 -369q103 -1 155 67t52 228v1014q-75 0 -101 6q-6 8 -7 40t4 45q46 15 123 23l50 3q14 1 26 1h19v-1132q0 -220 -80 -312t-228 -92q-98 0 -212 46l3 92l3 72t4 62q0 14 1 21l2 21q36 17 84 9q15 -38 33 -206q40 -8 69 -8zM409 1294q0 -34 -26 -58q-27 -25 -61 -25
t-59 25q-25 24 -25 58t26 60t58 25q34 0 61 -25q26 -26 26 -60z" />
    <glyph glyph-name="k" unicode="k" horiz-adv-x="946" 
d="M411 49q1 -31 -5 -37t-34 -8q-39 -3 -81 -4h-86q-105 0 -110 6t-7 18t-3 34q0 22 6 34q40 8 100 16v1222q-75 0 -101 6q-6 8 -7 40t4 45q46 15 123 23l50 3q14 1 26 1h19v-902l323 386q-52 7 -81 14q-6 12 -6 43t7 38t78 11h121q105 0 110 -6t7 -20t3 -34q0 -20 -6 -32
q-38 -8 -98 -16l-329 -399q12 -14 43 -62q66 -107 164 -201t187 -147q62 76 94 92q34 -7 66 -43q-14 -54 -116 -190q-72 4 -168 78q-170 130 -316 338q-81 114 -83 131v-419q60 -8 100 -16q6 -12 6 -43z" />
    <glyph glyph-name="l" unicode="l" horiz-adv-x="489" 
d="M302 1448v-1340q60 -8 100 -16q6 -12 6 -43t-6 -37t-34 -8q-38 -4 -80 -4h-86q-105 0 -110 6q-6 6 -8 18t-2 34t6 34q40 8 100 16v1222q-75 0 -101 6q-6 8 -7 40t4 45q46 15 123 23l50 3q14 1 26 1h19z" />
    <glyph glyph-name="m" unicode="m" horiz-adv-x="1665" 
d="M594 1058q151 0 237 -115q179 115 318 115t239 -85t100 -248v-617q60 -8 100 -16q6 -12 6 -43t-6 -37t-34 -8q-38 -4 -80 -4h-86q-105 0 -110 6q-6 6 -8 18t-2 34t6 34q40 8 100 16v575q0 131 -70 198t-182 67t-248 -90q21 -57 21 -133v-617q60 -8 100 -16q6 -12 6 -43
q1 -31 -5 -37t-34 -8q-39 -4 -81 -4h-86q-105 0 -110 6t-7 18t-3 34q0 22 6 34q40 8 100 16v575q0 133 -59 199t-161 66t-259 -120v-720q60 -8 100 -16q6 -12 6 -43t-6 -37t-34 -8q-38 -4 -80 -4h-86q-105 0 -110 6q-6 6 -8 18t-2 34t6 34q40 8 100 16v832q-74 0 -100 6
q-6 8 -7 40t4 45q74 22 122 24q48 1 58 3l34 -116q95 60 161 88t134 28z" />
    <glyph glyph-name="n" unicode="n" horiz-adv-x="1133" 
d="M617 1058q139 0 239 -85t100 -248v-617q60 -8 100 -16q6 -12 6 -43t-6 -37t-34 -8q-38 -4 -80 -4h-86q-105 0 -110 6q-6 6 -8 18t-2 34t6 34q40 8 100 16v575q0 131 -68 198t-172 67q-146 0 -301 -120v-720q60 -8 100 -16q6 -12 6 -43q1 -31 -5 -37t-34 -8q-39 -3 -81 -4
h-86q-105 0 -110 6t-7 18t-3 34q0 22 6 34q40 8 100 16v832q-74 0 -100 6q-6 8 -7 40t4 45q74 22 122 24q48 1 58 3l34 -116q179 116 319 116z" />
    <glyph glyph-name="o" unicode="o" 
d="M214 524q0 -184 95 -310t260 -125q165 0 258 119q93 120 93 306t-93 310t-259 125q-166 0 -260 -120q-94 -121 -94 -305zM100 519q0 229 132 384t338 155q208 0 336 -154t128 -384q0 -228 -132 -384t-340 -156t-334 155q-128 155 -128 384z" />
    <glyph glyph-name="p" unicode="p" 
d="M519 88q173 0 285 114t112 310t-86 316t-262 121q-174 0 -265 -127v-690q104 -44 216 -44zM592 1058q200 0 321 -156t121 -388t-141 -384q-141 -150 -369 -150q-109 0 -221 35v-364q48 -6 100 -17q6 -12 6 -43q1 -31 -5 -37t-34 -8q-39 -4 -81 -4h-86q-105 0 -110 6
t-7 18t-3 34q0 22 6 34q52 11 100 17v1289q-118 0 -132 6q-6 8 -7 40t4 45q46 15 123 23l50 3q14 1 26 1h19l33 -110q129 110 287 110z" />
    <glyph glyph-name="q" unicode="q" horiz-adv-x="1069" 
d="M562 947q-152 1 -249 -107t-97 -304t78 -322q78 -125 227 -125t277 131v667q-122 60 -236 60zM100 530q0 232 126 380t327 148q91 0 161 -20t198 -70v-1317q48 -6 100 -17q6 -12 6 -43t-6 -37t-34 -8q-38 -3 -80 -4h-86q-105 0 -110 6q-6 6 -8 18t-2 34t6 34
q52 11 100 17v437q-142 -108 -286 -108q-188 0 -300 158q-112 160 -112 392z" />
    <glyph glyph-name="r" unicode="r" horiz-adv-x="773" 
d="M561 1058q69 0 142 -31q1 -52 -5 -142t-8 -96q-36 -17 -84 -9q-11 20 -28 167q-18 2 -27 2q-140 0 -250 -145v-696q60 -8 100 -16q6 -12 6 -43q1 -31 -5 -37t-34 -8q-39 -3 -81 -4h-86q-105 0 -110 6t-7 18t-3 34q0 22 6 34q40 8 100 16v832q-71 0 -99 6q-6 8 -7 40t4 45
q74 22 122 24q48 1 58 3l37 -127q116 127 259 127z" />
    <glyph glyph-name="s" unicode="s" horiz-adv-x="770" 
d="M288 90q111 0 202 50t91 134t-79 138q-38 25 -128 65t-138 66q-100 53 -139 137q-22 44 -22 107q0 144 110 214q89 57 215 57t242 -29q0 -52 -6 -142t-7 -96q-36 -17 -84 -9q-10 13 -27 158q-62 8 -134 8t-131 -36q-60 -36 -60 -116t80 -133q42 -29 168 -81t180 -100
q79 -74 79 -185q0 -149 -122 -233t-270 -84q-150 0 -238 40l3 92l3 72t4 62q0 14 1 21l2 21q36 17 84 9q15 -44 32 -200q43 -7 89 -7z" />
    <glyph glyph-name="t" unicode="t" horiz-adv-x="741" 
d="M477 -20q-129 0 -217 81t-87 268v596h-113v113h113v188l103 19h12v-207h255v-113h-255v-534q0 -299 198 -299q39 0 75 10q20 165 33 204q48 8 84 -9l2 -21l3 -43q4 -60 5 -112l3 -92q-125 -49 -214 -49z" />
    <glyph glyph-name="u" unicode="u" horiz-adv-x="1149" 
d="M525 89q145 0 301 121v730q-74 0 -100 6q-6 8 -7 40t4 45q46 15 123 23l50 3q14 1 26 1h19v-950h40q100 0 109 -6t9 -44t-7 -49q-96 -29 -215 -29h-6l-36 118q-179 -118 -322 -118t-243 85t-100 248v627q-74 0 -100 6q-6 8 -7 40t4 45q46 15 123 23l50 3q14 1 26 1h19
v-703q1 -131 69 -199t171 -67z" />
    <glyph glyph-name="v" unicode="v" horiz-adv-x="1092" 
d="M720 989q0 31 8 39t77 10h121q105 0 110 -6q6 -6 8 -20t2 -34t-6 -32q-35 -9 -112 -18l-319 -928h-126l-317 928q-81 9 -114 18q-6 12 -6 43t8 39t77 10h121q105 0 110 -6q6 -6 8 -20t2 -34t-6 -32l-78 -14l258 -750l257 750q-45 7 -77 14q-6 12 -6 43z" />
    <glyph glyph-name="w" unicode="w" horiz-adv-x="1645" 
d="M252 1038q105 0 110 -6q6 -6 8 -20t2 -34t-6 -32q-29 -7 -81 -14l230 -730l249 836h116l250 -835l229 729q-50 6 -80 14q-6 12 -6 43t7 38t78 11h121q105 0 110 -6t7 -20t3 -34q0 -20 -6 -32q-34 -9 -109 -18l-293 -928h-126l-243 828l-243 -828h-125l-293 928
q-72 8 -109 18q-6 12 -6 43t8 39t77 10h121z" />
    <glyph glyph-name="x" unicode="x" horiz-adv-x="1091" 
d="M347 49q1 -31 -5 -37t-34 -8q-39 -3 -81 -4h-86q-105 0 -110 6t-7 18t-3 34q0 22 6 34q43 10 124 19l310 444l-262 374q-48 6 -100 17q-6 12 -6 43t7 38t78 11h121q105 0 110 -6t7 -20t3 -34q0 -20 -6 -32q-40 -8 -72 -13l197 -281l195 280q-45 7 -77 14q-6 12 -6 43
t8 39t77 10h121q105 0 110 -6q6 -6 8 -20t2 -34t-6 -32q-38 -8 -94 -16l-266 -382l306 -437l68 -9q16 -2 55 -10q6 -12 6 -43q1 -31 -5 -37t-34 -8q-39 -4 -81 -4h-86q-105 0 -110 6t-7 18t-3 34q0 22 6 34q19 4 53 9l-245 351l-244 -351q20 -4 34 -6t18 -3q6 -12 6 -43z
" />
    <glyph glyph-name="y" unicode="y" horiz-adv-x="1027" 
d="M192 -340q52 0 101 38q50 38 73 111l60 191l-321 930q-55 7 -98 16q-6 12 -6 43t7 38t78 11h121q105 0 110 -6t7 -20t3 -34q0 -20 -6 -32q-13 -4 -30 -6t-33 -6l-24 -3l257 -746l257 746q-60 9 -87 15q-6 12 -6 43t7 38t78 11h121q105 0 110 -6t7 -20t3 -34q0 -20 -6 -32
q-26 -7 -102 -17l-412 -1199q-74 -208 -276 -208q-98 0 -210 52l3 92q2 24 4 72t2 62t2 21l2 21q36 17 84 9q13 -27 29 -179q39 -12 91 -12z" />
    <glyph glyph-name="z" unicode="z" horiz-adv-x="873" 
d="M820 0h-765l-5 5l565 920h-425q-3 -21 -8 -55t-6 -41t-7 -40l-6 -21q-48 -8 -84 9q-1 6 -7 87t-6 144v30h752l5 -6l-565 -919h435q16 148 30 182q48 8 84 -9q13 -78 13 -238v-48z" />
    <glyph glyph-name="braceleft" unicode="{" horiz-adv-x="810" 
d="M328 1107q0 341 323 341h39v-109h-12q-136 -1 -186 -55t-50 -177v-146q0 -75 -38 -150t-94 -97q56 -21 94 -97t38 -150v-146q0 -123 50 -177t186 -55h12v-109h-39q-323 0 -323 341v144q0 109 -54 151t-154 43v108q98 0 153 43t55 153v144z" />
    <glyph glyph-name="bar" unicode="|" horiz-adv-x="354" 
d="M234 1448v-1718h-114v1718h114z" />
    <glyph glyph-name="braceright" unicode="}" horiz-adv-x="810" 
d="M482 321q0 -341 -323 -341h-39v109h12q136 1 186 55t50 177v146q0 75 38 151t94 96q-56 22 -94 97t-38 150v146q0 123 -50 177t-186 55h-12v109h39q323 0 323 -341v-144q0 -110 55 -153t153 -43v-108q-100 -1 -154 -43t-54 -151v-144z" />
    <glyph glyph-name="asciitilde" unicode="~" horiz-adv-x="1031" 
d="M829 474q-71 -58 -169 -58t-174 68q-51 44 -76 56t-51 12q-55 0 -94 -46t-39 -98q-60 -12 -106 31q12 96 84 159t140 63q70 0 110 -25t90 -68t109 -43q58 0 104 43t46 93q60 12 108 -31q-12 -97 -82 -156z" />
    <glyph glyph-name="exclamdown" unicode="&#xa1;" horiz-adv-x="471" 
d="M294 -390h-122q0 406 10 687t17 336h70q25 -239 25 -1023zM321 974q0 -34 -25 -60q-25 -25 -61 -25q-37 1 -61 25t-24 59t25 60t61 25t61 -24q24 -26 24 -60z" />
    <glyph glyph-name="cent" unicode="&#xa2;" horiz-adv-x="919" 
d="M629 -148h-114v132q-187 21 -301 155q-114 135 -114 387t114 380t301 148v132h114v-130q117 -8 230 -47q1 -52 -5 -142t-8 -96q-36 -17 -84 -9q-9 17 -12 47q-4 29 -6 47t-5 31q-2 12 -6 50q-80 11 -138 11q-169 0 -273 -100t-103 -318q-1 -216 105 -328t271 -112
q67 0 134 11q21 176 33 205q48 8 84 -9l2 -21l3 -43q4 -60 5 -112l3 -92q-119 -41 -230 -47v-130z" />
    <glyph glyph-name="sterling" unicode="&#xa3;" horiz-adv-x="1041" 
d="M616 1229q-136 -1 -204 -87t-68 -217q0 -72 23 -185h393v-112h-370q30 -142 30 -220t-30 -158t-80 -137h543q20 166 31 182q55 5 84 -9q3 -5 8 -76t5 -160v-50h-920v113h8q86 5 160 94t74 231q0 72 -26 190h-217v112h193q-24 107 -24 207q0 195 101 293t264 98t313 -68
v-12l-10 -193q-1 -27 -3 -33q-36 -17 -84 -9q-14 29 -29 168q-68 38 -165 38z" />
    <glyph glyph-name="yen" unicode="&#xa5;" horiz-adv-x="1106" 
d="M237 1318q105 0 110 -6t7 -20t3 -34q0 -20 -6 -32q-38 -8 -73 -13l275 -563l274 563q-32 5 -72 13q-6 12 -6 43t7 38t78 11h121q105 0 110 -6t7 -20t3 -34q0 -20 -6 -32q-36 -9 -110 -18l-307 -630h296v-112h-338v-118h338v-112h-338v-128q60 -8 100 -16q6 -12 6 -43
t-6 -37t-34 -8q-38 -4 -80 -4h-100q-90 0 -98 9t-8 40t6 43q40 8 100 16v128h-338v112h338v118h-338v112h296l-308 630q-75 9 -109 18q-6 12 -6 43t7 38t78 11h121z" />
    <glyph glyph-name="brokenbar" unicode="&#xa6;" horiz-adv-x="354" 
d="M234 430v-700h-114v700h114zM120 748v700h114v-700h-114z" />
    <glyph glyph-name="section" unicode="&#xa7;" horiz-adv-x="971" 
d="M736 408q0 106 -83 188q-35 34 -127 94t-142 102q-50 40 -85 89q-63 -79 -63 -187q0 -148 167 -256q135 -88 185 -129t84 -89q64 82 64 188zM852 422q0 -194 -127 -314q15 -60 15 -120q0 -168 -95 -252t-261 -83q-110 0 -209 34l20 98l9 4q90 -24 185 -24q242 0 242 205
q1 156 -175 276q-18 12 -26 16t-28 19q-21 14 -26 17q-125 80 -176 144q-80 98 -80 237q0 194 127 314q-15 53 -15 120q0 167 96 251t260 84q110 0 209 -34l-20 -98l-9 -4q-90 24 -185 24q-242 0 -242 -205q0 -142 136 -246q43 -33 144 -98t151 -127q80 -100 80 -238z" />
    <glyph glyph-name="dieresis" unicode="&#xa8;" horiz-adv-x="695" 
d="M595 1462q0 -34 -26 -59q-25 -25 -61 -25t-60 24t-25 60q0 36 25 61q26 25 60 25t61 -25q26 -27 26 -61zM272 1462q0 -34 -26 -58q-26 -26 -60 -26q-36 0 -61 25t-25 59t26 60t60 26t61 -25q25 -27 25 -61z" />
    <glyph glyph-name="copyright" unicode="&#xa9;" horiz-adv-x="1644" 
d="M863 240q-177 0 -287 111q-126 124 -126 360q0 235 115 349t297 114q108 0 211 -42v-92l-9 -9q-103 35 -196 35q-136 0 -219 -83t-83 -267t86 -276t226 -92q87 0 186 35l9 -7v-94q-103 -42 -210 -42zM217 712q0 -260 166 -438t434 -179q269 1 439 179t170 438t-166 440
t-433 179q-267 1 -439 -179t-171 -440zM306 1235q206 213 523 213q316 0 516 -212q199 -212 199 -523t-206 -523t-522 -212t-516 212t-200 523q0 309 206 522z" />
    <glyph glyph-name="guillemotleft" unicode="&#xab;" horiz-adv-x="1078" 
d="M958 36l-97 -56l-424 734l424 734l97 -56l-392 -678zM641 36l-97 -56l-424 734l424 734l97 -56l-392 -678z" />
    <glyph glyph-name="registered" unicode="&#xae;" horiz-adv-x="1218" 
d="M506 1095v-181h68q77 0 115 18t38 72q-1 54 -37 72t-109 19h-75zM571 812h-65v-186h-108v570h180q140 0 198 -44t57 -154q0 -109 -96 -155q15 -41 55 -93t81 -73l3 -7l-80 -52q-79 36 -158 198q-28 -4 -67 -4zM606 481q186 -1 304 123t118 306t-116 304
q-116 123 -300 123t-304 -124q-119 -124 -119 -305t116 -304t301 -123zM612 1448q232 0 379 -155t147 -382t-149 -384t-382 -157t-380 154t-147 383t150 385t382 156z" />
    <glyph glyph-name="macron" unicode="&#xaf;" horiz-adv-x="700" 
d="M100 1170h500v-112h-500v112z" />
    <glyph glyph-name="degree" unicode="&#xb0;" horiz-adv-x="814" 
d="M408 1222q-94 0 -154 -64t-61 -156q1 -92 59 -155t153 -63t155 64t61 154q0 92 -58 156q-61 64 -155 64zM410 1338q144 0 234 -97t90 -238t-92 -238t-237 -97t-235 96t-90 238t94 238q94 98 236 98z" />
    <glyph glyph-name="plusminus" unicode="&#xb1;" horiz-adv-x="1030" 
d="M120 112h790v-112h-790v112zM120 699h339v339h112v-339h339v-112h-339v-339h-112v339h-339v112z" />
    <glyph glyph-name="acute" unicode="&#xb4;" horiz-adv-x="670" 
d="M100 1295q204 91 392 253q36 -20 54 -40t24 -59q-36 -55 -175 -137t-262 -106q-25 23 -33 89z" />
    <glyph glyph-name="paragraph" unicode="&#xb6;" horiz-adv-x="1294" 
d="M197 892q0 -124 78 -180t264 -60v566q-202 -26 -283 -127q-59 -75 -59 -199zM653 0h-114v536q-226 2 -329 68q-130 82 -130 276q0 341 326 429q101 28 271 28t331 -64t226 -165l-70 -73h-6q-124 106 -216 143v-1178h-114v1212q-73 14 -156 14h-9q-3 -1 -10 -1v-1225z" />
    <glyph glyph-name="periodcentered" unicode="&#xb7;" horiz-adv-x="371" 
d="M271 518q0 -34 -26 -58q-27 -25 -61 -25t-59 25q-25 24 -25 58t26 60t58 25q34 0 61 -25q26 -26 26 -60z" />
    <glyph glyph-name="cedilla" unicode="&#xb8;" horiz-adv-x="623" 
d="M255 -373q61 -1 105 27t44 82t-49 91q-51 37 -133 37v137h114v-57q92 -22 135 -82t43 -143t-70 -140t-173 -57q-104 0 -180 51q6 62 37 85q66 -31 127 -31z" />
    <glyph glyph-name="guillemotright" unicode="&#xbb;" horiz-adv-x="1078" 
d="M829 714l-392 678l97 56l424 -734l-424 -734l-97 56zM512 714l-392 678l97 56l424 -734l-424 -734l-97 56z" />
    <glyph glyph-name="questiondown" unicode="&#xbf;" horiz-adv-x="975" 
d="M504 -369q210 0 310 125h9l33 -92q-47 -64 -143 -103t-202 -39q-159 0 -275 88t-116 243t116 254q116 100 159 147q127 137 127 382h116q0 -180 -54 -292t-147 -198q-37 -35 -95 -83q-106 -88 -106 -197t83 -172t185 -63zM663 906q1 -32 -25 -58t-60 -26t-60 25t-26 59
t26 59q27 25 60 25t60 -25q25 -27 25 -59z" />
    <glyph glyph-name="Agrave" unicode="&#xc0;" horiz-adv-x="1240" 
d="M377 436h484l-242 702zM357 49q1 -31 -5 -37t-34 -8q-39 -3 -81 -4h-86q-105 0 -110 6t-7 18t-3 34q0 22 6 34q52 10 105 17l415 1209h124l415 -1209q45 -5 107 -17q6 -12 6 -43q1 -31 -5 -37t-34 -8q-39 -4 -81 -4h-88q-105 0 -110 6t-7 18t-3 34q0 22 6 34q53 10 87 14
l-75 217h-561l-74 -217l87 -14q6 -12 6 -43zM463 1791q189 -163 392 -253q-8 -66 -33 -89q-122 23 -262 106t-175 137q5 38 23 58t55 41z" />
    <glyph glyph-name="Aacute" unicode="&#xc1;" horiz-adv-x="1240" 
d="M377 436h484l-242 702zM357 49q1 -31 -5 -37t-34 -8q-39 -3 -81 -4h-86q-105 0 -110 6t-7 18t-3 34q0 22 6 34q52 10 105 17l415 1209h124l415 -1209q45 -5 107 -17q6 -12 6 -43q1 -31 -5 -37t-34 -8q-39 -4 -81 -4h-88q-105 0 -110 6t-7 18t-3 34q0 22 6 34q53 10 87 14
l-75 217h-561l-74 -217l87 -14q6 -12 6 -43zM383 1537q204 91 392 253q37 -20 55 -40t23 -59q-36 -55 -175 -137t-262 -106q-25 23 -33 89z" />
    <glyph glyph-name="Acircumflex" unicode="&#xc2;" horiz-adv-x="1240" 
d="M377 436h484l-242 702zM357 49q1 -31 -5 -37t-34 -8q-39 -3 -81 -4h-86q-105 0 -110 6t-7 18t-3 34q0 22 6 34q52 10 105 17l415 1209h124l415 -1209q45 -5 107 -17q6 -12 6 -43q1 -31 -5 -37t-34 -8q-39 -4 -81 -4h-88q-105 0 -110 6t-7 18t-3 34q0 22 6 34q53 10 87 14
l-75 217h-561l-74 -217l87 -14q6 -12 6 -43zM917 1409q-123 37 -291 176h-8q-168 -140 -289 -176q-29 18 -42 85q176 104 328 256h16q152 -152 328 -256q-13 -67 -42 -85z" />
    <glyph glyph-name="Atilde" unicode="&#xc3;" horiz-adv-x="1240" 
d="M377 436h484l-242 702zM357 49q1 -31 -5 -37t-34 -8q-39 -3 -81 -4h-86q-105 0 -110 6t-7 18t-3 34q0 22 6 34q52 10 105 17l415 1209h124l415 -1209q45 -5 107 -17q6 -12 6 -43q1 -31 -5 -37t-34 -8q-39 -4 -81 -4h-88q-105 0 -110 6t-7 18t-3 34q0 22 6 34q53 10 87 14
l-75 217h-561l-74 -217l87 -14q6 -12 6 -43zM890 1466q-65 -50 -147 -51q-83 -1 -183 77q-34 26 -70 27t-72 -31t-37 -73q-64 -12 -107 27q10 82 80 134t140 52t139 -52q1 0 14 -10t15 -12q38 -30 77 -30t79 30t40 72q60 10 107 -27q-10 -83 -75 -133z" />
    <glyph glyph-name="Adieresis" unicode="&#xc4;" horiz-adv-x="1240" 
d="M377 436h484l-242 702zM357 49q1 -31 -5 -37t-34 -8q-39 -3 -81 -4h-86q-105 0 -110 6t-7 18t-3 34q0 22 6 34q52 10 105 17l415 1209h124l415 -1209q45 -5 107 -17q6 -12 6 -43q1 -31 -5 -37t-34 -8q-39 -4 -81 -4h-88q-105 0 -110 6t-7 18t-3 34q0 22 6 34q53 10 87 14
l-75 217h-561l-74 -217l87 -14q6 -12 6 -43zM867 1534q0 -34 -26 -60q-25 -25 -61 -25q-36 1 -60 25t-25 60q0 36 25 60q26 25 60 25t61 -25q26 -26 26 -60zM544 1534q0 -34 -26 -60t-60 -25q-36 0 -61 25q-25 26 -25 60t26 60t60 25q34 0 61 -25q25 -26 25 -60z" />
    <glyph glyph-name="Aring" unicode="&#xc5;" horiz-adv-x="1240" 
d="M377 436h484l-242 702zM357 49q1 -31 -5 -37t-34 -8q-39 -3 -81 -4h-86q-105 0 -110 6t-7 18t-3 34q0 22 6 34q52 10 105 17l415 1209h124l415 -1209q45 -5 107 -17q6 -12 6 -43q1 -31 -5 -37t-34 -8q-39 -4 -81 -4h-88q-105 0 -110 6t-7 18t-3 34q0 22 6 34q53 10 87 14
l-75 217h-561l-74 -217l87 -14q6 -12 6 -43zM530 1607q0 -37 26 -63t64 -26t63 27q26 27 26 62t-27 62q-26 27 -62 27t-63 -26t-27 -63zM419 1607q1 81 59 139t140 58t142 -58t60 -139t-60 -140t-142 -59t-140 60t-59 139z" />
    <glyph glyph-name="AE" unicode="&#xc6;" horiz-adv-x="1495" 
d="M377 436h484l-242 702zM357 49q1 -31 -5 -37t-34 -8q-39 -3 -81 -4h-86q-105 0 -110 6t-7 18t-3 34q0 22 6 34q52 10 105 17l415 1209h878v-48q1 -52 -5 -142t-8 -96q-36 -17 -84 -9q-15 38 -30 182h-588l168 -490h340q14 96 27 113q54 5 83 -9q10 -69 10 -169t-10 -151
q-29 -14 -83 -9q-11 14 -27 113h-302l169 -490h213q16 148 30 182q48 8 84 -9q3 -18 8 -119t5 -116v-51h-434q-105 0 -110 6t-7 18t-3 34q0 22 6 34q53 10 87 14l-75 217h-561l-74 -217l87 -14q6 -12 6 -43z" />
    <glyph glyph-name="Ccedilla" unicode="&#xc7;" horiz-adv-x="1091" 
d="M965 -281q1 -83 -69 -140t-174 -57t-180 51q6 62 37 85q66 -31 127 -31q61 -1 105 27t44 82t-49 91q-51 37 -133 37v120q-283 23 -428 207t-145 466q0 325 180 503t467 178q164 0 284 -43l-3 -90q-1 -53 -5 -110l-3 -42l-2 -21q-36 -17 -84 -9q-16 32 -32 194
q-64 12 -132 12q-275 -1 -414 -153t-139 -415t138 -417t418 -155q69 0 129 9q20 171 32 197q48 8 84 -9l2 -21l3 -43q4 -60 5 -112l3 -92q-106 -31 -244 -36v-38q92 -22 135 -82t43 -143z" />
    <glyph glyph-name="Egrave" unicode="&#xc8;" horiz-adv-x="984" 
d="M925 1318v-48q1 -52 -5 -142t-8 -96q-36 -17 -84 -9q-15 38 -30 182h-517v-490h437q14 96 27 113q54 5 83 -9q10 -69 10 -169t-10 -151q-29 -14 -83 -9q-11 14 -27 113h-437v-490h517q16 148 30 182q48 8 84 -9q2 -6 8 -92t5 -146v-48h-744q-105 0 -110 6t-7 18t-3 34
q0 22 6 34q40 8 100 16v1101q-48 6 -100 17q-6 12 -6 43t7 38t78 11h779zM375 1791q189 -163 392 -253q-8 -66 -33 -89q-122 23 -262 106t-175 137q5 38 23 58t55 41z" />
    <glyph glyph-name="Eacute" unicode="&#xc9;" horiz-adv-x="984" 
d="M925 1318v-48q1 -52 -5 -142t-8 -96q-36 -17 -84 -9q-15 38 -30 182h-517v-490h437q14 96 27 113q54 5 83 -9q10 -69 10 -169t-10 -151q-29 -14 -83 -9q-11 14 -27 113h-437v-490h517q16 148 30 182q48 8 84 -9q2 -6 8 -92t5 -146v-48h-744q-105 0 -110 6t-7 18t-3 34
q0 22 6 34q40 8 100 16v1101q-48 6 -100 17q-6 12 -6 43t7 38t78 11h779zM249 1538q204 91 392 253q37 -21 55 -41t23 -58q-36 -55 -175 -137t-262 -106q-25 23 -33 89z" />
    <glyph glyph-name="Ecircumflex" unicode="&#xca;" horiz-adv-x="984" 
d="M925 1318v-48q1 -52 -5 -142t-8 -96q-36 -17 -84 -9q-15 38 -30 182h-517v-490h437q14 96 27 113q54 5 83 -9q10 -69 10 -169t-10 -151q-29 -14 -83 -9q-11 14 -27 113h-437v-490h517q16 148 30 182q48 8 84 -9q2 -6 8 -92t5 -146v-48h-744q-105 0 -110 6t-7 18t-3 34
q0 22 6 34q40 8 100 16v1101q-48 6 -100 17q-6 12 -6 43t7 38t78 11h779zM809 1408q-123 37 -291 176h-8q-168 -140 -289 -176q-29 18 -42 85q176 104 328 256h16q152 -152 328 -256q-13 -67 -42 -85z" />
    <glyph glyph-name="Edieresis" unicode="&#xcb;" horiz-adv-x="984" 
d="M925 1318v-48q1 -52 -5 -142t-8 -96q-36 -17 -84 -9q-15 38 -30 182h-517v-490h437q14 96 27 113q54 5 83 -9q10 -69 10 -169t-10 -151q-29 -14 -83 -9q-11 14 -27 113h-437v-490h517q16 148 30 182q48 8 84 -9q2 -6 8 -92t5 -146v-48h-744q-105 0 -110 6t-7 18t-3 34
q0 22 6 34q40 8 100 16v1101q-48 6 -100 17q-6 12 -6 43t7 38t78 11h779zM769 1532q0 -34 -26 -59q-25 -25 -61 -25t-60 24t-25 60q0 36 25 61q26 25 60 25t61 -25q26 -27 26 -61zM446 1532q0 -34 -26 -58q-26 -26 -60 -26q-36 0 -61 25t-25 59t26 60t60 26t61 -25
q25 -27 25 -61z" />
    <glyph glyph-name="Igrave" unicode="&#xcc;" horiz-adv-x="448" 
d="M267 1318q105 0 110 -6t7 -20t3 -34q0 -20 -6 -32q-52 -11 -100 -17v-1101q60 -8 100 -16q6 -12 6 -43q1 -31 -5 -37t-34 -8q-39 -3 -81 -4h-86q-105 0 -110 6t-7 18t-3 34q0 22 6 34q40 8 100 16v1101q-48 6 -100 17q-6 12 -6 43t7 38t78 11h121zM70 1792
q189 -163 392 -253q-8 -66 -33 -89q-122 23 -262 106t-175 137q6 39 24 59t54 40z" />
    <glyph glyph-name="Iacute" unicode="&#xcd;" horiz-adv-x="448" 
d="M267 1318q105 0 110 -6t7 -20t3 -34q0 -20 -6 -32q-52 -11 -100 -17v-1101q60 -8 100 -16q6 -12 6 -43q1 -31 -5 -37t-34 -8q-39 -3 -81 -4h-86q-105 0 -110 6t-7 18t-3 34q0 22 6 34q40 8 100 16v1101q-48 6 -100 17q-6 12 -6 43t7 38t78 11h121zM-8 1537
q204 91 392 253q36 -20 54 -40t24 -59q-36 -55 -175 -137t-262 -106q-25 23 -33 89z" />
    <glyph glyph-name="Icircumflex" unicode="&#xce;" horiz-adv-x="448" 
d="M267 1318q105 0 110 -6t7 -20t3 -34q0 -20 -6 -32q-52 -11 -100 -17v-1101q60 -8 100 -16q6 -12 6 -43q1 -31 -5 -37t-34 -8q-39 -3 -81 -4h-86q-105 0 -110 6t-7 18t-3 34q0 22 6 34q40 8 100 16v1101q-48 6 -100 17q-6 12 -6 43t7 38t78 11h121zM518 1450
q-123 37 -291 176h-8q-168 -140 -289 -176q-29 18 -42 85q176 104 328 256h16q156 -156 328 -256q-13 -67 -42 -85z" />
    <glyph glyph-name="Idieresis" unicode="&#xcf;" horiz-adv-x="448" 
d="M267 1318q105 0 110 -6t7 -20t3 -34q0 -20 -6 -32q-52 -11 -100 -17v-1101q60 -8 100 -16q6 -12 6 -43q1 -31 -5 -37t-34 -8q-39 -3 -81 -4h-86q-105 0 -110 6t-7 18t-3 34q0 22 6 34q40 8 100 16v1101q-48 6 -100 17q-6 12 -6 43t7 38t78 11h121zM466 1534
q0 -34 -26 -59t-62 -25t-60 24t-24 60t25 61t59 25t62 -25q26 -27 26 -61zM143 1534q1 -34 -25 -58q-26 -26 -62 -26t-60 25q-25 25 -25 59q-1 34 25 60t60 26t62 -25q25 -27 25 -61z" />
    <glyph glyph-name="Eth" unicode="&#xd0;" horiz-adv-x="1325" 
d="M310 1209v-493h169v-112h-169v-495h240q248 0 404 159t155 390q0 232 -167 391q-167 160 -409 160h-223zM60 716h135v493q-48 6 -100 17q-6 12 -6 43t7 38t78 11h367q289 0 487 -185q197 -187 197 -474q0 -288 -191 -474q-191 -185 -478 -185h-347q-105 0 -110 6t-7 18
t-3 34q0 22 6 34q40 8 100 16v496h-135v112z" />
    <glyph glyph-name="Ntilde" unicode="&#xd1;" horiz-adv-x="1257" 
d="M1076 1318q105 0 110 -6q6 -6 8 -20t2 -34t-6 -32q-52 -11 -100 -17v-1209h-114l-695 1110v-1002q60 -8 100 -16q6 -12 6 -43q1 -31 -5 -37t-34 -8q-39 -3 -81 -4h-100q-89 0 -97 9t-9 40q0 31 6 43q40 8 100 16v1101q-48 6 -100 17q-6 12 -6 43t10 42q35 7 96 7h114
l695 -1111v1002q-48 6 -100 17q-6 12 -6 43t10 42q35 7 96 7h100zM899 1466q-65 -50 -147 -51t-182 77q-34 27 -71 27q-37 1 -73 -31t-36 -73q-64 -12 -107 27q9 82 79 134t140 52t140 -52q1 0 14 -10q14 -10 16 -12q37 -30 76 -30t79 30t40 72q60 10 107 -27
q-10 -83 -75 -133z" />
    <glyph glyph-name="Ograve" unicode="&#xd2;" horiz-adv-x="1410" 
d="M1194 652q0 251 -131 414t-357 163q-226 1 -358 -157t-132 -406t133 -412t359 -165q226 0 356 156t130 407zM708 1338q270 0 436 -192t166 -488q0 -294 -164 -486t-439 -192q-276 0 -442 194q-165 194 -165 486t170 485q168 193 438 193zM621 1791q189 -163 392 -253
q-8 -66 -33 -89q-122 23 -262 106t-175 137q5 38 23 58t55 41z" />
    <glyph glyph-name="Oacute" unicode="&#xd3;" horiz-adv-x="1410" 
d="M1194 652q0 251 -131 414t-357 163q-226 1 -358 -157t-132 -406t133 -412t359 -165q226 0 356 156t130 407zM708 1338q270 0 436 -192t166 -488q0 -294 -164 -486t-439 -192q-276 0 -442 194q-165 194 -165 486t170 485q168 193 438 193zM487 1538q204 91 392 253
q37 -21 55 -41t23 -58q-36 -55 -175 -137t-262 -106q-25 23 -33 89z" />
    <glyph glyph-name="Ocircumflex" unicode="&#xd4;" horiz-adv-x="1410" 
d="M1194 652q0 251 -131 414t-357 163q-226 1 -358 -157t-132 -406t133 -412t359 -165q226 0 356 156t130 407zM708 1338q270 0 436 -192t166 -488q0 -294 -164 -486t-439 -192q-276 0 -442 194q-165 194 -165 486t170 485q168 193 438 193zM999 1450q-123 37 -291 176h-8
q-168 -140 -289 -176q-29 18 -42 85q176 104 328 256h16q156 -156 328 -256q-13 -67 -42 -85z" />
    <glyph glyph-name="Otilde" unicode="&#xd5;" horiz-adv-x="1410" 
d="M1194 652q0 251 -131 414t-357 163q-226 1 -358 -157t-132 -406t133 -412t359 -165q226 0 356 156t130 407zM708 1338q270 0 436 -192t166 -488q0 -294 -164 -486t-439 -192q-276 0 -442 194q-165 194 -165 486t170 485q168 193 438 193zM975 1464q-65 -50 -147 -50
t-182 78q-34 26 -71 26t-73 -32t-36 -72q-64 -12 -107 27q10 83 80 135q69 52 139 51q70 0 140 -52q1 -1 14 -11q14 -10 16 -11q37 -30 76 -30t79 30t40 72q60 10 107 -27q-10 -84 -75 -134z" />
    <glyph glyph-name="Odieresis" unicode="&#xd6;" horiz-adv-x="1410" 
d="M1194 652q0 251 -131 414t-357 163q-226 1 -358 -157t-132 -406t133 -412t359 -165q226 0 356 156t130 407zM708 1338q270 0 436 -192t166 -488q0 -294 -164 -486t-439 -192q-276 0 -442 194q-165 194 -165 486t170 485q168 193 438 193zM942 1534q0 -34 -26 -60
q-26 -25 -62 -25q-36 1 -60 25t-24 60t25 60q25 25 59 25t62 -25q26 -26 26 -60zM619 1534q1 -34 -25 -60t-62 -25q-36 0 -60 25q-25 26 -25 60q-1 34 25 60t60 25q34 0 62 -25q25 -26 25 -60z" />
    <glyph glyph-name="multiply" unicode="&#xd7;" horiz-adv-x="878" 
d="M758 806l-240 -240l240 -240l-79 -79l-240 240l-240 -240l-79 79l240 240l-240 240l79 79l240 -240l240 240z" />
    <glyph glyph-name="Oslash" unicode="&#xd8;" horiz-adv-x="1410" 
d="M712 89q222 0 352 156t130 407q0 168 -61 302t-173 204l-383 -1052q66 -17 135 -17zM216 667q0 -175 67 -311t190 -207l385 1057q-74 23 -154 23q-224 1 -356 -157t-132 -405zM1310 664q0 -300 -164 -492t-446 -192q-86 0 -161 21l-76 -208l-105 39l76 209
q-158 80 -246 245t-88 370q0 296 170 489t439 193q100 0 187 -28l50 138l105 -39l-53 -144q148 -85 230 -243t82 -358z" />
    <glyph glyph-name="Ugrave" unicode="&#xd9;" horiz-adv-x="1278" 
d="M1097 1318q105 0 110 -6t7 -20t3 -34q0 -20 -6 -32q-52 -11 -100 -17v-719q0 -385 -233 -474q-90 -36 -238 -36q-226 0 -334 92q-139 118 -139 418v719q-48 6 -100 17q-6 12 -6 43t7 38t78 11h121q105 0 110 -6t7 -20t3 -34q0 -20 -6 -32q-52 -11 -100 -17v-702
q0 -327 192 -395q64 -23 167 -23q103 -1 179 27t127 120t51 271v702q-48 6 -100 17q-6 12 -6 43t7 38t78 11h121zM502 1791q189 -163 392 -253q-8 -66 -33 -89q-122 23 -262 106t-175 137q6 38 24 58t54 41z" />
    <glyph glyph-name="Uacute" unicode="&#xda;" horiz-adv-x="1278" 
d="M1097 1318q105 0 110 -6t7 -20t3 -34q0 -20 -6 -32q-52 -11 -100 -17v-719q0 -385 -233 -474q-90 -36 -238 -36q-226 0 -334 92q-139 118 -139 418v719q-48 6 -100 17q-6 12 -6 43t7 38t78 11h121q105 0 110 -6t7 -20t3 -34q0 -20 -6 -32q-52 -11 -100 -17v-702
q0 -327 192 -395q64 -23 167 -23q103 -1 179 27t127 120t51 271v702q-48 6 -100 17q-6 12 -6 43t7 38t78 11h121zM433 1538q204 91 392 253q37 -21 55 -41t23 -58q-36 -55 -175 -137t-262 -106q-25 23 -33 89z" />
    <glyph glyph-name="Ucircumflex" unicode="&#xdb;" horiz-adv-x="1278" 
d="M1097 1318q105 0 110 -6t7 -20t3 -34q0 -20 -6 -32q-52 -11 -100 -17v-719q0 -385 -233 -474q-90 -36 -238 -36q-226 0 -334 92q-139 118 -139 418v719q-48 6 -100 17q-6 12 -6 43t7 38t78 11h121q105 0 110 -6t7 -20t3 -34q0 -20 -6 -32q-52 -11 -100 -17v-702
q0 -327 192 -395q64 -23 167 -23q103 -1 179 27t127 120t51 271v702q-48 6 -100 17q-6 12 -6 43t7 38t78 11h121zM936 1449q-123 37 -291 176h-8q-168 -140 -289 -176q-29 18 -42 85q176 104 328 256h16q152 -152 328 -256q-13 -67 -42 -85z" />
    <glyph glyph-name="Udieresis" unicode="&#xdc;" horiz-adv-x="1278" 
d="M1097 1318q105 0 110 -6t7 -20t3 -34q0 -20 -6 -32q-52 -11 -100 -17v-719q0 -385 -233 -474q-90 -36 -238 -36q-226 0 -334 92q-139 118 -139 418v719q-48 6 -100 17q-6 12 -6 43t7 38t78 11h121q105 0 110 -6t7 -20t3 -34q0 -20 -6 -32q-52 -11 -100 -17v-702
q0 -327 192 -395q64 -23 167 -23q103 -1 179 27t127 120t51 271v702q-48 6 -100 17q-6 12 -6 43t7 38t78 11h121zM899 1534q0 -34 -26 -60q-25 -25 -61 -25q-36 1 -60 25t-25 60q0 36 25 60q26 25 60 25t61 -25q26 -26 26 -60zM576 1534q0 -34 -26 -60t-60 -25q-36 0 -61 25
q-25 26 -25 60t26 60t60 25q34 0 61 -25q25 -26 25 -60z" />
    <glyph glyph-name="Yacute" unicode="&#xdd;" horiz-adv-x="1106" 
d="M749 1269q0 31 7 38t78 11h121q105 0 110 -6t7 -20t3 -34q0 -20 -6 -32q-36 -9 -110 -18l-349 -716v-384q60 -8 100 -16q6 -12 6 -49t-20 -39q-52 -4 -86 -4h-114q-90 0 -98 9t-8 40t6 43q40 8 100 16v384l-350 716q-75 9 -109 18q-6 12 -6 43t7 38t78 11h121
q105 0 110 -6t7 -20t3 -34q0 -20 -6 -32q-38 -8 -73 -13l275 -563l274 563q-32 5 -72 13q-6 12 -6 43zM356 1537q204 91 392 253q36 -20 54 -40t24 -59q-36 -55 -175 -137t-262 -106q-25 23 -33 89z" />
    <glyph glyph-name="Thorn" unicode="&#xde;" horiz-adv-x="1096" 
d="M281 354h119q235 0 334 29q100 29 148 91t48 154t-28 148q-52 106 -183 147t-319 41h-119v-610zM281 1073h115q383 0 532 -122q118 -97 118 -279t-93 -275q-93 -94 -235 -123q-143 -29 -331 -29h-106v-137q60 -8 100 -16q6 -12 6 -43q1 -31 -5 -37t-34 -8q-39 -3 -81 -4
h-86q-105 0 -110 6t-7 18t-3 34q0 22 6 34q40 8 100 16v1101q-48 6 -100 17q-6 12 -6 43t7 38t78 11h121q105 0 110 -6t7 -20t3 -34q0 -20 -6 -32q-52 -11 -100 -17v-136z" />
    <glyph glyph-name="germandbls" unicode="&#xdf;" horiz-adv-x="1191" 
d="M214 1051q0 397 336 397q149 0 255 -60q133 -77 133 -220q0 -121 -162 -202q-102 -52 -132 -88t-30 -79q0 -83 80 -136q42 -29 168 -81t180 -100q79 -74 79 -185q1 -149 -121 -233t-272 -84t-237 40l3 92q2 24 4 72t2 62t2 21l2 21q36 17 84 9q15 -44 32 -200
q43 -7 89 -7q111 0 202 50t91 134t-79 138q-38 25 -128 65t-138 66q-100 53 -139 137q-22 44 -22 107q0 148 163 233q101 51 131 85t31 75q1 70 -87 114t-172 45q-234 0 -234 -288v-943q60 -8 100 -16q6 -12 6 -43t-6 -37t-34 -8q-38 -4 -80 -4h-86q-105 0 -110 6
q-6 6 -8 18t-2 34t6 34q40 8 100 16v818h-43q-105 0 -110 6t-7 18t-3 34q0 22 6 34q50 11 157 23v10z" />
    <glyph glyph-name="agrave" unicode="&#xe0;" horiz-adv-x="1039" 
d="M705 483l-127 9h-33q-89 0 -157 -10t-119 -52t-51 -130t62 -150t165 -61q170 0 260 172v222zM449 -20q-202 0 -292 123q-57 77 -57 212t94 210t303 75q70 0 208 -12v144q0 112 -63 164q-64 52 -152 52t-192 -31q-19 -154 -29 -180q-48 -8 -84 9q-13 78 -13 238
q160 74 312 74t244 -80t91 -262v-368q1 -98 41 -170t119 -90l-65 -108q-112 36 -166 162q-42 -74 -124 -118t-175 -44zM362 1548q189 -163 392 -253q-8 -66 -33 -89q-122 23 -262 106t-175 137q6 39 24 59t54 40z" />
    <glyph glyph-name="aacute" unicode="&#xe1;" horiz-adv-x="1039" 
d="M705 483l-127 9h-33q-89 0 -157 -10t-119 -52t-51 -130t62 -150t165 -61q170 0 260 172v222zM449 -20q-202 0 -292 123q-57 77 -57 212t94 210t303 75q70 0 208 -12v144q0 112 -63 164q-64 52 -152 52t-192 -31q-19 -154 -29 -180q-48 -8 -84 9q-13 78 -13 238
q160 74 312 74t244 -80t91 -262v-368q1 -98 41 -170t119 -90l-65 -108q-112 36 -166 162q-42 -74 -124 -118t-175 -44zM251 1295q204 91 392 253q37 -20 55 -40t23 -59q-36 -55 -175 -137t-262 -106q-25 23 -33 89z" />
    <glyph glyph-name="acircumflex" unicode="&#xe2;" horiz-adv-x="1039" 
d="M705 483l-127 9h-33q-89 0 -157 -10t-119 -52t-51 -130t62 -150t165 -61q170 0 260 172v222zM449 -20q-202 0 -292 123q-57 77 -57 212t94 210t303 75q70 0 208 -12v144q0 112 -63 164q-64 52 -152 52t-192 -31q-19 -154 -29 -180q-48 -8 -84 9q-13 78 -13 238
q160 74 312 74t244 -80t91 -262v-368q1 -98 41 -170t119 -90l-65 -108q-112 36 -166 162q-42 -74 -124 -118t-175 -44zM788 1207q-123 37 -291 176h-8q-168 -140 -289 -176q-29 18 -42 85q176 104 328 256h16q156 -156 328 -256q-13 -67 -42 -85z" />
    <glyph glyph-name="atilde" unicode="&#xe3;" horiz-adv-x="1039" 
d="M705 483l-127 9h-33q-89 0 -157 -10t-119 -52t-51 -130t62 -150t165 -61q170 0 260 172v222zM449 -20q-202 0 -292 123q-57 77 -57 212t94 210t303 75q70 0 208 -12v144q0 112 -63 164q-64 52 -152 52t-192 -31q-19 -154 -29 -180q-48 -8 -84 9q-13 78 -13 238
q160 74 312 74t244 -80t91 -262v-368q1 -98 41 -170t119 -90l-65 -108q-112 36 -166 162q-42 -74 -124 -118t-175 -44zM768 1170q-65 -50 -147 -50q-83 0 -183 78q-34 26 -70 26t-72 -32t-37 -72q-64 -12 -107 27q10 83 80 135t140 51q70 0 139 -52q1 -1 14 -11t15 -11
q37 -30 77 -30q39 0 79 30t40 72q60 10 107 -27q-10 -84 -75 -134z" />
    <glyph glyph-name="adieresis" unicode="&#xe4;" horiz-adv-x="1039" 
d="M705 483l-127 9h-33q-89 0 -157 -10t-119 -52t-51 -130t62 -150t165 -61q170 0 260 172v222zM449 -20q-202 0 -292 123q-57 77 -57 212t94 210t303 75q70 0 208 -12v144q0 112 -63 164q-64 52 -152 52t-192 -31q-19 -154 -29 -180q-48 -8 -84 9q-13 78 -13 238
q160 74 312 74t244 -80t91 -262v-368q1 -98 41 -170t119 -90l-65 -108q-112 36 -166 162q-42 -74 -124 -118t-175 -44zM747 1324q0 -34 -26 -60q-25 -25 -61 -25q-36 1 -60 25t-25 60q0 36 25 60q26 25 60 25t61 -25q26 -26 26 -60zM424 1324q0 -34 -26 -60t-60 -25
q-36 0 -61 25q-25 26 -25 60t26 60t60 25q34 0 61 -25q25 -26 25 -60z" />
    <glyph glyph-name="aring" unicode="&#xe5;" horiz-adv-x="1039" 
d="M705 483l-127 9h-33q-89 0 -157 -10t-119 -52t-51 -130t62 -150t165 -61q170 0 260 172v222zM449 -20q-202 0 -292 123q-57 77 -57 212t94 210t303 75q70 0 208 -12v144q0 112 -63 164q-64 52 -152 52t-192 -31q-19 -154 -29 -180q-48 -8 -84 9q-13 78 -13 238
q160 74 312 74t244 -80t91 -262v-368q1 -98 41 -170t119 -90l-65 -108q-112 36 -166 162q-42 -74 -124 -118t-175 -44zM432 1319q0 -37 26 -63t64 -26t63 27q26 27 26 62t-27 62q-26 27 -62 27t-63 -26t-27 -63zM321 1319q1 81 59 139t140 58t142 -58t60 -139t-60 -140
t-142 -59t-140 60t-59 139z" />
    <glyph glyph-name="ae" unicode="&#xe6;" horiz-adv-x="1564" 
d="M705 483l-127 9h-33q-89 0 -157 -10t-119 -52t-51 -130t62 -150t161 -61q101 0 177 60t112 173q-21 77 -25 159v2zM1355 608q0 156 -41 237q-54 103 -188 103t-210 -93q-77 -93 -91 -247h530zM1186 -20q-281 0 -406 217q-38 -97 -130 -157t-193 -60q-210 0 -300 123
q-57 77 -57 212t94 210t303 75q70 0 208 -12v144q0 112 -63 164q-64 52 -152 52t-192 -31q-19 -154 -29 -180q-48 -8 -84 9q-13 78 -13 238q160 74 316 74q228 0 301 -170q110 170 343 170q262 0 321 -244q19 -80 21 -206v-113h-653q7 -197 111 -301t243 -105q139 0 293 75
l4 -3v-107q-148 -74 -286 -74z" />
    <glyph glyph-name="ccedilla" unicode="&#xe7;" horiz-adv-x="919" 
d="M814 -281q0 -83 -70 -140t-173 -57q-104 0 -180 51q6 62 37 85q66 -31 127 -31q61 -1 105 27t44 82t-49 91q-51 37 -133 37v119q-190 19 -306 153t-116 400q0 264 143 401q125 121 337 121q138 0 279 -49q1 -52 -5 -142t-8 -96q-36 -17 -84 -9q-9 17 -12 47q-4 29 -6 47
t-5 31q-2 12 -6 50q-80 11 -138 11q-169 0 -273 -100t-103 -318q-1 -216 105 -328t271 -112q67 0 134 11q21 176 33 205q48 8 84 -9l2 -21l3 -43q4 -60 5 -112l3 -92q-114 -40 -223 -47v-38q92 -22 135 -82t43 -143z" />
    <glyph glyph-name="egrave" unicode="&#xe8;" horiz-adv-x="960" 
d="M522 948q-134 0 -210 -93q-77 -93 -91 -247h530q0 156 -41 237q-54 103 -188 103zM571 89q139 0 293 75l4 -3v-107q-149 -74 -297 -74q-207 0 -339 140t-132 396t103 400q103 142 325 142q262 0 321 -244q19 -80 21 -206v-113h-653q7 -197 111 -301t243 -105zM352 1548
q189 -163 392 -253q-8 -66 -33 -89q-122 23 -262 106t-175 137q6 39 24 59t54 40z" />
    <glyph glyph-name="eacute" unicode="&#xe9;" horiz-adv-x="960" 
d="M522 948q-134 0 -210 -93q-77 -93 -91 -247h530q0 156 -41 237q-54 103 -188 103zM571 89q139 0 293 75l4 -3v-107q-149 -74 -297 -74q-207 0 -339 140t-132 396t103 400q103 142 325 142q262 0 321 -244q19 -80 21 -206v-113h-653q7 -197 111 -301t243 -105zM291 1295
q204 91 392 253q37 -20 55 -40t23 -59q-36 -55 -175 -137t-262 -106q-25 23 -33 89z" />
    <glyph glyph-name="ecircumflex" unicode="&#xea;" horiz-adv-x="960" 
d="M522 948q-134 0 -210 -93q-77 -93 -91 -247h530q0 156 -41 237q-54 103 -188 103zM571 89q139 0 293 75l4 -3v-107q-149 -74 -297 -74q-207 0 -339 140t-132 396t103 400q103 142 325 142q262 0 321 -244q19 -80 21 -206v-113h-653q7 -197 111 -301t243 -105zM815 1207
q-123 37 -291 176h-8q-168 -140 -289 -176q-29 18 -42 85q176 104 328 256h16q156 -156 328 -256q-13 -67 -42 -85z" />
    <glyph glyph-name="edieresis" unicode="&#xeb;" horiz-adv-x="960" 
d="M522 948q-134 0 -210 -93q-77 -93 -91 -247h530q0 156 -41 237q-54 103 -188 103zM571 89q139 0 293 75l4 -3v-107q-149 -74 -297 -74q-207 0 -339 140t-132 396t103 400q103 142 325 142q262 0 321 -244q19 -80 21 -206v-113h-653q7 -197 111 -301t243 -105zM759 1324
q0 -34 -26 -60q-25 -25 -61 -25q-36 1 -60 25t-25 60q0 36 25 60q26 25 60 25t61 -25q26 -26 26 -60zM436 1324q0 -34 -26 -60t-60 -25q-36 0 -61 25q-25 26 -25 60t26 60t60 25q34 0 61 -25q25 -26 25 -60z" />
    <glyph glyph-name="igrave" unicode="&#xec;" horiz-adv-x="488" 
d="M303 1058v-950q60 -8 100 -16q6 -12 6 -43q1 -31 -5 -37t-34 -8q-39 -4 -81 -4h-86q-105 0 -110 6t-7 18t-3 34q0 22 6 34q40 8 100 16v832q-75 0 -101 6q-6 8 -7 40t4 45q46 15 123 23l50 3q14 1 26 1h19zM69 1548q189 -163 392 -253q-8 -66 -33 -89q-122 23 -262 106
t-175 137q5 39 23 59t55 40z" />
    <glyph glyph-name="iacute" unicode="&#xed;" horiz-adv-x="488" 
d="M303 1058v-950q60 -8 100 -16q6 -12 6 -43q1 -31 -5 -37t-34 -8q-39 -4 -81 -4h-86q-105 0 -110 6t-7 18t-3 34q0 22 6 34q40 8 100 16v832q-75 0 -101 6q-6 8 -7 40t4 45q46 15 123 23l50 3q14 1 26 1h19zM-47 1295q204 91 392 253q37 -20 55 -40t23 -59
q-36 -55 -175 -137t-262 -106q-25 23 -33 89z" />
    <glyph glyph-name="icircumflex" unicode="&#xee;" horiz-adv-x="488" 
d="M303 1058v-950q60 -8 100 -16q6 -12 6 -43q1 -31 -5 -37t-34 -8q-39 -4 -81 -4h-86q-105 0 -110 6t-7 18t-3 34q0 22 6 34q40 8 100 16v832q-75 0 -101 6q-6 8 -7 40t4 45q46 15 123 23l50 3q14 1 26 1h19zM495 1207q-123 37 -291 176h-8q-168 -140 -289 -176
q-29 18 -42 85q176 104 328 256h16q156 -156 328 -256q-13 -67 -42 -85z" />
    <glyph glyph-name="idieresis" unicode="&#xef;" horiz-adv-x="488" 
d="M303 1058v-950q60 -8 100 -16q6 -12 6 -43q1 -31 -5 -37t-34 -8q-39 -4 -81 -4h-86q-105 0 -110 6t-7 18t-3 34q0 22 6 34q40 8 100 16v832q-75 0 -101 6q-6 8 -7 40t4 45q46 15 123 23l50 3q14 1 26 1h19zM464 1364q0 -34 -26 -60q-26 -25 -62 -25q-36 1 -60 25t-24 60
t25 60q25 25 59 25t62 -25q26 -26 26 -60zM141 1364q1 -34 -25 -60t-62 -25q-36 0 -60 25q-25 26 -25 60q-1 34 25 60t60 25q34 0 62 -25q25 -26 25 -60z" />
    <glyph glyph-name="eth" unicode="&#xf0;" 
d="M569 89q167 0 259 105q92 104 92 288t-92 296t-260 111q-168 0 -260 -107q-94 -106 -94 -288t94 -294t261 -111zM732 1198q302 -293 302 -708q0 -226 -130 -368t-341 -142t-337 140t-126 366t130 369t341 143q121 0 220 -51q-72 111 -183 206l-225 -83q-5 -57 -10 -76
q-36 -17 -84 -9q-35 89 -35 158l248 91q-105 73 -226 127l64 87q155 -57 294 -165l189 69q15 60 23 74q48 8 84 -9l8 -55q5 -43 5 -86z" />
    <glyph glyph-name="ntilde" unicode="&#xf1;" 
d="M618 1058q140 0 240 -85t99 -248v-617q60 -8 100 -16q6 -12 6 -43q1 -31 -5 -37t-34 -8q-39 -4 -81 -4h-86q-105 0 -110 6t-7 18t-3 34q0 22 6 34q40 8 100 16v575q-1 131 -69 198t-171 67q-146 0 -301 -120v-720q60 -8 100 -16q6 -12 6 -43t-6 -37t-34 -8q-38 -4 -80 -4
h-86q-105 0 -110 6q-6 6 -8 18t-2 34t6 34q40 8 100 16v832q-74 0 -100 6q-6 8 -7 40t4 45q74 22 122 24q48 1 58 3l34 -116q179 116 319 116zM831 1280q-65 -50 -147 -50t-182 78q-34 26 -71 26t-73 -32t-36 -72q-64 -12 -107 27q9 83 79 135t140 51q70 0 140 -52
q1 -1 14 -11q14 -10 16 -11q38 -30 76 -30q39 0 79 30t40 72q60 10 107 -27q-10 -84 -75 -134z" />
    <glyph glyph-name="ograve" unicode="&#xf2;" 
d="M214 524q0 -184 95 -310t260 -125q165 0 258 119q93 120 93 306t-93 310t-259 125q-166 0 -260 -120q-94 -121 -94 -305zM100 519q0 229 132 384t338 155q208 0 336 -154t128 -384q0 -228 -132 -384t-340 -156t-334 155q-128 155 -128 384zM410 1548q189 -163 392 -253
q-8 -66 -33 -89q-122 23 -262 106t-175 137q6 39 24 59t54 40z" />
    <glyph glyph-name="oacute" unicode="&#xf3;" 
d="M214 524q0 -184 95 -310t260 -125q165 0 258 119q93 120 93 306t-93 310t-259 125q-166 0 -260 -120q-94 -121 -94 -305zM100 519q0 229 132 384t338 155q208 0 336 -154t128 -384q0 -228 -132 -384t-340 -156t-334 155q-128 155 -128 384zM332 1295q204 91 392 253
q36 -20 54 -40t24 -59q-36 -55 -175 -137t-262 -106q-25 23 -33 89z" />
    <glyph glyph-name="ocircumflex" unicode="&#xf4;" 
d="M214 524q0 -184 95 -310t260 -125q165 0 258 119q93 120 93 306t-93 310t-259 125q-166 0 -260 -120q-94 -121 -94 -305zM100 519q0 229 132 384t338 155q208 0 336 -154t128 -384q0 -228 -132 -384t-340 -156t-334 155q-128 155 -128 384zM861 1207q-123 37 -291 176h-8
q-168 -140 -289 -176q-29 18 -42 85q176 104 328 256h16q156 -156 328 -256q-13 -67 -42 -85z" />
    <glyph glyph-name="otilde" unicode="&#xf5;" 
d="M214 524q0 -184 95 -310t260 -125q165 0 258 119q93 120 93 306t-93 310t-259 125q-166 0 -260 -120q-94 -121 -94 -305zM100 519q0 229 132 384t338 155q208 0 336 -154t128 -384q0 -228 -132 -384t-340 -156t-334 155q-128 155 -128 384zM852 1280q-65 -50 -147 -50
q-83 0 -183 78q-34 26 -70 26t-72 -32t-37 -72q-64 -12 -107 27q10 83 80 135t140 51q70 0 139 -52q1 -1 14 -11t15 -11q37 -30 77 -30q39 0 79 30t40 72q60 10 107 -27q-10 -84 -75 -134z" />
    <glyph glyph-name="odieresis" unicode="&#xf6;" 
d="M214 524q0 -184 95 -310t260 -125q165 0 258 119q93 120 93 306t-93 310t-259 125q-166 0 -260 -120q-94 -121 -94 -305zM100 519q0 229 132 384t338 155q208 0 336 -154t128 -384q0 -228 -132 -384t-340 -156t-334 155q-128 155 -128 384zM823 1364q0 -34 -26 -59
q-25 -25 -61 -25t-60 24t-25 60q0 36 25 61q26 25 60 25t61 -25q26 -27 26 -61zM500 1364q0 -34 -26 -58q-26 -26 -60 -26q-36 0 -61 25t-25 59t26 60t60 26t61 -25q25 -27 25 -61z" />
    <glyph glyph-name="divide" unicode="&#xf7;" horiz-adv-x="1030" 
d="M599 208q0 -34 -26 -59q-27 -25 -61 -25t-59 25t-25 59t26 58q26 26 58 26q34 0 61 -25q26 -25 26 -59zM120 622h790v-112h-790v112zM599 924q0 -34 -26 -59q-27 -25 -61 -25t-59 25t-25 59t26 58q26 26 58 26q34 0 61 -25q26 -25 26 -59z" />
    <glyph glyph-name="oslash" unicode="&#xf8;" 
d="M572 89q162 0 255 119t93 306q0 256 -158 374l-286 -786q42 -13 96 -13zM214 526q0 -123 42 -221t119 -155l286 787q-43 12 -94 12q-165 0 -259 -120t-94 -303zM1034 522q0 -230 -132 -386t-339 -156q-63 0 -125 17l-74 -204l-105 39l76 210q-111 66 -173 193t-62 281
q0 232 132 387t339 155q68 0 128 -18l78 216l105 -39l-81 -222q109 -68 171 -193t62 -280z" />
    <glyph glyph-name="ugrave" unicode="&#xf9;" horiz-adv-x="1149" 
d="M525 89q145 0 301 121v730q-74 0 -100 6q-6 8 -7 40t4 45q46 15 123 23l50 3q14 1 26 1h19v-950h40q100 0 109 -6t9 -44t-7 -49q-96 -29 -215 -29h-6l-36 118q-179 -118 -322 -118t-243 85t-100 248v627q-74 0 -100 6q-6 8 -7 40t4 45q46 15 123 23l50 3q14 1 26 1h19
v-703q1 -131 69 -199t171 -67zM417 1548q189 -163 392 -253q-8 -66 -33 -89q-122 23 -262 106t-175 137q5 39 23 59t55 40z" />
    <glyph glyph-name="uacute" unicode="&#xfa;" horiz-adv-x="1149" 
d="M525 89q145 0 301 121v730q-74 0 -100 6q-6 8 -7 40t4 45q46 15 123 23l50 3q14 1 26 1h19v-950h40q100 0 109 -6t9 -44t-7 -49q-96 -29 -215 -29h-6l-36 118q-179 -118 -322 -118t-243 85t-100 248v627q-74 0 -100 6q-6 8 -7 40t4 45q46 15 123 23l50 3q14 1 26 1h19
v-703q1 -131 69 -199t171 -67zM339 1295q204 91 392 253q37 -20 55 -40t23 -59q-36 -55 -175 -137t-262 -106q-25 23 -33 89z" />
    <glyph glyph-name="ucircumflex" unicode="&#xfb;" horiz-adv-x="1149" 
d="M525 89q145 0 301 121v730q-74 0 -100 6q-6 8 -7 40t4 45q46 15 123 23l50 3q14 1 26 1h19v-950h40q100 0 109 -6t9 -44t-7 -49q-96 -29 -215 -29h-6l-36 118q-179 -118 -322 -118t-243 85t-100 248v627q-74 0 -100 6q-6 8 -7 40t4 45q46 15 123 23l50 3q14 1 26 1h19
v-703q1 -131 69 -199t171 -67zM830 1207q-123 37 -291 176h-8q-168 -140 -289 -176q-29 18 -42 85q176 104 328 256h16q156 -156 328 -256q-13 -67 -42 -85z" />
    <glyph glyph-name="udieresis" unicode="&#xfc;" horiz-adv-x="1149" 
d="M525 89q145 0 301 121v730q-74 0 -100 6q-6 8 -7 40t4 45q46 15 123 23l50 3q14 1 26 1h19v-950h40q100 0 109 -6t9 -44t-7 -49q-96 -29 -215 -29h-6l-36 118q-179 -118 -322 -118t-243 85t-100 248v627q-74 0 -100 6q-6 8 -7 40t4 45q46 15 123 23l50 3q14 1 26 1h19
v-703q1 -131 69 -199t171 -67zM779 1364q0 -34 -26 -60q-25 -25 -61 -25q-36 1 -60 25t-25 60q0 36 25 60q26 25 60 25t61 -25q26 -26 26 -60zM456 1364q0 -34 -26 -60t-60 -25q-36 0 -61 25q-25 26 -25 60t26 60t60 25q34 0 61 -25q25 -26 25 -60z" />
    <glyph glyph-name="yacute" unicode="&#xfd;" horiz-adv-x="1027" 
d="M192 -340q52 0 101 38q50 38 73 111l60 191l-321 930q-55 7 -98 16q-6 12 -6 43t7 38t78 11h121q105 0 110 -6t7 -20t3 -34q0 -20 -6 -32q-13 -4 -30 -6t-33 -6l-24 -3l257 -746l257 746q-60 9 -87 15q-6 12 -6 43t7 38t78 11h121q105 0 110 -6t7 -20t3 -34q0 -20 -6 -32
q-26 -7 -102 -17l-412 -1199q-74 -208 -276 -208q-98 0 -210 52l3 92q2 24 4 72t2 62t2 21l2 21q36 17 84 9q13 -27 29 -179q39 -12 91 -12zM278 1295q204 91 392 253q36 -20 54 -40t24 -59q-36 -55 -175 -137t-262 -106q-25 23 -33 89z" />
    <glyph glyph-name="thorn" unicode="&#xfe;" horiz-adv-x="1103" 
d="M541 91q148 -1 247 117t99 313q1 195 -83 311t-240 117q-156 0 -259 -110v-688q122 -60 236 -60zM305 1448v-481q119 91 266 91q200 0 316 -150t116 -392t-134 -388q-134 -148 -331 -148q-107 0 -233 46v-375q48 -6 100 -17q6 -12 6 -43q1 -31 -5 -37t-34 -8
q-39 -4 -81 -4h-86q-105 0 -110 6t-7 18t-3 34q0 22 6 34q52 11 100 17v1679q-75 0 -101 6q-6 8 -7 40t4 45q46 15 123 23l50 3q14 1 26 1h19z" />
    <glyph glyph-name="ydieresis" unicode="&#xff;" horiz-adv-x="1027" 
d="M192 -340q52 0 101 38q50 38 73 111l60 191l-321 930q-55 7 -98 16q-6 12 -6 43t7 38t78 11h121q105 0 110 -6t7 -20t3 -34q0 -20 -6 -32q-13 -4 -30 -6t-33 -6l-24 -3l257 -746l257 746q-60 9 -87 15q-6 12 -6 43t7 38t78 11h121q105 0 110 -6t7 -20t3 -34q0 -20 -6 -32
q-26 -7 -102 -17l-412 -1199q-74 -208 -276 -208q-98 0 -210 52l3 92q2 24 4 72t2 62t2 21l2 21q36 17 84 9q13 -27 29 -179q39 -12 91 -12zM742 1364q0 -34 -26 -59t-62 -25t-60 24t-24 60t25 61t59 25t62 -25q26 -27 26 -61zM419 1364q1 -34 -25 -58q-26 -26 -62 -26
t-60 25q-25 25 -25 59q-1 34 25 60t60 26t62 -25q25 -27 25 -61z" />
    <glyph glyph-name="Amacron" unicode="&#x100;" horiz-adv-x="1240" 
d="M377 436h484l-242 702zM357 49q1 -31 -5 -37t-34 -8q-39 -3 -81 -4h-86q-105 0 -110 6t-7 18t-3 34q0 22 6 34q52 10 105 17l415 1209h124l415 -1209q45 -5 107 -17q6 -12 6 -43q1 -31 -5 -37t-34 -8q-39 -4 -81 -4h-88q-105 0 -110 6t-7 18t-3 34q0 22 6 34q53 10 87 14
l-75 217h-561l-74 -217l87 -14q6 -12 6 -43zM369 1520h500v-112h-500v112z" />
    <glyph glyph-name="amacron" unicode="&#x101;" horiz-adv-x="1039" 
d="M705 483l-127 9h-33q-89 0 -157 -10t-119 -52t-51 -130t62 -150t165 -61q170 0 260 172v222zM449 -20q-202 0 -292 123q-57 77 -57 212t94 210t303 75q70 0 208 -12v144q0 112 -63 164q-64 52 -152 52t-192 -31q-19 -154 -29 -180q-48 -8 -84 9q-13 78 -13 238
q160 74 312 74t244 -80t91 -262v-368q1 -98 41 -170t119 -90l-65 -108q-112 36 -166 162q-42 -74 -124 -118t-175 -44zM248 1318h500v-112h-500v112z" />
    <glyph glyph-name="Abreve" unicode="&#x102;" horiz-adv-x="1240" 
d="M377 436h484l-242 702zM357 49q1 -31 -5 -37t-34 -8q-39 -3 -81 -4h-86q-105 0 -110 6t-7 18t-3 34q0 22 6 34q52 10 105 17l415 1209h124l415 -1209q45 -5 107 -17q6 -12 6 -43q1 -31 -5 -37t-34 -8q-39 -4 -81 -4h-88q-105 0 -110 6t-7 18t-3 34q0 22 6 34q53 10 87 14
l-75 217h-561l-74 -217l87 -14q6 -12 6 -43zM625 1521q175 0 269 113q64 -36 64 -84q-54 -68 -146 -105t-192 -37t-190 36q-91 36 -150 106q5 61 61 88q41 -54 118 -86t166 -31z" />
    <glyph glyph-name="abreve" unicode="&#x103;" horiz-adv-x="1039" 
d="M705 483l-127 9h-33q-89 0 -157 -10t-119 -52t-51 -130t62 -150t165 -61q170 0 260 172v222zM449 -20q-202 0 -292 123q-57 77 -57 212t94 210t303 75q70 0 208 -12v144q0 112 -63 164q-64 52 -152 52t-192 -31q-19 -154 -29 -180q-48 -8 -84 9q-13 78 -13 238
q160 74 312 74t244 -80t91 -262v-368q1 -98 41 -170t119 -90l-65 -108q-112 36 -166 162q-42 -74 -124 -118t-175 -44zM525 1291q175 0 269 113q64 -36 64 -84q-54 -68 -146 -105t-192 -37t-190 36q-91 36 -150 106q5 61 61 88q41 -54 118 -86t166 -31z" />
    <glyph glyph-name="Aogonek" unicode="&#x104;" horiz-adv-x="1240" 
d="M377 436h484l-242 702zM357 49q1 -31 -5 -37t-34 -8q-39 -3 -81 -4h-86q-105 0 -110 6t-7 18t-3 34q0 22 6 34q52 10 105 17l415 1209h124l415 -1209q45 -5 107 -17q6 -12 6 -49t-20 -39q-24 -4 -83 -4q-95 -44 -150 -110t-55 -120t38 -81q37 -26 91 -26t142 46l7 -5v-99
q-73 -51 -165 -51t-160 56t-69 170q0 113 135 223q-25 -1 -32 7t-7 39t6 43q53 10 87 14l-75 217h-561l-74 -217l87 -14q6 -12 6 -43z" />
    <glyph glyph-name="aogonek" unicode="&#x105;" horiz-adv-x="1039" 
d="M705 483l-127 9h-33q-89 0 -157 -10t-119 -52t-51 -130t62 -150t165 -61q170 0 260 172v222zM822 -466q-92 0 -160 56t-69 152t63 171t160 127q-45 47 -68 102q-42 -74 -124 -118t-175 -44q-202 0 -292 123q-57 77 -57 212t94 210t303 75q70 0 208 -12v144q0 112 -63 164
q-64 52 -152 52t-192 -31q-19 -154 -29 -180q-48 -8 -84 9q-13 78 -13 238q160 74 312 74t244 -80t91 -262v-368q1 -98 41 -170t119 -90l-65 -108q-95 -44 -150 -110t-55 -120t38 -81q37 -26 91 -26t142 46l7 -5v-99q-73 -51 -165 -51z" />
    <glyph glyph-name="Cacute" unicode="&#x106;" horiz-adv-x="1091" 
d="M748 -19q-320 -1 -484 187t-164 502t180 490q180 178 467 178q164 0 284 -43l-3 -90q-1 -53 -5 -110l-3 -42l-2 -21q-36 -17 -84 -9q-16 32 -32 194q-64 12 -132 12q-275 -1 -414 -153t-139 -415t138 -417t418 -155q69 0 129 9q20 171 32 197q48 8 84 -9l2 -21l3 -43
q4 -60 5 -112l3 -92q-126 -37 -283 -37zM541 1538q204 91 392 253q37 -21 55 -41t23 -58q-36 -55 -175 -137t-262 -106q-25 23 -33 89z" />
    <glyph glyph-name="cacute" unicode="&#x107;" horiz-adv-x="919" 
d="M584 -20q-214 0 -349 136t-135 410t143 411q125 121 337 121q138 0 279 -49q1 -52 -5 -142t-8 -96q-36 -17 -84 -9q-9 17 -12 47q-4 29 -6 47t-5 31q-2 12 -6 50q-80 11 -138 11q-169 0 -273 -100t-103 -318q-1 -216 105 -328t271 -112q67 0 134 11q21 176 33 205
q48 8 84 -9l2 -21l3 -43q4 -60 5 -112l3 -92q-141 -49 -275 -49zM323 1295q204 91 392 253q37 -20 55 -40t23 -59q-36 -55 -175 -137t-262 -106q-25 23 -33 89z" />
    <glyph glyph-name="Ccircumflex" unicode="&#x108;" horiz-adv-x="1091" 
d="M748 -19q-320 -1 -484 187t-164 502t180 490q180 178 467 178q164 0 284 -43l-3 -90q-1 -53 -5 -110l-3 -42l-2 -21q-36 -17 -84 -9q-16 32 -32 194q-64 12 -132 12q-275 -1 -414 -153t-139 -415t138 -417t418 -155q69 0 129 9q20 171 32 197q48 8 84 -9l2 -21l3 -43
q4 -60 5 -112l3 -92q-126 -37 -283 -37zM983 1449q-123 37 -291 176h-8q-168 -140 -289 -176q-29 18 -42 85q176 104 328 256h16q152 -152 328 -256q-13 -67 -42 -85z" />
    <glyph glyph-name="ccircumflex" unicode="&#x109;" horiz-adv-x="919" 
d="M584 -20q-214 0 -349 136t-135 410t143 411q125 121 337 121q138 0 279 -49q1 -52 -5 -142t-8 -96q-36 -17 -84 -9q-9 17 -12 47q-4 29 -6 47t-5 31q-2 12 -6 50q-80 11 -138 11q-169 0 -273 -100t-103 -318q-1 -216 105 -328t271 -112q67 0 134 11q21 176 33 205
q48 8 84 -9l2 -21l3 -43q4 -60 5 -112l3 -92q-141 -49 -275 -49zM877 1207q-123 37 -291 176h-8q-168 -140 -289 -176q-29 18 -42 85q176 104 328 256h16q156 -156 328 -256q-13 -67 -42 -85z" />
    <glyph glyph-name="Ccaron" unicode="&#x10c;" horiz-adv-x="1091" 
d="M748 -19q-320 -1 -484 187t-164 502t180 490q180 178 467 178q164 0 284 -43l-3 -90q-1 -53 -5 -110l-3 -42l-2 -21q-36 -17 -84 -9q-16 32 -32 194q-64 12 -132 12q-275 -1 -414 -153t-139 -415t138 -417t418 -155q69 0 129 9q20 171 32 197q48 8 84 -9l2 -21l3 -43
q4 -60 5 -112l3 -92q-126 -37 -283 -37zM393 1749q121 -36 289 -176h8q168 139 291 176q29 -18 42 -85q-171 -99 -328 -256h-16q-151 151 -328 256q13 67 42 85z" />
    <glyph glyph-name="ccaron" unicode="&#x10d;" horiz-adv-x="919" 
d="M584 -20q-214 0 -349 136t-135 410t143 411q125 121 337 121q138 0 279 -49q1 -52 -5 -142t-8 -96q-36 -17 -84 -9q-9 17 -12 47q-4 29 -6 47t-5 31q-2 12 -6 50q-80 11 -138 11q-169 0 -273 -100t-103 -318q-1 -216 105 -328t271 -112q67 0 134 11q21 176 33 205
q48 8 84 -9l2 -21l3 -43q4 -60 5 -112l3 -92q-141 -49 -275 -49zM286 1514q121 -36 289 -176h8q168 139 291 176q29 -18 42 -85q-171 -99 -328 -256h-16q-151 151 -328 256q13 67 42 85z" />
    <glyph glyph-name="Dcaron" unicode="&#x10e;" horiz-adv-x="1297" 
d="M282 1209v-1100h240q248 0 404 159t155 390q0 232 -167 391q-167 160 -409 160h-223zM181 0q-105 0 -110 6t-7 18t-3 34q0 22 6 34q40 8 100 16v1101q-48 6 -100 17q-6 12 -6 43t7 38t78 11h367q289 0 487 -185q197 -187 197 -474q0 -288 -191 -474q-191 -185 -478 -185
h-347zM126 1748q121 -36 289 -176h8q168 139 291 176q29 -18 42 -85q-171 -99 -328 -256h-16q-151 151 -328 256q13 67 42 85z" />
    <glyph glyph-name="dcaron" unicode="&#x10f;" horiz-adv-x="1517" 
d="M566 89q174 0 265 127v679q-130 54 -223 54q-176 0 -283 -112t-107 -305t82 -310q92 -133 266 -133zM1329 1448q34 0 61 -24t27 -76q0 -54 -45 -116t-99 -91l-32 41q37 63 37 98t-34 82q0 34 26 60t59 26zM1091 60q0 -40 -7 -51q-96 -29 -215 -29h-6l-32 110
q-129 -110 -292 -110q-199 0 -319 160t-120 395t129 379t386 144q84 0 216 -33v305q-75 0 -101 6q-6 8 -7 40t4 45q46 15 123 23l50 3q14 1 26 1h19v-1340q27 0 83 -2l51 -3q12 -3 12 -43z" />
    <glyph glyph-name="dcroat" unicode="&#x111;" horiz-adv-x="1141" 
d="M608 949q-176 0 -283 -112t-107 -305t82 -310q92 -133 266 -133t265 127v679q-130 54 -223 54zM945 1134v-1026q134 0 140 -10t6 -44t-7 -45q-96 -29 -215 -29h-6l-32 110q-129 -110 -292 -110q-199 0 -319 160t-120 395t129 379t386 144q84 0 216 -33v109h-213v112h213
v84q-75 0 -101 6q-6 8 -7 40t4 45q46 15 123 23l50 3q14 1 26 1h19v-202h173v-112h-173z" />
    <glyph glyph-name="Emacron" unicode="&#x112;" horiz-adv-x="984" 
d="M925 1318v-48q1 -52 -5 -142t-8 -96q-36 -17 -84 -9q-15 38 -30 182h-517v-490h437q14 96 27 113q54 5 83 -9q10 -69 10 -169t-10 -151q-29 -14 -83 -9q-11 14 -27 113h-437v-490h517q16 148 30 182q48 8 84 -9q2 -6 8 -92t5 -146v-48h-744q-105 0 -110 6t-7 18t-3 34
q0 22 6 34q40 8 100 16v1101q-48 6 -100 17q-6 12 -6 43t7 38t78 11h779zM242 1520h500v-112h-500v112z" />
    <glyph glyph-name="emacron" unicode="&#x113;" horiz-adv-x="960" 
d="M522 948q-134 0 -210 -93q-77 -93 -91 -247h530q0 156 -41 237q-54 103 -188 103zM571 89q139 0 293 75l4 -3v-107q-149 -74 -297 -74q-207 0 -339 140t-132 396t103 400q103 142 325 142q262 0 321 -244q19 -80 21 -206v-113h-653q7 -197 111 -301t243 -105zM267 1430
h500v-112h-500v112z" />
    <glyph glyph-name="Edotaccent" unicode="&#x116;" horiz-adv-x="984" 
d="M925 1318v-48q1 -52 -5 -142t-8 -96q-36 -17 -84 -9q-15 38 -30 182h-517v-490h437q14 96 27 113q54 5 83 -9q10 -69 10 -169t-10 -151q-29 -14 -83 -9q-11 14 -27 113h-437v-490h517q16 148 30 182q48 8 84 -9q2 -6 8 -92t5 -146v-48h-744q-105 0 -110 6t-7 18t-3 34
q0 22 6 34q40 8 100 16v1101q-48 6 -100 17q-6 12 -6 43t7 38t78 11h779zM639 1534q0 -34 -26 -59q-27 -25 -61 -25t-59 25t-25 59t26 58q26 26 58 26q34 0 61 -25q26 -25 26 -59z" />
    <glyph glyph-name="edotaccent" unicode="&#x117;" horiz-adv-x="960" 
d="M522 948q-134 0 -210 -93q-77 -93 -91 -247h530q0 156 -41 237q-54 103 -188 103zM571 89q139 0 293 75l4 -3v-107q-149 -74 -297 -74q-207 0 -339 140t-132 396t103 400q103 142 325 142q262 0 321 -244q19 -80 21 -206v-113h-653q7 -197 111 -301t243 -105zM588 1324
q0 -34 -26 -59t-60 -25t-60 25q-25 25 -25 59q-1 34 25 58q26 26 60 26t60 -25t26 -59z" />
    <glyph glyph-name="Eogonek" unicode="&#x118;" horiz-adv-x="984" 
d="M834 -446q-92 0 -162 56q-68 56 -68 170t132 220h-555q-105 0 -110 6t-7 18t-3 34q0 22 6 34q40 8 100 16v1101q-48 6 -100 17q-6 12 -6 43t7 38t78 11h779v-48q1 -52 -5 -142t-8 -96q-36 -17 -84 -9q-15 38 -30 182h-517v-490h437q14 96 27 113q54 5 83 -9
q10 -69 10 -169t-10 -151q-29 -14 -83 -9q-11 14 -27 113h-437v-490h517q16 148 30 182q48 8 84 -9q2 -6 8 -92t5 -146v-48q-95 -44 -150 -110t-55 -120t38 -81q38 -26 92 -26t141 46l7 -5v-99q-72 -51 -164 -51z" />
    <glyph glyph-name="eogonek" unicode="&#x119;" horiz-adv-x="1001" 
d="M522 948q-134 0 -210 -93q-77 -93 -91 -247h530q0 156 -41 237q-54 103 -188 103zM571 89q139 0 293 75l4 -3v-107q-103 -52 -154 -115t-51 -117t38 -79q37 -26 91 -26t142 46l7 -5v-99q-73 -51 -165 -51t-160 56t-69 148q0 92 59 169q-6 -1 -17 -1h-18q-207 0 -339 140
t-132 396t103 400q103 142 325 142q262 0 321 -244q19 -80 21 -206v-113h-653q7 -197 111 -301t243 -105z" />
    <glyph glyph-name="Ecaron" unicode="&#x11a;" horiz-adv-x="984" 
d="M925 1318v-48q1 -52 -5 -142t-8 -96q-36 -17 -84 -9q-15 38 -30 182h-517v-490h437q14 96 27 113q54 5 83 -9q10 -69 10 -169t-10 -151q-29 -14 -83 -9q-11 14 -27 113h-437v-490h517q16 148 30 182q48 8 84 -9q2 -6 8 -92t5 -146v-48h-744q-105 0 -110 6t-7 18t-3 34
q0 22 6 34q40 8 100 16v1101q-48 6 -100 17q-6 12 -6 43t7 38t78 11h779zM198 1749q121 -36 289 -176h8q168 139 291 176q29 -18 42 -85q-171 -99 -328 -256h-16q-146 148 -328 256q13 67 42 85z" />
    <glyph glyph-name="ecaron" unicode="&#x11b;" horiz-adv-x="960" 
d="M522 948q-134 0 -210 -93q-77 -93 -91 -247h530q0 156 -41 237q-54 103 -188 103zM571 89q139 0 293 75l4 -3v-107q-149 -74 -297 -74q-207 0 -339 140t-132 396t103 400q103 142 325 142q262 0 321 -244q19 -80 21 -206v-113h-653q7 -197 111 -301t243 -105zM236 1514
q121 -36 289 -176h8q168 139 291 176q29 -18 42 -85q-171 -99 -328 -256h-16q-151 151 -328 256q13 67 42 85z" />
    <glyph glyph-name="Gcircumflex" unicode="&#x11c;" horiz-adv-x="1274" 
d="M714 89q135 0 277 92v429h-267v113h380v-723h-50l-36 87q-158 -107 -314 -107q-276 0 -440 197t-164 503t177 482t457 176q183 0 331 -50l-3 -104q-1 -63 -5 -135l-3 -52q-2 -24 -2 -25q-36 -17 -84 -9q-10 21 -22 110t-14 138q-87 18 -162 18q-274 -1 -414 -155
t-140 -405t140 -415t358 -165zM992 1449q-123 37 -291 176h-8q-168 -140 -289 -176q-29 18 -42 85q176 104 328 256h16q152 -152 328 -256q-13 -67 -42 -85z" />
    <glyph glyph-name="gcircumflex" unicode="&#x11d;" horiz-adv-x="1047" 
d="M204 -128q0 -110 72 -174t226 -64t272 83t118 195q0 113 -124 158q-96 35 -306 35h-148q-110 -123 -110 -233zM763 701q0 95 -71 171q-72 76 -196 76t-195 -75t-71 -171t72 -169q72 -74 196 -74t195 73q70 73 70 169zM116 705q0 147 109 250t257 103t241 -61
q55 50 125 80t120 30l37 -104q-98 -12 -196 -86q68 -89 68 -225q-1 -136 -109 -240q-108 -102 -275 -102q-119 0 -209 52q-44 -51 -44 -90t34 -67t91 -28h235q201 -1 304 -87t103 -211q1 -79 -45 -152t-124 -128q-165 -117 -350 -117q-186 0 -292 94t-106 235q0 140 125 272
q-85 50 -85 148q0 99 75 192q-89 95 -89 242zM782 1207q-123 37 -291 176h-8q-168 -140 -289 -176q-29 18 -42 85q176 104 328 256h16q156 -156 328 -256q-13 -67 -42 -85z" />
    <glyph glyph-name="Gbreve" unicode="&#x11e;" horiz-adv-x="1274" 
d="M714 89q135 0 277 92v429h-267v113h380v-723h-50l-36 87q-158 -107 -314 -107q-276 0 -440 197t-164 503t177 482t457 176q183 0 331 -50l-3 -104q-1 -63 -5 -135l-3 -52q-2 -24 -2 -25q-36 -17 -84 -9q-10 21 -22 110t-14 138q-87 18 -162 18q-274 -1 -414 -155
t-140 -405t140 -415t358 -165zM690 1520q175 0 269 113q64 -36 64 -84q-53 -68 -145 -105t-192 -37t-191 36t-150 106q5 61 61 88q41 -53 118 -85t166 -32z" />
    <glyph glyph-name="gbreve" unicode="&#x11f;" horiz-adv-x="1047" 
d="M204 -128q0 -110 72 -174t226 -64t272 83t118 195q0 113 -124 158q-96 35 -306 35h-148q-110 -123 -110 -233zM763 701q0 95 -71 171q-72 76 -196 76t-195 -75t-71 -171t72 -169q72 -74 196 -74t195 73q70 73 70 169zM116 705q0 147 109 250t257 103t241 -61
q55 50 125 80t120 30l37 -104q-98 -12 -196 -86q68 -89 68 -225q-1 -136 -109 -240q-108 -102 -275 -102q-119 0 -209 52q-44 -51 -44 -90t34 -67t91 -28h235q201 -1 304 -87t103 -211q1 -79 -45 -152t-124 -128q-165 -117 -350 -117q-186 0 -292 94t-106 235q0 140 125 272
q-85 50 -85 148q0 99 75 192q-89 95 -89 242zM522 1331q175 0 269 113q64 -36 64 -84q-53 -68 -145 -105t-192 -37t-191 36t-150 106q5 61 61 88q41 -54 118 -86t166 -31z" />
    <glyph glyph-name="Gdotaccent" unicode="&#x120;" horiz-adv-x="1274" 
d="M714 89q135 0 277 92v429h-267v113h380v-723h-50l-36 87q-94 -59 -126 -72q-82 -35 -188 -35q-276 0 -440 197t-164 503t177 482t457 176q183 0 331 -50l-3 -104q-1 -63 -5 -135l-3 -52q-2 -24 -2 -25q-36 -17 -84 -9q-10 21 -22 110t-14 138q-87 18 -162 18
q-274 -1 -414 -155t-140 -405t140 -415t358 -165zM818 1492q0 -34 -26 -59t-60 -25t-60 25q-25 25 -25 59q-1 34 25 58q26 26 60 26t60 -25t26 -59z" />
    <glyph glyph-name="gdotaccent" unicode="&#x121;" horiz-adv-x="1047" 
d="M204 -128q0 -110 72 -174t226 -64t272 83t118 195q0 113 -124 158q-96 35 -306 35h-148q-110 -123 -110 -233zM763 701q0 95 -71 171q-72 76 -196 76t-195 -75t-71 -171t72 -169q72 -74 196 -74t195 73q70 73 70 169zM116 705q0 147 109 250t257 103t241 -61
q55 50 125 80t120 30l37 -104q-98 -12 -196 -86q68 -89 68 -225q-1 -136 -109 -240q-108 -102 -275 -102q-119 0 -209 52q-44 -51 -44 -90t34 -67t91 -28h235q201 -1 304 -87t103 -211q1 -79 -45 -152t-124 -128q-165 -117 -350 -117q-186 0 -292 94t-106 235q0 140 125 272
q-85 50 -85 148q0 99 75 192q-89 95 -89 242zM582 1364q0 -34 -26 -59t-60 -25t-60 25q-25 25 -25 59q-1 34 25 58q26 26 60 26t60 -25t26 -59z" />
    <glyph glyph-name="Gcommaaccent" unicode="&#x122;" horiz-adv-x="1274" 
d="M703 -100q34 0 61 -24t27 -76q0 -54 -45 -116t-99 -91l-32 41q38 65 38 99t-35 81q0 34 26 60t59 26zM714 89q135 0 277 92v429h-267v113h380v-723h-50l-36 87q-94 -59 -126 -72q-82 -35 -188 -35q-276 0 -440 197t-164 503t177 482t457 176q183 0 331 -50l-3 -104
q-1 -63 -5 -135l-3 -52q-2 -24 -2 -25q-36 -17 -84 -9q-10 21 -22 110t-14 138q-87 18 -162 18q-274 -1 -414 -155t-140 -405t140 -415t358 -165z" />
    <glyph glyph-name="gcommaaccent" unicode="&#x123;" horiz-adv-x="1047" 
d="M204 -128q0 -110 72 -174t226 -64t272 83t118 195q0 113 -124 158q-96 35 -306 35h-148q-110 -123 -110 -233zM763 701q0 95 -71 171q-72 76 -196 76t-195 -75t-71 -171t72 -169q72 -74 196 -74t195 73q70 73 70 169zM116 705q0 147 109 250t257 103t241 -61
q55 50 125 80t120 30l37 -104q-98 -12 -196 -86q68 -89 68 -225q-1 -136 -109 -240q-108 -102 -275 -102q-119 0 -209 52q-44 -51 -44 -90t34 -67t91 -28h235q201 -1 304 -87t103 -211q1 -79 -45 -152t-124 -128q-165 -117 -350 -117q-186 0 -292 94t-106 235q0 140 125 272
q-85 50 -85 148q0 99 75 192q-89 95 -89 242zM508 1141q-34 -1 -61 23t-27 77t45 115t99 92l32 -41q-37 -63 -37 -98t34 -82q1 -35 -25 -61t-60 -25z" />
    <glyph glyph-name="Hcircumflex" unicode="&#x124;" horiz-adv-x="1244" 
d="M267 1318q105 0 110 -6t7 -20t3 -34q0 -20 -6 -32q-54 -11 -99 -17v-494h680v494q-45 6 -99 17q-6 12 -6 43t7 38t78 11h121q105 0 110 -6t7 -20t3 -34q0 -20 -6 -32q-52 -11 -100 -17v-1101q60 -8 100 -16q6 -12 6 -43q1 -31 -5 -37t-34 -8q-39 -4 -81 -4h-86
q-105 0 -110 6t-7 18t-3 34q0 22 6 34q41 9 99 16v495h-680v-495q58 -7 99 -16q6 -12 6 -43q1 -31 -5 -37t-34 -8q-39 -3 -81 -4h-86q-105 0 -110 6t-7 18t-3 34q0 22 6 34q40 8 100 16v1101q-48 6 -100 17q-6 12 -6 43t7 38t78 11h121zM916 1450q-123 37 -291 176h-8
q-168 -140 -289 -176q-29 18 -42 85q176 104 328 256h16q156 -156 328 -256q-13 -67 -42 -85z" />
    <glyph glyph-name="hcircumflex" unicode="&#x125;" horiz-adv-x="1137" 
d="M606 949q-149 0 -304 -120v-721q60 -8 100 -16q6 -12 6 -43t-6 -37t-34 -8q-38 -4 -80 -4h-86q-105 0 -110 6q-6 6 -8 18t-2 34t6 34q40 8 100 16v1222q-75 0 -101 6q-6 8 -7 40t4 45q46 15 123 23l50 3q14 1 26 1h19v-504q171 114 315 114q143 0 243 -84t100 -249v-617
q60 -8 100 -16q6 -12 6 -43t-6 -37t-34 -8q-38 -3 -80 -4h-86q-105 0 -110 6q-6 6 -8 18t-2 34t6 34q40 8 100 16v575q0 130 -68 198t-172 68zM517 1450q-123 37 -291 176h-8q-168 -140 -289 -176q-29 18 -42 85q176 104 328 256h16q156 -156 328 -256q-13 -67 -42 -85z" />
    <glyph glyph-name="Hbar" unicode="&#x126;" horiz-adv-x="1244" 
d="M962 605v176h-680v-176h680zM977 0q-105 0 -110 6t-7 18t-3 34q0 22 6 34q41 9 99 16v385h-680v-385q58 -7 99 -16q6 -12 6 -43q1 -31 -5 -37t-34 -8q-39 -3 -81 -4h-86q-105 0 -110 6t-7 18t-3 34q0 22 6 34q40 8 100 16v1101q-48 6 -100 17q-6 12 -6 43t7 38t78 11h121
q105 0 110 -6t7 -20t3 -34q0 -20 -6 -32q-54 -11 -99 -17v-316h680v316q-45 6 -99 17q-6 12 -6 43t7 38t78 11h121q105 0 110 -6t7 -20t3 -34q0 -20 -6 -32q-52 -11 -100 -17v-1101q60 -8 100 -16q6 -12 6 -43q1 -31 -5 -37t-34 -8q-39 -4 -81 -4h-86z" />
    <glyph glyph-name="hbar" unicode="&#x127;" horiz-adv-x="1165" 
d="M645 1058q143 0 243 -84t100 -249v-617q60 -8 100 -16q6 -12 6 -43t-6 -37t-34 -8q-39 -4 -80 -4h-86q-105 0 -110 6q-6 6 -8 18t-2 34t6 34q40 8 100 16v575q0 130 -68 198t-172 68q-149 0 -304 -120v-721q60 -8 100 -16q6 -12 6 -43t-6 -37t-34 -8q-38 -4 -80 -4h-86
q-105 0 -110 6q-6 6 -8 18t-2 34t6 34q40 8 100 16v1000h-156v112h156v110q-75 0 -101 6q-6 8 -7 40t4 45q46 15 123 23l50 3q14 1 26 1h19v-228h203v-112h-203v-164q171 114 315 114z" />
    <glyph glyph-name="Itilde" unicode="&#x128;" horiz-adv-x="448" 
d="M267 1318q105 0 110 -6t7 -20t3 -34q0 -20 -6 -32q-52 -11 -100 -17v-1101q60 -8 100 -16q6 -12 6 -43q1 -31 -5 -37t-34 -8q-39 -3 -81 -4h-86q-105 0 -110 6t-7 18t-3 34q0 22 6 34q40 8 100 16v1101q-48 6 -100 17q-6 12 -6 43t7 38t78 11h121zM495 1464
q-65 -50 -147 -51t-182 77q-34 26 -71 27t-73 -31t-36 -73q-64 -12 -107 27q10 82 80 134q69 52 139 52t140 -52q1 0 14 -10q14 -10 16 -12q38 -30 76 -30q39 0 79 30t40 72q60 10 107 -27q-10 -83 -75 -133z" />
    <glyph glyph-name="Imacron" unicode="&#x12a;" horiz-adv-x="448" 
d="M267 1318q105 0 110 -6t7 -20t3 -34q0 -20 -6 -32q-52 -11 -100 -17v-1101q60 -8 100 -16q6 -12 6 -43q1 -31 -5 -37t-34 -8q-39 -3 -81 -4h-86q-105 0 -110 6t-7 18t-3 34q0 22 6 34q40 8 100 16v1101q-48 6 -100 17q-6 12 -6 43t7 38t78 11h121zM-26 1520h500v-112
h-500v112z" />
    <glyph glyph-name="imacron" unicode="&#x12b;" horiz-adv-x="488" 
d="M303 1058v-950q60 -8 100 -16q6 -12 6 -43q1 -31 -5 -37t-34 -8q-39 -4 -81 -4h-86q-105 0 -110 6t-7 18t-3 34q0 22 6 34q40 8 100 16v832q-75 0 -101 6q-6 8 -7 40t4 45q46 15 123 23l50 3q14 1 26 1h19zM-6 1430h500v-112h-500v112z" />
    <glyph glyph-name="Ibreve" unicode="&#x12c;" horiz-adv-x="448" 
d="M267 1318q105 0 110 -6t7 -20t3 -34q0 -20 -6 -32q-52 -11 -100 -17v-1101q60 -8 100 -16q6 -12 6 -43q1 -31 -5 -37t-34 -8q-39 -3 -81 -4h-86q-105 0 -110 6t-7 18t-3 34q0 22 6 34q40 8 100 16v1101q-48 6 -100 17q-6 12 -6 43t7 38t78 11h121zM230 1521
q175 0 269 113q64 -36 64 -84q-53 -68 -145 -105t-192 -37t-191 36t-150 106q5 61 61 88q41 -54 118 -86t166 -31z" />
    <glyph glyph-name="ibreve" unicode="&#x12d;" horiz-adv-x="488" 
d="M303 1058v-950q60 -8 100 -16q6 -12 6 -43q1 -31 -5 -37t-34 -8q-39 -4 -81 -4h-86q-105 0 -110 6t-7 18t-3 34q0 22 6 34q40 8 100 16v832q-75 0 -101 6q-6 8 -7 40t4 45q46 15 123 23l50 3q14 1 26 1h19zM250 1331q175 0 269 113q64 -36 64 -84q-53 -68 -145 -105
t-192 -37t-191 36t-150 106q5 61 61 88q41 -54 118 -86t166 -31z" />
    <glyph glyph-name="Iogonek" unicode="&#x12e;" horiz-adv-x="448" 
d="M387 49q0 -31 -8 -40q-9 -9 -100 -9q-95 -44 -150 -110t-55 -120t38 -81q38 -26 92 -26t141 46l7 -5v-99q-72 -51 -164 -51t-162 56q-68 56 -68 159q0 129 136 234q-20 1 -24 5t-6 16t-3 34q0 22 6 34q40 8 100 16v1101q-48 6 -100 17q-6 12 -6 43t7 38t78 11h121
q105 0 110 -6t7 -20t3 -34q0 -20 -6 -32q-52 -11 -100 -17v-1101q60 -8 100 -16q6 -12 6 -43z" />
    <glyph glyph-name="iogonek" unicode="&#x12f;" horiz-adv-x="488" 
d="M304 -439q-92 1 -160 57t-69 168q0 112 125 214q-100 0 -106 6t-8 18t-3 34q0 22 6 34q40 8 100 16v832q-75 0 -101 6q-6 8 -7 40t4 45q46 15 123 23l50 3q14 1 26 1h19v-950q60 -8 100 -16q6 -12 6 -43t-10 -42l-6 -2q-94 -45 -148 -109t-54 -120q0 -54 38 -80
q37 -26 91 -26t142 46l7 -5v-99q-73 -51 -165 -51zM246 1211q-34 0 -60 25q-26 24 -26 58t26 60q27 25 60 25t60 -25q26 -26 26 -60t-26 -58q-26 -25 -60 -25z" />
    <glyph glyph-name="Idotaccent" unicode="&#x130;" horiz-adv-x="448" 
d="M267 1318q105 0 110 -6t7 -20t3 -34q0 -20 -6 -32q-52 -11 -100 -17v-1101q60 -8 100 -16q6 -12 6 -43q1 -31 -5 -37t-34 -8q-39 -3 -81 -4h-86q-105 0 -110 6t-7 18t-3 34q0 22 6 34q40 8 100 16v1101q-48 6 -100 17q-6 12 -6 43t7 38t78 11h121zM309 1492
q0 -34 -26 -59q-27 -25 -61 -25t-59 25t-25 59t26 58q26 26 58 26q34 0 61 -25q26 -25 26 -59z" />
    <glyph glyph-name="dotlessi" unicode="&#x131;" horiz-adv-x="488" 
d="M303 1058v-950q60 -8 100 -16q6 -12 6 -43q1 -31 -5 -37t-34 -8q-39 -4 -81 -4h-86q-105 0 -110 6t-7 18t-3 34q0 22 6 34q40 8 100 16v832q-75 0 -101 6q-6 8 -7 40t4 45q46 15 123 23l50 3q14 1 26 1h19z" />
    <glyph glyph-name="IJ" unicode="&#x132;" horiz-adv-x="1151" 
d="M586 78q114 0 190 68q94 84 94 261v802q-48 6 -100 17q-6 12 -6 43t10 42q35 7 96 7h115q60 0 95 -7q10 -11 10 -42t-6 -43q-54 -11 -99 -17v-805q1 -220 -113 -322t-294 -102q-95 0 -186 20t-217 58l10 202q1 30 3 36q36 17 84 9q10 -21 29 -177q171 -50 285 -50z
M267 1318q105 0 110 -6t7 -20t3 -34q0 -20 -6 -32q-52 -11 -100 -17v-684q60 -8 100 -16q6 -12 6 -43q0 -32 -7 -40q-8 -10 -113 -9h-86q-105 0 -110 6q-5 5 -7 17t-3 34q0 22 6 35q40 8 100 16v684q-48 6 -100 17q-6 12 -6 43t7 38t78 11h121z" />
    <glyph glyph-name="ij" unicode="&#x133;" horiz-adv-x="1020" 
d="M596 -371q106 0 169 62q62 62 62 235v166q-177 -112 -317 -112t-240 85t-100 248v627q-74 0 -100 6q-6 8 -7 40t4 45q46 15 123 23l50 3q14 1 26 1h19v-703q1 -131 69 -199t171 -67q145 0 301 121v730q-74 0 -100 6q-6 8 -7 40t4 45q46 15 123 23l50 3q14 1 26 1h19
v-1132q0 -234 -96 -328q-77 -76 -260 -76t-418 46l3 92q2 24 4 72t2 62t2 21l2 21q36 17 84 9q15 -39 30 -184q196 -32 302 -32zM970 1294q0 -34 -26 -58q-26 -25 -60 -25t-60 25q-25 24 -25 58q-1 34 25 60t60 25q34 0 60 -25q26 -26 26 -60zM228 1211q-34 0 -60 25
q-26 24 -26 58t26 60q27 25 60 25t60 -25q26 -26 26 -60t-26 -58q-26 -25 -60 -25z" />
    <glyph glyph-name="Jcircumflex" unicode="&#x134;" horiz-adv-x="703" 
d="M227 114q91 0 143 70t52 223v802q-48 6 -100 17q-6 12 -6 43t10 42q35 7 96 7h115q60 0 95 -7q10 -11 10 -42t-6 -43q-54 -11 -99 -17v-805q0 -176 -65 -278q-80 -126 -251 -126q-95 0 -211 58l10 202q2 30 3 36q36 17 84 9q10 -21 29 -177q51 -14 91 -14zM779 1450
q-123 37 -291 176h-8q-168 -140 -289 -176q-29 18 -42 85q176 104 328 256h16q156 -156 328 -256q-13 -67 -42 -85z" />
    <glyph glyph-name="jcircumflex" unicode="&#x135;" horiz-adv-x="599" 
d="M59 -369q103 -1 155 67t52 228v994q-75 0 -101 6q-6 8 -7 40t4 45q46 15 123 23l50 3q14 1 26 1h19v-1112q0 -220 -80 -312t-228 -92q-98 0 -212 46l3 92l3 72t4 62q0 14 1 21l2 21q36 17 84 9q15 -38 33 -206q40 -8 69 -8zM594 1207q-123 37 -291 176h-8
q-168 -140 -289 -176q-29 18 -42 85q176 104 328 256h16q156 -156 328 -256q-13 -67 -42 -85z" />
    <glyph glyph-name="Kcommaaccent" unicode="&#x136;" horiz-adv-x="1095" 
d="M579 0q34 0 61 -24t27 -76q0 -54 -45 -116t-99 -91l-32 41q38 65 38 99t-35 81q0 34 26 60t59 26zM387 49q1 -31 -5 -37t-34 -8q-39 -3 -81 -4h-86q-105 0 -110 6t-7 18t-3 34q0 22 6 34q40 8 100 16v1101q-48 6 -100 17q-6 12 -6 43t7 38t78 11h121q105 0 110 -6t7 -20
t3 -34q0 -20 -6 -32q-54 -11 -99 -17v-509l434 518q-34 6 -40 8q-6 12 -6 43t8 39t77 10h121q105 0 110 -6q6 -6 8 -20t2 -34t-6 -32q-34 -7 -142 -22l-425 -509l2 -4q17 -59 97 -161t190 -210t205 -177q50 57 75 70q34 -7 66 -43q-14 -54 -116 -190q-99 42 -238 174
q-138 132 -262 286t-160 242v-574q58 -7 99 -16q6 -12 6 -43z" />
    <glyph glyph-name="kcommaaccent" unicode="&#x137;" horiz-adv-x="946" 
d="M561 0q34 0 61 -24t27 -76q0 -54 -45 -116t-99 -91l-32 41q38 65 38 99t-35 81q0 34 26 60t59 26zM411 49q1 -31 -5 -37t-34 -8q-39 -3 -81 -4h-86q-105 0 -110 6t-7 18t-3 34q0 22 6 34q40 8 100 16v1222q-75 0 -101 6q-6 8 -7 40t4 45q46 15 123 23l50 3q14 1 26 1h19
v-902l323 386q-52 7 -81 14q-6 12 -6 43t7 38t78 11h121q105 0 110 -6t7 -20t3 -34q0 -20 -6 -32q-38 -8 -98 -16l-329 -399q12 -14 43 -62q66 -107 164 -201t187 -147q62 76 94 92q34 -7 66 -43q-14 -54 -116 -190q-72 4 -168 78q-170 130 -316 338q-81 114 -83 131v-419
q60 -8 100 -16q6 -12 6 -43z" />
    <glyph glyph-name="Lacute" unicode="&#x139;" horiz-adv-x="961" 
d="M901 0h-720q-105 0 -110 6t-7 18t-3 34q0 22 6 34q40 8 100 16v1101q-48 6 -100 17q-6 12 -6 43t7 38t78 11h121q105 0 110 -6t7 -20t3 -34q0 -20 -6 -32q-54 -11 -99 -17v-1096h491q20 166 31 182q55 5 84 -9q8 -8 13 -201v-85zM-10 1537q204 91 392 253q36 -20 54 -40
t24 -59q-36 -55 -175 -137t-262 -106q-25 23 -33 89z" />
    <glyph glyph-name="lacute" unicode="&#x13a;" horiz-adv-x="489" 
d="M302 1448v-1340q60 -8 100 -16q6 -12 6 -43t-6 -37t-34 -8q-38 -4 -80 -4h-86q-105 0 -110 6q-6 6 -8 18t-2 34t6 34q40 8 100 16v1222q-75 0 -101 6q-6 8 -7 40t4 45q46 15 123 23l50 3q14 1 26 1h19zM-11 1538q204 91 392 253q37 -21 55 -41t23 -58q-36 -55 -175 -137
t-262 -106q-25 23 -33 89z" />
    <glyph glyph-name="Lcommaaccent" unicode="&#x13b;" horiz-adv-x="961" 
d="M515 -100q34 0 61 -24t27 -76q0 -54 -45 -116t-99 -91l-32 41q38 65 38 99t-35 81q0 34 26 60t59 26zM901 0h-720q-105 0 -110 6t-7 18t-3 34q0 22 6 34q40 8 100 16v1101q-48 6 -100 17q-6 12 -6 43t7 38t78 11h121q105 0 110 -6t7 -20t3 -34q0 -20 -6 -32
q-54 -11 -99 -17v-1096h491q20 166 31 182q55 5 84 -9q8 -8 13 -201v-85z" />
    <glyph glyph-name="lcommaaccent" unicode="&#x13c;" horiz-adv-x="489" 
d="M243 -117q34 1 61 -23t27 -77t-45 -115t-99 -92l-32 41q38 65 38 99t-35 81q0 35 26 61t59 25zM302 1448v-1340q60 -8 100 -16q6 -12 6 -43t-6 -37t-34 -8q-38 -4 -80 -4h-86q-105 0 -110 6q-6 6 -8 18t-2 34t6 34q40 8 100 16v1222q-75 0 -101 6q-6 8 -7 40t4 45
q46 15 123 23l50 3q14 1 26 1h19z" />
    <glyph glyph-name="Lcaron" unicode="&#x13d;" horiz-adv-x="1020" 
d="M901 0h-720q-105 0 -110 6t-7 18t-3 34q0 22 6 34q40 8 100 16v1101q-48 6 -100 17q-6 12 -6 43t7 38t78 11h121q105 0 110 -6t7 -20t3 -34q0 -20 -6 -32q-54 -11 -99 -17v-1096h491q20 166 31 182q55 5 84 -9q8 -8 13 -201v-85zM872 1450q34 0 61 -24t27 -76
q0 -54 -45 -116t-99 -91l-32 41q37 63 37 98t-34 82q-1 34 25 60t60 26z" />
    <glyph glyph-name="lcaron" unicode="&#x13e;" horiz-adv-x="865" 
d="M677 1448q34 0 61 -24t27 -76q0 -54 -45 -116t-99 -91l-32 41q37 63 37 98t-34 82q0 34 26 60t59 26zM302 1448v-1340q60 -8 100 -16q6 -12 6 -43t-6 -37t-34 -8q-38 -4 -80 -4h-86q-105 0 -110 6q-6 6 -8 18t-2 34t6 34q40 8 100 16v1222q-75 0 -101 6q-6 8 -7 40t4 45
q46 15 123 23l50 3q14 1 26 1h19z" />
    <glyph glyph-name="Ldot" unicode="&#x13f;" horiz-adv-x="961" 
d="M889 738q0 -34 -26 -58q-27 -25 -61 -25t-59 25q-25 24 -25 58t26 60t58 25q34 0 61 -25q26 -26 26 -60zM901 0h-720q-105 0 -110 6t-7 18t-3 34q0 22 6 34q40 8 100 16v1101q-48 6 -100 17q-6 12 -6 43t7 38t78 11h121q105 0 110 -6t7 -20t3 -34q0 -20 -6 -32
q-54 -11 -99 -17v-1096h491q20 166 31 182q55 5 84 -9q8 -8 13 -201v-85z" />
    <glyph glyph-name="ldot" unicode="&#x140;" horiz-adv-x="760" 
d="M660 750q0 -34 -26 -58q-26 -25 -60 -25t-60 25q-25 24 -25 58q-1 34 25 60t60 25q34 0 60 -25q26 -26 26 -60zM302 1448v-1340q60 -8 100 -16q6 -12 6 -43t-6 -37t-34 -8q-38 -4 -80 -4h-86q-105 0 -110 6q-6 6 -8 18t-2 34t6 34q40 8 100 16v1222q-75 0 -101 6
q-6 8 -7 40t4 45q46 15 123 23l50 3q14 1 26 1h19z" />
    <glyph glyph-name="lslash" unicode="&#x142;" horiz-adv-x="686" 
d="M495 49q1 -31 -5 -37t-34 -8q-39 -3 -81 -4h-86q-105 0 -110 6t-7 18t-3 34q0 22 6 34q40 8 100 16v627l-177 -63l-38 105l215 77v476q-75 0 -101 6q-6 8 -7 40t4 45q46 15 123 23l50 3q14 1 26 1h19v-553l209 75l38 -105l-247 -89v-668q60 -8 100 -16q6 -12 6 -43z" />
    <glyph glyph-name="Nacute" unicode="&#x143;" horiz-adv-x="1257" 
d="M1076 1318q105 0 110 -6q6 -6 8 -20t2 -34t-6 -32q-52 -11 -100 -17v-1209h-114l-695 1110v-1002q60 -8 100 -16q6 -12 6 -43q1 -31 -5 -37t-34 -8q-39 -3 -81 -4h-100q-89 0 -97 9t-9 40q0 31 6 43q40 8 100 16v1101q-48 6 -100 17q-6 12 -6 43t10 42q35 7 96 7h114
l695 -1111v1002q-48 6 -100 17q-6 12 -6 43t10 42q35 7 96 7h100zM379 1537q204 91 392 253q37 -20 55 -40t23 -59q-36 -55 -175 -137t-262 -106q-25 23 -33 89z" />
    <glyph glyph-name="nacute" unicode="&#x144;" 
d="M618 1058q140 0 240 -85t99 -248v-617q60 -8 100 -16q6 -12 6 -43q1 -31 -5 -37t-34 -8q-39 -4 -81 -4h-86q-105 0 -110 6t-7 18t-3 34q0 22 6 34q40 8 100 16v575q-1 131 -69 198t-171 67q-146 0 -301 -120v-720q60 -8 100 -16q6 -12 6 -43t-6 -37t-34 -8q-38 -4 -80 -4
h-86q-105 0 -110 6q-6 6 -8 18t-2 34t6 34q40 8 100 16v832q-74 0 -100 6q-6 8 -7 40t4 45q74 22 122 24q48 1 58 3l34 -116q179 116 319 116zM352 1295q204 91 392 253q36 -20 54 -40t24 -59q-36 -55 -175 -137t-262 -106q-25 23 -33 89z" />
    <glyph glyph-name="Ncommaaccent" unicode="&#x145;" horiz-adv-x="1257" 
d="M629 0q34 0 61 -24t27 -76q0 -54 -45 -116t-99 -91l-32 41q38 65 38 99t-35 81q0 34 26 60t59 26zM167 0q-89 0 -97 9t-9 40q0 31 6 43q40 8 100 16v1101q-48 6 -100 17q-6 12 -6 43t10 42q35 7 96 7h114l695 -1111v1002q-48 6 -100 17q-6 12 -6 43t8 39t77 10h135
q61 0 96 -7q10 -11 10 -42t-6 -43q-52 -11 -100 -17v-1209h-114l-695 1110v-1002q60 -8 100 -16q6 -12 6 -43q1 -31 -5 -37t-34 -8q-39 -3 -81 -4h-100z" />
    <glyph glyph-name="ncommaaccent" unicode="&#x146;" 
d="M561 0q34 0 61 -24t27 -76q0 -54 -45 -116t-99 -91l-32 41q38 65 38 99t-35 81q0 34 26 60t59 26zM618 1058q140 0 240 -85t99 -248v-617q60 -8 100 -16q6 -12 6 -43q1 -31 -5 -37t-34 -8q-39 -4 -81 -4h-86q-105 0 -110 6t-7 18t-3 34q0 22 6 34q40 8 100 16v575
q-1 131 -69 198t-171 67q-146 0 -301 -120v-720q60 -8 100 -16q6 -12 6 -43t-6 -37t-34 -8q-38 -4 -80 -4h-86q-105 0 -110 6q-6 6 -8 18t-2 34t6 34q40 8 100 16v832q-74 0 -100 6q-6 8 -7 40t4 45q74 22 122 24q48 1 58 3l34 -116q179 116 319 116z" />
    <glyph glyph-name="Ncaron" unicode="&#x147;" horiz-adv-x="1257" 
d="M1076 1318q105 0 110 -6q6 -6 8 -20t2 -34t-6 -32q-52 -11 -100 -17v-1209h-114l-695 1110v-1002q60 -8 100 -16q6 -12 6 -43q1 -31 -5 -37t-34 -8q-39 -3 -81 -4h-100q-89 0 -97 9t-9 40q0 31 6 43q40 8 100 16v1101q-48 6 -100 17q-6 12 -6 43t10 42q35 7 96 7h114
l695 -1111v1002q-48 6 -100 17q-6 12 -6 43t10 42q35 7 96 7h100zM334 1679q121 -36 289 -176h8q168 139 291 176q29 -18 42 -85q-171 -99 -328 -256h-16q-156 154 -328 256q13 67 42 85z" />
    <glyph glyph-name="ncaron" unicode="&#x148;" 
d="M618 1058q140 0 240 -85t99 -248v-617q60 -8 100 -16q6 -12 6 -43q1 -31 -5 -37t-34 -8q-39 -4 -81 -4h-86q-105 0 -110 6t-7 18t-3 34q0 22 6 34q40 8 100 16v575q-1 131 -69 198t-171 67q-146 0 -301 -120v-720q60 -8 100 -16q6 -12 6 -43t-6 -37t-34 -8q-38 -4 -80 -4
h-86q-105 0 -110 6q-6 6 -8 18t-2 34t6 34q40 8 100 16v832q-74 0 -100 6q-6 8 -7 40t4 45q74 22 122 24q48 1 58 3l34 -116q179 116 319 116zM286 1514q121 -36 289 -176h8q168 139 291 176q29 -18 42 -85q-171 -99 -328 -256h-16q-151 151 -328 256q13 67 42 85z" />
    <glyph glyph-name="Eng" unicode="&#x14a;" horiz-adv-x="1257" 
d="M780 -365q90 1 142 71t53 222v74l-694 1108v-1002q60 -8 100 -16q6 -12 6 -43q1 -31 -5 -37t-34 -8q-39 -3 -81 -4h-100q-89 0 -97 9t-9 40q0 31 6 43q40 8 100 16v1101q-48 6 -100 17q-6 12 -6 43t10 42q35 7 96 7h114l695 -1111v1002q-48 6 -100 17q-6 12 -6 43t10 42
q35 7 96 7h100q96 0 110 -7q10 -11 10 -42t-6 -43q-52 -11 -100 -17v-1284q0 -176 -65 -278q-80 -126 -251 -126q-95 0 -211 58l10 202q1 30 3 36q36 17 84 9q10 -21 29 -177q51 -14 91 -14z" />
    <glyph glyph-name="eng" unicode="&#x14b;" horiz-adv-x="1146" 
d="M635 -369q103 -1 155 67t52 228v757q0 131 -68 198t-172 67q-146 0 -301 -120v-720q60 -8 100 -16q6 -12 6 -43q1 -31 -5 -37t-34 -8q-39 -3 -81 -4h-86q-105 0 -110 6t-7 18t-3 34q0 22 6 34q40 8 100 16v832q-74 0 -100 6q-6 8 -7 40t4 45q52 16 111 20q59 5 69 7
l34 -116q179 116 319 116q139 0 239 -85t100 -248v-799q0 -220 -80 -312t-228 -92q-98 0 -212 46l3 92l3 72t4 62q0 14 1 21l2 21q36 17 84 9q14 -34 32 -206q40 -8 70 -8z" />
    <glyph glyph-name="Omacron" unicode="&#x14c;" horiz-adv-x="1410" 
d="M1194 652q0 251 -131 414t-357 163q-226 1 -358 -157t-132 -406t133 -412t359 -165q226 0 356 156t130 407zM708 1338q270 0 436 -192t166 -488q0 -294 -164 -486t-439 -192q-276 0 -442 194q-165 194 -165 486t170 485q168 193 438 193zM455 1520h500v-112h-500v112z
" />
    <glyph glyph-name="omacron" unicode="&#x14d;" 
d="M214 524q0 -184 95 -310t260 -125q165 0 258 119q93 120 93 306t-93 310t-259 125q-166 0 -260 -120q-94 -121 -94 -305zM100 519q0 229 132 384t338 155q208 0 336 -154t128 -384q0 -228 -132 -384t-340 -156t-334 155q-128 155 -128 384zM317 1430h500v-112h-500v112z
" />
    <glyph glyph-name="Ohungarumlaut" unicode="&#x150;" horiz-adv-x="1410" 
d="M1194 652q0 251 -131 414t-357 163q-226 1 -358 -157t-132 -406t133 -412t359 -165q226 0 356 156t130 407zM708 1338q270 0 436 -192t166 -488q0 -294 -164 -486t-439 -192q-276 0 -442 194q-165 194 -165 486t170 485q168 193 438 193zM831 1522q169 154 293 361
q76 -11 105 -70q-12 -40 -63 -109t-127 -142t-150 -114q-31 11 -58 74zM471 1522q169 154 293 361q40 -6 64 -21t41 -49q-20 -65 -125 -185t-214 -180q-30 10 -59 74z" />
    <glyph glyph-name="ohungarumlaut" unicode="&#x151;" 
d="M214 524q0 -184 95 -310t260 -125q165 0 258 119q93 120 93 306t-93 310t-259 125q-166 0 -260 -120q-94 -121 -94 -305zM100 519q0 229 132 384t338 155q208 0 336 -154t128 -384q0 -228 -132 -384t-340 -156t-334 155q-128 155 -128 384zM649 1187q169 154 293 361
q76 -11 105 -70q-12 -40 -63 -109t-127 -142t-150 -114q-31 11 -58 74zM289 1187q169 154 293 361q40 -6 64 -21t41 -49q-20 -66 -125 -186t-214 -179q-30 10 -59 74z" />
    <glyph glyph-name="OE" unicode="&#x152;" horiz-adv-x="1686" 
d="M704 1229q-224 1 -356 -157t-132 -406t133 -412t363 -165q30 0 54 4t56 9t46 11v1089q-12 5 -46 14l-45 8q-38 5 -73 5zM982 1205v-490h437q14 96 27 113q54 5 83 -9q11 -69 11 -169t-11 -151q-29 -14 -83 -9q-11 14 -27 113h-437v-490h517q16 148 30 182q48 8 84 -9
q13 -78 13 -238v-48h-757q-83 -20 -193 -20t-222 52t-191 145q-163 191 -163 483t170 485t439 193q80 0 157 -20h760v-48q0 -52 -6 -142t-7 -96q-36 -17 -84 -9q-15 38 -30 182h-517z" />
    <glyph glyph-name="oe" unicode="&#x153;" horiz-adv-x="1780" 
d="M1571 608q0 156 -41 237q-54 103 -188 103t-210 -93q-77 -93 -91 -247h530zM569 89q165 0 258 119q93 120 93 306t-93 310t-259 125q-166 0 -260 -120q-94 -121 -94 -305t95 -310t260 -125zM1391 89q139 0 293 75l4 -3v-107q-150 -74 -294 -74t-254 66t-167 198
q-59 -122 -166 -193t-244 -71q-207 0 -335 155t-128 384t132 384t339 155q133 0 234 -66t162 -179q43 115 139 180t240 65q264 0 323 -244q19 -80 21 -206v-113h-653q7 -197 111 -301t243 -105z" />
    <glyph glyph-name="Racute" unicode="&#x154;" horiz-adv-x="1246" 
d="M288 1209v-669h118q258 0 385 72q144 80 144 266t-137 265q-116 66 -364 66h-146zM388 431h-100v-323q58 -7 99 -16q6 -12 6 -43q1 -31 -5 -37t-34 -8q-39 -3 -81 -4h-86q-105 0 -110 6t-7 18t-3 34q0 22 6 34q40 8 100 16v1100q-74 9 -106 18q-6 12 -6 43t7 38t78 11
h312q323 0 458 -104t135 -327q0 -285 -232 -388q23 -71 99 -179t157 -177q51 58 74 70q34 -7 66 -43q-14 -54 -116 -190q-52 10 -131 96q-80 86 -154 196t-108 189q-120 -30 -318 -30zM298 1538q204 91 392 253q36 -21 54 -41t24 -58q-36 -55 -175 -137t-262 -106
q-25 23 -33 89z" />
    <glyph glyph-name="racute" unicode="&#x155;" horiz-adv-x="773" 
d="M561 1058q69 0 142 -31q1 -52 -5 -142t-8 -96q-36 -17 -84 -9q-11 20 -28 167q-18 2 -27 2q-140 0 -250 -145v-696q60 -8 100 -16q6 -12 6 -43q1 -31 -5 -37t-34 -8q-39 -3 -81 -4h-86q-105 0 -110 6t-7 18t-3 34q0 22 6 34q40 8 100 16v832q-71 0 -99 6q-6 8 -7 40t4 45
q74 22 122 24q48 1 58 3l37 -127q116 127 259 127zM151 1295q204 91 392 253q37 -20 55 -40t23 -59q-36 -55 -175 -137t-262 -106q-25 23 -33 89z" />
    <glyph glyph-name="Rcommaaccent" unicode="&#x156;" horiz-adv-x="1246" 
d="M633 0q34 0 61 -24t27 -76q0 -54 -45 -116t-99 -91l-32 41q38 65 38 99t-35 81q0 34 26 60t59 26zM288 1209v-669h118q258 0 385 72q144 80 144 266t-137 265q-116 66 -364 66h-146zM388 431h-100v-323q58 -7 99 -16q6 -12 6 -43q1 -31 -5 -37t-34 -8q-39 -3 -81 -4h-86
q-105 0 -110 6t-7 18t-3 34q0 22 6 34q40 8 100 16v1100q-74 9 -106 18q-6 12 -6 43t7 38t78 11h314q323 0 458 -104t135 -327q0 -286 -234 -388q23 -71 99 -179t157 -177q51 58 74 70q34 -7 66 -43q-14 -54 -116 -190q-52 10 -131 96q-80 86 -154 196t-108 189
q-120 -30 -318 -30z" />
    <glyph glyph-name="rcommaaccent" unicode="&#x157;" horiz-adv-x="773" 
d="M243 -117q34 1 61 -23t27 -77t-45 -115t-99 -92l-32 41q38 65 38 99t-35 81q0 35 26 61t59 25zM561 1058q69 0 142 -31q1 -52 -5 -142t-8 -96q-36 -17 -84 -9q-11 20 -28 167q-18 2 -27 2q-140 0 -250 -145v-696q60 -8 100 -16q6 -12 6 -43q1 -31 -5 -37t-34 -8
q-39 -3 -81 -4h-86q-105 0 -110 6t-7 18t-3 34q0 22 6 34q40 8 100 16v832q-71 0 -99 6q-6 8 -7 40t4 45q74 22 122 24q48 1 58 3l37 -127q116 127 259 127z" />
    <glyph glyph-name="Rcaron" unicode="&#x158;" horiz-adv-x="1246" 
d="M288 1209v-669h118q258 0 385 72q144 80 144 266t-137 265q-116 66 -364 66h-146zM388 431h-100v-323q58 -7 99 -16q6 -12 6 -43q1 -31 -5 -37t-34 -8q-39 -3 -81 -4h-86q-105 0 -110 6t-7 18t-3 34q0 22 6 34q40 8 100 16v1100q-74 9 -106 18q-6 12 -6 43t7 38t78 11
h312q323 0 458 -104t135 -327q0 -285 -232 -388q23 -71 99 -179t157 -177q51 58 74 70q34 -7 66 -43q-14 -54 -116 -190q-52 10 -131 96q-80 86 -154 196t-108 189q-120 -30 -318 -30zM226 1749q121 -36 289 -176h8q168 139 291 176q29 -18 42 -85q-171 -99 -328 -256h-16
q-146 148 -328 256q13 67 42 85z" />
    <glyph glyph-name="rcaron" unicode="&#x159;" horiz-adv-x="773" 
d="M561 1058q69 0 142 -31q1 -52 -5 -142t-8 -96q-36 -17 -84 -9q-11 20 -28 167q-18 2 -27 2q-140 0 -250 -145v-696q60 -8 100 -16q6 -12 6 -43q1 -31 -5 -37t-34 -8q-39 -3 -81 -4h-86q-105 0 -110 6t-7 18t-3 34q0 22 6 34q40 8 100 16v832q-71 0 -99 6q-6 8 -7 40t4 45
q74 22 122 24q48 1 58 3l37 -127q116 127 259 127zM103 1514q121 -36 289 -176h8q168 139 291 176q29 -18 42 -85q-171 -99 -328 -256h-16q-151 151 -328 256q13 67 42 85z" />
    <glyph glyph-name="Sacute" unicode="&#x15a;" horiz-adv-x="954" 
d="M388 92q134 0 232 64t98 177q0 155 -209 253q-15 6 -47 22t-43 21q-143 67 -206 130q-93 93 -93 249t118 242q118 88 292 88q110 0 209 -34q1 -52 -5 -142t-8 -96q-36 -17 -84 -9q-12 27 -28 163q-46 6 -91 6q-131 0 -213 -58t-81 -162q0 -142 193 -239l34 -17
q48 -24 76 -36q148 -71 208 -129q94 -94 94 -228q0 -165 -126 -271t-331 -106q-134 0 -251 58l10 202q2 30 3 36q36 17 84 9q10 -21 29 -177q65 -16 136 -16zM233 1537q204 91 392 253q37 -20 55 -40t23 -59q-36 -55 -175 -137t-262 -106q-25 23 -33 89z" />
    <glyph glyph-name="sacute" unicode="&#x15b;" horiz-adv-x="770" 
d="M288 90q111 0 202 50t91 134t-79 138q-38 25 -128 65t-138 66q-100 53 -139 137q-22 44 -22 107q0 144 110 214q89 57 215 57t242 -29q0 -52 -6 -142t-7 -96q-36 -17 -84 -9q-10 13 -27 158q-62 8 -134 8t-131 -36q-60 -36 -60 -116t80 -133q42 -29 168 -81t180 -100
q79 -74 79 -185q0 -149 -122 -233t-270 -84q-150 0 -238 40l3 92l3 72t4 62q0 14 1 21l2 21q36 17 84 9q15 -44 32 -200q43 -7 89 -7zM150 1295q204 91 392 253q36 -20 54 -40t24 -59q-36 -55 -175 -137t-262 -106q-25 23 -33 89z" />
    <glyph glyph-name="Scircumflex" unicode="&#x15c;" horiz-adv-x="954" 
d="M388 92q134 0 232 64t98 177q0 155 -209 253q-15 6 -47 22t-43 21q-143 67 -206 130q-93 93 -93 249t118 242q118 88 292 88q110 0 209 -34q1 -52 -5 -142t-8 -96q-36 -17 -84 -9q-12 27 -28 163q-46 6 -91 6q-131 0 -213 -58t-81 -162q0 -142 193 -239l34 -17
q48 -24 76 -36q148 -71 208 -129q94 -94 94 -228q0 -165 -126 -271t-331 -106q-134 0 -251 58l10 202q2 30 3 36q36 17 84 9q10 -21 29 -177q65 -16 136 -16zM800 1450q-123 37 -291 176h-8q-168 -140 -289 -176q-29 18 -42 85q176 104 328 256h16q156 -156 328 -256
q-13 -67 -42 -85z" />
    <glyph glyph-name="scircumflex" unicode="&#x15d;" horiz-adv-x="770" 
d="M288 90q111 0 202 50t91 134t-79 138q-38 25 -128 65t-138 66q-100 53 -139 137q-22 44 -22 107q0 144 110 214q89 57 215 57t242 -29q0 -52 -6 -142t-7 -96q-36 -17 -84 -9q-10 13 -27 158q-62 8 -134 8t-131 -36q-60 -36 -60 -116t80 -133q42 -29 168 -81t180 -100
q79 -74 79 -185q0 -149 -122 -233t-270 -84q-150 0 -238 40l3 92l3 72t4 62q0 14 1 21l2 21q36 17 84 9q15 -44 32 -200q43 -7 89 -7zM696 1207q-123 37 -291 176h-8q-168 -140 -289 -176q-29 18 -42 85q176 104 328 256h16q156 -156 328 -256q-13 -67 -42 -85z" />
    <glyph glyph-name="Scedilla" unicode="&#x15e;" horiz-adv-x="954" 
d="M497 -100q34 0 61 -24t27 -76q0 -54 -45 -116t-99 -91l-32 41q38 65 38 99t-35 81q0 34 26 60t59 26zM388 92q134 0 232 64t98 177q0 155 -209 253q-15 6 -47 22t-43 21q-143 67 -206 130q-93 93 -93 249t118 242q118 88 292 88q110 0 209 -34q1 -52 -5 -142t-8 -96
q-36 -17 -84 -9q-12 27 -28 163q-46 6 -91 6q-131 0 -213 -58t-81 -162q0 -142 193 -239l34 -17q48 -24 76 -36q148 -71 208 -129q94 -94 94 -228q0 -165 -126 -271t-331 -106q-134 0 -251 58l10 202q2 30 3 36q36 17 84 9q10 -21 29 -177q65 -16 136 -16z" />
    <glyph glyph-name="scedilla" unicode="&#x15f;" horiz-adv-x="770" 
d="M364 -117q34 1 61 -23t27 -77t-45 -115t-99 -92l-32 41q38 65 38 99t-35 81q-1 35 25 61t60 25zM288 90q111 0 202 50t91 134t-79 138q-38 25 -128 65t-138 66q-100 53 -139 137q-22 44 -22 107q0 144 110 214q89 57 215 57t242 -29q0 -52 -6 -142t-7 -96q-36 -17 -84 -9
q-10 13 -27 158q-62 8 -134 8t-131 -36q-60 -36 -60 -116t80 -133q42 -29 168 -81t180 -100q79 -74 79 -185q0 -149 -122 -233t-270 -84q-150 0 -238 40l3 92l3 72t4 62q0 14 1 21l2 21q36 17 84 9q15 -44 32 -200q43 -7 89 -7z" />
    <glyph glyph-name="Scaron" unicode="&#x160;" horiz-adv-x="954" 
d="M388 92q134 0 232 64t98 177q0 155 -209 253q-15 6 -47 22t-43 21q-143 67 -206 130q-93 93 -93 249t118 242q118 88 292 88q110 0 209 -34q1 -52 -5 -142t-8 -96q-36 -17 -84 -9q-12 27 -28 163q-46 6 -91 6q-131 0 -213 -58t-81 -162q0 -142 193 -239l34 -17
q48 -24 76 -36q148 -71 208 -129q94 -94 94 -228q0 -165 -126 -271t-331 -106q-134 0 -251 58l10 202q2 30 3 36q36 17 84 9q10 -21 29 -177q65 -16 136 -16zM219 1749q121 -36 289 -176h8q168 139 291 176q29 -18 42 -85q-171 -99 -328 -256h-16q-146 148 -328 256
q13 67 42 85z" />
    <glyph glyph-name="scaron" unicode="&#x161;" horiz-adv-x="770" 
d="M288 90q111 0 202 50t91 134t-79 138q-38 25 -128 65t-138 66q-100 53 -139 137q-22 44 -22 107q0 144 110 214q89 57 215 57t242 -29q0 -52 -6 -142t-7 -96q-36 -17 -84 -9q-10 13 -27 158q-62 8 -134 8t-131 -36q-60 -36 -60 -116t80 -133q42 -29 168 -81t180 -100
q79 -74 79 -185q0 -149 -122 -233t-270 -84q-150 0 -238 40l3 92l3 72t4 62q0 14 1 21l2 21q36 17 84 9q15 -44 32 -200q43 -7 89 -7zM85 1514q121 -36 289 -176h8q168 139 291 176q29 -18 42 -85q-171 -99 -328 -256h-16q-151 151 -328 256q13 67 42 85z" />
    <glyph glyph-name="Tcedilla" unicode="&#x162;" horiz-adv-x="1030" 
d="M512 -100q34 0 61 -24t27 -76q0 -54 -45 -116t-99 -91l-32 41q38 65 38 99t-35 81q-1 34 25 60t60 26zM575 1205v-1097q58 -7 99 -16q6 -12 6 -43t-6 -37t-34 -8q-38 -4 -80 -4h-86q-105 0 -110 6q-6 6 -8 18t-2 34t6 34q40 8 100 16v1097h-273q-10 -92 -15 -114
q-5 -23 -7 -39t-8 -29q-48 -8 -84 9q-13 78 -13 238v48h910v-51l-10 -200q-2 -29 -3 -35q-36 -17 -84 -9q-15 38 -30 182h-268z" />
    <glyph glyph-name="tcedilla" unicode="&#x163;" horiz-adv-x="741" 
d="M413 -117q34 1 61 -23t27 -77t-45 -115t-99 -92l-32 41q38 65 38 99t-35 81q0 35 26 61t59 25zM477 -20q-129 0 -217 81t-87 268v596h-113v113h113v188l103 19h12v-207h255v-113h-255v-534q0 -299 198 -299q39 0 75 10q20 165 33 204q48 8 84 -9l2 -21l3 -43
q4 -60 5 -112l3 -92q-125 -49 -214 -49z" />
    <glyph glyph-name="Tcaron" unicode="&#x164;" horiz-adv-x="1030" 
d="M575 1205v-1097q58 -7 99 -16q6 -12 6 -43t-6 -37t-34 -8q-38 -4 -80 -4h-86q-105 0 -110 6q-6 6 -8 18t-2 34t6 34q40 8 100 16v1097h-273q-10 -92 -15 -114q-5 -23 -7 -39t-8 -29q-48 -8 -84 9q-13 78 -13 238v48h910v-51l-10 -200q-2 -29 -3 -35q-36 -17 -84 -9
q-15 38 -30 182h-268zM221 1749q121 -36 289 -176h8q168 139 291 176q29 -18 42 -85q-171 -99 -328 -256h-16q-151 151 -328 256q13 67 42 85z" />
    <glyph glyph-name="tcaron" unicode="&#x165;" horiz-adv-x="1117" 
d="M477 -20q-129 0 -217 81t-87 268v596h-113v113h113v188l103 19h12v-207h255v-113h-255v-534q0 -299 198 -299q39 0 75 10q20 165 33 204q48 8 84 -9l2 -21l3 -43q4 -60 5 -112l3 -92q-125 -49 -214 -49zM929 1448q34 0 61 -24t27 -76q0 -54 -45 -116t-99 -91l-32 41
q37 63 37 98t-34 82q0 34 26 60t59 26z" />
    <glyph glyph-name="Tbar" unicode="&#x166;" horiz-adv-x="1030" 
d="M575 1205v-465h220v-112h-220v-520q58 -7 99 -16q6 -12 6 -43t-6 -37t-34 -8q-38 -4 -80 -4h-86q-105 0 -110 6q-6 6 -8 18t-2 34t6 34q40 8 100 16v520h-220v112h220v465h-273q-10 -92 -15 -114q-5 -23 -7 -39t-8 -29q-48 -8 -84 9q-13 78 -13 238v48h910v-51l-10 -200
q-2 -29 -3 -35q-36 -17 -84 -9q-15 38 -30 182h-268z" />
    <glyph glyph-name="tbar" unicode="&#x167;" horiz-adv-x="741" 
d="M477 -20q-129 0 -217 81t-87 268v370h-113v113h113v113h-113v113h113v188l103 19h12v-207h255v-113h-255v-113h255v-113h-255v-308q0 -299 198 -299q39 0 75 10q20 165 33 204q48 8 84 -9l2 -21l3 -43q4 -60 5 -112l3 -92q-125 -49 -214 -49z" />
    <glyph glyph-name="Utilde" unicode="&#x168;" horiz-adv-x="1278" 
d="M1097 1318q105 0 110 -6t7 -20t3 -34q0 -20 -6 -32q-52 -11 -100 -17v-719q0 -385 -233 -474q-90 -36 -238 -36q-226 0 -334 92q-139 118 -139 418v719q-48 6 -100 17q-6 12 -6 43t7 38t78 11h121q105 0 110 -6t7 -20t3 -34q0 -20 -6 -32q-52 -11 -100 -17v-702
q0 -327 192 -395q64 -23 167 -23q103 -1 179 27t127 120t51 271v702q-48 6 -100 17q-6 12 -6 43t7 38t78 11h121zM909 1466q-65 -50 -147 -51t-182 77q-34 26 -71 27t-73 -31t-36 -73q-64 -12 -107 27q9 82 79 134t140 52t140 -52q1 0 14 -10q14 -10 16 -12q37 -30 76 -30
t79 30t40 72q60 10 107 -27q-10 -83 -75 -133z" />
    <glyph glyph-name="utilde" unicode="&#x169;" horiz-adv-x="1149" 
d="M525 89q145 0 301 121v730q-74 0 -100 6q-6 8 -7 40t4 45q46 15 123 23l50 3q14 1 26 1h19v-950h40q100 0 109 -6t9 -44t-7 -49q-96 -29 -215 -29h-6l-36 118q-179 -118 -322 -118t-243 85t-100 248v627q-74 0 -100 6q-6 8 -7 40t4 45q46 15 123 23l50 3q14 1 26 1h19
v-703q1 -131 69 -199t171 -67zM845 1280q-65 -50 -147 -50t-182 78q-34 26 -71 26t-73 -32t-36 -72q-64 -12 -107 27q9 83 79 135t140 51q70 0 140 -52q1 -1 14 -11q14 -10 16 -11q38 -30 76 -30q39 0 79 30t40 72q60 10 107 -27q-10 -84 -75 -134z" />
    <glyph glyph-name="Umacron" unicode="&#x16a;" horiz-adv-x="1278" 
d="M1097 1318q105 0 110 -6t7 -20t3 -34q0 -20 -6 -32q-52 -11 -100 -17v-719q0 -385 -233 -474q-90 -36 -238 -36q-226 0 -334 92q-139 118 -139 418v719q-48 6 -100 17q-6 12 -6 43t7 38t78 11h121q105 0 110 -6t7 -20t3 -34q0 -20 -6 -32q-52 -11 -100 -17v-702
q0 -327 192 -395q64 -23 167 -23q103 -1 179 27t127 120t51 271v702q-48 6 -100 17q-6 12 -6 43t7 38t78 11h121zM389 1520h500v-112h-500v112z" />
    <glyph glyph-name="umacron" unicode="&#x16b;" horiz-adv-x="1149" 
d="M525 89q145 0 301 121v730q-74 0 -100 6q-6 8 -7 40t4 45q46 15 123 23l50 3q14 1 26 1h19v-950h40q100 0 109 -6t9 -44t-7 -49q-96 -29 -215 -29h-6l-36 118q-179 -118 -322 -118t-243 85t-100 248v627q-74 0 -100 6q-6 8 -7 40t4 45q46 15 123 23l50 3q14 1 26 1h19
v-703q1 -131 69 -199t171 -67zM324 1430h500v-112h-500v112z" />
    <glyph glyph-name="Uring" unicode="&#x16e;" horiz-adv-x="1278" 
d="M1097 1318q105 0 110 -6t7 -20t3 -34q0 -20 -6 -32q-52 -11 -100 -17v-719q0 -385 -233 -474q-90 -36 -238 -36q-226 0 -334 92q-139 118 -139 418v719q-48 6 -100 17q-6 12 -6 43t7 38t78 11h121q105 0 110 -6t7 -20t3 -34q0 -20 -6 -32q-52 -11 -100 -17v-702
q0 -327 192 -395q64 -23 167 -23q103 -1 179 27t127 120t51 271v702q-48 6 -100 17q-6 12 -6 43t7 38t78 11h121zM549 1537q0 -37 26 -63q25 -26 63 -26t64 27t26 62t-27 62t-63 27t-62 -26q-27 -26 -27 -63zM438 1537q0 81 58 139t141 58q82 0 142 -58t60 -139t-60 -140
t-142 -59q-83 0 -141 60t-58 139z" />
    <glyph glyph-name="uring" unicode="&#x16f;" horiz-adv-x="1149" 
d="M525 89q145 0 301 121v730q-74 0 -100 6q-6 8 -7 40t4 45q46 15 123 23l50 3q14 1 26 1h19v-950h40q100 0 109 -6t9 -44t-7 -49q-96 -29 -215 -29h-6l-36 118q-179 -118 -322 -118t-243 85t-100 248v627q-74 0 -100 6q-6 8 -7 40t4 45q46 15 123 23l50 3q14 1 26 1h19
v-703q1 -131 69 -199t171 -67zM432 1319q0 -37 26 -63t64 -26t63 27q26 27 26 62t-27 62q-26 27 -62 27t-63 -26t-27 -63zM321 1319q1 81 59 139t140 58t142 -58t60 -139t-60 -140t-142 -59t-140 60t-59 139z" />
    <glyph glyph-name="Uhungarumlaut" unicode="&#x170;" horiz-adv-x="1278" 
d="M1097 1318q105 0 110 -6t7 -20t3 -34q0 -20 -6 -32q-52 -11 -100 -17v-719q0 -385 -233 -474q-90 -36 -238 -36q-226 0 -334 92q-139 118 -139 418v719q-48 6 -100 17q-6 12 -6 43t7 38t78 11h121q105 0 110 -6t7 -20t3 -34q0 -20 -6 -32q-52 -11 -100 -17v-702
q0 -327 192 -395q64 -23 167 -23q103 -1 179 27t127 120t51 271v702q-48 6 -100 17q-6 12 -6 43t7 38t78 11h121zM722 1522q169 154 293 361q76 -11 105 -70q-12 -40 -63 -109t-127 -142t-150 -114q-31 11 -58 74zM362 1522q169 154 293 361q39 -6 63 -21t42 -49
q-20 -65 -125 -185t-214 -180q-30 10 -59 74z" />
    <glyph glyph-name="uhungarumlaut" unicode="&#x171;" horiz-adv-x="1149" 
d="M525 89q145 0 301 121v730q-74 0 -100 6q-6 8 -7 40t4 45q46 15 123 23l50 3q14 1 26 1h19v-950h40q100 0 109 -6t9 -44t-7 -49q-96 -29 -215 -29h-6l-36 118q-179 -118 -322 -118t-243 85t-100 248v627q-74 0 -100 6q-6 8 -7 40t4 45q46 15 123 23l50 3q14 1 26 1h19
v-703q1 -131 69 -199t171 -67zM555 1187q169 154 293 361q76 -11 105 -70q-12 -40 -63 -109t-127 -142t-150 -114q-31 11 -58 74zM195 1187q169 154 293 361q40 -6 64 -21t41 -49q-20 -66 -125 -186t-214 -179q-30 10 -59 74z" />
    <glyph glyph-name="Uogonek" unicode="&#x172;" horiz-adv-x="1278" 
d="M1217 1269q0 -31 -6 -43q-52 -11 -100 -17v-719q0 -234 -76 -346t-212 -146q-93 -44 -147 -110t-55 -120q0 -54 38 -79q37 -26 91 -26t142 46l7 -5v-99q-73 -51 -165 -51t-160 56t-69 164q0 106 109 206q-136 2 -234 45q-212 93 -213 465v719q-48 6 -100 17q-6 12 -6 43
t7 38t78 11h121q105 0 110 -6t7 -20t3 -34q0 -20 -6 -32q-52 -11 -100 -17v-702q0 -327 192 -395q64 -23 167 -23q103 -1 179 27t127 120t51 271v702q-48 6 -100 17q-6 12 -6 43t7 38t78 11h121q103 0 111 -9t9 -40z" />
    <glyph glyph-name="uogonek" unicode="&#x173;" horiz-adv-x="1149" 
d="M525 89q145 0 301 121v730q-74 0 -100 6q-6 8 -7 40t4 45q46 15 123 23l50 3q14 1 26 1h19v-950h40q100 0 109 -6t9 -44t-7 -49q-16 -6 -36 -9q-92 -44 -148 -110t-56 -120q0 -55 38 -81t92 -26t141 46l7 -5v-99q-72 -51 -164 -51t-162 56q-68 56 -68 170q0 113 129 218
l-30 100q-179 -118 -322 -118t-243 85t-100 248v627q-74 0 -100 6q-6 8 -7 40t4 45q46 15 123 23l50 3q14 1 26 1h19v-703q1 -131 69 -199t171 -67z" />
    <glyph glyph-name="Wcircumflex" unicode="&#x174;" horiz-adv-x="1841" 
d="M237 1318q105 0 110 -6t7 -20t3 -34q0 -20 -6 -32q-39 -9 -93 -16l285 -995l316 1103h124l315 -1103l285 995q-54 7 -93 16q-6 12 -6 43t8 39t77 10h121q105 0 110 -6q6 -6 8 -20t2 -34t-6 -32q-38 -8 -98 -16l-346 -1210h-123l-316 1101l-316 -1101h-123l-347 1210
q-55 7 -98 16q-6 12 -6 43t7 38t78 11h121zM1214 1449q-123 37 -291 176h-8q-168 -140 -289 -176q-29 18 -42 85q176 104 328 256h16q152 -152 328 -256q-13 -67 -42 -85z" />
    <glyph glyph-name="wcircumflex" unicode="&#x175;" horiz-adv-x="1645" 
d="M252 1038q105 0 110 -6q6 -6 8 -20t2 -34t-6 -32q-29 -7 -81 -14l230 -730l249 836h116l250 -835l229 729q-50 6 -80 14q-6 12 -6 43t7 38t78 11h121q105 0 110 -6t7 -20t3 -34q0 -20 -6 -32q-34 -9 -109 -18l-293 -928h-126l-243 828l-243 -828h-125l-293 928
q-72 8 -109 18q-6 12 -6 43t8 39t77 10h121zM1116 1207q-123 37 -291 176h-8q-168 -140 -289 -176q-29 18 -42 85q176 104 328 256h16q156 -156 328 -256q-13 -67 -42 -85z" />
    <glyph glyph-name="Ycircumflex" unicode="&#x176;" horiz-adv-x="1106" 
d="M749 1269q0 31 7 38t78 11h121q105 0 110 -6t7 -20t3 -34q0 -20 -6 -32q-36 -9 -110 -18l-349 -716v-384q60 -8 100 -16q6 -12 6 -49t-20 -39q-52 -4 -86 -4h-114q-90 0 -98 9t-8 40t6 43q40 8 100 16v384l-350 716q-75 9 -109 18q-6 12 -6 43t7 38t78 11h121
q105 0 110 -6t7 -20t3 -34q0 -20 -6 -32q-38 -8 -73 -13l275 -563l274 563q-32 5 -72 13q-6 12 -6 43zM844 1449q-123 37 -291 176h-8q-168 -140 -289 -176q-29 18 -42 85q176 104 328 256h16q152 -152 328 -256q-13 -67 -42 -85z" />
    <glyph glyph-name="ycircumflex" unicode="&#x177;" horiz-adv-x="1027" 
d="M192 -340q52 0 101 38q50 38 73 111l60 191l-321 930q-55 7 -98 16q-6 12 -6 43t7 38t78 11h121q105 0 110 -6t7 -20t3 -34q0 -20 -6 -32q-13 -4 -30 -6t-33 -6l-24 -3l257 -746l257 746q-60 9 -87 15q-6 12 -6 43t7 38t78 11h121q105 0 110 -6t7 -20t3 -34q0 -20 -6 -32
q-26 -7 -102 -17l-412 -1199q-74 -208 -276 -208q-98 0 -210 52l3 92q2 24 4 72t2 62t2 21l2 21q36 17 84 9q13 -27 29 -179q39 -12 91 -12zM807 1207q-123 37 -291 176h-8q-168 -140 -289 -176q-29 18 -42 85q176 104 328 256h16q156 -156 328 -256q-13 -67 -42 -85z" />
    <glyph glyph-name="Ydieresis" unicode="&#x178;" horiz-adv-x="1106" 
d="M749 1269q0 31 7 38t78 11h121q105 0 110 -6t7 -20t3 -34q0 -20 -6 -32q-36 -9 -110 -18l-349 -716v-384q60 -8 100 -16q6 -12 6 -49t-20 -39q-52 -4 -86 -4h-114q-90 0 -98 9t-8 40t6 43q40 8 100 16v384l-350 716q-75 9 -109 18q-6 12 -6 43t7 38t78 11h121
q105 0 110 -6t7 -20t3 -34q0 -20 -6 -32q-38 -8 -73 -13l275 -563l274 563q-32 5 -72 13q-6 12 -6 43zM800 1534q0 -34 -26 -60q-26 -25 -62 -25q-36 1 -60 25t-24 60t25 60q25 25 59 25t62 -25q26 -26 26 -60zM477 1534q1 -34 -25 -60t-62 -25q-36 0 -60 25q-25 26 -25 60
q-1 34 25 60t60 25q34 0 62 -25q25 -26 25 -60z" />
    <glyph glyph-name="Zacute" unicode="&#x179;" horiz-adv-x="1033" 
d="M948 0h-858l-5 5l609 1200h-459q-10 -92 -15 -114q-5 -23 -7 -39t-8 -29q-48 -8 -84 9q-3 8 -6 83t-5 105t-2 42v56h763l5 -5l-612 -1200h557q16 148 30 182q48 8 84 -9q13 -78 13 -238v-48zM252 1537q204 91 392 253q36 -20 54 -40t24 -59q-36 -55 -175 -137t-262 -106
q-25 23 -33 89z" />
    <glyph glyph-name="zacute" unicode="&#x17a;" horiz-adv-x="873" 
d="M820 0h-765l-5 5l565 920h-425q-3 -21 -8 -55t-6 -41t-7 -40l-6 -21q-48 -8 -84 9q-1 6 -7 87t-6 144v30h752l5 -6l-565 -919h435q16 148 30 182q48 8 84 -9q13 -78 13 -238v-48zM201 1295q204 91 392 253q37 -20 55 -40t23 -59q-36 -55 -175 -137t-262 -106
q-25 23 -33 89z" />
    <glyph glyph-name="Zdotaccent" unicode="&#x17b;" horiz-adv-x="1033" 
d="M948 0h-858l-5 5l609 1200h-459q-10 -92 -15 -114q-5 -23 -7 -39t-8 -29q-48 -8 -84 9q-3 8 -6 83t-5 105t-2 42v56h763l5 -5l-612 -1200h557q16 148 30 182q48 8 84 -9q13 -78 13 -238v-48zM620 1492q0 -34 -26 -59t-60 -25t-60 25q-25 25 -25 59q-1 34 25 58
q26 26 60 26t60 -25t26 -59z" />
    <glyph glyph-name="zdotaccent" unicode="&#x17c;" horiz-adv-x="873" 
d="M820 0h-765l-5 5l565 920h-425q-3 -21 -8 -55t-6 -41t-7 -40l-6 -21q-48 -8 -84 9q-1 6 -7 87t-6 144v30h752l5 -6l-565 -919h435q16 148 30 182q48 8 84 -9q13 -78 13 -238v-48zM535 1364q0 -34 -26 -59q-27 -25 -61 -25t-59 25t-25 59t26 58q26 26 58 26q34 0 61 -25
q26 -25 26 -59z" />
    <glyph glyph-name="Zcaron" unicode="&#x17d;" horiz-adv-x="1033" 
d="M948 0h-858l-5 5l609 1200h-459q-10 -92 -15 -114q-5 -23 -7 -39t-8 -29q-48 -8 -84 9q-3 8 -6 83t-5 105t-2 42v56h763l5 -5l-612 -1200h557q16 148 30 182q48 8 84 -9q13 -78 13 -238v-48zM200 1749q121 -36 289 -176h8q168 139 291 176q29 -18 42 -85
q-171 -99 -328 -256h-16q-146 148 -328 256q13 67 42 85z" />
    <glyph glyph-name="zcaron" unicode="&#x17e;" horiz-adv-x="873" 
d="M820 0h-765l-5 5l565 920h-425q-3 -21 -8 -55t-6 -41t-7 -40l-6 -21q-48 -8 -84 9q-1 6 -7 87t-6 144v30h752l5 -6l-565 -919h435q16 148 30 182q48 8 84 -9q13 -78 13 -238v-48zM132 1514q121 -36 289 -176h8q168 139 291 176q29 -18 42 -85q-171 -99 -328 -256h-16
q-151 151 -328 256q13 67 42 85z" />
    <glyph glyph-name="florin" unicode="&#x192;" horiz-adv-x="682" 
d="M32 -369q104 -1 156 67t51 228v999h-189v113h189v13q0 217 80 307t224 90q108 0 239 -42q0 -52 -6 -142t-7 -96q-36 -17 -84 -9q-14 29 -29 168q-48 12 -91 12q-110 -1 -161 -67t-51 -221v-13h255v-113h-255v-999q0 -220 -80 -312t-228 -92q-98 0 -212 46l3 92q2 24 4 72
t2 62t2 21l2 21q36 17 84 9q15 -38 33 -206q38 -8 69 -8z" />
    <glyph glyph-name="lbar" unicode="&#x19a;" horiz-adv-x="686" 
d="M495 49q1 -31 -5 -37t-34 -8q-39 -3 -81 -4h-86q-105 0 -110 6t-7 18t-3 34q0 22 6 34q40 8 100 16v627l-177 -63l-38 105l215 77v476q-75 0 -101 6q-6 8 -7 40t4 45q46 15 123 23l50 3q14 1 26 1h19v-553l209 75l38 -105l-247 -89v-668q60 -8 100 -16q6 -12 6 -43z" />
    <glyph glyph-name="Ezh" unicode="&#x1b7;" horiz-adv-x="973" 
d="M465 -20q-97 0 -213 29t-192 80l25 89l11 5q73 -40 180 -67t188 -27q146 0 242 71t95 198q0 79 -39 136t-107 87q-129 57 -310 57h-89v120l414 447h-458q-16 -153 -30 -182q-48 -8 -84 9q-4 12 -8 118q-5 107 -5 168h833l5 -5l-512 -555q209 -4 354 -100t145 -282
t-124 -291t-321 -105z" />
    <glyph glyph-name="Gstroke" unicode="&#x1e4;" horiz-adv-x="1274" 
d="M714 89q135 0 277 92v191h-266v112h266v126h-267v113h380v-239h121v-112h-121v-372h-50l-36 87q-158 -107 -314 -107q-276 0 -440 197t-164 503t177 482t457 176q183 0 331 -50l-3 -104q-1 -63 -5 -135l-3 -52q-2 -24 -2 -25q-36 -17 -84 -9q-10 21 -22 110t-14 138
q-87 18 -162 18q-274 -1 -414 -155t-140 -405t140 -415t358 -165z" />
    <glyph glyph-name="gstroke" unicode="&#x1e5;" horiz-adv-x="1100" 
d="M502 -366q155 0 275 85q60 43 90 97h-659q13 -70 64 -115q75 -67 230 -67zM462 105h-148q-81 -90 -102 -177h679q-11 100 -115 138t-314 39zM763 701q0 95 -71 171q-72 76 -196 76t-195 -75t-71 -171t72 -169q72 -74 196 -74t195 73q70 73 70 169zM116 705q0 147 109 250
t257 103t241 -61q55 50 125 80t120 30l37 -104q-98 -12 -196 -86q68 -89 68 -225q-1 -136 -109 -240q-108 -102 -275 -102q-119 0 -209 52q-44 -51 -44 -90t34 -67t91 -28h235q201 0 310 -91q92 -79 97 -198h73v-112h-94q-39 -99 -149 -178q-163 -116 -349 -116t-295 98
q-89 79 -102 196h-71v112h81q26 103 114 195q-85 50 -85 148q0 99 75 192q-89 95 -89 242z" />
    <glyph glyph-name="Gcaron" unicode="&#x1e6;" horiz-adv-x="1274" 
d="M714 89q135 0 277 92v429h-267v113h380v-723h-50l-36 87q-158 -107 -314 -107q-276 0 -440 197t-164 503t177 482t457 176q183 0 331 -50l-3 -104q-1 -63 -5 -135l-3 -52q-2 -24 -2 -25q-36 -17 -84 -9q-10 21 -22 110t-14 138q-87 18 -162 18q-274 -1 -414 -155
t-140 -405t140 -415t358 -165zM416 1719q121 -36 289 -176h8q168 139 291 176q29 -18 42 -85q-171 -99 -328 -256h-16q-146 148 -328 256q13 67 42 85z" />
    <glyph glyph-name="gcaron" unicode="&#x1e7;" horiz-adv-x="1047" 
d="M204 -128q0 -110 72 -174t226 -64t272 83t118 195q0 113 -124 158q-96 35 -306 35h-148q-110 -123 -110 -233zM763 701q0 95 -71 171q-72 76 -196 76t-195 -75t-71 -171t72 -169q72 -74 196 -74t195 73q70 73 70 169zM116 705q0 147 109 250t257 103t241 -61
q55 50 125 80t120 30l37 -104q-98 -12 -196 -86q68 -89 68 -225q-1 -136 -109 -240q-108 -102 -275 -102q-119 0 -209 52q-44 -51 -44 -90t34 -67t91 -28h235q201 -1 304 -87t103 -211q1 -79 -45 -152t-124 -128q-165 -117 -350 -117q-186 0 -292 94t-106 235q0 140 125 272
q-85 50 -85 148q0 99 75 192q-89 95 -89 242zM202 1489q121 -36 289 -176h8q168 139 291 176q29 -18 42 -85q-171 -99 -328 -256h-16q-151 151 -328 256q13 67 42 85z" />
    <glyph glyph-name="Kcaron" unicode="&#x1e8;" horiz-adv-x="1095" 
d="M387 49q1 -31 -5 -37t-34 -8q-39 -3 -81 -4h-86q-105 0 -110 6t-7 18t-3 34q0 22 6 34q40 8 100 16v1101q-48 6 -100 17q-6 12 -6 43t7 38t78 11h121q105 0 110 -6t7 -20t3 -34q0 -20 -6 -32q-54 -11 -99 -17v-509l434 518q-34 6 -40 8q-6 12 -6 43t8 39t77 10h121
q105 0 110 -6q6 -6 8 -20t2 -34t-6 -32q-34 -7 -142 -22l-425 -509l2 -4q17 -59 97 -161t190 -210t205 -177q50 57 75 70q34 -7 66 -43q-14 -54 -116 -190q-99 42 -238 174q-138 132 -262 286t-160 242v-574q58 -7 99 -16q6 -12 6 -43zM214 1719q121 -36 289 -176h8
q168 139 291 176q29 -18 42 -85q-171 -99 -328 -256h-16q-151 151 -328 256q13 67 42 85z" />
    <glyph glyph-name="kcaron" unicode="&#x1e9;" horiz-adv-x="946" 
d="M411 49q1 -31 -5 -37t-34 -8q-39 -3 -81 -4h-86q-105 0 -110 6t-7 18t-3 34q0 22 6 34q40 8 100 16v1222q-75 0 -101 6q-6 8 -7 40t4 45q46 15 123 23l50 3q14 1 26 1h19v-902l323 386q-52 7 -81 14q-6 12 -6 43t7 38t78 11h121q105 0 110 -6t7 -20t3 -34q0 -20 -6 -32
q-38 -8 -98 -16l-329 -399q12 -14 43 -62q66 -107 164 -201t187 -147q62 76 94 92q34 -7 66 -43q-14 -54 -116 -190q-72 4 -168 78q-170 130 -316 338q-81 114 -83 131v-419q60 -8 100 -16q6 -12 6 -43zM-52 1819q121 -36 289 -176h8q168 139 291 176q29 -18 42 -85
q-171 -99 -328 -256h-16q-146 148 -328 256q13 67 42 85z" />
    <glyph glyph-name="Ezhcaron" unicode="&#x1ee;" horiz-adv-x="973" 
d="M465 -20q-97 0 -213 29t-192 80l25 89l11 5q73 -40 180 -67t188 -27q146 0 242 71t95 198q0 79 -39 136t-107 87q-129 57 -310 57h-89v120l414 447h-458q-16 -153 -30 -182q-48 -8 -84 9q-4 12 -8 118q-5 107 -5 168h833l5 -5l-512 -555q209 -4 354 -100t145 -282
t-124 -291t-321 -105zM214 1719q121 -36 289 -176h8q168 139 291 176q29 -18 42 -85q-171 -99 -328 -256h-16q-151 151 -328 256q13 67 42 85z" />
    <glyph glyph-name="ezhcaron" unicode="&#x1ef;" horiz-adv-x="973" 
d="M465 -300q-97 0 -213 29t-192 80l25 89l11 5q73 -40 180 -67t188 -27q146 0 242 71t95 198q0 79 -39 136t-107 87q-129 57 -310 57h-89v120l414 447h-458q-16 -153 -30 -182q-48 -8 -84 9q-4 12 -8 118q-5 107 -5 168h833l5 -5l-512 -555q209 -4 354 -100t145 -282
t-124 -291t-321 -105zM202 1489q121 -36 289 -176h8q168 139 291 176q29 -18 42 -85q-171 -99 -328 -256h-16q-151 151 -328 256q13 67 42 85z" />
    <glyph glyph-name="AEacute" unicode="&#x1fc;" horiz-adv-x="1495" 
d="M377 436h484l-242 702zM357 49q1 -31 -5 -37t-34 -8q-39 -3 -81 -4h-86q-105 0 -110 6t-7 18t-3 34q0 22 6 34q52 10 105 17l415 1209h878v-48q1 -52 -5 -142t-8 -96q-36 -17 -84 -9q-15 38 -30 182h-588l168 -490h340q14 96 27 113q54 5 83 -9q10 -69 10 -169t-10 -151
q-29 -14 -83 -9q-11 14 -27 113h-302l169 -490h213q16 148 30 182q48 8 84 -9q3 -18 8 -119t5 -116v-51h-434q-105 0 -110 6t-7 18t-3 34q0 22 6 34q53 10 87 14l-75 217h-561l-74 -217l87 -14q6 -12 6 -43zM520 1497q204 91 392 253q36 -20 54 -40t24 -59
q-36 -55 -175 -137t-262 -106q-25 23 -33 89z" />
    <glyph glyph-name="Oslashacute" unicode="&#x1fe;" horiz-adv-x="1410" 
d="M712 89q222 0 352 156t130 407q0 168 -61 302t-173 204l-383 -1052q66 -17 135 -17zM216 667q0 -175 67 -311t190 -207l385 1057q-74 23 -154 23q-224 1 -356 -157t-132 -405zM1310 664q0 -300 -164 -492t-446 -192q-86 0 -161 21l-76 -208l-105 39l76 209
q-158 80 -246 245t-88 370q0 296 170 489t439 193q100 0 187 -28l50 138l105 -39l-53 -144q148 -85 230 -243t82 -358zM540 1539q204 91 392 253q36 -20 54 -40t24 -59q-36 -55 -175 -137t-262 -106q-25 23 -33 89z" />
    <glyph glyph-name="oslashacute" unicode="&#x1ff;" 
d="M572 89q162 0 255 119t93 306q0 256 -158 374l-286 -786q42 -13 96 -13zM214 526q0 -123 42 -221t119 -155l286 787q-43 12 -94 12q-165 0 -259 -120t-94 -303zM1034 522q0 -230 -132 -386t-339 -156q-63 0 -125 17l-74 -204l-105 39l76 210q-111 66 -173 193t-62 281
q0 232 132 387t339 155q68 0 128 -18l78 216l105 -39l-81 -222q109 -68 171 -193t62 -280zM332 1295q204 91 392 253q36 -20 54 -40t24 -59q-36 -55 -175 -137t-262 -106q-25 23 -33 89z" />
    <glyph glyph-name="uni023D" unicode="&#x23d;" horiz-adv-x="1069" 
d="M1009 0h-720q-105 0 -110 6t-7 18t-3 34q0 22 6 34q40 8 100 16v627l-177 -63l-38 105l215 77v355q-48 6 -100 17q-6 12 -6 43t7 38t78 11h121q105 0 110 -6t7 -20t3 -34q0 -20 -6 -32q-54 -11 -99 -17v-314l208 75l38 -105l-246 -88v-664h491q20 166 31 182q55 5 84 -9
q8 -8 13 -201v-85z" />
    <glyph glyph-name="ezh" unicode="&#x292;" horiz-adv-x="973" 
d="M465 -300q-97 0 -213 29t-192 80l25 89l11 5q73 -40 180 -67t188 -27q146 0 242 71t95 198q0 79 -39 136t-107 87q-129 57 -310 57h-89v120l414 447h-458q-16 -153 -30 -182q-48 -8 -84 9q-4 12 -8 118q-5 107 -5 168h833l5 -5l-512 -555q209 -4 354 -100t145 -282
t-124 -291t-321 -105z" />
    <glyph glyph-name="circumflex" unicode="&#x2c6;" horiz-adv-x="872" 
d="M730 1207q-123 37 -291 176h-8q-168 -140 -289 -176q-29 18 -42 85q176 104 328 256h16q156 -156 328 -256q-13 -67 -42 -85z" />
    <glyph glyph-name="caron" unicode="&#x2c7;" horiz-adv-x="872" 
d="M142 1399q121 -36 289 -176h8q168 139 291 176q29 -18 42 -85q-171 -99 -328 -256h-16q-146 148 -328 256q13 67 42 85z" />
    <glyph glyph-name="breve" unicode="&#x2d8;" horiz-adv-x="878" 
d="M445 1171q175 0 269 113q64 -36 64 -84q-54 -68 -146 -105t-192 -37t-190 36q-91 36 -150 106q5 61 61 88q41 -54 118 -86t166 -31z" />
    <glyph glyph-name="dotaccent" unicode="&#x2d9;" horiz-adv-x="371" 
d="M271 1364q0 -34 -26 -59q-27 -25 -61 -25t-59 25t-25 59t26 58q26 26 58 26q34 0 61 -25q26 -25 26 -59z" />
    <glyph glyph-name="ring" unicode="&#x2da;" horiz-adv-x="601" 
d="M211 1257q0 -37 26 -63q25 -26 63 -26t64 27t26 62t-27 62t-63 27t-62 -26q-27 -26 -27 -63zM100 1257q0 81 58 139t141 58q82 0 142 -58t60 -139t-60 -140t-142 -59q-83 0 -141 60t-58 139z" />
    <glyph glyph-name="ogonek" unicode="&#x2db;" horiz-adv-x="597" 
d="M212 -230q0 -54 38 -81q38 -26 92 -26t141 46l7 -5v-99q-72 -51 -164 -51t-162 56q-68 56 -68 160t84 187t209 137l28 -94q-95 -44 -150 -110t-55 -120z" />
    <glyph glyph-name="tilde" unicode="&#x2dc;" horiz-adv-x="891" 
d="M716 1112q-65 -50 -147 -51q-83 -1 -183 77q-34 26 -70 27t-72 -31t-37 -73q-64 -12 -107 27q10 82 80 134t140 52t139 -52q1 0 14 -10t15 -12q38 -30 77 -30t79 30t40 72q60 10 107 -27q-10 -83 -75 -133z" />
    <glyph glyph-name="hungarumlaut" unicode="&#x2dd;" horiz-adv-x="971" 
d="M467 1187q169 154 293 361q76 -11 105 -70q-12 -40 -63 -109t-127 -142t-150 -114q-31 11 -58 74zM107 1187q169 154 293 361q40 -6 64 -21t41 -49q-20 -66 -125 -186t-214 -179q-30 10 -59 74z" />
    <glyph glyph-name="Ygrave" unicode="&#x1ef2;" horiz-adv-x="1106" 
d="M749 1269q0 31 7 38t78 11h121q105 0 110 -6t7 -20t3 -34q0 -20 -6 -32q-36 -9 -110 -18l-349 -716v-384q60 -8 100 -16q6 -12 6 -49t-20 -39q-52 -4 -86 -4h-114q-90 0 -98 9t-8 40t6 43q40 8 100 16v384l-350 716q-75 9 -109 18q-6 12 -6 43t7 38t78 11h121
q105 0 110 -6t7 -20t3 -34q0 -20 -6 -32q-38 -8 -73 -13l275 -563l274 563q-32 5 -72 13q-6 12 -6 43zM387 1790q189 -163 392 -253q-8 -66 -33 -89q-122 23 -262 106t-175 137q5 39 23 59t55 40z" />
    <glyph glyph-name="ygrave" unicode="&#x1ef3;" horiz-adv-x="1027" 
d="M192 -340q52 0 101 38q50 38 73 111l60 191l-321 930q-55 7 -98 16q-6 12 -6 43t7 38t78 11h121q105 0 110 -6t7 -20t3 -34q0 -20 -6 -32q-13 -4 -30 -6t-33 -6l-24 -3l257 -746l257 746q-60 9 -87 15q-6 12 -6 43t7 38t78 11h121q105 0 110 -6t7 -20t3 -34q0 -20 -6 -32
q-26 -7 -102 -17l-412 -1199q-74 -208 -276 -208q-98 0 -210 52l3 92q2 24 4 72t2 62t2 21l2 21q36 17 84 9q13 -27 29 -179q39 -12 91 -12zM356 1548q189 -163 392 -253q-8 -66 -33 -89q-122 23 -262 106t-175 137q6 39 24 59t54 40z" />
    <glyph glyph-name="endash" unicode="&#x2013;" horiz-adv-x="1101" 
d="M75 638h951v-112h-951v112z" />
    <glyph glyph-name="emdash" unicode="&#x2014;" horiz-adv-x="1250" 
d="M75 638h1100v-112h-1100v112z" />
    <glyph glyph-name="quoteleft" unicode="&#x2018;" horiz-adv-x="376" 
d="M188 1141q-34 -1 -61 23t-27 77t45 115t99 92l32 -41q-37 -63 -37 -98t34 -82q1 -35 -25 -61t-60 -25z" />
    <glyph glyph-name="quoteright" unicode="&#x2019;" horiz-adv-x="376" 
d="M188 1448q34 0 61 -24t27 -76q0 -54 -45 -116t-99 -91l-32 41q37 63 37 98t-34 82q-1 34 25 60t60 26z" />
    <glyph glyph-name="quotesinglbase" unicode="&#x201a;" horiz-adv-x="376" 
d="M188 148q34 0 61 -24t27 -76q0 -54 -45 -116t-99 -91l-32 41q38 65 38 99t-35 81q-1 34 25 60t60 26z" />
    <glyph glyph-name="quotedblleft" unicode="&#x201c;" horiz-adv-x="624" 
d="M436 1141q-34 -1 -61 23t-27 77t45 115t99 92l32 -41q-37 -63 -37 -98t34 -82q1 -35 -25 -61t-60 -25zM186 1141q-34 -1 -60 23t-26 77t44 115t99 92l33 -41q-38 -63 -38 -99t34 -81q0 -35 -26 -61t-60 -25z" />
    <glyph glyph-name="quotedblright" unicode="&#x201d;" horiz-adv-x="624" 
d="M437 1448q35 0 61 -24t26 -76t-44 -115t-99 -92l-33 41q38 62 38 98t-34 82q0 34 26 60t59 26zM188 1448q34 0 61 -24t27 -76q0 -54 -45 -116t-99 -91l-32 41q37 63 37 98t-34 82q-1 34 25 60t60 26z" />
    <glyph glyph-name="quotedblbase" unicode="&#x201e;" horiz-adv-x="624" 
d="M438 148q34 0 60 -24t26 -76q0 -54 -44 -116t-99 -91l-33 41q38 62 38 98t-34 82q0 34 26 60t60 26zM188 148q34 0 61 -24t27 -76q0 -54 -45 -116t-99 -91l-32 41q37 63 37 98t-34 82q-1 34 25 60t60 26z" />
    <glyph glyph-name="dagger" unicode="&#x2020;" horiz-adv-x="880" 
d="M378 52v784h114v-784q0 -156 -25 -320h-62q-27 168 -27 320zM100 1038h680v-112h-680v112zM492 1128h-114q0 152 27 320h62q25 -164 25 -320z" />
    <glyph glyph-name="daggerdbl" unicode="&#x2021;" horiz-adv-x="880" 
d="M378 -90h114q0 -156 -25 -320h-62q-27 168 -27 320zM100 112h680v-112h-680v112zM492 836q0 -156 -25 -317q25 -161 25 -317h-114q0 149 26 317q-26 168 -26 317h114zM100 1038h680v-112h-680v112zM492 1128h-114q0 152 27 320h62q25 -164 25 -320z" />
    <glyph glyph-name="bullet" unicode="&#x2022;" horiz-adv-x="789" 
d="M120 518q0 110 80 192t194 82t194 -80t81 -194q0 -112 -81 -193q-80 -81 -194 -81t-194 82t-80 192z" />
    <glyph glyph-name="ellipsis" unicode="&#x2026;" horiz-adv-x="1113" 
d="M1013 64q0 -34 -26 -59q-27 -25 -61 -25t-59 25t-25 59t26 58q26 26 58 26q34 0 61 -25q26 -25 26 -59zM642 64q0 -34 -26 -59t-60 -25t-60 25q-25 25 -25 59q-1 34 25 58q26 26 60 26t60 -25t26 -59zM271 64q0 -34 -26 -59q-27 -25 -61 -25t-59 25t-25 59t26 58
q26 26 58 26q34 0 61 -25q26 -25 26 -59z" />
    <glyph glyph-name="perthousand" unicode="&#x2030;" horiz-adv-x="2423" 
d="M1994 89q96 1 156 67t60 160t-60 159q-60 66 -153 66q-95 -1 -155 -67t-60 -160t58 -160t154 -65zM1250 89q96 1 156 67t60 160t-60 159q-60 66 -153 66q-95 -1 -155 -67t-60 -160t58 -160t154 -65zM1999 650q143 0 233 -97t91 -238q0 -141 -92 -238t-237 -97t-235 96
t-90 238q-1 142 93 238q94 98 237 98zM1255 650q143 0 233 -97t91 -238q0 -141 -92 -238t-237 -97t-235 96t-90 238q-1 142 93 238q94 98 237 98zM469 230l646 924l92 -65l-646 -924zM425 777q95 1 155 67t61 160t-59 159q-60 66 -154 66q-94 -1 -154 -67t-61 -160
q1 -94 59 -160t153 -65zM430 1338q144 0 234 -97t90 -238t-92 -238t-237 -97t-235 96t-90 238t94 238q94 98 236 98z" />
    <glyph glyph-name="guilsinglleft" unicode="&#x2039;" horiz-adv-x="761" 
d="M641 36l-97 -56l-424 734l424 734l97 -56l-392 -678z" />
    <glyph glyph-name="guilsinglright" unicode="&#x203a;" horiz-adv-x="761" 
d="M512 714l-392 678l97 56l424 -734l-424 -734l-97 56z" />
    <glyph glyph-name="fraction" unicode="&#x2044;" horiz-adv-x="977" 
d="M120 241l646 924l92 -65l-646 -924z" />
    <glyph glyph-name="uni2063" unicode="&#x2063;" horiz-adv-x="600" 
 />
    <glyph glyph-name="Euro" unicode="&#x20ac;" horiz-adv-x="1707" 
d="M854 -19q-268 1 -426 133t-204 357h-174l-4 4l40 108h122q-2 24 -2 37v37q0 44 3 86h-159l-4 4l40 108h141q53 233 221 358t405 125q164 0 284 -43l-3 -90q-1 -53 -5 -110l-3 -42l-2 -21q-36 -17 -84 -9q-16 32 -32 194q-64 12 -132 12q-218 0 -352 -98t-179 -276h654
l4 -4l-40 -108h-636q-4 -35 -4 -79t3 -81h577l4 -4l-40 -108h-523q43 -180 176 -281t359 -101q69 0 129 9q20 171 32 197q48 8 84 -9l2 -21l3 -43q4 -60 5 -112l3 -92q-126 -37 -283 -37z" />
    <glyph glyph-name="trademark" unicode="&#x2122;" horiz-adv-x="1404" 
d="M980 1005l169 332h142l3 -659h-117l-3 488l-153 -298h-85l-154 300l-2 -490h-117l2 659h145l168 -332h2zM45 1337h525v-112h-204v-547h-117v547h-204v112z" />
    <glyph glyph-name="estimated" unicode="&#x212e;" horiz-adv-x="1712" 
d="M410 713h904v338q-110 111 -210 157t-246 47q-146 -3 -244 -49t-204 -155v-338zM410 627v-366q174 -196 460 -196q146 0 254 48t197 155h153v-55q-222 -233 -619 -233q-211 0 -385 84t-277 240t-103 358q0 200 102 356t280 238q176 82 396 83q220 -1 391 -89t267 -250
t96 -373h-1212z" />
    <glyph glyph-name="minus" unicode="&#x2212;" horiz-adv-x="1030" 
d="M120 622h790v-112h-790v112z" />
    <glyph glyph-name="approxequal" unicode="&#x2248;" horiz-adv-x="1031" 
d="M829 285q-71 -58 -169 -58t-174 68q-51 43 -76 55t-51 13q-55 1 -94 -45t-39 -99q-60 -12 -106 31q12 96 84 159t140 63q70 0 110 -25t90 -68t109 -43q58 0 104 43t46 93q60 12 108 -31q-12 -97 -82 -156zM829 592q-71 -58 -169 -58t-174 68q-51 44 -76 56t-51 12
q-55 0 -94 -46t-39 -98q-60 -12 -106 31q12 96 84 159t140 63q70 0 110 -25t90 -68t109 -43q58 0 104 43t46 93q60 12 108 -31q-12 -97 -82 -156z" />
    <glyph glyph-name="notequal" unicode="&#x2260;" horiz-adv-x="1030" 
d="M910 634h-251l-167 -238h418v-112h-496l-186 -266l-92 65l141 201h-157v112h235l166 238h-401v112h480l182 261l92 -65l-137 -196h173v-112z" />
    <glyph glyph-name="lessequal" unicode="&#x2264;" horiz-adv-x="1030" 
d="M120 112h790v-112h-790v112zM829 324l-64 -92l-590 413l590 413l64 -92l-459 -321z" />
    <glyph glyph-name="greaterequal" unicode="&#x2265;" horiz-adv-x="1030" 
d="M120 112h790v-112h-790v112zM695 645l-459 321l64 92l590 -413l-590 -413l-64 92z" />
    <glyph glyph-name="f.ss01" horiz-adv-x="682" 
d="M353 -22q0 -206 -46 -436h-105l-9 8q12 41 29 184t17 244v947h-189v113h189v12q0 218 81 308t223 90q101 0 239 -41q0 -52 -6 -142t-7 -96q-36 -17 -84 -9q-14 29 -29 168q-52 11 -91 11q-110 -1 -161 -67t-51 -222v-12h255v-113h-255v-947z" />
    <glyph glyph-name="g.ss01" horiz-adv-x="1135" 
d="M566 89q174 0 265 127v679q-130 54 -223 54q-176 0 -283 -112t-107 -305t82 -310q92 -133 266 -133zM530 -365q128 -1 214 73t87 231v151q-129 -110 -292 -110q-199 0 -319 160t-120 395t129 379t386 144q112 0 225 -33l102 33h3v-1119q0 -219 -111 -318
q-110 -99 -298 -99t-390 106l3 92l3 72t4 62q0 14 1 21l2 21q36 17 84 9q9 -26 20 -108t13 -109q126 -53 254 -53z" />
    <glyph glyph-name="g.ss02" horiz-adv-x="1154" 
d="M551 -20q-338 0 -338 -138q0 -66 96 -136t238 -70q303 0 303 324v130q-129 -110 -299 -110zM584 89q174 0 266 127v679q-130 54 -222 54q-176 0 -284 -112t-107 -305q0 -193 82 -310q91 -133 265 -133zM964 1058v-1098q0 -206 -102 -322t-304 -116t-330 98t-128 219
q0 71 54 131t160 87q-92 68 -144 198t-51 280q0 235 129 379t386 144q115 0 225 -34l97 34h8z" />
    <glyph glyph-name="zero.osf" horiz-adv-x="1172" 
d="M217 526q-1 -186 97 -312q98 -125 275 -125q177 1 271 119t95 306q-1 188 -95 312t-271 123t-275 -119t-97 -304zM100 520q0 230 136 384t354 154q220 0 351 -154t131 -383t-135 -385t-355 -156t-350 155q-132 155 -132 385z" />
    <glyph glyph-name="one.osf" horiz-adv-x="614" 
d="M534 49q0 -31 -6 -37t-34 -8q-38 -4 -80 -4h-86q-105 0 -110 6q-6 6 -8 18t-2 34t6 34q40 8 100 16v773q-129 -46 -264 -46v109q104 0 160 20t136 74h82v-930q60 -8 100 -16q6 -12 6 -43z" />
    <glyph glyph-name="two.osf" horiz-adv-x="897" 
d="M433 1058q188 0 277 -98q73 -80 73 -195q-1 -115 -93 -249t-217 -240t-236 -163h433q16 148 30 182q48 8 84 -9q3 -8 8 -111t5 -119v-56h-767v113q143 68 290 174q146 105 246 233t100 248q0 180 -223 180q-125 0 -255 -69q-20 -177 -33 -210q-48 -8 -84 9
q-13 78 -13 238q187 142 375 142z" />
    <glyph glyph-name="three.osf" horiz-adv-x="989" 
d="M780 923q60 -73 60 -187q0 -209 -168 -313q238 -79 238 -339q0 -133 -68 -220q-68 -88 -170 -126t-202 -38q-99 0 -216 29t-194 80l3 92q1 23 3 71t4 64q0 14 1 20l2 21q36 17 84 9q4 -9 18 -81t16 -143q153 -53 289 -53q136 -1 228 73t93 204q0 130 -132 199
q-114 59 -314 59h-89v120h133q123 0 223 66t100 186q0 118 -82 176t-188 57q-106 0 -216 -40q-15 -149 -32 -199q-48 -8 -84 9q-2 6 -8 93t-5 145q170 101 366 101q197 0 307 -135z" />
    <glyph glyph-name="four.osf" horiz-adv-x="959" 
d="M659 131v725l-494 -725h494zM774 1038v-907h135v-112h-135v-299h-115v299h-629v112l617 907h127z" />
    <glyph glyph-name="five.osf" horiz-adv-x="977" 
d="M470 -187q133 0 221 88q88 87 88 237q-1 150 -131 212t-427 63h-78l68 625h623v-113h-526l-44 -400q178 0 312 -22t218 -100q104 -96 104 -289q0 -194 -132 -304t-308 -110q-86 0 -193 25t-185 78l3 92q1 23 3 71t4 64q0 14 1 20l2 21q36 17 84 9q13 -33 21 -103t10 -92
t3 -25q126 -47 259 -47z" />
    <glyph glyph-name="six.osf" horiz-adv-x="1009" 
d="M216 466q0 -176 88 -277t216 -101q126 0 198 97t72 225t-82 208t-194 80q-114 0 -292 -115q-6 -45 -6 -117zM528 807q167 0 274 -112t107 -271q0 -98 -42 -200t-133 -173t-240 -71q-198 0 -296 135t-98 354t79 415t248 326q169 128 427 128v-111q-234 0 -398 -143
t-213 -385q118 108 285 108z" />
    <glyph glyph-name="seven.osf" horiz-adv-x="831" 
d="M60 1038h741l-532 -1318h-123l486 1205h-441q-7 -83 -18 -147q-12 -64 -16 -74q-48 -8 -84 9q-13 78 -13 238v87z" />
    <glyph glyph-name="eight.osf" horiz-adv-x="1029" 
d="M198 327q0 -107 94 -171t221 -64t223 64t95 172q0 108 -99 188q-53 43 -218 124q-157 -74 -219 -125q-97 -80 -97 -188zM772 1007q0 100 -78 159t-180 59q-102 -1 -180 -59t-77 -159q0 -101 77 -170q56 -52 180 -108q127 56 183 109q75 69 75 169zM890 999
q0 -106 -54 -179t-159 -132q123 -57 197 -138t75 -211q0 -171 -129 -265q-128 -94 -306 -94t-306 95t-128 264q0 132 89 228q65 68 183 121q-104 58 -158 132t-55 179q0 157 110 248t263 91q154 0 266 -90t112 -249z" />
    <glyph glyph-name="nine.osf" horiz-adv-x="1009" 
d="M793 572q-1 176 -89 277t-215 101t-199 -97t-71 -225q0 -128 82 -208t197 -80t289 115q6 45 6 117zM140 -189q238 0 406 142t220 386q-68 -62 -138 -85t-157 -23q-155 0 -263 113t-108 270q0 92 41 196t133 176t238 72q198 0 298 -135t99 -349q0 -214 -81 -414
q-81 -202 -254 -331t-434 -129v111z" />
    <glyph glyph-name="zero.tf" horiz-adv-x="1117" 
d="M556 89q172 -1 258 133t86 440t-87 437q-87 130 -259 130t-254 -135q-82 -136 -83 -426q0 -290 83 -434q84 -144 256 -145zM553 -20q-170 0 -279 111q-174 174 -174 580q0 329 119 498t334 169q464 0 464 -684q-5 -336 -127 -505t-337 -169z" />
    <glyph glyph-name="one.tf" horiz-adv-x="684" 
d="M584 49q0 -31 -6 -37t-34 -8q-38 -4 -80 -4h-86q-105 0 -110 6q-6 6 -8 18t-2 34t6 34q40 8 100 16v1053q-129 -46 -264 -46v109q104 0 160 20t136 74h82v-1210q60 -8 100 -16q6 -12 6 -43z" />
    <glyph glyph-name="two.tf" horiz-adv-x="1048" 
d="M948 0h-848v113q13 11 93 71q79 60 205 172t236 245q182 221 183 396q0 118 -80 175t-195 57t-236 -50q-18 -163 -31 -195q-48 -8 -84 9q-13 78 -13 238q172 107 357 107t292 -82t107 -252t-96 -330q-96 -158 -228 -288t-313 -273h524q16 148 30 182q48 8 84 -9
q13 -78 13 -238v-48z" />
    <glyph glyph-name="three.tf" horiz-adv-x="1050" 
d="M820 1203q60 -73 60 -187q0 -209 -168 -313q238 -79 238 -339q0 -133 -68 -220q-68 -88 -170 -126t-202 -38q-99 0 -216 29t-194 80l3 92q1 23 3 71t4 64q0 14 1 20l2 21q36 17 84 9q19 -58 34 -225q149 -52 287 -52q138 -1 230 73t93 204q0 130 -132 199
q-114 59 -314 59h-89v120h133q123 0 223 66t100 186q0 118 -82 176t-188 57q-106 0 -216 -40q-15 -149 -32 -199q-48 -8 -84 9q-2 6 -8 93t-5 145q170 101 366 101q197 0 307 -135z" />
    <glyph glyph-name="four.tf" horiz-adv-x="1079" 
d="M729 411v725l-494 -725h494zM844 1318v-907h135v-112h-135v-299h-115v299h-629v112l617 907h127z" />
    <glyph glyph-name="five.tf" horiz-adv-x="1018" 
d="M490 93q133 0 221 88q88 87 88 237q-1 150 -131 212t-427 63h-78l68 625h623v-113h-526l-44 -400q178 0 312 -22t218 -100q104 -96 104 -289q0 -194 -132 -304t-308 -110q-86 0 -193 25t-185 78l3 92q1 23 3 71t4 64q0 14 1 20l2 21q36 17 84 9q13 -35 34 -220
q126 -47 259 -47z" />
    <glyph glyph-name="six.tf" horiz-adv-x="1009" 
d="M216 466q0 -176 88 -277t216 -101q126 0 198 97t72 225t-82 208t-194 80q-114 0 -292 -115q-6 -45 -6 -117zM528 807q167 0 274 -112t107 -271q0 -98 -42 -200t-133 -173t-240 -71q-198 0 -296 135t-98 354t79 415t248 326q169 128 427 128v-111q-234 0 -398 -143
t-213 -385q118 108 285 108z" />
    <glyph glyph-name="seven.tf" horiz-adv-x="941" 
d="M100 1318h741l-532 -1318h-123l486 1205h-441q-7 -83 -18 -147q-12 -64 -16 -74q-48 -8 -84 9q-13 78 -13 238v87z" />
    <glyph glyph-name="eight.tf" horiz-adv-x="1069" 
d="M218 327q0 -107 94 -171t221 -64t223 64t95 172q0 108 -99 188q-53 43 -218 124q-157 -74 -219 -125q-97 -80 -97 -188zM792 1007q0 100 -78 159t-180 59q-102 -1 -180 -59t-77 -159q0 -101 77 -170q56 -52 180 -108q127 56 183 109q75 69 75 169zM910 999
q0 -106 -54 -179t-159 -132q123 -57 197 -138t75 -211q0 -171 -129 -265q-128 -94 -306 -94t-306 95t-128 264q0 132 89 228q65 68 183 121q-104 58 -158 132t-55 179q0 157 110 248t263 91q154 0 266 -90t112 -249z" />
    <glyph glyph-name="nine.tf" horiz-adv-x="1009" 
d="M793 852q-1 176 -89 277t-215 101t-199 -97t-71 -225q0 -128 82 -208t197 -80t289 115q6 45 6 117zM140 91q238 0 406 142t220 386q-68 -62 -138 -85t-157 -23q-155 0 -263 113t-108 270q0 92 41 196t133 176t238 72q198 0 298 -135t99 -349q0 -214 -81 -414
q-81 -202 -254 -331t-434 -129v111z" />
    <glyph glyph-name="zero.tosf" horiz-adv-x="1172" 
d="M217 526q-1 -186 97 -312q98 -125 275 -125q177 1 271 119t95 306q-1 188 -95 312t-271 123t-275 -119t-97 -304zM100 520q0 230 136 384t354 154q220 0 351 -154t131 -383t-135 -385t-355 -156t-350 155q-132 155 -132 385z" />
    <glyph glyph-name="one.tosf" horiz-adv-x="684" 
d="M584 49q0 -31 -6 -37t-34 -8q-38 -4 -80 -4h-86q-105 0 -110 6q-6 6 -8 18t-2 34t6 34q40 8 100 16v773q-129 -46 -264 -46v109q104 0 160 20t136 74h82v-930q60 -8 100 -16q6 -12 6 -43z" />
    <glyph glyph-name="two.tosf" horiz-adv-x="967" 
d="M503 1058q188 0 277 -98q73 -80 73 -195q-1 -115 -93 -249t-217 -240t-236 -163h433q16 148 30 182q48 8 84 -9q3 -8 8 -111t5 -119v-56h-767v113q143 68 290 174q146 105 246 233t100 248q0 180 -223 180q-125 0 -255 -69q-20 -177 -33 -210q-48 -8 -84 9
q-13 78 -13 238q187 142 375 142z" />
    <glyph glyph-name="three.tosf" horiz-adv-x="1050" 
d="M820 923q60 -73 60 -187q0 -209 -168 -313q238 -79 238 -339q0 -133 -68 -220q-68 -88 -170 -126t-202 -38q-99 0 -216 29t-194 80l3 92q1 23 3 71t4 64q0 14 1 20l2 21q36 17 84 9q4 -9 18 -81t16 -143q153 -53 289 -53q136 -1 228 73t93 204q0 130 -132 199
q-114 59 -314 59h-89v120h133q123 0 223 66t100 186q0 118 -82 176t-188 57q-106 0 -216 -40q-15 -149 -32 -199q-48 -8 -84 9q-2 6 -8 93t-5 145q170 101 366 101q197 0 307 -135z" />
    <glyph glyph-name="four.tosf" horiz-adv-x="1079" 
d="M729 131v725l-494 -725h494zM844 1038v-907h135v-112h-135v-299h-115v299h-629v112l617 907h127z" />
    <glyph glyph-name="five.tosf" horiz-adv-x="1018" 
d="M490 -187q133 0 221 88q88 87 88 237q-1 150 -131 212t-427 63h-78l68 625h623v-113h-526l-44 -400q178 0 312 -22t218 -100q104 -96 104 -289q0 -194 -132 -304t-308 -110q-86 0 -193 25t-185 78l3 92q1 23 3 71t4 64q0 14 1 20l2 21q36 17 84 9q13 -33 21 -103t10 -92
t3 -25q126 -47 259 -47z" />
    <glyph glyph-name="six.tosf" horiz-adv-x="1009" 
d="M216 466q0 -176 88 -277t216 -101q126 0 198 97t72 225t-82 208t-194 80q-114 0 -292 -115q-6 -45 -6 -117zM528 807q167 0 274 -112t107 -271q0 -98 -42 -200t-133 -173t-240 -71q-198 0 -296 135t-98 354t79 415t248 326q169 128 427 128v-111q-234 0 -398 -143
t-213 -385q118 108 285 108z" />
    <glyph glyph-name="seven.tosf" horiz-adv-x="941" 
d="M100 1038h741l-532 -1318h-123l486 1205h-441q-7 -83 -18 -147q-12 -64 -16 -74q-48 -8 -84 9q-13 78 -13 238v87z" />
    <glyph glyph-name="eight.tosf" horiz-adv-x="1069" 
d="M218 327q0 -107 94 -171t221 -64t223 64t95 172q0 108 -99 188q-53 43 -218 124q-157 -74 -219 -125q-97 -80 -97 -188zM792 1007q0 100 -78 159t-180 59q-102 -1 -180 -59t-77 -159q0 -101 77 -170q56 -52 180 -108q127 56 183 109q75 69 75 169zM910 999
q0 -106 -54 -179t-159 -132q123 -57 197 -138t75 -211q0 -171 -129 -265q-128 -94 -306 -94t-306 95t-128 264q0 132 89 228q65 68 183 121q-104 58 -158 132t-55 179q0 157 110 248t263 91q154 0 266 -90t112 -249z" />
    <glyph glyph-name="nine.tosf" horiz-adv-x="1009" 
d="M793 572q-1 176 -89 277t-215 101t-199 -97t-71 -225q0 -128 82 -208t197 -80t289 115q6 45 6 117zM140 -189q238 0 406 142t220 386q-68 -62 -138 -85t-157 -23q-155 0 -263 113t-108 270q0 92 41 196t133 176t238 72q198 0 298 -135t99 -349q0 -214 -81 -414
q-81 -202 -254 -331t-434 -129v111z" />
    <glyph glyph-name="null" horiz-adv-x="0" 
 />
    </font>
</defs>
</svg>
