<?xml version="1.0" standalone="no"?>
<!DOCTYPE svg PUBLIC "-//W3C//DTD SVG 1.1//EN" "http://www.w3.org/Graphics/SVG/1.1/DTD/svg11.dtd" >
<svg xmlns="http://www.w3.org/2000/svg">
<metadata>
Created by FontPrep 20130207 at Fri Jun 20 09:25:22 2014
 By Jo De Baerdemaeker
Copyright (c) 2014 by Jo De Baerdemaeker. All rights reserved.
</metadata>
<defs>
<font id="b262c03671f7d8df3a42a9e1ce2be53e" horiz-adv-x='1024' >
  <font-face 
    font-family="FlandersArtSerif-Bold"
    font-weight="700"
    font-stretch="normal"
    units-per-em="2048"
    panose-1="0 0 8 0 0 0 0 0 0 0"
    ascent="1536"
    descent="-512"
    x-height="1038"
    cap-height="1318"
    bbox="-200 -674 5529 1964"
    underline-thickness="50"
    underline-position="-155"
    unicode-range="U+000D-FB02"
  />
<missing-glyph horiz-adv-x="600" 
 />
    <glyph glyph-name="fi" unicode="fi" horiz-adv-x="1363" 
d="M197 1038v5q0 279 206 359q118 46 323 46q86 0 224 -13t220 -32q0 -213 -23 -302q-45 -15 -103 -20t-95 2q-34 52 -53 120q-72 6 -126 6q-254 0 -267 -171h689v-809q78 -12 121 -26q10 -19 10 -101q1 -82 -17 -92t-211 -10h-135q-186 0 -204 10t-17 92q0 82 10 101
q60 20 137 30v581h-383v-585q78 -12 121 -26q10 -19 10 -101t-18 -92t-210 -10h-135q-185 0 -203 10t-18 92t10 101q60 20 137 30v581h-147v224h147z" />
    <glyph glyph-name="fl" unicode="fl" horiz-adv-x="1363" 
d="M770 1209q-254 0 -267 -171h383v166q-85 5 -116 5zM197 1038v5q0 279 206 359q118 46 323 46q102 0 242 -15q115 15 186 15h38v-1219q78 -12 121 -26q10 -19 10 -101q1 -82 -17 -92t-211 -10h-135q-186 0 -204 10t-17 92q0 82 10 101q60 20 137 30v581h-383v-585
q78 -12 121 -26q10 -19 10 -101t-18 -92t-210 -10h-135q-185 0 -203 10t-18 92t10 101q60 20 137 30v581h-147v224h147z" />
    <glyph glyph-name="f_f_i" unicode="ffi" horiz-adv-x="2052" 
d="M886 1038v5q0 88 20 157q-65 9 -136 9q-254 0 -267 -171h383zM771 1448q147 0 350 -35q111 35 245 35q299 0 493 -45q0 -213 -23 -302q-44 -15 -102 -20t-96 2q-34 52 -53 120q-72 6 -126 6q-254 0 -267 -171h689v-809q78 -12 121 -26q10 -19 10 -101t-18 -92t-210 -10
h-135q-185 0 -203 10t-18 92t10 101q60 20 137 30v581h-383v-585q78 -12 121 -26q10 -19 10 -101q1 -82 -17 -92t-211 -10h-135q-186 0 -204 10t-17 92q0 82 10 101q60 20 137 30v581h-383v-585q78 -12 121 -26q10 -19 10 -101t-18 -92t-210 -10h-135q-185 0 -203 10t-18 92
t10 101q60 20 137 30v581h-147v224h147v5q0 279 206 359q69 26 145 36t223 10z" />
    <glyph glyph-name="f_f_l" unicode="ffl" horiz-adv-x="2034" 
d="M1441 1209q-254 0 -267 -171h383v166q-85 5 -116 5zM868 1038v5q0 91 21 159q-53 7 -119 7q-254 0 -267 -171h365zM197 1038v5q0 279 206 359q118 46 315 46t392 -33q110 33 250 33t279 -15q115 15 186 15h38v-1219q78 -12 121 -26q10 -19 10 -101t-18 -92t-210 -10h-135
q-185 0 -203 10t-18 92t10 101q60 20 137 30v581h-383v-585q78 -12 121 -26q10 -19 10 -101q1 -82 -17 -92t-211 -10h-135q-186 0 -204 10t-17 92q0 82 10 101q60 20 137 30v581h-365v-585q78 -12 121 -26q10 -19 10 -101t-18 -92t-210 -10h-135q-185 0 -203 10t-18 92
t10 101q60 20 137 30v581h-147v224h147z" />
    <glyph glyph-name="LOGOFL" unicode="fl&#x2a;" horiz-adv-x="5545" 
d="M2451 -77q72 0 72 64v22q-65 0 -84 -5q-31 -6 -31 -34t15 -38t28 -9zM4458 49q0 75 -54 75q-57 0 -71 -75h125zM3253 26q0 -41 22 -74q24 -29 62 -29t61 28q19 28 19 72q0 45 -21 73q-20 28 -60 28t-62 -28t-21 -70zM2933 124q-61 0 -72 -75h125q-4 40 -13 54
q-9 21 -40 21zM5004 -108v265h27l9 -31q30 36 60 36t48 -9l-12 -35q-20 6 -44 6t-49 -34v-198h-39zM4292 22q0 140 114 140q91 0 91 -113v-36h-166q3 -45 29 -67t57 -23q32 0 72 20l1 -1v-36q-38 -19 -83 -19q-45 -1 -80 35t-35 100zM3214 24q0 56 36 97t88 41t84 -40
q34 -40 34 -100t-34 -97q-34 -38 -86 -38t-88 40q-34 41 -34 97zM2934 162q91 0 91 -113v-36h-166q3 -44 29 -67t58 -23q34 0 71 20l1 -1v-36q-38 -19 -83 -19q-45 -1 -80 35t-35 102t29 102t85 36zM2536 -76q-24 -37 -84 -37q-28 0 -54 15q-30 26 -30 68q0 75 102 75l53 -2
v31q0 50 -50 50q-40 0 -80 -18l-9 34q44 22 97 22q81 0 81 -88v-84q0 -53 36 -66l-22 -37q-25 8 -40 37zM4814 185l-61 -178h123zM5237 -10q0 -67 49 -67q20 0 48 15l11 -36q-37 -15 -69 -15t-56 25q-23 25 -23 78v130h-29v37h29v47l39 6h1v-53h74v-37h-74v-130zM3875 -10
q0 -67 47 -67q20 0 50 15l11 -36q-37 -15 -68 -15t-56 23q-23 24 -23 80v130h-30v37h30v47l36 6h3v-53h72v-37h-72v-130zM2731 -113q-83 0 -83 103v130h-28v37h28v47l38 6h3v-53h73v-37h-73v-130q0 -67 48 -67q19 0 49 15l11 -36q-37 -15 -66 -15zM2237 -10q0 -67 49 -67
q20 0 48 15l11 -36q-37 -15 -69 -15t-55 24t-23 79v130h-28v37h28v47l38 6h1v-53h74v-37h-74v-130zM4915 -108l-26 78h-149l-26 -78h-41l116 336h51l118 -336h-43zM2043 196q-57 0 -57 -49q0 -27 12 -36t42 -26q65 -26 80 -48q14 -21 14 -61t-37 -64q-33 -25 -75 -25t-75 14
v36l34 -10l41 -4q76 0 76 56q0 31 -30 47q-7 5 -44 25t-57 35q-19 15 -19 59q0 43 28 65t71 22q42 0 65 -8v-34q-51 6 -69 6zM4233 62v-170h-40v168q0 64 -59 64q-22 0 -43 -10t-26 -13v-209h-39v364l36 6h3v-127q86 56 141 3q27 -24 27 -76zM3531 157q0 105 80 105
q26 0 62 -13l-12 -34q-27 9 -48 9q-43 0 -43 -67h61v-37h-61v-228h-39v228h-42v37h42zM570 638q79 -79 23 -321q-37 -155 11 -282q18 -48 53 -85q73 -79 92 -129t10 -69q-19 25 -83 70q-64 44 -99 76q-69 62 -96 178q-27 115 35 293t56 247zM2698 582q31 0 47 13
q31 16 31 61v26h-28q-51 0 -73 -6q-36 -9 -36 -41q0 -53 59 -53zM4090 849q-32 1 -59 -23q-26 -24 -30 -64h169q-4 45 -26 66t-54 21zM3644 853q-40 -1 -74 -35q-33 -34 -33 -91t27 -95t74 -37q47 0 88 25v223q-42 10 -82 10zM542 893q35 -123 -25 -212q-106 -147 -120 -269
q-8 -58 -2 -118q15 -153 -34 -198q-9 -4 -11 -4q-5 6 -1 14q3 8 1 44q-2 35 -22 84q-47 114 -28 226q23 110 101 208q33 42 62 76q75 90 79 149zM4808 854q-68 0 -68 -39q0 -18 28 -31q7 -5 29 -11l25 -9q25 -10 37 -18q56 -30 56 -101q1 -71 -45 -106t-115 -35t-110 28v88
l3 3q62 -28 105 -28q70 0 70 48q0 34 -58 54t-64 23q-56 26 -56 91q-1 63 43 97t96 34t102 -18v-86l-7 -1q-41 17 -71 17zM4512 849q-38 0 -83 -31v-308h-93v422h79l10 -34q51 44 101 44t91 -18l-30 -96q-37 21 -75 21zM3898 722q0 102 58 160q58 60 133 60q88 0 137 -70
q32 -46 32 -123v-62h-257q23 -92 125 -92q58 0 105 26l5 -1v-92q-57 -24 -135 -24q-79 0 -141 58t-62 160zM3210 942q64 0 108 -36q46 -43 46 -114v-282h-94v252q0 42 -30 69q-26 18 -70 18t-87 -26v-313h-96v422h81l10 -33q68 43 132 43zM2543 641q0 113 130 113
q67 0 103 -3v22q0 80 -81 80q-52 0 -112 -30l-24 83q74 36 147 36q72 0 118 -34t46 -107v-155q0 -28 17 -45q15 -10 46 -19l-44 -78q-54 0 -94 42q-39 -26 -55 -34t-53 -8q-144 0 -144 137zM868 954q0 14 17 14t20 4q3 2 5 10t-2 10q-15 3 -28 3t-33 -27q-3 -2 -9 -2t-5 -3
q-7 -27 12 -43t43 -17q24 0 38 13t13 40h-2l-56 -16q-13 0 -13 14zM846 1017q54 1 94 -25q60 -39 60 -133q0 -56 -11 -56q-17 0 -23 19t7 29q-8 20 -52 26q-45 5 -65 11q-41 11 -71 64q-29 52 -45 52q52 13 106 13zM2311 954h-236v-131h226v-92h-226v-221h-94v536h330v-92z
M517 1059q37 -82 -125 -214q-97 -81 -115 -145q-18 -65 -2 -101q-59 29 -73 96q-19 86 88 174q106 89 148 142t37 67l-5 14zM3820 510h-72l-17 33q-49 -39 -125 -39t-122 59t-45 157q0 98 63 160t162 62q24 0 62 -5v155l80 6h14v-588zM2464 510h-96v582l83 6h13v-588z
M1183 -182v-120q-99 0 -193 78t-112 130q-14 28 -14 58t-4 72q-4 40 -4 68q-2 28 -20 68q-18 42 -46 88t-34 60t-18 48t-24 64q-12 31 -64 305q-53 274 -84 360l-8 23h1q33 0 78 -120t55 -162q10 -40 30 -121t50 -222q10 -40 51 -116q41 -75 51 -127t69 -93q23 -16 63 -16
t84 30t52 67q7 20 3 38q-8 59 -52 79q-18 6 -60 28q-13 9 -31 32q-47 62 -12 84q2 2 10 2q8 1 32 -19t38 -22h2l32 8q22 9 36 9t43 -19v-382q-13 0 -55 8t-75 9l-22 -2q-111 -9 -137 -167q-2 -16 0 -19q2 -4 41 -25q39 -20 111 -42t137 -22zM439 1263q29 -71 -14 -139
q-17 -26 -47 -46q-76 -46 -119 -127q-25 119 37 181q35 35 62 52q74 45 81 79zM1890 -615l-7 -4l-735 2114l10 4z" />
    <glyph glyph-name="LOGOVL" unicode="vl&#x2a;" horiz-adv-x="5729" 
d="M4039 -60q0 35 -85 35h-25q-18 -23 -18 -46q0 -46 53 -46q31 1 53 17t22 40zM4696 88q0 63 -45 63q-21 -1 -37 -17t-22 -46h104zM3087 151q-23 1 -40 -17t-21 -46h105q-5 36 -13 50t-31 13zM2929 88q0 63 -43 63q-23 0 -41 -18q-16 -20 -19 -45h103zM2725 69q0 82 -68 82
q-33 0 -53 -24v-137q27 -8 52 -8t47 24t22 63zM2320 88q0 63 -42 63q-47 0 -63 -63h105zM4014 106q0 20 -14 33t-36 13t-36 -14t-14 -32t13 -32t39 -14t35 14q13 12 13 32zM3326 68q0 -86 66 -86q34 0 53 25v136q-37 9 -57 9t-41 -22t-21 -62zM4504 177h30l-69 -220h-40
l-49 167l-50 -167h-40l-71 220h33l58 -184l55 184h29l55 -184zM3551 -43v220h33v-220h-33zM2126 177h35l-77 -220h-44l-76 220h34l63 -186zM4787 -43v220h22l8 -25q25 28 51 28t39 -8l-11 -28q-24 8 -31 8q-27 0 -45 -31v-164h-33zM4653 180q76 0 76 -92v-30h-139
q3 -35 24 -56q22 -20 50 -20t59 17v-31q-33 -16 -71 -16t-66 32t-29 85q0 111 96 111zM3750 152q-16 0 -58 -22v-173h-33v220h22l6 -20q46 23 74 23t46 -19q24 -17 24 -64v-140h-33v139q0 56 -48 56zM2992 69q0 111 95 111q58 0 70 -50q4 -12 4 -42v-30h-136q1 -32 23 -56
q23 -20 50 -20t59 17v-31q-33 -16 -71 -16t-65 28q-29 36 -29 89zM2886 180q76 0 76 -92v-30h-137q1 -32 23 -54t50 -22t58 17h1v-31q-33 -16 -71 -16t-66 30t-28 87q0 111 94 111zM2412 -43v220h22l8 -25q22 28 53 28t36 -8l-11 -28q-21 8 -39 8t-36 -31v-164h-33zM2184 68
q0 112 86 112q40 0 54 -11q29 -23 29 -81v-30h-138q3 -36 25 -56t50 -20t58 17v-31q-32 -16 -70 -16t-66 28q-28 35 -28 88zM3884 104q0 34 22 56q24 20 54 20t47 -9q2 1 30 17q15 5 28 5l8 -27q-13 -1 -41 -15q13 -17 13 -45q-1 -28 -23 -52q-22 -22 -54 -22t-45 8
q-8 -7 -8 -18q0 -20 27 -20h42q87 0 87 -61q0 -34 -35 -61q-38 -26 -75 -26t-61 21q-22 23 -22 53t26 52l-14 17l-4 19q0 17 17 39q-19 15 -19 49zM5221 -48q-68 0 -68 86v108h-22v31h22v39l31 6h5v-45h59v-31h-59v-108q0 -56 39 -56q17 0 40 15l10 -31q-33 -14 -57 -14z
M3567 215q-21 1 -21 23t21 22q13 0 17 -8q8 -4 8 -14t-8 -16q-4 -7 -17 -7zM4981 69v-112h-33v301l31 5h2v-191l87 105h43l-91 -106q1 -8 33 -44t62 -47l-14 -28q-29 5 -75 55q-26 33 -29 37t-5 8q-2 2 -5 8q-6 6 -6 9zM3478 263v-306h-22l-5 20q-34 -25 -69 -25t-64 36
q-26 38 -26 86t29 73q27 33 83 33q20 0 41 -3v83l31 3h2zM3209 -43v303l31 3h2v-306h-33zM2604 263v-102q30 19 66 19t61 -33q26 -25 26 -79t-26 -80q-29 -36 -77 -36t-83 16v292l32 3h1zM575 649q52 -52 45 -192q-2 -61 -22 -141t-14 -155q11 -135 82 -212t91 -128t10 -69
q-19 24 -83 70q-65 46 -101 78q-69 60 -97 177t34 300q62 182 56 249zM3107 676q-71 0 -93 -7q-35 -5 -35 -37q0 -22 16 -36t42 -14t48 15t22 55v24zM2654 582q71 0 71 70v24q-71 0 -93 -7q-34 -5 -34 -37q0 -22 16 -36t40 -14zM5040 749q-12 81 -73 81q-29 0 -54 -22
t-29 -59h156zM4318 830q-67 0 -84 -81h156q-2 37 -22 59t-50 22zM3921 832q-112 0 -112 -121q0 -45 24 -81q25 -36 67 -36t81 25v205q-27 8 -60 8zM545 905q38 -123 -25 -214q-105 -154 -120 -270q-7 -46 -3 -141q5 -96 -3 -130t-30 -51q-11 -7 -13 -5t0 11q11 55 -10 104
q-30 72 -41 127q-23 118 56 275q16 27 65 87q121 146 124 207zM5384 913q145 0 145 -137v-257h-86v230q0 81 -89 81q-45 0 -84 -25v-286h-88v386h74l9 -29q53 37 119 37zM4790 712q0 94 50 148t125 53q79 -1 125 -61q30 -38 30 -114v-59h-236q9 -44 45 -64q29 -21 74 -21
t93 25h4v-86q-56 -22 -127 -22t-127 53q-56 54 -56 148zM4698 829q-37 0 -77 -27v-283h-87v386h73l10 -29q45 37 85 37q60 0 91 -14l-28 -89q-30 19 -67 19zM4236 679q20 -85 118 -85q42 0 94 25h3v-86q-55 -22 -125 -22t-128 53t-58 148t52 148t123 53q35 0 67 -11t61 -51
q28 -40 28 -113v-59h-235zM3564 749q0 81 -94 81q-42 0 -78 -25v-286h-89v386h73l10 -29q52 37 119 37q146 0 146 -137v-257h-87v230zM2893 636q0 107 121 107q59 0 93 -3v18q0 74 -76 74q-57 0 -102 -27l-22 75q68 35 135 35q151 0 151 -129v-145q0 -48 58 -58l-39 -72
q-54 0 -87 41q-39 -26 -56 -34t-49 -7q-78 0 -105 46q-22 25 -22 79zM2728 758q0 74 -89 74q-44 0 -91 -27l-22 75q68 35 135 35t109 -31t42 -98v-145q0 -48 58 -58l-41 -72q-51 0 -86 41q-55 -41 -104 -41q-127 0 -127 122q0 110 121 110q59 0 95 -3v18zM848 980
q-4 0 -6 -3q-12 -35 24 -53t60 -2q24 15 20 47q-6 1 -16 -3q-25 -9 -38 -12q-14 -3 -16 15q0 13 18 13t21 3q1 2 3 11t-1 11q-26 9 -37 0t-17 -16l-9 -9t-6 -2zM2200 1010h92l-172 -499h-102l-173 499h94l129 -380zM746 1019q148 36 220 -28q50 -45 46 -127q-2 -28 -9 -48
q-19 -6 -27 16t10 31q-10 21 -56 27t-66 12q-41 12 -71 64q-30 51 -47 53zM4070 1058v-539h-67l-16 28q-44 -36 -114 -36q-71 -1 -113 53t-42 146t58 151q56 52 149 52q37 0 56 -3v142l75 6h14zM2353 519v533l75 6h11v-539h-86zM268 656q0 -31 7 -45q-89 55 -71 147
q12 62 99 133q5 4 9 8q169 144 165 198l-4 10h8q25 0 39 -31q47 -76 -125 -219q-127 -104 -127 -201zM1195 80q-11 0 -61 10t-91 6q-109 -4 -137 -148q-6 -32 -4 -39q2 -6 42 -27t112 -42t139 -21v-120q-52 0 -108 25t-121 82t-78 93t-14 74t-6 100q-6 62 -24 104
q-18 41 -46 87t-34 60t-17 46q-12 34 -20 54t-21 79q-14 59 -24 115q-73 388 -110 495l-8 23q4 0 10 -2t47 -68t69 -182q28 -117 44 -181t28 -119q11 -55 19 -89q8 -33 50 -109q41 -76 53 -131t66 -90t123 -3q70 32 83 84q10 87 -53 117l-20 10q-49 23 -72 53q-47 62 -10 82
q13 6 39 -16t39 -22q14 -1 48 12t68 -14v-388zM261 966q-37 142 83 224l57 36q35 26 41 56q39 -127 -61 -188q-80 -52 -120 -128zM1964 -656l-11 -4l-763 2242l11 4z" />
    <glyph glyph-name="leeuw" unicode="vll&#x2a;" horiz-adv-x="1595" 
d="M674 664q52 -51 46 -191q-2 -61 -22 -142t-14 -155q12 -133 83 -211t90 -129t10 -69q-26 33 -77 66q-50 33 -82 60t-58 57q-56 64 -70 175q-14 112 44 282t52 235zM454 153q0 13 -3 34t-16 54q-21 51 -33 105q-28 129 54 281q16 28 65 87q121 146 124 207
q41 -122 -25 -214q-105 -156 -121 -272q-6 -44 -2 -140q5 -95 -4 -129t-25 -46t-17 -10q-2 2 0 16q3 14 3 27zM948 996q-4 0 -6 -3q-11 -35 25 -53q37 -18 61 -3t19 47q-6 1 -25 -5q-18 -7 -26 -9q-17 -4 -19 14q0 13 18 14q19 2 21 4t3 10q3 20 -33 12q-11 -5 -22 -16
q-12 -12 -16 -12zM847 1034q142 28 198 -11q75 -52 66 -153q-2 -23 -8 -39q-18 -5 -27 17t9 30q-10 23 -55 28q-46 4 -66 10q-43 12 -71 64q-30 52 -46 54zM368 672q0 -32 7 -46q-89 54 -71 147q13 62 99 133l9 8q169 144 166 199l-4 10l8 -1q24 0 38 -32q45 -77 -126 -217
q-126 -105 -126 -201zM1295 95q-11 -1 -61 9t-91 7q-119 -5 -140 -167q-2 -16 0 -20q1 -4 41 -26q40 -20 112 -42t139 -22v-121q-69 0 -141 43t-114 90q-42 48 -54 76q-11 28 -12 61t-6 100q-6 67 -24 109t-46 88t-34 60t-18 48t-20 52q-19 47 -71 324q-53 278 -83 365
l-9 23q3 0 9 -2t32 -41q59 -94 102 -270q6 -35 26 -111t31 -132q11 -54 19 -86t49 -109q42 -76 53 -130t65 -90t124 -4q93 43 85 121q-9 58 -55 80l-23 11q-47 23 -68 51q-48 63 -11 83q12 7 39 -15q26 -22 38 -23q15 -1 48 12q32 13 69 -14v-388zM361 981q-23 99 19 158
q28 38 45 52q32 25 49 33q61 33 67 74q29 -79 -13 -143q-18 -26 -48 -45q-81 -54 -119 -129z" />
    <glyph glyph-name=".notdef" horiz-adv-x="600" 
 />
    <glyph glyph-name=".null" horiz-adv-x="0" 
 />
    <glyph glyph-name="nonmarkingreturn" horiz-adv-x="682" 
 />
    <glyph glyph-name="CR" unicode="&#xd;" horiz-adv-x="0" 
 />
    <glyph glyph-name="space" unicode=" " horiz-adv-x="600" 
 />
    <glyph glyph-name="exclam" unicode="!" horiz-adv-x="589" 
d="M125 148q-1 70 49 120t120 49q70 1 120 -49t50 -120t-50 -119t-120 -49t-120 49t-49 119zM148 1448h306q0 -212 -11 -538t-24 -429h-237q-14 103 -24 427t-10 540z" />
    <glyph glyph-name="quotedbl" unicode="&#x22;" horiz-adv-x="1090" 
d="M793 1448q69 0 123 -46t54 -155q0 -108 -90 -232t-197 -180l-64 81q74 126 74 198t-68 164q0 70 50 120t118 50zM296 1448q68 0 121 -46q54 -46 54 -155q0 -108 -90 -232t-195 -180l-66 81q75 126 75 198t-68 164q1 70 51 120t118 50z" />
    <glyph glyph-name="numbersign" unicode="#" horiz-adv-x="1471" 
d="M817 582l42 168h-187l-42 -168h187zM274 1038h196l73 291l17 10l239 -83l-55 -218h187l73 291l17 10l239 -83l-55 -218h132l14 -14l-100 -274h-118l-42 -168h193l14 -14l-100 -274h-179l-77 -308l-12 -7l-242 85l57 230h-187l-77 -308l-12 -7l-242 85l57 230h-154l-10 10
l101 278h135l42 168h-215l-10 10z" />
    <glyph glyph-name="dollar" unicode="$" horiz-adv-x="1056" 
d="M102 149q0 83 8 180t15 104q92 27 198 18q24 -44 52 -176q45 -6 127 -6q82 1 134 33q54 32 54 75t-27 70t-71 45t-102 40q-56 22 -115 42q-124 43 -219 133q-96 90 -96 253q0 214 198 312q55 28 123 44v132h306v-116q122 -13 228 -50v-103q0 -83 -8 -181t-15 -104
q-92 -27 -198 -18q-24 40 -53 177q-13 1 -48 1q-82 0 -156 -22q-73 -22 -73 -77q0 -69 126 -121q56 -23 122 -47q158 -56 258 -132q126 -95 126 -251q0 -157 -84 -252t-225 -138v-144h-306v112q-181 13 -279 99v68z" />
    <glyph glyph-name="percent" unicode="%" horiz-adv-x="1742" 
d="M1236 314q0 -43 27 -72t71 -29t72 30t28 73t-27 72t-71 29t-72 -30t-28 -73zM1008 314q0 142 93 238q93 98 237 98t234 -96t90 -238t-93 -239t-237 -97t-234 96t-90 238zM308 1002q0 -43 27 -72t71 -29t72 30t28 73t-27 72t-71 29t-72 -30t-28 -73zM1089 1236l251 -175
l-686 -981l-252 174zM80 1002q0 142 93 238q93 98 237 98t234 -96t90 -238t-93 -239t-237 -97t-234 96t-90 238z" />
    <glyph glyph-name="ampersand" unicode="&#x26;" horiz-adv-x="1268" 
d="M364 382q0 -59 42 -91t93 -32q103 0 153 58l-198 201q-90 -52 -90 -136zM593 1006q1 68 -75 68t-76 -68q0 -51 52 -112q38 14 68 42t31 70zM60 385q0 211 194 363q-46 54 -72 125t-27 136q0 135 95 232t264 97t282 -104q88 -81 88 -210q0 -223 -210 -346l134 -134
q33 80 61 239h8l245 -107q-34 -196 -100 -336l186 -186l-210 -174l-137 136q-149 -136 -355 -136t-326 115t-120 290z" />
    <glyph glyph-name="quotesingle" unicode="'" horiz-adv-x="591" 
d="M294 1448q68 0 122 -46t55 -155q-1 -108 -91 -232t-196 -180l-64 81q74 126 74 198t-68 164q0 70 50 120t118 50z" />
    <glyph glyph-name="parenleft" unicode="(" horiz-adv-x="691" 
d="M120 681q0 384 217 767h4l230 -128q-147 -304 -147 -633t144 -576l-230 -131h-4q-214 317 -214 701z" />
    <glyph glyph-name="parenright" unicode=")" horiz-adv-x="691" 
d="M267 687q0 329 -147 633l230 128h4q217 -383 217 -767t-214 -701h-4l-230 131q144 247 144 576z" />
    <glyph glyph-name="asterisk" unicode="*" horiz-adv-x="1055" 
d="M527 578l108 62v124l-108 62l-107 -62v-124zM965 855v-305q-92 0 -188 8q58 -83 101 -158l-264 -153q-44 77 -86 167q-42 -88 -87 -166l-265 152q44 76 103 159q-93 -9 -189 -9v305q92 0 188 -8q-58 83 -101 158l264 153q44 -78 87 -168q42 90 86 167l265 -152
q-56 -94 -102 -158q96 8 188 8z" />
    <glyph glyph-name="plus" unicode="+" horiz-adv-x="1198" 
d="M455 375h-375v288h375v375h288v-375h375v-288h-375v-375h-288v375z" />
    <glyph glyph-name="comma" unicode="," horiz-adv-x="592" 
d="M296 324q68 0 122 -46t54 -154t-91 -232t-196 -181l-65 81q75 126 75 198t-67 164q0 70 50 120t118 50z" />
    <glyph glyph-name="hyphen" unicode="-" horiz-adv-x="868" 
d="M748 728v-288h-628v288h628z" />
    <glyph glyph-name="period" unicode="." horiz-adv-x="587" 
d="M120 152q0 72 50 122t123 50q72 0 123 -50t51 -122t-51 -122t-123 -50q-73 0 -123 50t-50 122z" />
    <glyph glyph-name="slash" unicode="/" horiz-adv-x="1116" 
d="M996 1343l-588 -1615l-288 105l588 1615z" />
    <glyph glyph-name="zero" unicode="0" horiz-adv-x="1222" 
d="M836 700q0 392 -227 393q-113 1 -168 -103t-55 -324q0 -441 223 -441q75 0 123 40q104 85 104 435zM607 -20q-117 0 -210 43t-151 111t-96 162q-70 167 -70 375q0 327 142 497t383 170q240 0 388 -169q149 -169 149 -515q-6 -334 -150 -504t-385 -170z" />
    <glyph glyph-name="one" unicode="1" horiz-adv-x="931" 
d="M791 203q10 -19 10 -101q1 -82 -17 -92t-211 -10h-135q-186 0 -204 10t-17 92q0 82 10 101q60 20 137 30v772q-129 -46 -264 -46v265q198 0 338 94h232v-1089q78 -12 121 -26z" />
    <glyph glyph-name="two" unicode="2" horiz-adv-x="1074" 
d="M100 0v283q100 36 203 107q103 70 185 156t134 184t51 175q-1 79 -61 115t-119 36t-98 -6q-7 -66 -26 -132t-35 -96q-106 -9 -198 18q-7 6 -15 104t-8 181v103q176 110 408 110q231 0 359 -128q96 -96 97 -257q0 -275 -241 -537q-65 -70 -142 -133h440v-283h-934z" />
    <glyph glyph-name="three" unicode="3" horiz-adv-x="1098" 
d="M351 822h125q90 0 156 46t65 92q0 96 -176 95q-51 0 -100 -10q-20 -90 -44 -132q-106 -9 -198 18q-7 7 -15 105t-8 180q203 122 418 122t338 -111q92 -83 92 -220q0 -195 -143 -320q177 -119 177 -322q0 -81 -32 -148q-57 -119 -202 -183q-228 -100 -496 -16
q-120 38 -208 97q0 83 8 181t15 104q92 27 198 18q23 -43 45 -134q90 -22 174 -22t140 36t56 93q0 58 -72 107t-199 49h-114v275z" />
    <glyph glyph-name="four" unicode="4" horiz-adv-x="1149" 
d="M672 512v359l-245 -359h245zM966 1318v-806h148v-283h-148v-229h-294v229h-592v283l549 806h337z" />
    <glyph glyph-name="five" unicode="5" horiz-adv-x="1184" 
d="M1050 1322v-284h-547l-18 -183q311 -11 465 -112t154 -314t-132 -331t-363 -118q-142 0 -279 42t-230 107q0 213 23 302q45 15 103 20t95 -2q30 -45 55 -140q146 -48 221 -48q75 -1 121 21q83 40 83 118q0 175 -411 175h-234l77 747h817z" />
    <glyph glyph-name="six" unicode="6" horiz-adv-x="1101" 
d="M553 567q-67 0 -165 -66q-3 -29 -3 -66q1 -103 51 -159t122 -56t112 55t40 129t-45 118q-45 45 -112 45zM918 1338v-284q-416 0 -485 -277q67 30 157 30q186 0 308 -107t123 -276q-1 -128 -65 -236q-124 -207 -405 -208q-283 0 -401 198q-70 117 -70 279q0 567 378 779
q183 102 460 102z" />
    <glyph glyph-name="seven" unicode="7" horiz-adv-x="1034" 
d="M60 1125v193h944l-533 -1318h-336l417 1038h-213q-22 -151 -58 -216q-106 -9 -198 18q-7 6 -15 104t-8 181z" />
    <glyph glyph-name="eight" unicode="8" horiz-adv-x="1121" 
d="M560 220q68 0 118 34t50 101t-105 124q-22 12 -63 32q-108 -52 -127 -75q-40 -46 -40 -97q-1 -51 49 -85t118 -34zM687 994q0 50 -38 78t-89 28q-50 0 -88 -28t-38 -78q0 -52 32 -84t94 -58q61 26 94 58q33 34 33 84zM991 985q0 -97 -50 -170t-162 -127q134 -53 208 -135
t74 -214q0 -87 -43 -157t-115 -113q-149 -89 -343 -89q-284 0 -426 162q-74 84 -74 212q0 129 83 209q83 81 199 125q-108 53 -160 126t-52 183t62 188q122 153 368 153q172 0 302 -87q129 -87 129 -266z" />
    <glyph glyph-name="nine" unicode="9" horiz-adv-x="1101" 
d="M548 751q67 0 165 66q3 29 3 66q0 103 -50 159t-124 56q-72 0 -112 -55t-39 -129q0 -74 45 -118q45 -45 112 -45zM183 264q415 0 485 276q-68 -29 -157 -29q-187 0 -309 107t-122 276q0 128 64 236q124 208 406 208t400 -198q70 -117 71 -279q0 -567 -378 -779
q-183 -102 -460 -102v284z" />
    <glyph glyph-name="colon" unicode=":" horiz-adv-x="587" 
d="M120 152q0 72 50 122t123 50q72 0 123 -50t51 -122t-51 -122t-123 -50q-73 0 -123 50t-50 122zM120 886q0 72 50 122t123 50q72 0 123 -50t51 -122t-51 -122t-123 -50q-73 0 -123 50t-50 122z" />
    <glyph glyph-name="semicolon" unicode=";" horiz-adv-x="592" 
d="M472 126q0 -110 -91 -234t-196 -181l-65 81q75 126 75 198t-67 164q0 70 50 120t116 50t105 -31q73 -57 73 -167zM120 886q0 72 51 122t123 50t122 -50q51 -50 51 -122t-51 -122q-50 -50 -122 -50t-123 50t-51 122z" />
    <glyph glyph-name="less" unicode="&#x3c;" horiz-adv-x="1158" 
d="M889 1078l178 -249l-443 -310l444 -311l-177 -249l-801 560z" />
    <glyph glyph-name="equal" unicode="=" horiz-adv-x="1198" 
d="M80 87v288h1038v-288h-1038zM80 663v288h1038v-288h-1038z" />
    <glyph glyph-name="greater" unicode="&#x3e;" horiz-adv-x="1158" 
d="M90 208l444 311l-443 310l178 249l799 -559l-801 -560z" />
    <glyph glyph-name="question" unicode="?" horiz-adv-x="1071" 
d="M284 148q0 70 50 120t119 49q70 1 120 -49t50 -120q1 -70 -49 -119t-120 -49t-120 49t-50 119zM595 460h-285q0 166 60 265t146 171q86 73 108 111q22 37 22 71q0 91 -132 91t-274 -116h-12l-103 225q68 78 179 124t212 46q185 0 307 -85q123 -85 123 -256
q0 -114 -70 -202q-30 -39 -68 -76q-102 -101 -143 -153q-70 -92 -70 -216z" />
    <glyph glyph-name="at" unicode="@" horiz-adv-x="1559" 
d="M962 631q-190 0 -190 -107t152 -107q34 1 80 27t47 61v126h-89zM90 536q0 130 24 231q52 221 226 359t471 138q296 0 442 -112q113 -86 113 -238v-353q0 -76 27 -112t136 -58l-132 -208q-119 1 -181 29t-106 91q-122 -120 -293 -120t-260 88t-89 239q0 306 401 306
q45 0 182 -9v6q-1 113 -57 157t-146 44t-148 -12q-139 -28 -232 -134t-93 -332t118 -348t277 -122t293 118l193 -184q-197 -203 -478 -203q-221 0 -400 129t-250 357q-38 123 -38 253z" />
    <glyph glyph-name="A" unicode="A" horiz-adv-x="1650" 
d="M984 578l-159 430l-160 -430h319zM1580 203q10 -19 10 -101t-18 -92t-204 -10h-118q-192 0 -210 10t-18 92t10 101q41 12 79 19l-24 68h-524l-24 -68q38 -7 79 -19q10 -19 10 -101t-18 -92t-210 -10h-118q-186 0 -198 7q-24 13 -24 95t10 101q64 19 156 32l380 1083h438
l380 -1083q92 -13 156 -32z" />
    <glyph glyph-name="B" unicode="B" horiz-adv-x="1250" 
d="M502 548v-331q223 0 289 25q67 24 85 72q10 26 10 72q0 99 -85 131q-85 31 -258 31h-41zM502 1101v-306q160 1 191 7q32 6 55 13q73 22 73 119q0 88 -46 127q-47 40 -273 40zM70 1115q-10 19 -10 101t18 92t203 10h306q522 0 522 -351q0 -171 -143 -273q204 -82 204 -310
q0 -171 -101 -257q-67 -58 -137 -78q-117 -34 -222 -41q-105 -8 -233 -8h-196q-185 0 -203 10t-18 92t10 101q50 16 126 27v857q-78 12 -126 28z" />
    <glyph glyph-name="C" unicode="C" horiz-adv-x="1211" 
d="M1151 1134q0 -82 -8 -180t-15 -105q-87 -26 -196 -18q-12 19 -32 87t-29 130q-23 2 -93 2t-154 -34t-134 -90t-78 -125t-28 -144t28 -144t78 -124q51 -55 133 -88t187 -33t325 46l16 -12v-281q-199 -41 -381 -41t-343 88q-163 88 -255 248t-92 361q0 134 54 255
q54 120 148 210t228 143t300 53t341 -35v-169z" />
    <glyph glyph-name="D" unicode="D" horiz-adv-x="1453" 
d="M497 287h129q260 1 380 173q64 93 64 181q0 89 -32 155t-89 118t-145 84t-194 32h-113v-743zM281 1318h391q157 0 290 -52q132 -52 222 -141t140 -209t49 -250q0 -130 -43 -247q-44 -117 -126 -211t-217 -151t-304 -57h-437q-154 0 -170 10t-16 92t10 101q49 16 122 27
v858q-73 11 -122 27q-10 19 -10 101t18 92t203 10z" />
    <glyph glyph-name="E" unicode="E" horiz-adv-x="1157" 
d="M1097 1318v-68q0 -82 -8 -180t-15 -105q-92 -27 -197 -18q-10 15 -30 83h-349v-234h222q22 76 33 93q104 9 196 -18q20 -63 20 -213t-20 -211q-92 -27 -196 -18q-14 21 -33 93h-222v-234h349q21 69 30 83q105 9 197 -18q7 -7 15 -105t8 -180v-68h-850q-149 0 -169 10
q-18 10 -18 92t10 101q48 15 122 27v858q-74 12 -122 27q-10 19 -10 101t18 92q20 10 169 10h850z" />
    <glyph glyph-name="F" unicode="F" horiz-adv-x="1157" 
d="M970 658q0 -150 -20 -211q-92 -27 -196 -18q-13 17 -33 93h-223v-292q71 -11 122 -27q10 -19 10 -101t-18 -92t-203 -10h-128q-185 0 -197 7q-24 13 -24 95t10 101q48 15 122 27v858q-74 12 -122 27q-10 19 -10 101t18 92q20 10 114 10h905v-68q0 -82 -8 -180t-15 -105
q-92 -27 -197 -18q-10 15 -30 83h-349v-234h223q23 79 33 93q104 9 196 -18q20 -63 20 -213z" />
    <glyph glyph-name="G" unicode="G" horiz-adv-x="1352" 
d="M818 1338q143 0 343 -46v-111q0 -83 -8 -181t-15 -104q-72 -21 -112 -21t-84 3q-24 38 -52 170q-44 6 -112 6t-149 -34t-133 -88q-110 -117 -111 -268q0 -228 174 -342q89 -58 209 -58t224 62v191h-246v268h526v-785h-184l-76 46q-126 -66 -260 -66q-186 0 -341 94
t-243 252q-88 159 -88 361t124 375t350 240q121 36 264 36z" />
    <glyph glyph-name="H" unicode="H" horiz-adv-x="1466" 
d="M1178 0h-118q-186 0 -204 10t-17 93q0 84 10 100q42 14 121 26v293h-474v-293q78 -12 121 -26q10 -16 10 -100q1 -84 -17 -93q-18 -10 -211 -10h-118q-185 0 -203 10t-18 93q0 84 10 100q42 14 121 26v859q-74 11 -121 27q-10 16 -10 100t18 93q18 10 203 10h118
q193 0 211 -10t17 -93q0 -84 -10 -100q-49 -16 -121 -27v-293h474v293q-74 11 -121 27q-10 16 -10 100q-1 84 17 93q18 10 204 10h118q192 0 210 -10t18 -93q0 -84 -10 -100q-49 -16 -121 -27v-859q78 -12 121 -26q10 -16 10 -100t-18 -93q-18 -10 -210 -10z" />
    <glyph glyph-name="I" unicode="I" horiz-adv-x="688" 
d="M70 1115q-10 19 -10 101t18 92t203 10h119q192 0 210 -10t18 -92t-10 -101q-50 -16 -121 -27v-859q78 -12 121 -26q10 -19 10 -101t-18 -92t-210 -10h-119q-185 0 -203 10t-18 92t10 101q49 16 121 27v858q-72 11 -121 27z" />
    <glyph glyph-name="J" unicode="J" horiz-adv-x="919" 
d="M80 97q0 71 8 157t15 92q98 29 210 19q13 -23 28 -82q82 37 82 187v618q-74 11 -121 27q-10 16 -10 100t16 93q16 10 205 10h118q196 0 212 -10t16 -94q0 -83 -10 -99q-49 -16 -121 -27v-712q0 -184 -136 -290t-355 -106q-49 0 -157 43v74z" />
    <glyph glyph-name="K" unicode="K" horiz-adv-x="1375" 
d="M587 203q10 -16 10 -100q1 -84 -17 -93q-18 -10 -197 -10h-101q-186 0 -198 7q-24 13 -24 95t10 101q43 14 121 26v859q-72 11 -121 27q-10 19 -10 101t18 92t197 10h94q193 0 211 -10t17 -93q0 -84 -10 -100q-45 -14 -90 -22v-268h8l230 282q-4 1 -18 3t-18 5
q-10 19 -10 101q-1 82 17 92t214 10h119q193 0 211 -10t17 -92q0 -82 -10 -101q-48 -17 -171 -36l-321 -390q50 -83 146 -187t198 -186q47 45 80 62q37 -3 86 -38t70 -61q-16 -126 -194 -299q-79 0 -207 88t-242 210q-115 122 -174 227l-31 -43v-237q45 -8 90 -22z" />
    <glyph glyph-name="L" unicode="L" horiz-adv-x="1081" 
d="M70 1115q-10 16 -10 100t18 93q18 10 203 10h118q193 0 211 -10t17 -93q0 -84 -10 -100q-49 -16 -121 -27v-800h255q34 163 57 202q110 10 210 -18q7 -7 15 -93t8 -157v-222h-760q-185 0 -203 10t-18 93q0 84 10 100q47 16 121 27v858q-74 11 -121 27z" />
    <glyph glyph-name="M" unicode="M" horiz-adv-x="1621" 
d="M1315 1318q193 0 205 -7q24 -13 24 -96q0 -82 -11 -100q-48 -16 -119 -27l13 -858q74 -11 124 -27q10 -19 10 -101q-1 -82 -19 -92t-210 -10h-118q-186 0 -204 10t-17 92q0 82 10 101q54 16 118 26l-7 486l-150 -306h-305l-155 310l-6 -490q67 -10 120 -26
q10 -19 10 -101t-18 -92t-210 -10h-119q-185 0 -203 10t-18 92t10 101q51 16 122 27l11 858q-70 11 -120 27q-10 19 -10 101q-1 82 17 92t204 10h218l298 -602l295 602h210z" />
    <glyph glyph-name="N" unicode="N" horiz-adv-x="1485" 
d="M1079 1318h118q193 0 211 -10t17 -93q0 -84 -10 -100q-49 -16 -121 -27v-1088h-305l-492 785v-556q70 -11 120 -26q10 -16 10 -100q1 -84 -17 -93q-18 -10 -211 -10h-117q-186 0 -198 7q-24 13 -24 96q0 82 11 100q42 14 121 26v859q-71 11 -121 27q-10 19 -10 101
q-1 82 17 92t205 10h214l492 -786v556q-74 11 -121 27q-10 16 -10 100t18 93q18 10 203 10z" />
    <glyph glyph-name="O" unicode="O" horiz-adv-x="1515" 
d="M386 666q0 -172 101 -286t274 -113q173 0 271 107t97 280q1 173 -97 285t-271 112t-274 -107q-101 -106 -101 -278zM80 660q0 190 86 344t244 244q157 90 354 90t351 -90t237 -243q83 -155 83 -345q1 -190 -85 -345t-242 -245t-354 -90t-352 90t-238 244q-84 156 -84 346
z" />
    <glyph glyph-name="P" unicode="P" horiz-adv-x="1307" 
d="M923 866q0 164 -361 164h-65v-319h65q361 0 361 155zM71 1115q-10 16 -10 100q-1 84 17 93q18 10 204 10h256q481 0 620 -187q69 -93 69 -217q-1 -124 -39 -205q-133 -276 -691 -285v-195q78 -12 122 -26q10 -19 10 -101t-18 -92t-211 -10h-119q-185 0 -203 10t-18 93
q0 84 10 100q42 14 121 26v859q-72 11 -120 27z" />
    <glyph glyph-name="Q" unicode="Q" horiz-adv-x="1515" 
d="M386 665q0 -171 101 -285t274 -113q173 0 271 107t97 280q1 173 -97 285t-271 112q-173 1 -274 -107t-101 -279zM753 -20q-197 0 -351 90t-238 244t-84 346q0 190 86 344t244 244q157 90 354 90t351 -90t237 -243q83 -155 83 -351q1 -196 -93 -353t-266 -247
q38 -37 79 -67q71 73 101 86q37 -3 90 -37t73 -57q-6 -45 -61 -145t-133 -202q-107 22 -245 122t-217 226h-10z" />
    <glyph glyph-name="R" unicode="R" horiz-adv-x="1393" 
d="M496 649h37q205 1 299 49t95 146q0 98 -82 140t-287 43h-62v-378zM1231 876q0 -276 -209 -409q34 -82 104 -152q48 46 81 63q37 -3 86 -38t70 -61q-14 -113 -157 -299q-68 0 -144 37t-140 95q-135 124 -200 260q-101 -14 -226 -14v-128q83 -15 121 -27q10 -16 10 -100
q1 -84 -17 -93q-18 -10 -211 -10h-118q-185 0 -203 10t-18 93q0 84 10 100q37 12 121 27v858q-71 11 -121 27q-10 19 -10 101t18 92t204 10h285q330 0 497 -107t167 -335z" />
    <glyph glyph-name="S" unicode="S" horiz-adv-x="1056" 
d="M102 149q0 83 8 180t15 104q92 27 198 18q24 -44 52 -176q45 -6 127 -6q82 1 134 33q54 32 54 75t-27 70t-71 45t-102 40q-56 22 -115 42q-124 43 -219 133q-96 90 -96 253q0 84 32 152q58 121 195 174q136 52 303 52t325 -56v-103q0 -83 -8 -181t-15 -104
q-92 -27 -198 -18q-24 40 -53 177q-13 1 -48 1q-82 0 -156 -22q-73 -22 -73 -77q0 -69 126 -121q56 -23 122 -47q158 -56 258 -132q126 -95 126 -259q0 -250 -244 -357q-134 -59 -335 -59t-315 101v68z" />
    <glyph glyph-name="T" unicode="T" horiz-adv-x="1163" 
d="M1123 1318v-183q1 -83 -7 -181t-15 -104q-93 -27 -197 -18q-29 47 -60 212h-110v-810q93 -13 148 -31q10 -16 10 -100t-18 -93q-18 -10 -210 -10h-173q-185 0 -203 10t-18 92t10 101q55 18 148 31v810h-109q-31 -165 -60 -212q-104 -9 -197 18q-6 6 -14 104t-8 181v183
h1083z" />
    <glyph glyph-name="U" unicode="U" horiz-adv-x="1469" 
d="M477 611q1 -180 55 -262t193 -82t203 86t64 254v481q-72 11 -121 27q-10 19 -10 101t18 92t204 10h118q193 0 211 -10t17 -93q0 -84 -10 -100q-49 -16 -121 -27v-487q0 -395 -233 -539q-133 -82 -331 -82q-271 0 -417 152t-146 469v487q-74 11 -121 27q-10 16 -10 100
t18 93q18 10 203 10h118q193 0 205 -7q24 -13 24 -95t-10 -101q-50 -16 -121 -27v-477z" />
    <glyph glyph-name="V" unicode="V" horiz-adv-x="1578" 
d="M70 1115q-10 19 -10 101t18 92t204 10h118q192 0 210 -10t18 -92t-10 -101q-41 -12 -79 -19l250 -687l250 687q-38 7 -79 19q-10 19 -10 101t18 92t210 10h118q186 0 198 -7q24 -13 24 -95t-10 -101q-64 -19 -156 -32l-380 -1083h-366l-380 1083q-92 13 -156 32z" />
    <glyph glyph-name="W" unicode="W" horiz-adv-x="2136" 
d="M1526 1115q-10 16 -10 100t18 93q18 10 210 10h111q185 0 203 -10t18 -93q0 -84 -10 -100q-62 -20 -155 -33l-311 -1082h-313l-221 770l-220 -770h-313l-310 1083q-97 13 -153 32q-10 16 -10 100t18 93q18 10 203 10h118q187 0 199 -7q24 -13 23 -96q0 -82 -11 -100
q-34 -11 -77 -20l156 -548l221 771h314l220 -771l156 549q-34 6 -74 19z" />
    <glyph glyph-name="X" unicode="X" horiz-adv-x="1323" 
d="M91 1115q-10 19 -10 101t18 92t204 10h97q186 0 198 -7q24 -13 24 -93q0 -79 -13 -103q-14 -5 -44 -13l95 -147l97 147q-26 7 -43 13q-10 19 -10 101t18 92t210 10h88q186 0 198 -7q24 -13 24 -95t-10 -101q-58 -19 -157 -34l-248 -382l301 -463q96 -13 155 -33
q10 -16 10 -100q1 -84 -17 -93q-18 -10 -204 -10h-111q-193 0 -211 10t-17 92q0 82 10 101q32 11 63 16l-146 224l-145 -224q28 -5 65 -16q11 -20 11 -101t-18 -92q-18 -10 -204 -10h-118q-185 0 -203 10t-18 93q0 84 10 100q53 18 152 32l303 464l-251 384q-98 14 -153 32z
" />
    <glyph glyph-name="Y" unicode="Y" horiz-adv-x="1270" 
d="M40 1115q-10 19 -10 101t18 92t203 10h111q186 0 198 -7q24 -13 24 -95q0 -81 -11 -101q-42 -13 -77 -19l136 -281l138 281q-33 6 -74 19q-10 19 -10 101t18 92t210 10h105q185 0 203 -10t18 -92t-10 -101q-62 -20 -155 -33l-288 -590v-263q76 -12 121 -26
q10 -19 10 -101t-16 -92t-191 -10h-154q-171 0 -189 10t-18 92t10 101q49 16 121 27v262l-288 591q-97 13 -153 32z" />
    <glyph glyph-name="Z" unicode="Z" horiz-adv-x="1135" 
d="M98 1171v147h951l16 -16l-517 -1014h239q31 140 53 176q105 9 197 -18q7 -8 15 -104t7 -179v-163h-974l-15 15l516 1015h-218q-32 -135 -50 -162q-109 -8 -197 18q-7 8 -15 106t-8 179z" />
    <glyph glyph-name="bracketleft" unicode="[" horiz-adv-x="769" 
d="M649 1448v-290h-223v-868h223v-290h-529v1448h529z" />
    <glyph glyph-name="backslash" unicode="\" horiz-adv-x="1116" 
d="M708 -272l-588 1615l288 105l588 -1615z" />
    <glyph glyph-name="bracketright" unicode="]" horiz-adv-x="769" 
d="M120 0v290h223v868h-223v290h529v-1448h-529z" />
    <glyph glyph-name="underscore" unicode="_" horiz-adv-x="1168" 
d="M1048 288v-288h-928v288h928z" />
    <glyph glyph-name="grave" unicode="`" horiz-adv-x="902" 
d="M253 1567q243 -209 529 -336q-6 -43 -30 -101t-39 -72q-172 32 -357 140t-236 182q10 56 50 110t83 77z" />
    <glyph glyph-name="a" unicode="a" horiz-adv-x="1136" 
d="M354 317q0 -103 154 -103q32 0 78 26t47 62v126h-89q-190 0 -190 -111zM948 358q0 -76 27 -112q27 -35 136 -58l-132 -208q-119 0 -181 28t-106 92q-122 -120 -298 -120q-98 0 -164 31q-65 31 -100 66q-80 81 -80 231t96 228t306 77q44 0 181 -9v6q1 110 -47 158t-126 48
q-33 0 -83 -10q-9 -89 -21 -101q-12 -11 -83 -29t-106 -19q-21 7 -47 117t-36 192q219 92 417 92q197 0 327 -104q106 -85 120 -243v-353z" />
    <glyph glyph-name="b" unicode="b" horiz-adv-x="1212" 
d="M624 809q-84 0 -142 -51v-518q48 -13 108 -13q127 0 199 73t72 229t-98 236q-55 44 -139 44zM30 1290q0 70 9 98q105 32 227 46t179 14h38v-426q85 36 193 36t204 -44t156 -118q126 -156 126 -370q0 -164 -77 -290t-207 -190q-130 -66 -300 -66t-401 89v1117
q-97 2 -130 9q-17 25 -17 95z" />
    <glyph glyph-name="c" unicode="c" horiz-adv-x="1027" 
d="M597 -20q-281 0 -436 188q-111 135 -111 348q0 134 46 240t125 170q161 132 371 132t380 -91q-2 -199 -23 -305q-63 -19 -99 -22t-98 4q-19 35 -45 160q-36 4 -63 4q-123 0 -201 -72t-78 -220q0 -146 78 -216t203 -71q72 0 140 22t177 71l9 -3v-241q-176 -98 -375 -98z
" />
    <glyph glyph-name="d" unicode="d" horiz-adv-x="1262" 
d="M572 227q110 0 185 84v474q-58 24 -137 24q-126 0 -198 -82t-72 -214t56 -209t166 -77zM1064 1448v-1155q71 16 140 16q18 -65 18 -127t-11 -108q-167 -36 -316 -94h-39l-52 99q-125 -99 -278 -99q-203 0 -346 145q-67 69 -106 169t-39 217q0 239 153 393t413 154
q69 0 157 -14v142q-97 2 -130 9q-17 25 -17 95t9 98q197 60 406 60h38z" />
    <glyph glyph-name="e" unicode="e" horiz-adv-x="1019" 
d="M664 663q-18 163 -123 163q-54 0 -98 -45t-69 -118h290zM932 51q-142 -71 -350 -71t-362 132q-76 65 -120 173t-45 245q-1 234 125 381t360 147q266 0 363 -201q51 -106 51 -246v-172h-595q19 -109 81 -169t142 -60q82 0 182 29t164 61l4 -3v-246z" />
    <glyph glyph-name="f" unicode="f" horiz-adv-x="720" 
d="M197 1043q0 405 421 405q99 0 230 -32q21 -3 52 -13q0 -213 -23 -302q-45 -15 -103 -20t-95 2q-36 54 -55 127q-120 -17 -121 -172h171v-224h-171v-585q78 -12 121 -26q10 -19 10 -101t-18 -92t-210 -10h-135q-185 0 -203 10t-18 92t10 101q60 20 137 30v581h-147v224
h147v5z" />
    <glyph glyph-name="g" unicode="g" horiz-adv-x="1002" 
d="M337 -89q0 -118 141 -118q85 -1 142 43t57 103q1 59 -67 76q-54 14 -157 14h-64q-52 -57 -52 -118zM330 717q0 -118 126 -118t126 112q0 117 -126 117t-126 -111zM364 328q0 -72 193 -72t301 -82t108 -194t-80 -210t-201 -150q-122 -54 -251 -54q-174 0 -279 94t-105 237
q0 63 33 134t92 130q-86 49 -86 139t76 183q-89 92 -89 235q0 144 108 242t276 98q103 0 185 -40q153 78 268 78l69 -196l-6 -14q-79 -15 -162 -50q22 -54 22 -120q0 -150 -108 -248t-276 -98q-40 0 -74 6q-14 -28 -14 -48z" />
    <glyph glyph-name="h" unicode="h" horiz-adv-x="1344" 
d="M862 561q0 251 -172 251q-86 0 -197 -62v-521q78 -12 121 -26q10 -19 10 -101t-18 -92t-210 -10h-135q-185 0 -203 10t-18 92t10 101q60 20 137 30v953q-97 2 -130 9q-17 25 -17 95t9 98q105 32 227 46t179 14h38v-486q161 96 330 96q345 0 345 -393v-436q78 -12 121 -26
q10 -19 10 -101q1 -82 -17 -92t-211 -10h-135q-186 0 -204 10t-17 92q0 82 10 101q60 20 137 30v328z" />
    <glyph glyph-name="i" unicode="i" horiz-adv-x="664" 
d="M40 900q0 70 9 98q105 32 227 46t179 14h38v-829q78 -12 121 -26q10 -19 10 -101t-18 -92t-210 -10h-135q-185 0 -203 10t-18 92t10 101q60 20 137 30v563q-97 2 -130 9q-17 25 -17 95zM169 1308q-1 70 49 120t120 49q70 1 120 -49t50 -120t-50 -119t-120 -49t-120 49
t-49 119z" />
    <glyph glyph-name="j" unicode="j" horiz-adv-x="651" 
d="M220 -21v817q-97 2 -130 9q-17 25 -17 95t9 98q106 32 228 46t178 14h38v-1121q0 -254 -179 -357q-101 -58 -254 -58q-152 0 -293 74q0 213 23 302q45 15 103 20t95 -2q30 -44 50 -113q67 5 108 47t41 129zM202 1308q0 70 50 120t119 49q70 1 120 -49t50 -120
q1 -70 -49 -119t-120 -49t-120 49t-50 119z" />
    <glyph glyph-name="k" unicode="k" horiz-adv-x="1229" 
d="M572 203q10 -19 10 -101t-18 -92t-168 -10h-135q-185 0 -203 10t-18 92t10 101q60 20 137 30v953q-97 2 -130 9q-17 25 -17 95t9 98q105 32 227 46t179 14h38v-755l127 128q-43 11 -50 14q-10 19 -10 101t18 92t203 10h88q193 0 211 -10t17 -92q0 -82 -10 -101
q-43 -14 -121 -26l-4 -1l-245 -260q29 -54 95 -120t142 -120q52 51 89 70q37 -3 86 -38t70 -61q-14 -113 -157 -299q-283 0 -549 376v-127q43 -10 79 -26z" />
    <glyph glyph-name="l" unicode="l" horiz-adv-x="664" 
d="M40 1290q0 70 9 98q105 32 227 46t179 14h38v-1219q78 -12 121 -26q10 -19 10 -101t-18 -92t-210 -10h-135q-185 0 -203 10t-18 92t10 101q60 20 137 30v953q-97 2 -130 9q-17 25 -17 95z" />
    <glyph glyph-name="m" unicode="m" horiz-adv-x="1866" 
d="M766 1058q173 0 263 -135q181 135 332 135t247 -100t97 -293v-436q78 -12 121 -26q10 -19 10 -101t-18 -92t-210 -10h-135q-185 0 -203 10t-18 92t10 101q60 20 137 30v364q0 107 -45 161t-117 53q-72 0 -145 -54q7 -51 7 -92v-436q78 -12 121 -26q10 -19 10 -101
t-18 -92t-210 -10h-135q-185 0 -203 10t-18 92t10 101q60 20 137 30v364q-1 102 -45 158t-116 56t-139 -62v-520q78 -12 121 -26q10 -19 10 -101t-18 -92t-210 -10h-135q-185 0 -203 10t-18 92t10 101q60 20 137 30v543q-97 2 -130 9q-17 25 -17 95t9 98q76 24 174 42
t142 18h38l46 -102l1 -1q143 123 316 123z" />
    <glyph glyph-name="n" unicode="n" horiz-adv-x="1328" 
d="M861 560q-1 251 -173 251q-86 0 -195 -62v-520q78 -12 121 -26q10 -19 10 -101t-18 -92t-210 -10h-135q-185 0 -203 10t-18 92t10 101q60 20 137 30v543q-97 2 -130 9q-17 25 -17 95t9 98q76 24 174 42t142 18h38l47 -103q99 63 181 93t182 30q177 0 265 -95t89 -298
v-436q78 -12 121 -26q10 -19 10 -101t-18 -92t-210 -10h-135q-185 0 -203 10t-18 92t10 101q60 20 137 30v327z" />
    <glyph glyph-name="o" unicode="o" horiz-adv-x="1200" 
d="M363 522q-1 -126 63 -212t176 -85t174 81t61 208q0 128 -62 213q-63 86 -175 86t-174 -82q-62 -83 -63 -209zM50 518q0 240 152 390t402 150t398 -150t148 -388q0 -240 -152 -390t-402 -150t-398 149t-148 389z" />
    <glyph glyph-name="p" unicode="p" horiz-adv-x="1266" 
d="M670 812q-118 0 -177 -83v-477q61 -24 139 -24q123 0 196 84t73 216q-1 132 -57 208t-174 76zM40 880q0 70 9 98q76 24 174 42t142 18h38l37 -83q133 103 285 103q205 0 347 -145q66 -68 105 -168t39 -217q0 -240 -154 -394t-416 -154q-72 0 -153 13v-222q78 -12 121 -26
q10 -19 10 -101t-18 -92t-210 -10h-135q-185 0 -203 10t-18 92t10 101q60 20 137 30v1001q-97 2 -130 9q-17 25 -17 95z" />
    <glyph glyph-name="q" unicode="q" horiz-adv-x="1196" 
d="M611 812q-117 0 -189 -74t-71 -204q0 -129 55 -218q54 -88 190 -88q76 0 134 51v519q-52 14 -119 14zM659 1058q151 0 376 -89v-1198q78 -12 121 -26q10 -19 10 -101t-18 -92t-210 -10h-119q-185 0 -203 10t-18 92t10 101q47 15 121 27v243q-84 -35 -179 -35
q-158 0 -273 74q-227 146 -227 471q0 228 160 380q160 153 449 153z" />
    <glyph glyph-name="r" unicode="r" horiz-adv-x="929" 
d="M614 203q10 -19 10 -101t-18 -92t-210 -10h-135q-185 0 -203 10t-18 92t10 101q60 20 137 30v543q-97 2 -130 9q-17 25 -17 95t9 98q76 24 174 42t142 18h38l45 -99q113 119 264 119q83 0 182 -45l5 -1q0 -213 -23 -302q-44 -15 -102 -20t-96 2q-25 35 -48 105
q-82 -19 -137 -74v-494q78 -12 121 -26z" />
    <glyph glyph-name="s" unicode="s" horiz-adv-x="870" 
d="M53 734q-1 324 441 324q116 0 299 -60q0 -213 -23 -302q-44 -15 -102 -20t-96 2q-37 59 -53 125q-18 4 -50 4q-31 0 -71 -16q-40 -15 -40 -45t26 -50t66 -33t90 -29q113 -35 196 -102q84 -66 84 -204q0 -206 -196 -296q-115 -52 -282 -52t-292 72q0 213 23 302
q45 15 103 20t95 -2q37 -59 53 -125q15 -3 57 -3t88 18t46 54q1 36 -25 58t-66 34q-40 14 -90 26q-118 30 -190 84q-92 68 -91 216z" />
    <glyph glyph-name="t" unicode="t" horiz-adv-x="885" 
d="M428 1251v-213h277v-224h-277v-326q0 -196 89 -244q26 -14 62 -17q26 106 65 170q38 7 96 2t102 -20q23 -89 23 -302q-165 -97 -337 -97t-289 98t-117 306v430h-102v224h102v186l293 27h13z" />
    <glyph glyph-name="u" unicode="u" horiz-adv-x="1355" 
d="M483 480q0 -253 178 -253q77 0 190 64v485q-97 2 -130 9q-17 25 -17 95t9 98q105 32 227 46t179 14h38v-745q71 16 140 16q18 -65 18 -127t-11 -108q-167 -36 -316 -94h-39l-52 100q-4 7 -10 21q-97 -63 -178 -92t-178 -29q-176 0 -265 96t-89 299v401q-97 2 -130 9
q-17 25 -17 95t9 98q105 32 227 46t179 14h38v-558z" />
    <glyph glyph-name="v" unicode="v" horiz-adv-x="1234" 
d="M30 835q-10 19 -10 101t18 92t210 10h88q186 0 204 -10t17 -92q0 -82 -10 -101q-34 -11 -69 -18l139 -416l139 416q-35 7 -69 18q-10 19 -10 101q-1 82 17 92t204 10h88q192 0 210 -10t18 -92t-10 -101q-40 -13 -130 -26l-273 -809h-370l-273 809q-87 13 -128 26z" />
    <glyph glyph-name="w" unicode="w" horiz-adv-x="1757" 
d="M1210 835q-10 19 -10 101t18 92t203 10h88q193 0 211 -10t17 -92q0 -82 -10 -101q-40 -13 -129 -26l-252 -809h-308l-152 477l-161 -477h-316l-252 809q-87 13 -127 26q-10 19 -10 101t18 92t210 10h88q186 0 204 -10t17 -92q0 -82 -10 -101q-25 -9 -66 -17l95 -292
l148 512h307l147 -511l95 291q-53 13 -63 17z" />
    <glyph glyph-name="x" unicode="x" horiz-adv-x="1142" 
d="M618 835q-10 19 -10 101t18 92t169 10h96q193 0 211 -10t17 -92q0 -82 -10 -101q-55 -17 -177 -32l-179 -260l217 -313q98 -14 142 -27q10 -19 10 -101t-18 -92t-210 -10h-96q-152 0 -170 10t-17 92q0 82 10 101l32 13l-75 106l-74 -112l17 -7q10 -19 10 -101
q1 -82 -17 -92t-170 -10h-96q-192 0 -210 10t-18 92t10 101q51 15 159 29l203 285l-196 287q-121 16 -166 31q-10 19 -10 101t18 92t210 10h96q152 0 170 -10t17 -92q0 -82 -10 -101l-16 -7l67 -94l66 93q-4 1 -20 8z" />
    <glyph glyph-name="y" unicode="y" horiz-adv-x="1244" 
d="M697 835q-10 19 -10 101q-1 82 17 92t204 10h88q192 0 210 -10t18 -92t-10 -101q-48 -15 -134 -27l-273 -808q-80 -238 -192 -348q-111 -110 -273 -110t-313 72q0 213 23 302q44 15 102 20t96 -2q28 -43 47 -105h9q71 1 107 37t72 134h-48l-273 808q-89 12 -134 27
q-10 19 -10 101t18 92t210 10h88q186 0 204 -10t17 -92q0 -82 -10 -101q-25 -9 -64 -17l140 -418l140 418q-41 8 -66 17z" />
    <glyph glyph-name="z" unicode="z" horiz-adv-x="1053" 
d="M77 982v56h910l16 -16l-479 -780h180q6 26 24 68t29 59q37 7 95 2t103 -20q23 -89 23 -302v-49h-915l-13 13l480 783h-179q-20 -78 -53 -127q-38 -7 -96 -2t-102 20q-23 87 -23 295z" />
    <glyph glyph-name="braceleft" unicode="{" horiz-adv-x="909" 
d="M120 826h10q96 2 134 46t38 131v39q0 250 164 350q93 56 222 56h101v-280q-105 0 -143 -50t-39 -147v-23q0 -116 -42 -174q-16 -22 -52 -61q36 -39 52 -61q42 -58 42 -174v-23q1 -97 39 -147t143 -50v-280h-101q-204 0 -308 133q-78 100 -78 273v39q0 87 -38 131t-134 46
h-10v226z" />
    <glyph glyph-name="bar" unicode="|" horiz-adv-x="566" 
d="M436 1448v-1718h-306v1718h306z" />
    <glyph glyph-name="braceright" unicode="}" horiz-adv-x="909" 
d="M789 600h-10q-97 -2 -135 -46t-37 -131v-39q0 -250 -164 -350q-93 -57 -222 -56h-101v280q106 0 144 50t38 147v23q0 116 42 174q16 22 52 61q-36 39 -52 61q-42 58 -42 174v23q0 97 -38 147t-144 50v280h101q204 0 308 -133q78 -100 78 -273v-39q-1 -87 37 -131t135 -46
h10v-226z" />
    <glyph glyph-name="asciitilde" unicode="~" horiz-adv-x="1339" 
d="M311 375q-41 0 -99 16t-92 48q18 139 116 241t243 101q89 1 181 -61q93 -62 159 -62q65 0 109 32t44 93q30 3 62 3t91 -18q58 -18 94 -51q-16 -137 -123 -239t-254 -103q-84 0 -181 62t-158 62t-99 -30t-37 -91q-15 -3 -56 -3z" />
    <glyph glyph-name="exclamdown" unicode="&#xa1;" horiz-adv-x="589" 
d="M440 -410h-306q0 212 11 538t24 429h237q14 -103 24 -427t10 -540zM125 889q-1 69 49 119t120 50t120 -50t50 -119q0 -70 -50 -119t-120 -49t-120 49t-49 119z" />
    <glyph glyph-name="cent" unicode="&#xa2;" horiz-adv-x="1072" 
d="M778 -160h-306v158q-176 42 -284 174t-108 344q0 213 108 345t284 176v131h306v-123q119 -23 224 -78q-2 -199 -23 -305q-63 -19 -99 -22t-98 4q-19 35 -45 160q-36 4 -63 4q-123 0 -201 -72t-78 -220q0 -146 78 -216t203 -71q72 0 140 22t177 71l9 -3v-241
q-104 -59 -224 -82v-156z" />
    <glyph glyph-name="sterling" unicode="&#xa3;" horiz-adv-x="1088" 
d="M534 842v-27h295v-268h-252q7 -54 7 -112t-37 -147h211q34 163 57 202q110 10 210 -18q7 -7 15 -93t8 -157v-222h-988v288q131 0 182 49q52 49 52 153q0 20 -5 57h-179v268h127q-9 73 -9 145t22 142q42 129 146 183q103 54 257 54t359 -69q0 -213 -23 -302
q-45 -15 -103 -20t-95 2q-21 30 -41 86l-22 1q-86 -1 -140 -47t-54 -148z" />
    <glyph glyph-name="yen" unicode="&#xa5;" horiz-adv-x="1170" 
d="M432 457v35l-30 62h-238v101h188l-208 428q-97 13 -153 32q-10 19 -10 101q-1 82 17 92t204 10h111q187 0 199 -7q24 -13 23 -95q0 -81 -11 -101q-42 -13 -77 -19l136 -281l138 281q-33 6 -74 19q-10 19 -10 101q-1 82 17 92t211 10h105q186 0 204 -10t17 -92
q0 -82 -10 -101q-62 -20 -155 -33l-208 -427h197v-101h-247l-30 -62v-35h277v-101h-277v-127q76 -12 121 -26q10 -19 10 -101q-1 -82 -17 -92t-190 -10h-154q-172 0 -190 10t-17 92q0 82 10 101q49 16 121 27v126h-268v101h268z" />
    <glyph glyph-name="brokenbar" unicode="&#xa6;" horiz-adv-x="566" 
d="M436 -270h-306v700h306v-700zM130 1448h306v-700h-306v700z" />
    <glyph glyph-name="section" unicode="&#xa7;" horiz-adv-x="1156" 
d="M791 592q0 40 -37 76t-85 62q-197 105 -251 144q-53 -64 -53 -161q0 -51 52 -92q51 -41 157 -95t163 -96q54 67 54 162zM701 1334q-119 0 -165 -18t-46 -64q0 -45 32 -80q32 -36 84 -66t114 -63q146 -77 240 -166q116 -111 116 -275q0 -100 -44 -204t-117 -182
q29 -76 29 -161t-26 -151q-87 -216 -419 -216q-148 0 -286 56v266l2 4q123 -43 240 -43q119 1 165 19t46 63t-32 80t-84 65t-114 64q-146 77 -240 166q-116 111 -116 275q0 99 44 203t116 183q-28 72 -28 159t26 153q87 216 419 216q148 0 286 -56v-266l-2 -4
q-122 43 -240 43z" />
    <glyph glyph-name="dieresis" unicode="&#xa8;" horiz-adv-x="1177" 
d="M710 1312q0 72 50 122t123 50q72 0 123 -50t51 -122t-51 -122t-123 -50q-73 0 -123 50t-50 122zM120 1312q0 72 50 122t123 50q72 0 123 -50t51 -122t-51 -122t-123 -50q-73 0 -123 50t-50 122z" />
    <glyph glyph-name="copyright" unicode="&#xa9;" horiz-adv-x="1604" 
d="M864 909q-96 -1 -150 -51t-54 -152t54 -152q54 -49 138 -49t225 65l6 -2v-168q-125 -69 -273 -69t-258 96q-112 95 -112 277t111 280t260 99q149 0 272 -63v-171l-6 -3q-117 63 -213 63zM798 185q228 1 374 153t147 376q0 224 -143 376t-371 151q-229 -1 -375 -153
t-146 -376t143 -375q143 -152 371 -152zM80 710q0 152 53 287t151 237t232 158t292 56q317 0 519 -214q93 -100 145 -234t52 -285t-53 -286t-151 -237t-232 -158t-292 -56q-317 0 -516 212q-200 212 -200 520z" />
    <glyph glyph-name="guillemotleft" unicode="&#xab;" horiz-adv-x="1513" 
d="M1128 1460l265 -154l-345 -597l345 -597l-265 -154l-434 751zM554 1460l265 -154l-345 -597l345 -597l-265 -154l-434 751z" />
    <glyph glyph-name="registered" unicode="&#xae;" horiz-adv-x="1262" 
d="M547 918h28q113 0 149 18t35 62q1 42 -13 62q-30 44 -171 43h-28v-185zM414 1217h159q149 0 215 -35q104 -54 104 -179q0 -124 -118 -171q21 -40 64 -87t84 -71l4 -8l-109 -70q-57 28 -107 92t-71 118q-22 -2 -66 -2h-26v-200h-133v613zM223 908q0 -176 113 -296
q112 -120 292 -119t295 121t115 296t-112 295q-112 120 -292 120q-179 -1 -295 -121t-116 -296zM80 908q0 154 70 282t198 204t287 76q161 0 287 -76t193 -203t67 -281t-70 -283q-70 -127 -197 -203q-128 -76 -288 -76q-161 0 -287 76t-193 202q-67 128 -67 282z" />
    <glyph glyph-name="macron" unicode="&#xaf;" horiz-adv-x="842" 
d="M742 1346v-288h-642v288h642z" />
    <glyph glyph-name="degree" unicode="&#xb0;" horiz-adv-x="814" 
d="M271 1002q-1 -59 37 -99t98 -40t98 41q38 42 39 100t-37 98t-98 41q-60 0 -98 -41q-39 -41 -39 -100zM80 1002q0 142 93 238q93 98 237 98t234 -96t90 -238t-93 -239t-237 -97t-234 96t-90 238z" />
    <glyph glyph-name="plusminus" unicode="&#xb1;" horiz-adv-x="1198" 
d="M80 0v288h1038v-288h-1038zM455 705h-375v288h375v345h288v-345h375v-288h-375v-355h-288v355z" />
    <glyph glyph-name="acute" unicode="&#xb4;" horiz-adv-x="902" 
d="M649 1567q43 -23 83 -77t50 -110q-51 -74 -236 -182t-357 -140q-15 14 -39 72t-30 101q286 127 529 336z" />
    <glyph glyph-name="paragraph" unicode="&#xb6;" horiz-adv-x="1506" 
d="M515 799v218q-70 -1 -110 -33t-40 -76q-1 -44 39 -77q40 -32 111 -32zM917 0v1021q-46 7 -97 9v-1030h-305v517q-330 21 -425 231q-30 66 -30 148t28 147q28 67 72 111t107 78q190 106 484 106q415 0 705 -246l-139 -226h-4q-32 33 -91 74v-940h-305z" />
    <glyph glyph-name="periodcentered" unicode="&#xb7;" horiz-adv-x="587" 
d="M120 518q0 72 50 122t123 50q72 0 123 -50t51 -122t-51 -122t-123 -50q-73 0 -123 50t-50 122z" />
    <glyph glyph-name="cedilla" unicode="&#xb8;" horiz-adv-x="623" 
d="M405 -80q133 -48 133 -204q0 -80 -68 -136q-68 -58 -149 -58q-153 0 -257 67q4 29 24 73t35 56q13 -8 49 -19t69 -11q86 0 86 53q0 33 -43 53t-111 20v186h232v-80z" />
    <glyph glyph-name="guillemotright" unicode="&#xbb;" horiz-adv-x="1513" 
d="M694 112l345 597l-345 597l265 154l434 -751l-434 -751zM120 112l345 597l-345 597l265 154l434 -751l-434 -751z" />
    <glyph glyph-name="questiondown" unicode="&#xbf;" horiz-adv-x="1071" 
d="M476 510h285q0 -166 -60 -265t-146 -171q-86 -73 -108 -111q-22 -37 -22 -71q1 -91 133 -91t273 116h12l103 -225q-68 -78 -179 -124t-212 -46q-185 0 -307 85q-123 85 -123 256q0 114 70 202q31 39 68 76q109 109 143 153q70 92 70 216zM787 822q1 -70 -49 -120
t-120 -49q-70 -1 -120 49t-50 120t50 119t120 49t120 -49t49 -119z" />
    <glyph glyph-name="Agrave" unicode="&#xc0;" horiz-adv-x="1650" 
d="M984 578l-159 430l-160 -430h319zM1580 203q10 -19 10 -101t-18 -92t-204 -10h-118q-192 0 -210 10t-18 92t10 101q41 12 79 19l-24 68h-524l-24 -68q38 -7 79 -19q10 -19 10 -101t-18 -92t-210 -10h-118q-186 0 -198 7q-24 13 -24 95t10 101q64 19 156 32l380 1083h438
l380 -1083q92 -13 156 -32zM642 1847q243 -209 529 -336q-5 -43 -29 -101t-40 -72q-172 32 -357 140t-236 182q9 56 49 110t84 77z" />
    <glyph glyph-name="Aacute" unicode="&#xc1;" horiz-adv-x="1650" 
d="M984 578l-159 430l-160 -430h319zM1580 203q10 -19 10 -101t-18 -92t-204 -10h-118q-192 0 -210 10t-18 92t10 101q41 12 79 19l-24 68h-524l-24 -68q38 -7 79 -19q10 -19 10 -101t-18 -92t-210 -10h-118q-186 0 -198 7q-24 13 -24 95t10 101q64 19 156 32l380 1083h438
l380 -1083q92 -13 156 -32zM1021 1847q43 -23 83 -77t50 -110q-51 -74 -236 -182t-357 -140q-15 14 -39 72t-30 101q286 127 529 336z" />
    <glyph glyph-name="Acircumflex" unicode="&#xc2;" horiz-adv-x="1650" 
d="M984 578l-159 430l-160 -430h319zM1580 203q10 -19 10 -101t-18 -92t-204 -10h-118q-192 0 -210 10t-18 92t10 101q41 12 79 19l-24 68h-524l-24 -68q38 -7 79 -19q10 -19 10 -101t-18 -92t-210 -10h-118q-186 0 -198 7q-24 13 -24 95t10 101q64 19 156 32l380 1083h438
l380 -1083q92 -13 156 -32zM825 1543h-8q-219 -167 -390 -205q-11 16 -31 74t-27 99q267 138 450 329h10q183 -191 448 -329q-7 -41 -27 -99t-31 -74q-179 40 -394 205z" />
    <glyph glyph-name="Atilde" unicode="&#xc3;" horiz-adv-x="1650" 
d="M984 578l-159 430l-160 -430h319zM1580 203q10 -19 10 -101t-18 -92t-204 -10h-118q-192 0 -210 10t-18 92t10 101q41 12 79 19l-24 68h-524l-24 -68q38 -7 79 -19q10 -19 10 -101t-18 -92t-210 -10h-118q-186 0 -198 7q-24 13 -24 95t10 101q64 19 156 32l380 1083h438
l380 -1083q92 -13 156 -32zM692 1523q-39 1 -67 -23t-28 -70q-18 -2 -32 -2q-104 0 -157 49q14 105 88 183t185 78q45 0 92 -24t91 -48t86 -24q40 0 73 24t33 72q18 2 46 2t72 -13t71 -38q-13 -105 -94 -183t-193 -78q-44 0 -92 24t-91 48q-44 24 -83 23z" />
    <glyph glyph-name="Adieresis" unicode="&#xc4;" horiz-adv-x="1650" 
d="M984 578l-159 430l-160 -430h319zM1580 203q10 -19 10 -101t-18 -92t-204 -10h-118q-192 0 -210 10t-18 92t10 101q41 12 79 19l-24 68h-524l-24 -68q38 -7 79 -19q10 -19 10 -101t-18 -92t-210 -10h-118q-186 0 -198 7q-24 13 -24 95t10 101q64 19 156 32l380 1083h438
l380 -1083q92 -13 156 -32zM945 1592q1 72 51 122t122 50t123 -50t51 -122t-51 -122t-123 -50t-122 50t-51 122zM355 1592q1 72 51 122t122 50t123 -50t51 -122t-51 -122t-123 -50t-122 50t-51 122z" />
    <glyph glyph-name="Aring" unicode="&#xc5;" horiz-adv-x="1650" 
d="M984 578l-159 430l-160 -430h319zM1580 203q10 -19 10 -101t-18 -92t-204 -10h-118q-192 0 -210 10t-18 92t10 101q41 12 79 19l-24 68h-524l-24 -68q38 -7 79 -19q10 -19 10 -101t-18 -92t-210 -10h-118q-186 0 -198 7q-24 13 -24 95t10 101q64 19 156 32l380 1083h438
l380 -1083q92 -13 156 -32zM761 1647q-1 -25 19 -45t46 -20t46 20t20 45t-20 45t-46 20t-46 -20t-19 -45zM606 1647q0 89 65 153t155 64t155 -64q66 -64 66 -153q0 -87 -66 -153q-65 -66 -155 -66t-155 65t-65 154z" />
    <glyph glyph-name="AE" unicode="&#xc6;" horiz-adv-x="1988" 
d="M984 578l-159 430l-160 -430h319zM1800 658q0 -150 -20 -211q-92 -27 -196 -18q-14 21 -33 93h-228l82 -234h273q21 69 30 83q105 9 197 -18q7 -7 15 -105t8 -180v-68h-678q-192 0 -210 10t-18 92t10 101q41 12 79 19l-24 68h-524l-24 -68q38 -7 79 -19q10 -19 10 -101
t-18 -92t-210 -10h-118q-186 0 -198 7q-24 13 -24 95t10 101q64 19 156 32l380 1083h1322v-68q0 -82 -8 -180t-15 -105q-92 -27 -197 -18q-10 15 -30 83h-533l82 -234h324q22 76 33 93q104 9 196 -18q20 -63 20 -213z" />
    <glyph glyph-name="Ccedilla" unicode="&#xc7;" horiz-adv-x="1211" 
d="M873 -80q133 -48 133 -204q0 -80 -68 -136q-68 -58 -149 -58q-153 0 -257 67q4 29 24 73t35 56q13 -8 49 -19t69 -11q86 0 86 53q0 33 -43 53t-111 20v180q-251 46 -406 232t-155 451q0 134 54 255q54 120 148 210t228 143t300 53t341 -35v-169q0 -82 -8 -180t-15 -105
q-87 -26 -196 -18q-12 19 -32 87t-29 130q-23 2 -93 2t-154 -34t-134 -90t-78 -125t-28 -144t28 -144t78 -124q51 -55 133 -88t187 -33t325 46l16 -12v-281q-145 -30 -278 -38v-63z" />
    <glyph glyph-name="Egrave" unicode="&#xc8;" horiz-adv-x="1254" 
d="M1091 1318v-68q0 -82 -8 -180t-15 -105q-92 -27 -197 -18q-10 15 -30 83h-349v-234h222q22 76 33 93q104 9 196 -18q20 -63 20 -213t-20 -211q-92 -27 -196 -18q-14 21 -33 93h-222v-234h349q21 69 30 83q105 9 197 -18q7 -7 15 -105t8 -180v-68h-850q-149 0 -169 10
q-18 10 -18 92t10 101q48 15 122 27v858q-74 12 -122 27q-10 19 -10 101t18 92q20 10 169 10h850zM530 1847q243 -209 529 -336q-5 -43 -29 -101t-40 -72q-172 32 -357 140t-236 182q9 56 49 110t84 77z" />
    <glyph glyph-name="Eacute" unicode="&#xc9;" horiz-adv-x="1254" 
d="M1091 1318v-68q0 -82 -8 -180t-15 -105q-92 -27 -197 -18q-10 15 -30 83h-349v-234h222q22 76 33 93q104 9 196 -18q20 -63 20 -213t-20 -211q-92 -27 -196 -18q-14 21 -33 93h-222v-234h349q21 69 30 83q105 9 197 -18q7 -7 15 -105t8 -180v-68h-850q-149 0 -169 10
q-18 10 -18 92t10 101q48 15 122 27v858q-74 12 -122 27q-10 19 -10 101t18 92q20 10 169 10h850zM835 1847q43 -23 83 -77t50 -110q-51 -74 -236 -182t-357 -140q-15 14 -39 72t-30 101q286 127 529 336z" />
    <glyph glyph-name="Ecircumflex" unicode="&#xca;" horiz-adv-x="1254" 
d="M1091 1318v-68q0 -82 -8 -180t-15 -105q-92 -27 -197 -18q-10 15 -30 83h-349v-234h222q22 76 33 93q104 9 196 -18q20 -63 20 -213t-20 -211q-92 -27 -196 -18q-14 21 -33 93h-222v-234h349q21 69 30 83q105 9 197 -18q7 -7 15 -105t8 -180v-68h-850q-149 0 -169 10
q-18 10 -18 92t10 101q48 15 122 27v858q-74 12 -122 27q-10 19 -10 101t18 92q20 10 169 10h850zM660 1633h-8q-219 -167 -390 -205q-12 16 -32 74t-26 99q267 138 450 329h10q183 -191 448 -329q-6 -41 -26 -99t-32 -74q-179 40 -394 205z" />
    <glyph glyph-name="Edieresis" unicode="&#xcb;" horiz-adv-x="1254" 
d="M1091 1318v-68q0 -82 -8 -180t-15 -105q-92 -27 -197 -18q-10 15 -30 83h-349v-234h222q22 76 33 93q104 9 196 -18q20 -63 20 -213t-20 -211q-92 -27 -196 -18q-14 21 -33 93h-222v-234h349q21 69 30 83q105 9 197 -18q7 -7 15 -105t8 -180v-68h-850q-149 0 -169 10
q-18 10 -18 92t10 101q48 15 122 27v858q-74 12 -122 27q-10 19 -10 101t18 92q20 10 169 10h850zM748 1592q0 72 50 122t123 50q72 0 123 -50t51 -122t-51 -122t-123 -50q-73 0 -123 50t-50 122zM158 1592q0 72 50 122t123 50q72 0 123 -50t51 -122t-51 -122t-123 -50
q-73 0 -123 50t-50 122z" />
    <glyph glyph-name="Igrave" unicode="&#xcc;" horiz-adv-x="688" 
d="M70 1115q-10 19 -10 101t18 92t203 10h119q192 0 210 -10t18 -92t-10 -101q-50 -16 -121 -27v-859q78 -12 121 -26q10 -19 10 -101t-18 -92t-210 -10h-119q-185 0 -203 10t-18 92t10 101q49 16 121 27v858q-72 11 -121 27zM146 1847q243 -209 529 -336q-5 -43 -29 -101
t-40 -72q-172 32 -357 140t-236 182q9 56 49 110t84 77z" />
    <glyph glyph-name="Iacute" unicode="&#xcd;" horiz-adv-x="688" 
d="M70 1115q-10 19 -10 101t18 92t203 10h119q192 0 210 -10t18 -92t-10 -101q-50 -16 -121 -27v-859q78 -12 121 -26q10 -19 10 -101t-18 -92t-210 -10h-119q-185 0 -203 10t-18 92t10 101q49 16 121 27v858q-72 11 -121 27zM542 1847q44 -23 84 -77t49 -110
q-51 -74 -236 -182t-357 -140q-16 14 -40 72t-29 101q286 127 529 336z" />
    <glyph glyph-name="Icircumflex" unicode="&#xce;" horiz-adv-x="688" 
d="M70 1115q-10 19 -10 101t18 92t203 10h119q192 0 210 -10t18 -92t-10 -101q-50 -16 -121 -27v-859q78 -12 121 -26q10 -19 10 -101t-18 -92t-210 -10h-119q-185 0 -203 10t-18 92t10 101q49 16 121 27v858q-72 11 -121 27zM346 1543h-8q-219 -167 -390 -205
q-12 16 -32 74t-26 99q267 138 450 329h10q183 -191 448 -329q-6 -41 -26 -99t-32 -74q-179 40 -394 205z" />
    <glyph glyph-name="Idieresis" unicode="&#xcf;" horiz-adv-x="688" 
d="M70 1115q-10 19 -10 101t18 92t203 10h119q192 0 210 -10t18 -92t-10 -101q-50 -16 -121 -27v-859q78 -12 121 -26q10 -19 10 -101t-18 -92t-210 -10h-119q-185 0 -203 10t-18 92t10 101q49 16 121 27v858q-72 11 -121 27zM466 1600q0 72 50 122t123 50q72 0 123 -50
t51 -122t-51 -122t-123 -50q-73 0 -123 50t-50 122zM-124 1600q0 72 50 122t123 50q72 0 123 -50t51 -122t-51 -122t-123 -50q-73 0 -123 50t-50 122z" />
    <glyph glyph-name="Eth" unicode="&#xd0;" horiz-adv-x="1438" 
d="M482 808h166v-288h-166v-233h129q259 1 379 173q64 93 65 181q0 89 -32 155t-89 118q-58 52 -146 84t-193 32h-113v-222zM177 808v280q-73 11 -122 27q-10 19 -10 101q-1 82 17 92t204 10h391q157 0 290 -52t223 -141t138 -209q50 -120 50 -250t-43 -247t-125 -211
t-218 -151q-135 -57 -304 -57h-437q-153 0 -169 10t-17 92q0 82 10 101q49 16 122 27v290h-157v288h157z" />
    <glyph glyph-name="Ntilde" unicode="&#xd1;" horiz-adv-x="1485" 
d="M1079 1318h118q193 0 211 -10t17 -93q0 -84 -10 -100q-49 -16 -121 -27v-1088h-305l-492 785v-556q70 -11 120 -26q10 -16 10 -100q1 -84 -17 -93q-18 -10 -211 -10h-117q-186 0 -198 7q-24 13 -24 96q0 82 11 100q42 14 121 26v859q-71 11 -121 27q-10 19 -10 101
q-1 82 17 92t205 10h214l492 -786v556q-74 11 -121 27q-10 16 -10 100t18 93q18 10 203 10zM608 1523q-39 1 -67 -23t-28 -70q-18 -2 -32 -2q-104 0 -157 49q14 105 88 183t185 78q45 0 92 -24t91 -48t86 -24q40 0 73 24t33 72q18 2 46 2t72 -13t71 -38q-13 -105 -94 -183
t-193 -78q-44 0 -92 24t-91 48q-44 24 -83 23z" />
    <glyph glyph-name="Ograve" unicode="&#xd2;" horiz-adv-x="1515" 
d="M386 666q0 -172 101 -286t274 -113q173 0 271 107t97 280q1 173 -97 285t-271 112t-274 -107q-101 -106 -101 -278zM80 660q0 190 86 344t244 244q157 90 354 90t351 -90t237 -243q83 -155 83 -345q1 -190 -85 -345t-242 -245t-354 -90t-352 90t-238 244q-84 156 -84 346
zM618 1847q243 -209 529 -336q-5 -43 -29 -101t-40 -72q-172 32 -357 140t-236 182q9 56 49 110t84 77z" />
    <glyph glyph-name="Oacute" unicode="&#xd3;" horiz-adv-x="1515" 
d="M386 666q0 -172 101 -286t274 -113q173 0 271 107t97 280q1 173 -97 285t-271 112t-274 -107q-101 -106 -101 -278zM80 660q0 190 86 344t244 244q157 90 354 90t351 -90t237 -243q83 -155 83 -345q1 -190 -85 -345t-242 -245t-354 -90t-352 90t-238 244q-84 156 -84 346
zM955 1847q43 -23 83 -77t50 -110q-51 -74 -236 -182t-357 -140q-15 14 -39 72t-30 101q286 127 529 336z" />
    <glyph glyph-name="Ocircumflex" unicode="&#xd4;" horiz-adv-x="1515" 
d="M386 666q0 -172 101 -286t274 -113q173 0 271 107t97 280q1 173 -97 285t-271 112t-274 -107q-101 -106 -101 -278zM80 660q0 190 86 344t244 244q157 90 354 90t351 -90t237 -243q83 -155 83 -345q1 -190 -85 -345t-242 -245t-354 -90t-352 90t-238 244q-84 156 -84 346
zM759 1543h-8q-219 -167 -390 -205q-11 16 -31 74t-27 99q267 138 450 329h10q183 -191 448 -329q-7 -41 -27 -99t-31 -74q-179 40 -394 205z" />
    <glyph glyph-name="Otilde" unicode="&#xd5;" horiz-adv-x="1515" 
d="M386 666q0 -172 101 -286t274 -113q173 0 271 107t97 280q1 173 -97 285t-271 112t-274 -107q-101 -106 -101 -278zM80 660q0 190 86 344t244 244q157 90 354 90t351 -90t237 -243q83 -155 83 -345q1 -190 -85 -345t-242 -245t-354 -90t-352 90t-238 244q-84 156 -84 346
zM626 1523q-42 1 -70 -23t-28 -70q-18 -2 -32 -2q-104 0 -157 49q13 105 87 183t186 78q45 0 92 -24q48 -24 92 -48t84 -24t74 24q33 24 33 72q18 2 46 2t72 -13t71 -38q-13 -105 -94 -183t-193 -78q-55 0 -138 48t-125 47z" />
    <glyph glyph-name="Odieresis" unicode="&#xd6;" horiz-adv-x="1515" 
d="M386 666q0 -172 101 -286t274 -113q173 0 271 107t97 280q1 173 -97 285t-271 112t-274 -107q-101 -106 -101 -278zM80 660q0 190 86 344t244 244q157 90 354 90t351 -90t237 -243q83 -155 83 -345q1 -190 -85 -345t-242 -245t-354 -90t-352 90t-238 244q-84 156 -84 346
zM879 1592q1 72 51 122t122 50t123 -50t51 -122t-51 -122t-123 -50t-122 50t-51 122zM289 1592q1 72 51 122t122 50t123 -50t51 -122t-51 -122t-123 -50t-122 50t-51 122z" />
    <glyph glyph-name="multiply" unicode="&#xd7;" horiz-adv-x="1118" 
d="M559 723l265 265l204 -204l-265 -265l265 -265l-204 -204l-265 265l-265 -265l-204 204l265 265l-265 265l204 204z" />
    <glyph glyph-name="Oslash" unicode="&#xd8;" horiz-adv-x="1515" 
d="M1129 655q0 163 -88 271l-239 -657q153 11 240 117t87 269zM386 654q0 -183 123 -295l251 692q-172 0 -273 -107t-101 -290zM1435 654q1 -184 -85 -339t-242 -245t-355 -90q-19 0 -55 2l-71 -195l-288 105l64 177q-151 87 -237 243t-86 347t86 345t244 244q157 90 354 90
q51 0 99 -6l64 175l288 -105l-64 -176q134 -90 209 -238q75 -150 75 -334z" />
    <glyph glyph-name="Ugrave" unicode="&#xd9;" horiz-adv-x="1469" 
d="M477 611q1 -180 55 -262t193 -82t203 86t64 254v481q-72 11 -121 27q-10 19 -10 101t18 92t204 10h118q193 0 211 -10t17 -93q0 -84 -10 -100q-49 -16 -121 -27v-487q0 -395 -233 -539q-133 -82 -331 -82q-271 0 -417 152t-146 469v487q-74 11 -121 27q-10 16 -10 100
t18 93q18 10 203 10h118q193 0 205 -7q24 -13 24 -95t-10 -101q-50 -16 -121 -27v-477zM586 1847q243 -209 529 -336q-5 -43 -29 -101t-40 -72q-172 32 -357 140t-236 182q9 56 49 110t84 77z" />
    <glyph glyph-name="Uacute" unicode="&#xda;" horiz-adv-x="1469" 
d="M477 611q1 -180 55 -262t193 -82t203 86t64 254v481q-72 11 -121 27q-10 19 -10 101t18 92t204 10h118q193 0 211 -10t17 -93q0 -84 -10 -100q-49 -16 -121 -27v-487q0 -395 -233 -539q-133 -82 -331 -82q-271 0 -417 152t-146 469v487q-74 11 -121 27q-10 16 -10 100
t18 93q18 10 203 10h118q193 0 205 -7q24 -13 24 -95t-10 -101q-50 -16 -121 -27v-477zM982 1847q44 -23 84 -77t49 -110q-51 -74 -236 -182t-357 -140q-16 14 -40 72t-29 101q286 127 529 336z" />
    <glyph glyph-name="Ucircumflex" unicode="&#xdb;" horiz-adv-x="1469" 
d="M477 611q1 -180 55 -262t193 -82t203 86t64 254v481q-72 11 -121 27q-10 19 -10 101t18 92t204 10h118q193 0 211 -10t17 -93q0 -84 -10 -100q-49 -16 -121 -27v-487q0 -395 -233 -539q-133 -82 -331 -82q-271 0 -417 152t-146 469v487q-74 11 -121 27q-10 16 -10 100
t18 93q18 10 203 10h118q193 0 205 -7q24 -13 24 -95t-10 -101q-50 -16 -121 -27v-477zM754 1635h-8q-219 -167 -390 -205q-12 16 -32 74t-26 99q267 138 450 329h10q183 -191 448 -329q-6 -41 -26 -99t-32 -74q-179 40 -394 205z" />
    <glyph glyph-name="Udieresis" unicode="&#xdc;" horiz-adv-x="1469" 
d="M477 611q1 -180 55 -262t193 -82t203 86t64 254v481q-72 11 -121 27q-10 19 -10 101t18 92t204 10h118q193 0 211 -10t17 -93q0 -84 -10 -100q-49 -16 -121 -27v-487q0 -395 -233 -539q-133 -82 -331 -82q-271 0 -417 152t-146 469v487q-74 11 -121 27q-10 16 -10 100
t18 93q18 10 203 10h118q193 0 205 -7q24 -13 24 -95t-10 -101q-50 -16 -121 -27v-477zM849 1600q1 72 51 122t122 50t123 -50t51 -122t-51 -122t-123 -50t-122 50t-51 122zM259 1600q1 72 51 122t122 50t123 -50t51 -122t-51 -122t-123 -50t-122 50t-51 122z" />
    <glyph glyph-name="Yacute" unicode="&#xdd;" horiz-adv-x="1270" 
d="M40 1115q-10 19 -10 101t18 92t203 10h111q186 0 198 -7q24 -13 24 -95q0 -81 -11 -101q-42 -13 -77 -19l136 -281l138 281q-33 6 -74 19q-10 19 -10 101t18 92t210 10h105q185 0 203 -10t18 -92t-10 -101q-62 -20 -155 -33l-288 -590v-263q76 -12 121 -26
q10 -19 10 -101t-16 -92t-191 -10h-154q-171 0 -189 10t-18 92t10 101q49 16 121 27v262l-288 591q-97 13 -153 32zM778 1847q44 -23 84 -77t49 -110q-51 -74 -236 -182t-357 -140q-16 14 -40 72t-29 101q286 127 529 336z" />
    <glyph glyph-name="Thorn" unicode="&#xde;" horiz-adv-x="1317" 
d="M497 538h65q237 0 327 61q34 23 34 54q0 58 -95 91t-266 33h-65v-239zM1227 677q-1 -97 -43 -172q-138 -244 -687 -254v-22q78 -12 122 -26q10 -19 10 -101t-18 -92t-211 -10h-119q-185 0 -203 10t-18 93q0 84 10 100q42 14 121 26v860q-79 12 -121 26q-10 16 -10 100
t18 93q18 10 203 10h119q194 0 206 -7q24 -13 23 -95q0 -82 -10 -101q-44 -14 -122 -26v-24h41q689 0 689 -388z" />
    <glyph glyph-name="germandbls" unicode="&#xdf;" horiz-adv-x="1413" 
d="M207 1042q1 109 41 190q40 80 110 126q138 90 349 90t372 -88t161 -261q0 -119 -65 -176q-65 -58 -117 -85q-51 -26 -71 -48t-20 -48t22 -46t57 -34t77 -29q94 -34 167 -101q73 -68 73 -209q0 -251 -244 -322q-72 -21 -159 -21q-172 0 -297 72q0 82 8 180t15 105
q92 27 198 18q24 -46 43 -129h15q104 0 104 77q0 67 -80 101q-36 14 -78 28q-99 31 -171 93q-72 61 -72 208v18q0 147 64 209t114 81q49 17 69 35t20 42q0 78 -193 78q-143 0 -177 -57q-26 -45 -28 -100q-1 -56 -1 -97v-713q37 -6 101 -26q10 -19 10 -101t-18 -92t-190 -10
h-135q-185 0 -203 10t-18 92t10 101q60 20 137 30v809z" />
    <glyph glyph-name="agrave" unicode="&#xe0;" 
d="M364 317q0 -103 154 -103q32 0 78 26t47 62v126h-89q-190 0 -190 -111zM958 358q0 -76 27 -112q27 -35 136 -58l-132 -208q-119 0 -181 28t-106 92q-122 -120 -298 -120q-98 0 -164 31q-65 31 -100 66q-80 81 -80 231t96 228t306 77q44 0 181 -9v6q1 110 -47 158t-126 48
q-33 0 -83 -10q-9 -89 -21 -101q-12 -11 -83 -29t-106 -19q-21 7 -47 117t-36 192q219 92 417 92q197 0 327 -104q106 -85 120 -243v-353zM376 1648q243 -209 529 -336q-5 -42 -29 -100t-40 -73q-172 33 -357 141t-236 181q9 55 49 109t84 78z" />
    <glyph glyph-name="aacute" unicode="&#xe1;" 
d="M364 317q0 -103 154 -103q32 0 78 26t47 62v126h-89q-190 0 -190 -111zM958 358q0 -76 27 -112q27 -35 136 -58l-132 -208q-119 0 -181 28t-106 92q-122 -120 -298 -120q-98 0 -164 31q-65 31 -100 66q-80 81 -80 231t96 228t306 77q44 0 181 -9v6q1 110 -47 158t-126 48
q-33 0 -83 -10q-9 -89 -21 -101q-12 -11 -83 -29t-106 -19q-21 7 -47 117t-36 192q219 92 417 92q197 0 327 -104q106 -85 120 -243v-353zM738 1649q44 -23 84 -77t49 -110q-51 -74 -236 -182t-357 -140q-16 14 -40 72t-29 101q286 127 529 336z" />
    <glyph glyph-name="acircumflex" unicode="&#xe2;" 
d="M364 317q0 -103 154 -103q32 0 78 26t47 62v126h-89q-190 0 -190 -111zM958 358q0 -76 27 -112q27 -35 136 -58l-132 -208q-119 0 -181 28t-106 92q-122 -120 -298 -120q-98 0 -164 31q-65 31 -100 66q-80 81 -80 231t96 228t306 77q44 0 181 -9v6q1 110 -47 158t-126 48
q-33 0 -83 -10q-9 -89 -21 -101q-12 -11 -83 -29t-106 -19q-21 7 -47 117t-36 192q219 92 417 92q197 0 327 -104q106 -85 120 -243v-353zM519 1263h-8q-219 -167 -390 -205q-11 16 -31 74t-27 99q267 138 450 329h10q183 -191 448 -329q-7 -41 -27 -99t-31 -74
q-179 40 -394 205z" />
    <glyph glyph-name="atilde" unicode="&#xe3;" 
d="M364 317q0 -103 154 -103q32 0 78 26t47 62v126h-89q-190 0 -190 -111zM958 358q0 -76 27 -112q27 -35 136 -58l-132 -208q-119 0 -181 28t-106 92q-122 -120 -298 -120q-98 0 -164 31q-65 31 -100 66q-80 81 -80 231t96 228t306 77q44 0 181 -9v6q1 110 -47 158t-126 48
q-33 0 -83 -10q-9 -89 -21 -101q-12 -11 -83 -29t-106 -19q-21 7 -47 117t-36 192q219 92 417 92q197 0 327 -104q106 -85 120 -243v-353zM374 1234q-39 0 -67 -24t-28 -69q-18 -2 -32 -2q-104 0 -157 49q14 106 88 184t185 77q45 0 92 -24t91 -48t86 -24q40 1 73 25t33 71
q18 2 46 2t72 -13t71 -38q-13 -104 -94 -182t-193 -79q-44 -1 -92 23t-91 48q-44 24 -83 24z" />
    <glyph glyph-name="adieresis" unicode="&#xe4;" 
d="M364 317q0 -103 154 -103q32 0 78 26t47 62v126h-89q-190 0 -190 -111zM958 358q0 -76 27 -112q27 -35 136 -58l-132 -208q-119 0 -181 28t-106 92q-122 -120 -298 -120q-98 0 -164 31q-65 31 -100 66q-80 81 -80 231t96 228t306 77q44 0 181 -9v6q1 110 -47 158t-126 48
q-33 0 -83 -10q-9 -89 -21 -101q-12 -11 -83 -29t-106 -19q-21 7 -47 117t-36 192q219 92 417 92q197 0 327 -104q106 -85 120 -243v-353zM657 1312q1 72 51 122t122 50t123 -50t51 -122t-51 -122t-123 -50t-122 50t-51 122zM67 1312q1 72 51 122t122 50t123 -50t51 -122
t-51 -122t-123 -50t-122 50t-51 122z" />
    <glyph glyph-name="aring" unicode="&#xe5;" 
d="M364 317q0 -103 154 -103q32 0 78 26t47 62v126h-89q-190 0 -190 -111zM958 358q0 -76 27 -112q27 -35 136 -58l-132 -208q-119 0 -181 28t-106 92q-122 -120 -298 -120q-98 0 -164 31q-65 31 -100 66q-80 81 -80 231t96 228t306 77q44 0 181 -9v6q1 110 -47 158t-126 48
q-33 0 -83 -10q-9 -89 -21 -101q-12 -11 -83 -29t-106 -19q-21 7 -47 117t-36 192q219 92 417 92q197 0 327 -104q106 -85 120 -243v-353zM429 1358q-1 -26 19 -46t46 -19q26 -1 46 19t20 46t-20 46t-46 19q-26 1 -46 -19t-19 -46zM274 1358q0 89 65 153t155 64
q90 -1 155 -65q66 -64 66 -152t-66 -154q-65 -66 -155 -65q-90 0 -155 65t-65 154z" />
    <glyph glyph-name="ae" unicode="&#xe6;" horiz-adv-x="1624" 
d="M364 317q0 -103 154 -103q32 0 78 26t47 62v126h-89q-190 0 -190 -111zM1264 663q-18 163 -123 163q-54 0 -98 -45t-69 -118h290zM1194 -20q-258 0 -409 167q-182 -167 -381 -167q-98 0 -164 31q-65 31 -100 66q-80 81 -80 231t96 228t306 77q44 0 181 -9v6
q1 110 -47 158t-126 48q-38 0 -83 -10q-9 -89 -21 -101q-12 -11 -83 -29t-106 -19q-21 7 -47 117t-36 192q222 92 416 92t321 -99q121 99 309 99q266 0 363 -201q51 -106 51 -246v-172h-595q19 -109 81 -169t142 -60q82 0 182 29t164 61l4 -3v-246q-142 -71 -338 -71z" />
    <glyph glyph-name="ccedilla" unicode="&#xe7;" horiz-adv-x="1072" 
d="M743 -80q133 -48 133 -204q0 -80 -68 -136q-68 -58 -149 -58q-153 0 -257 67q4 29 24 73t35 56q13 -8 49 -19t69 -11q86 0 86 53q0 33 -43 53t-111 20v176q-183 33 -307 164t-124 362q0 134 46 240t125 170q161 132 371 132t380 -91q-2 -199 -23 -305q-63 -19 -99 -22
t-98 4q-19 35 -45 160q-36 4 -63 4q-123 0 -201 -72t-78 -220q0 -146 78 -216t203 -71q72 0 140 22t177 71l9 -3v-241q-122 -68 -259 -89v-69z" />
    <glyph glyph-name="egrave" unicode="&#xe8;" horiz-adv-x="1049" 
d="M689 663q-18 163 -123 163q-54 0 -98 -45t-69 -118h290zM957 51q-142 -71 -350 -71t-362 132q-77 65 -121 173t-44 245q0 234 126 381t359 147q266 0 363 -201q51 -106 51 -246v-172h-595q18 -109 80 -169t144 -60t182 29t163 61l4 -3v-246zM372 1567q243 -209 529 -336
q-5 -43 -29 -101t-40 -72q-172 32 -357 140t-236 182q9 56 49 110t84 77z" />
    <glyph glyph-name="eacute" unicode="&#xe9;" horiz-adv-x="1049" 
d="M689 663q-18 163 -123 163q-54 0 -98 -45t-69 -118h290zM957 51q-142 -71 -350 -71t-362 132q-77 65 -121 173t-44 245q0 234 126 381t359 147q266 0 363 -201q51 -106 51 -246v-172h-595q18 -109 80 -169t144 -60t182 29t163 61l4 -3v-246zM722 1567q44 -23 84 -77
t49 -110q-51 -74 -236 -182t-357 -140q-16 14 -40 72t-29 101q286 127 529 336z" />
    <glyph glyph-name="ecircumflex" unicode="&#xea;" horiz-adv-x="1049" 
d="M689 663q-18 163 -123 163q-54 0 -98 -45t-69 -118h290zM957 51q-142 -71 -350 -71t-362 132q-77 65 -121 173t-44 245q0 234 126 381t359 147q266 0 363 -201q51 -106 51 -246v-172h-595q18 -109 80 -169t144 -60t182 29t163 61l4 -3v-246zM527 1263h-8
q-219 -167 -390 -205q-11 16 -31 74t-27 99q267 138 450 329h10q183 -191 448 -329q-7 -41 -27 -99t-31 -74q-179 40 -394 205z" />
    <glyph glyph-name="edieresis" unicode="&#xeb;" horiz-adv-x="1049" 
d="M689 663q-18 163 -123 163q-54 0 -98 -45t-69 -118h290zM957 51q-142 -71 -350 -71t-362 132q-77 65 -121 173t-44 245q0 234 126 381t359 147q266 0 363 -201q51 -106 51 -246v-172h-595q18 -109 80 -169t144 -60t182 29t163 61l4 -3v-246zM663 1312q1 72 51 122t122 50
t123 -50t51 -122t-51 -122t-123 -50t-122 50t-51 122zM73 1312q1 72 51 122t122 50t123 -50t51 -122t-51 -122t-123 -50t-122 50t-51 122z" />
    <glyph glyph-name="igrave" unicode="&#xec;" horiz-adv-x="695" 
d="M101 900q0 70 9 98q106 32 228 46t178 14h38v-829q78 -12 121 -26q10 -19 10 -101q1 -82 -17 -92t-211 -10h-135q-186 0 -204 10t-17 92q0 82 10 101q60 20 137 30v563q-97 2 -130 9q-17 25 -17 95zM143 1567q243 -209 529 -336q-6 -43 -30 -101t-39 -72
q-172 32 -357 140t-236 182q10 56 50 110t83 77z" />
    <glyph glyph-name="iacute" unicode="&#xed;" horiz-adv-x="695" 
d="M101 900q0 70 9 98q106 32 228 46t178 14h38v-829q78 -12 121 -26q10 -19 10 -101q1 -82 -17 -92t-211 -10h-135q-186 0 -204 10t-17 92q0 82 10 101q60 20 137 30v563q-97 2 -130 9q-17 25 -17 95zM539 1567q43 -23 83 -77t50 -110q-51 -74 -236 -182t-357 -140
q-15 14 -39 72t-30 101q286 127 529 336z" />
    <glyph glyph-name="icircumflex" unicode="&#xee;" horiz-adv-x="708" 
d="M114 900q0 70 9 98q105 32 227 46t179 14h38v-829q78 -12 121 -26q10 -19 10 -101t-18 -92t-210 -10h-135q-185 0 -203 10t-18 92t10 101q60 20 137 30v563q-97 2 -130 9q-17 25 -17 95zM356 1263h-8q-219 -167 -390 -205q-12 16 -32 74t-26 99q267 138 450 329h10
q183 -191 448 -329q-6 -41 -26 -99t-32 -74q-179 40 -394 205z" />
    <glyph glyph-name="idieresis" unicode="&#xef;" horiz-adv-x="617" 
d="M69 900q0 70 9 98q106 32 228 46t178 14h38v-829q78 -12 121 -26q10 -19 10 -101q1 -82 -17 -92t-211 -10h-135q-186 0 -204 10t-17 92q0 82 10 101q60 20 137 30v563q-97 2 -130 9q-17 25 -17 95zM430 1312q0 72 50 122t123 50q72 0 123 -50t51 -122t-51 -122t-123 -50
q-73 0 -123 50t-50 122zM-160 1312q0 72 50 122t123 50q72 0 123 -50t51 -122t-51 -122t-123 -50q-73 0 -123 50t-50 122z" />
    <glyph glyph-name="eth" unicode="&#xf0;" horiz-adv-x="1183" 
d="M387 497q1 -97 49 -153t140 -56q182 0 182 202q0 98 -46 154t-139 56q-92 0 -139 -54t-47 -149zM1062 541q0 -271 -133 -416t-355 -145t-356 141t-134 370t138 373t357 144q31 0 55 -3q-31 37 -61 64l-250 -91q-72 -27 -136 -27t-127 17q0 75 7 165t14 97q88 25 179 16
q6 -12 19 -46l74 27q-63 36 -147 68l148 227q162 -73 309 -186l197 74q70 27 135 27t128 -17q0 -75 -7 -165t-14 -97q-88 -25 -179 -16q-6 10 -20 46l-61 -23q104 -107 162 -277t58 -347z" />
    <glyph glyph-name="ntilde" unicode="&#xf1;" horiz-adv-x="1358" 
d="M881 560q-1 251 -173 251q-86 0 -195 -62v-520q78 -12 121 -26q10 -19 10 -101t-18 -92t-210 -10h-135q-185 0 -203 10t-18 92t10 101q60 20 137 30v543q-97 2 -130 9q-17 25 -17 95t9 98q76 24 174 42t142 18h38l47 -103q99 63 181 93t182 30q177 0 265 -95t89 -298
v-436q78 -12 121 -26q10 -19 10 -101t-18 -92t-210 -10h-135q-185 0 -203 10t-18 92t10 101q60 20 137 30v327zM560 1235q-42 1 -70 -23t-28 -70q-18 -2 -32 -2q-104 0 -157 49q13 105 87 183t186 78q45 0 92 -24q48 -24 92 -48t84 -24t74 24q33 24 33 72q18 2 46 2t72 -13
t71 -38q-13 -105 -94 -183t-193 -78q-55 0 -138 48t-125 47z" />
    <glyph glyph-name="ograve" unicode="&#xf2;" horiz-adv-x="1260" 
d="M393 522q-1 -126 63 -212t176 -85t174 81t61 208q0 128 -62 213q-63 86 -175 86t-174 -82q-62 -83 -63 -209zM80 518q0 240 152 390t402 150t398 -150t148 -388q0 -240 -152 -390t-402 -150t-398 149t-148 389zM466 1567q243 -209 529 -336q-5 -43 -29 -101t-40 -72
q-172 32 -357 140t-236 182q9 56 49 110t84 77z" />
    <glyph glyph-name="oacute" unicode="&#xf3;" horiz-adv-x="1260" 
d="M393 522q-1 -126 63 -212t176 -85t174 81t61 208q0 128 -62 213q-63 86 -175 86t-174 -82q-62 -83 -63 -209zM80 518q0 240 152 390t402 150t398 -150t148 -388q0 -240 -152 -390t-402 -150t-398 149t-148 389zM828 1567q44 -23 84 -77t49 -110q-51 -74 -236 -182
t-357 -140q-16 14 -40 72t-29 101q286 127 529 336z" />
    <glyph glyph-name="ocircumflex" unicode="&#xf4;" horiz-adv-x="1260" 
d="M393 522q-1 -126 63 -212t176 -85t174 81t61 208q0 128 -62 213q-63 86 -175 86t-174 -82q-62 -83 -63 -209zM80 518q0 240 152 390t402 150t398 -150t148 -388q0 -240 -152 -390t-402 -150t-398 149t-148 389zM632 1263h-8q-219 -167 -390 -205q-12 16 -32 74t-26 99
q267 138 450 329h10q183 -191 448 -329q-6 -41 -26 -99t-32 -74q-179 40 -394 205z" />
    <glyph glyph-name="otilde" unicode="&#xf5;" horiz-adv-x="1260" 
d="M393 522q-1 -126 63 -212t176 -85t174 81t61 208q0 128 -62 213q-63 86 -175 86t-174 -82q-62 -83 -63 -209zM80 518q0 240 152 390t402 150t398 -150t148 -388q0 -240 -152 -390t-402 -150t-398 149t-148 389zM498 1235q-42 1 -70 -23t-28 -70q-18 -2 -32 -2
q-104 0 -157 49q13 105 87 183t186 78q45 0 92 -24q48 -24 92 -48t84 -24t74 24q33 24 33 72q18 2 46 2t72 -13t71 -38q-13 -105 -94 -183t-193 -78q-55 0 -138 48t-125 47z" />
    <glyph glyph-name="odieresis" unicode="&#xf6;" horiz-adv-x="1260" 
d="M393 522q-1 -126 63 -212t176 -85t174 81t61 208q0 128 -62 213q-63 86 -175 86t-174 -82q-62 -83 -63 -209zM80 518q0 240 152 390t402 150t398 -150t148 -388q0 -240 -152 -390t-402 -150t-398 149t-148 389zM751 1312q1 72 51 122t122 50t123 -50t51 -122t-51 -122
t-123 -50t-122 50t-51 122zM161 1312q1 72 51 122t122 50t123 -50t51 -122t-51 -122t-123 -50t-122 50t-51 122z" />
    <glyph glyph-name="divide" unicode="&#xf7;" horiz-adv-x="1218" 
d="M435 152q1 72 51 122t122 50t123 -50t51 -122t-51 -122t-123 -50t-122 50t-51 122zM90 375v288h1038v-288h-1038zM435 886q1 72 51 122t122 50t123 -50t51 -122t-51 -122t-123 -50t-122 50t-51 122z" />
    <glyph glyph-name="oslash" unicode="&#xf8;" horiz-adv-x="1260" 
d="M867 497q0 91 -20 150l-151 -414q82 21 126 97t45 167zM393 536q0 -97 28 -163l158 435q-88 -18 -137 -96t-49 -176zM1180 522q0 -242 -152 -392t-402 -150h-22l-92 -252l-288 105l84 232q-108 70 -168 187t-60 264q0 242 152 392t402 150l35 -1l81 222l288 -105
l-76 -208q106 -72 162 -186t56 -258z" />
    <glyph glyph-name="ugrave" unicode="&#xf9;" horiz-adv-x="1365" 
d="M493 480q0 -253 178 -253q77 0 190 64v485q-97 2 -130 9q-17 25 -17 95t9 98q105 32 227 46t179 14h38v-745q71 16 140 16q18 -65 18 -127t-11 -108q-167 -36 -316 -94h-39l-52 100q-4 7 -10 21q-97 -63 -178 -92t-178 -29q-176 0 -265 96t-89 299v401q-97 2 -130 9
q-17 25 -17 95t9 98q105 32 227 46t179 14h38v-558zM484 1567q243 -209 529 -336q-5 -43 -29 -101t-40 -72q-172 32 -357 140t-236 182q9 56 49 110t84 77z" />
    <glyph glyph-name="uacute" unicode="&#xfa;" horiz-adv-x="1365" 
d="M493 480q0 -253 178 -253q77 0 190 64v485q-97 2 -130 9q-17 25 -17 95t9 98q105 32 227 46t179 14h38v-745q71 16 140 16q18 -65 18 -127t-11 -108q-167 -36 -316 -94h-39l-52 100q-4 7 -10 21q-97 -63 -178 -92t-178 -29q-176 0 -265 96t-89 299v401q-97 2 -130 9
q-17 25 -17 95t9 98q105 32 227 46t179 14h38v-558zM850 1567q44 -23 84 -77t49 -110q-51 -74 -236 -182t-357 -140q-16 14 -40 72t-29 101q286 127 529 336z" />
    <glyph glyph-name="ucircumflex" unicode="&#xfb;" horiz-adv-x="1365" 
d="M493 480q0 -253 178 -253q77 0 190 64v485q-97 2 -130 9q-17 25 -17 95t9 98q105 32 227 46t179 14h38v-745q71 16 140 16q18 -65 18 -127t-11 -108q-167 -36 -316 -94h-39l-52 100q-4 7 -10 21q-97 -63 -178 -92t-178 -29q-176 0 -265 96t-89 299v401q-97 2 -130 9
q-17 25 -17 95t9 98q105 32 227 46t179 14h38v-558zM684 1344h-8q-219 -167 -390 -205q-12 17 -32 75t-26 98q267 138 450 329h10q183 -191 448 -329q-6 -40 -26 -98t-32 -75q-179 40 -394 205z" />
    <glyph glyph-name="udieresis" unicode="&#xfc;" horiz-adv-x="1365" 
d="M493 480q0 -253 178 -253q77 0 190 64v485q-97 2 -130 9q-17 25 -17 95t9 98q105 32 227 46t179 14h38v-745q71 16 140 16q18 -65 18 -127t-11 -108q-167 -36 -316 -94h-39l-52 100q-4 7 -10 21q-97 -63 -178 -92t-178 -29q-176 0 -265 96t-89 299v401q-97 2 -130 9
q-17 25 -17 95t9 98q105 32 227 46t179 14h38v-558zM803 1312q1 72 51 122t122 50t123 -50t51 -122t-51 -122t-123 -50t-122 50t-51 122zM213 1312q1 72 51 122t122 50t123 -50t51 -122t-51 -122t-123 -50t-122 50t-51 122z" />
    <glyph glyph-name="yacute" unicode="&#xfd;" horiz-adv-x="1324" 
d="M737 835q-10 19 -10 101q-1 82 17 92t204 10h88q192 0 210 -10t18 -92t-10 -101q-48 -15 -134 -27l-273 -808q-80 -238 -192 -348q-111 -110 -273 -110t-313 72q0 213 23 302q44 15 102 20t96 -2q28 -43 47 -105h9q71 1 107 37t72 134h-48l-273 808q-89 12 -134 27
q-10 19 -10 101t18 92t210 10h88q186 0 204 -10t17 -92q0 -82 -10 -101q-25 -9 -64 -17l140 -418l140 418q-41 8 -66 17zM905 1567q43 -23 83 -77t50 -110q-51 -74 -236 -182t-357 -140q-15 14 -39 72t-30 101q286 127 529 336z" />
    <glyph glyph-name="thorn" unicode="&#xfe;" horiz-adv-x="1273" 
d="M656 809q-84 0 -143 -51v-518q48 -13 108 -13q127 0 199 73t72 229t-98 236q-54 44 -138 44zM60 1290q0 70 9 98q105 32 227 46t179 14h38v-426q86 36 194 36q107 0 203 -44t156 -118q126 -156 127 -370q0 -164 -77 -290t-207 -190q-130 -66 -292 -66q-56 0 -104 7v-216
q78 -12 121 -26q10 -19 10 -101t-18 -92t-210 -10h-135q-185 0 -203 10t-18 92t10 101q60 20 137 30v1411q-97 2 -130 9q-17 25 -17 95z" />
    <glyph glyph-name="ydieresis" unicode="&#xff;" horiz-adv-x="1324" 
d="M737 835q-10 19 -10 101q-1 82 17 92t204 10h88q192 0 210 -10t18 -92t-10 -101q-48 -15 -134 -27l-273 -808q-80 -238 -192 -348q-111 -110 -273 -110t-313 72q0 213 23 302q44 15 102 20t96 -2q28 -43 47 -105h9q71 1 107 37t72 134h-48l-273 808q-89 12 -134 27
q-10 19 -10 101t18 92t210 10h88q186 0 204 -10t17 -92q0 -82 -10 -101q-25 -9 -64 -17l140 -418l140 418q-41 8 -66 17zM788 1312q0 72 50 122t123 50q72 0 123 -50t51 -122t-51 -122t-123 -50q-73 0 -123 50t-50 122zM198 1312q0 72 50 122t123 50q72 0 123 -50t51 -122
t-51 -122t-123 -50q-73 0 -123 50t-50 122z" />
    <glyph glyph-name="Amacron" unicode="&#x100;" horiz-adv-x="1650" 
d="M984 578l-159 430l-160 -430h319zM1580 203q10 -19 10 -101t-18 -92t-204 -10h-118q-192 0 -210 10t-18 92t10 101q41 12 79 19l-24 68h-524l-24 -68q38 -7 79 -19q10 -19 10 -101t-18 -92t-210 -10h-118q-186 0 -198 7q-24 13 -24 95t10 101q64 19 156 32l380 1083h438
l380 -1083q92 -13 156 -32zM1147 1716v-288h-642v288h642z" />
    <glyph glyph-name="amacron" unicode="&#x101;" 
d="M364 317q0 -103 154 -103q32 0 78 26t47 62v126h-89q-190 0 -190 -111zM958 358q0 -76 27 -112q27 -35 136 -58l-132 -208q-119 0 -181 28t-106 92q-122 -120 -298 -120q-98 0 -164 31q-65 31 -100 66q-80 81 -80 231t96 228t306 77q44 0 181 -9v6q1 110 -47 158t-126 48
q-33 0 -83 -10q-9 -89 -21 -101q-12 -11 -83 -29t-106 -19q-21 7 -47 117t-36 192q219 92 417 92q197 0 327 -104q106 -85 120 -243v-353zM842 1428v-288h-642v288h642z" />
    <glyph glyph-name="Abreve" unicode="&#x102;" horiz-adv-x="1650" 
d="M984 578l-159 430l-160 -430h319zM1580 203q10 -19 10 -101t-18 -92t-204 -10h-118q-192 0 -210 10t-18 92t10 101q41 12 79 19l-24 68h-524l-24 -68q38 -7 79 -19q10 -19 10 -101t-18 -92t-210 -10h-118q-186 0 -198 7q-24 13 -24 95t10 101q64 19 156 32l380 1083h438
l380 -1083q92 -13 156 -32zM836 1428q-116 0 -201 39t-177 135q5 32 51 84t80 63q88 -94 235 -94t242 94q33 -11 78 -65t50 -87q-150 -169 -358 -169z" />
    <glyph glyph-name="abreve" unicode="&#x103;" 
d="M364 317q0 -103 154 -103q32 0 78 26t47 62v126h-89q-190 0 -190 -111zM958 358q0 -76 27 -112q27 -35 136 -58l-132 -208q-119 0 -181 28t-106 92q-122 -120 -298 -120q-98 0 -164 31q-65 31 -100 66q-80 81 -80 231t96 228t306 77q44 0 181 -9v6q1 110 -47 158t-126 48
q-33 0 -83 -10q-9 -89 -21 -101q-12 -11 -83 -29t-106 -19q-21 7 -47 117t-36 192q219 92 417 92q197 0 327 -104q106 -85 120 -243v-353zM551 1139q-116 0 -201 39t-177 135q5 33 51 85t80 62q88 -94 235 -94t242 94q33 -10 78 -64t50 -88q-150 -169 -358 -169z" />
    <glyph glyph-name="Aogonek" unicode="&#x104;" horiz-adv-x="1650" 
d="M984 578l-159 430l-160 -430h319zM1580 203q10 -19 10 -101t-18 -92q-6 -4 -76 -7l7 -3q-82 -36 -141 -100t-59 -116t47 -51q39 0 142 48l7 -5v-203q-72 -51 -182 -51t-181 70t-71 182q0 110 109 227q-126 5 -134 9q-18 10 -18 92t10 101q41 12 79 19l-24 68h-524
l-24 -68q38 -7 79 -19q10 -19 10 -101t-18 -92t-210 -10h-118q-186 0 -198 7q-24 13 -24 95t10 101q64 19 156 32l380 1083h438l380 -1083q92 -13 156 -32z" />
    <glyph glyph-name="aogonek" unicode="&#x105;" 
d="M364 317q0 -103 154 -103q32 0 78 26t47 62v126h-89q-190 0 -190 -111zM876 -267q39 0 142 48l7 -5v-203q-72 -51 -182 -51t-181 70t-71 177q0 70 43 144t114 134q-23 21 -46 53q-122 -120 -298 -120q-98 0 -164 31q-65 31 -100 66q-80 81 -80 231t96 228t306 77
q44 0 181 -9v6q1 110 -47 158t-126 48q-33 0 -83 -10q-9 -89 -21 -101q-12 -11 -83 -29t-106 -19q-21 7 -47 117t-36 192q219 92 417 92q197 0 327 -104q106 -85 120 -243v-353q0 -76 27 -112q27 -35 136 -58l-132 -208q-69 -38 -115 -94t-45 -104q0 -48 47 -49z" />
    <glyph glyph-name="Cacute" unicode="&#x106;" horiz-adv-x="1211" 
d="M1151 1134q0 -82 -8 -180t-15 -105q-87 -26 -196 -18q-12 19 -32 87t-29 130q-23 2 -93 2t-154 -34t-134 -90t-78 -125t-28 -144t28 -144t78 -124q51 -55 133 -88t187 -33t325 46l16 -12v-281q-199 -41 -381 -41t-343 88q-163 88 -255 248t-92 361q0 134 54 255
q54 120 148 210t228 143t300 53t341 -35v-169zM966 1847q44 -23 84 -77t49 -110q-51 -74 -236 -182t-357 -140q-16 14 -40 72t-29 101q286 127 529 336z" />
    <glyph glyph-name="cacute" unicode="&#x107;" horiz-adv-x="1072" 
d="M627 -20q-281 0 -436 188q-111 135 -111 348q0 134 46 240t125 170q161 132 371 132t380 -91q-2 -199 -23 -305q-63 -19 -99 -22t-98 4q-19 35 -45 160q-36 4 -63 4q-123 0 -201 -72t-78 -220q0 -146 78 -216t203 -71q72 0 140 22t177 71l9 -3v-241q-176 -98 -375 -98z
M734 1567q44 -23 84 -77t49 -110q-51 -74 -236 -182t-357 -140q-16 14 -40 72t-29 101q286 127 529 336z" />
    <glyph glyph-name="Ccircumflex" unicode="&#x108;" horiz-adv-x="1270" 
d="M1151 1134q0 -82 -8 -180t-15 -105q-87 -26 -196 -18q-12 19 -32 87t-29 130q-23 2 -93 2t-154 -34t-134 -90t-78 -125t-28 -144t28 -144t78 -124q51 -55 133 -88t187 -33t325 46l16 -12v-281q-199 -41 -381 -41t-343 88q-163 88 -255 248t-92 361q0 134 54 255
q54 120 148 210t228 143t300 53t341 -35v-169zM758 1633h-8q-219 -167 -390 -205q-12 16 -32 74t-26 99q267 138 450 329h10q183 -191 448 -329q-6 -41 -26 -99t-32 -74q-179 40 -394 205z" />
    <glyph glyph-name="ccircumflex" unicode="&#x109;" horiz-adv-x="1149" 
d="M627 -20q-281 0 -436 188q-111 135 -111 348q0 134 46 240t125 170q161 132 371 132t380 -91q-2 -199 -23 -305q-63 -19 -99 -22t-98 4q-19 35 -45 160q-36 4 -63 4q-123 0 -201 -72t-78 -220q0 -146 78 -216t203 -71q72 0 140 22t177 71l9 -3v-241q-176 -98 -375 -98z
M627 1263h-8q-219 -167 -390 -205q-11 16 -31 74t-27 99q267 138 450 329h10q183 -191 448 -329q-7 -41 -27 -99t-31 -74q-179 40 -394 205z" />
    <glyph glyph-name="Ccaron" unicode="&#x10c;" horiz-adv-x="1260" 
d="M1151 1134q0 -82 -8 -180t-15 -105q-87 -26 -196 -18q-12 19 -32 87t-29 130q-23 2 -93 2t-154 -34t-134 -90t-78 -125t-28 -144t28 -144t78 -124q51 -55 133 -88t187 -33t325 46l16 -12v-281q-199 -41 -381 -41t-343 88q-163 88 -255 248t-92 361q0 134 54 255
q54 120 148 210t228 143t300 53t341 -35v-169zM740 1635h8q215 165 394 205q12 -16 32 -74t26 -99q-265 -138 -448 -329h-10q-183 191 -450 329q6 41 26 99t32 74q171 -38 390 -205z" />
    <glyph glyph-name="ccaron" unicode="&#x10d;" 
d="M627 -20q-281 0 -436 188q-111 135 -111 348q0 134 46 240t125 170q161 132 371 132t380 -91q-2 -199 -23 -305q-63 -19 -99 -22t-98 4q-19 35 -45 160q-36 4 -63 4q-123 0 -201 -72t-78 -220q0 -146 78 -216t203 -71q72 0 140 22t177 71l9 -3v-241q-176 -98 -375 -98z
M611 1436h8q215 165 394 205q11 -17 31 -75t27 -98q-265 -138 -448 -329h-10q-183 191 -450 329q7 40 27 98t31 75q171 -38 390 -205z" />
    <glyph glyph-name="Dcaron" unicode="&#x10e;" horiz-adv-x="1453" 
d="M497 287h129q260 1 380 173q64 93 64 181q0 89 -32 155t-89 118t-145 84t-194 32h-113v-743zM281 1318h391q157 0 290 -52q132 -52 222 -141t140 -209t49 -250q0 -130 -43 -247q-44 -117 -126 -211t-217 -151t-304 -57h-437q-154 0 -170 10t-16 92t10 101q49 16 122 27
v858q-73 11 -122 27q-10 19 -10 101t18 92t203 10zM644 1636h8q215 165 394 205q12 -17 32 -75t26 -98q-265 -138 -448 -329h-10q-183 191 -450 329q6 40 26 98t32 75q171 -38 390 -205z" />
    <glyph glyph-name="dcaron" unicode="&#x10f;" horiz-adv-x="1718" 
d="M618 227q110 0 184 84v474q-58 24 -137 24q-125 0 -197 -82t-73 -214q1 -132 57 -209t166 -77zM1422 1448q68 0 122 -46t54 -155q0 -108 -90 -232t-195 -180l-66 81q75 126 75 198t-68 164q0 70 50 120t118 50zM1109 1448v-1155q71 16 140 16q18 -65 18 -127t-11 -108
q-167 -36 -316 -94h-39l-52 99q-125 -99 -278 -99q-203 0 -346 145q-67 69 -106 169t-39 217q0 239 153 393t413 154q69 0 157 -14v142q-97 2 -130 9q-17 25 -17 95t9 98q197 60 406 60h38z" />
    <glyph glyph-name="dcroat" unicode="&#x111;" horiz-adv-x="1307" 
d="M620 809q-126 0 -198 -82t-72 -214t56 -209t166 -77t185 84v474q-58 24 -137 24zM1064 1015v-722q71 16 140 16q18 -65 18 -127t-11 -108q-167 -36 -316 -94h-39l-52 99q-125 -99 -278 -99q-203 0 -346 145q-67 69 -106 169t-39 217q0 239 153 393t413 154q69 0 157 -14
v142q-97 2 -130 9q-17 25 -17 95t9 98q197 60 406 60h38v-257h206v-176h-206z" />
    <glyph glyph-name="Emacron" unicode="&#x112;" horiz-adv-x="1134" 
d="M1035 1318v-68q0 -82 -8 -180t-15 -105q-92 -27 -197 -18q-10 15 -30 83h-349v-234h222q22 76 33 93q104 9 196 -18q20 -63 20 -213t-20 -211q-92 -27 -196 -18q-14 21 -33 93h-222v-234h349q21 69 30 83q105 9 197 -18q7 -7 15 -105t8 -180v-68h-850q-149 0 -169 10
q-18 10 -18 92t10 101q48 15 122 27v858q-74 12 -122 27q-10 19 -10 101t18 92q20 10 169 10h850zM917 1716v-288h-642v288h642z" />
    <glyph glyph-name="emacron" unicode="&#x113;" horiz-adv-x="1049" 
d="M689 663q-18 163 -123 163q-54 0 -98 -45t-69 -118h290zM957 51q-142 -71 -350 -71t-362 132q-77 65 -121 173t-44 245q0 234 126 381t359 147q266 0 363 -201q51 -106 51 -246v-172h-595q18 -109 80 -169t144 -60t182 29t163 61l4 -3v-246zM881 1428v-288h-642v288h642z
" />
    <glyph glyph-name="Edotaccent" unicode="&#x116;" horiz-adv-x="1134" 
d="M1035 1318v-68q0 -82 -8 -180t-15 -105q-92 -27 -197 -18q-10 15 -30 83h-349v-234h222q22 76 33 93q104 9 196 -18q20 -63 20 -213t-20 -211q-92 -27 -196 -18q-14 21 -33 93h-222v-234h349q21 69 30 83q105 9 197 -18q7 -7 15 -105t8 -180v-68h-850q-149 0 -169 10
q-18 10 -18 92t10 101q48 15 122 27v858q-74 12 -122 27q-10 19 -10 101t18 92q20 10 169 10h850zM416 1592q0 72 50 122t123 50q72 0 123 -50t51 -122t-51 -122t-123 -50q-73 0 -123 50t-50 122z" />
    <glyph glyph-name="edotaccent" unicode="&#x117;" horiz-adv-x="1049" 
d="M689 663q-18 163 -123 163q-54 0 -98 -45t-69 -118h290zM957 51q-142 -71 -350 -71t-362 132q-77 65 -121 173t-44 245q0 234 126 381t359 147q266 0 363 -201q51 -106 51 -246v-172h-595q18 -109 80 -169t144 -60t182 29t163 61l4 -3v-246zM404 1312q0 72 50 122t123 50
q72 0 123 -50t51 -122t-51 -122t-123 -50q-73 0 -123 50t-50 122z" />
    <glyph glyph-name="Eogonek" unicode="&#x118;" horiz-adv-x="1134" 
d="M436 1030v-234h222q22 76 33 93q104 9 196 -18q20 -63 20 -213t-20 -211q-92 -27 -196 -18q-14 21 -33 93h-222v-234h349q21 69 30 83q105 9 197 -18q7 -7 15 -105t8 -180v-68h-1q-82 -36 -141 -100t-59 -116t47 -51q39 0 142 48l7 -5v-203q-72 -51 -182 -51t-181 70
t-71 180t108 228h-519q-149 0 -169 10q-18 10 -18 92t10 101q48 15 122 27v858q-74 12 -122 27q-10 19 -10 101t18 92q20 10 169 10h850v-68q0 -82 -8 -180t-15 -105q-92 -27 -197 -18q-10 15 -30 83h-349z" />
    <glyph glyph-name="eogonek" unicode="&#x119;" horiz-adv-x="1049" 
d="M689 663q-18 163 -123 163q-54 0 -98 -45t-69 -118h290zM810 -407q-110 1 -181 71t-71 176q0 67 41 140q-213 6 -361 138q-74 66 -116 172t-42 240q0 234 126 381t359 147q266 0 363 -201q51 -106 51 -246v-172h-595q18 -109 80 -169t144 -60t182 29t163 61l4 -3v-246
l-7 -3q-66 -40 -110 -94t-44 -102t47 -48q39 0 142 48l7 -5v-203q-72 -51 -182 -51z" />
    <glyph glyph-name="Ecaron" unicode="&#x11a;" horiz-adv-x="1134" 
d="M1035 1318v-68q0 -82 -8 -180t-15 -105q-92 -27 -197 -18q-10 15 -30 83h-349v-234h222q22 76 33 93q104 9 196 -18q20 -63 20 -213t-20 -211q-92 -27 -196 -18q-14 21 -33 93h-222v-234h349q21 69 30 83q105 9 197 -18q7 -7 15 -105t8 -180v-68h-850q-149 0 -169 10
q-18 10 -18 92t10 101q48 15 122 27v858q-74 12 -122 27q-10 19 -10 101t18 92q20 10 169 10h850zM600 1635h8q215 165 394 205q12 -16 32 -74t26 -99q-265 -138 -448 -329h-10q-183 191 -450 329q6 41 26 99t32 74q171 -38 390 -205z" />
    <glyph glyph-name="ecaron" unicode="&#x11b;" horiz-adv-x="1049" 
d="M689 663q-18 163 -123 163q-54 0 -98 -45t-69 -118h290zM957 51q-142 -71 -350 -71t-362 132q-77 65 -121 173t-44 245q0 234 126 381t359 147q266 0 363 -201q51 -106 51 -246v-172h-595q18 -109 80 -169t144 -60t182 29t163 61l4 -3v-246zM553 1436h8q215 165 394 205
q11 -17 31 -75t27 -98q-265 -138 -448 -329h-10q-183 191 -450 329q7 40 27 98t31 75q171 -38 390 -205z" />
    <glyph glyph-name="Gcircumflex" unicode="&#x11c;" horiz-adv-x="1352" 
d="M818 1338q143 0 343 -46v-111q0 -83 -8 -181t-15 -104q-72 -21 -112 -21t-84 3q-24 38 -52 170q-44 6 -112 6t-149 -34t-133 -88q-110 -117 -111 -268q0 -228 174 -342q89 -58 209 -58t224 62v191h-246v268h526v-785h-184l-76 46q-126 -66 -260 -66q-186 0 -341 94
t-243 252q-88 159 -88 361t124 375t350 240q121 36 264 36zM764 1543h-8q-219 -167 -390 -205q-12 16 -32 74t-26 99q267 138 450 329h10q183 -191 448 -329q-6 -41 -26 -99t-32 -74q-179 40 -394 205z" />
    <glyph glyph-name="gcircumflex" unicode="&#x11d;" horiz-adv-x="1012" 
d="M347 -89q0 -118 141 -118q85 -1 142 43t57 103q1 59 -67 76q-54 14 -157 14h-64q-52 -57 -52 -118zM340 717q0 -118 126 -118t126 112q0 117 -126 117t-126 -111zM374 328q0 -72 193 -72t301 -82t108 -194t-80 -210t-201 -150q-122 -54 -251 -54q-174 0 -279 94t-105 237
q0 63 33 134t92 130q-86 49 -86 139t76 183q-89 92 -89 235q0 144 108 242t276 98q103 0 185 -40q153 78 268 78l69 -196l-6 -14q-79 -15 -162 -50q22 -54 22 -120q0 -150 -108 -248t-276 -98q-40 0 -74 6q-14 -28 -14 -48zM491 1345h-8q-219 -167 -390 -205q-11 16 -31 74
t-27 99q267 138 450 329h10q183 -191 448 -329q-7 -41 -27 -99t-31 -74q-179 40 -394 205z" />
    <glyph glyph-name="Gbreve" unicode="&#x11e;" horiz-adv-x="1352" 
d="M818 1338q143 0 343 -46v-111q0 -83 -8 -181t-15 -104q-72 -21 -112 -21t-84 3q-24 38 -52 170q-44 6 -112 6t-149 -34t-133 -88q-110 -117 -111 -268q0 -228 174 -342q89 -58 209 -58t224 62v191h-246v268h526v-785h-184l-76 46q-126 -66 -260 -66q-186 0 -341 94
t-243 252q-88 159 -88 361t124 375t350 240q121 36 264 36zM762 1428q-116 0 -201 39t-177 135q5 32 51 84t80 63q88 -94 235 -94t242 94q33 -11 78 -65t50 -87q-150 -169 -358 -169z" />
    <glyph glyph-name="gbreve" unicode="&#x11f;" horiz-adv-x="1012" 
d="M347 -89q0 -118 141 -118q85 -1 142 43t57 103q1 59 -67 76q-54 14 -157 14h-64q-52 -57 -52 -118zM340 717q0 -118 126 -118t126 112q0 117 -126 117t-126 -111zM374 328q0 -72 193 -72t301 -82t108 -194t-80 -210t-201 -150q-122 -54 -251 -54q-174 0 -279 94t-105 237
q0 63 33 134t92 130q-86 49 -86 139t76 183q-89 92 -89 235q0 144 108 242t276 98q103 0 185 -40q153 78 268 78l69 -196l-6 -14q-79 -15 -162 -50q22 -54 22 -120q0 -150 -108 -248t-276 -98q-40 0 -74 6q-14 -28 -14 -48zM494 1139q-116 0 -201 39t-177 135q5 33 51 85
t80 62q88 -94 235 -94t242 94q33 -10 78 -64t50 -88q-150 -169 -358 -169z" />
    <glyph glyph-name="Gdotaccent" unicode="&#x120;" horiz-adv-x="1352" 
d="M818 1338q143 0 343 -46v-111q0 -83 -8 -181t-15 -104q-72 -21 -112 -21t-84 3q-24 38 -52 170q-44 6 -112 6t-149 -34t-133 -88q-110 -117 -111 -268q0 -228 174 -342q89 -58 209 -58t224 62v191h-246v268h526v-785h-184l-76 46q-126 -66 -260 -66q-186 0 -341 94
t-243 252q-88 159 -88 361t124 375t350 240q121 36 264 36zM638 1600q0 72 50 122t123 50q72 0 123 -50t51 -122t-51 -122t-123 -50q-73 0 -123 50t-50 122z" />
    <glyph glyph-name="gdotaccent" unicode="&#x121;" horiz-adv-x="1012" 
d="M347 -89q0 -118 141 -118q85 -1 142 43t57 103q1 59 -67 76q-54 14 -157 14h-64q-52 -57 -52 -118zM340 717q0 -118 126 -118t126 112q0 117 -126 117t-126 -111zM374 328q0 -72 193 -72t301 -82t108 -194t-80 -210t-201 -150q-122 -54 -251 -54q-174 0 -279 94t-105 237
q0 63 33 134t92 130q-86 49 -86 139t76 183q-89 92 -89 235q0 144 108 242t276 98q103 0 185 -40q153 78 268 78l69 -196l-6 -14q-79 -15 -162 -50q22 -54 22 -120q0 -150 -108 -248t-276 -98q-40 0 -74 6q-14 -28 -14 -48zM301 1312q1 72 51 122t122 50t123 -50t51 -122
t-51 -122t-123 -50t-122 50t-51 122z" />
    <glyph glyph-name="Gcommaaccent" unicode="&#x122;" horiz-adv-x="1352" 
d="M761 -61q68 -1 122 -47t54 -154t-91 -232t-196 -180l-65 81q75 125 75 197t-67 165q0 69 50 119t118 51zM818 1338q143 0 343 -46v-111q0 -83 -8 -181t-15 -104q-72 -21 -112 -21t-84 3q-24 38 -52 170q-44 6 -112 6t-149 -34t-133 -88q-110 -117 -111 -268
q0 -228 174 -342q89 -58 209 -58t224 62v191h-246v268h526v-785h-184l-76 46q-126 -66 -260 -66q-186 0 -341 94t-243 252q-88 159 -88 361t124 375t350 240q121 36 264 36z" />
    <glyph glyph-name="gcommaaccent" unicode="&#x123;" horiz-adv-x="1012" 
d="M347 -89q0 -118 141 -118q85 -1 142 43t57 103q1 59 -67 76q-54 14 -157 14h-64q-52 -57 -52 -118zM340 717q0 -118 126 -118t126 112q0 117 -126 117t-126 -111zM374 328q0 -72 193 -72t301 -82t108 -194t-80 -210t-201 -150q-122 -54 -251 -54q-174 0 -279 94t-105 237
q0 63 33 134t92 130q-86 49 -86 139t76 183q-89 92 -89 235q0 144 108 242t276 98q103 0 185 -40q153 78 268 78l69 -196l-6 -14q-79 -15 -162 -50q22 -54 22 -120q0 -150 -108 -248t-276 -98q-40 0 -74 6q-14 -28 -14 -48zM459 1140q-69 0 -123 46t-54 155q0 108 90 232
t197 180l64 -81q-74 -126 -74 -198t68 -164q0 -70 -50 -120t-118 -50z" />
    <glyph glyph-name="Hcircumflex" unicode="&#x124;" horiz-adv-x="1466" 
d="M1178 0h-118q-186 0 -204 10t-17 93q0 84 10 100q42 14 121 26v293h-474v-293q78 -12 121 -26q10 -16 10 -100q1 -84 -17 -93q-18 -10 -211 -10h-118q-185 0 -203 10t-18 93q0 84 10 100q42 14 121 26v859q-74 11 -121 27q-10 16 -10 100t18 93q18 10 203 10h118
q193 0 211 -10t17 -93q0 -84 -10 -100q-49 -16 -121 -27v-293h474v293q-74 11 -121 27q-10 16 -10 100q-1 84 17 93q18 10 204 10h118q192 0 210 -10t18 -93q0 -84 -10 -100q-49 -16 -121 -27v-859q78 -12 121 -26q10 -16 10 -100t-18 -93q-18 -10 -210 -10zM728 1543h-8
q-219 -167 -390 -205q-12 16 -32 74t-26 99q267 138 450 329h10q183 -191 448 -329q-6 -41 -26 -99t-32 -74q-179 40 -394 205z" />
    <glyph glyph-name="hcircumflex" unicode="&#x125;" horiz-adv-x="1353" 
d="M886 561q0 251 -172 251q-86 0 -197 -62v-521q78 -12 121 -26q10 -19 10 -101t-18 -92t-210 -10h-135q-185 0 -203 10t-18 92t10 101q60 20 137 30v953q-97 2 -130 9q-17 25 -17 95t9 98q105 32 227 46t179 14h38v-486q161 96 330 96q345 0 345 -393v-436q78 -12 121 -26
q10 -19 10 -101q1 -82 -17 -92t-211 -10h-135q-186 0 -204 10t-17 92q0 82 10 101q60 20 137 30v328zM356 1653h-8q-219 -167 -390 -205q-12 16 -32 74t-26 99q267 138 450 329h10q183 -191 448 -329q-6 -41 -26 -99t-32 -74q-179 40 -394 205z" />
    <glyph glyph-name="Hbar" unicode="&#x126;" horiz-adv-x="1466" 
d="M970 699h-474v-78h474v78zM1178 0h-118q-186 0 -204 10t-17 93q0 84 10 100q42 14 121 26v119h-474v-119q78 -12 121 -26q10 -16 10 -100q1 -84 -17 -93q-18 -10 -211 -10h-118q-185 0 -203 10t-18 93q0 84 10 100q42 14 121 26v859q-74 11 -121 27q-10 16 -10 100t18 93
q18 10 203 10h118q193 0 211 -10t17 -93q0 -84 -10 -100q-49 -16 -121 -27v-116h474v116q-74 11 -121 27q-10 16 -10 100q-1 84 17 93q18 10 204 10h118q192 0 210 -10t18 -93q0 -84 -10 -100q-49 -16 -121 -27v-859q78 -12 121 -26q10 -16 10 -100t-18 -93
q-18 -10 -210 -10z" />
    <glyph glyph-name="hbar" unicode="&#x127;" horiz-adv-x="1349" 
d="M882 561q0 251 -172 251q-86 0 -197 -62v-521q78 -12 121 -26q10 -19 10 -101t-18 -92t-210 -10h-135q-185 0 -203 10t-18 92t10 101q60 20 137 30v806h-130v101h130v46q-97 2 -130 9q-17 25 -17 95t9 98q105 32 227 46t179 14h38v-308h90v-101h-90v-77q161 96 330 96
q345 0 345 -393v-436q78 -12 121 -26q10 -19 10 -101q1 -82 -17 -92t-211 -10h-135q-186 0 -204 10t-17 92q0 82 10 101q60 20 137 30v328z" />
    <glyph glyph-name="Itilde" unicode="&#x128;" horiz-adv-x="688" 
d="M70 1115q-10 19 -10 101t18 92t203 10h119q192 0 210 -10t18 -92t-10 -101q-50 -16 -121 -27v-859q78 -12 121 -26q10 -19 10 -101t-18 -92t-210 -10h-119q-185 0 -203 10t-18 92t10 101q49 16 121 27v858q-72 11 -121 27zM210 1523q-39 1 -67 -23t-28 -70q-18 -2 -32 -2
q-104 0 -157 49q14 105 88 183t185 78q45 0 92 -24t91 -48t86 -24q40 0 73 24t33 72q18 2 46 2t72 -13t71 -38q-13 -105 -94 -183t-193 -78q-44 0 -92 24t-91 48q-44 24 -83 23z" />
    <glyph glyph-name="Imacron" unicode="&#x12a;" horiz-adv-x="688" 
d="M70 1115q-10 19 -10 101t18 92t203 10h119q192 0 210 -10t18 -92t-10 -101q-50 -16 -121 -27v-859q78 -12 121 -26q10 -19 10 -101t-18 -92t-210 -10h-119q-185 0 -203 10t-18 92t10 101q49 16 121 27v858q-72 11 -121 27zM665 1716v-288h-642v288h642z" />
    <glyph glyph-name="imacron" unicode="&#x12b;" horiz-adv-x="685" 
d="M91 900q0 70 9 98q106 32 228 46t178 14h38v-829q78 -12 121 -26q10 -19 10 -101q1 -82 -17 -92t-211 -10h-135q-186 0 -204 10t-17 92q0 82 10 101q60 20 137 30v563q-97 2 -130 9q-17 25 -17 95zM652 1428v-288h-642v288h642z" />
    <glyph glyph-name="Ibreve" unicode="&#x12c;" horiz-adv-x="688" 
d="M70 1115q-10 19 -10 101t18 92t203 10h119q192 0 210 -10t18 -92t-10 -101q-50 -16 -121 -27v-859q78 -12 121 -26q10 -19 10 -101t-18 -92t-210 -10h-119q-185 0 -203 10t-18 92t10 101q49 16 121 27v858q-72 11 -121 27zM354 1428q-116 0 -201 39t-177 135q5 32 51 84
t80 63q88 -94 235 -94t242 94q33 -11 78 -65t50 -87q-150 -169 -358 -169z" />
    <glyph glyph-name="ibreve" unicode="&#x12d;" horiz-adv-x="696" 
d="M108 900q0 70 9 98q105 32 227 46t179 14h38v-829q78 -12 121 -26q10 -19 10 -101t-18 -92t-210 -10h-135q-185 0 -203 10t-18 92t10 101q60 20 137 30v563q-97 2 -130 9q-17 25 -17 95zM358 1140q-116 0 -201 39t-177 135q5 32 51 84t80 63q88 -94 235 -94t242 94
q33 -11 78 -65t50 -87q-150 -169 -358 -169z" />
    <glyph glyph-name="Iogonek" unicode="&#x12e;" horiz-adv-x="688" 
d="M618 203q10 -19 10 -101t-17 -92l-5 -1q-82 -35 -142 -103t-60 -121q0 -52 47 -52q39 0 142 48l7 -5v-203q-72 -51 -182 -51t-181 70t-71 180q0 108 105 228q-175 0 -193 10t-18 92t10 101q49 16 121 27v858q-72 11 -121 27q-10 19 -10 101t18 92t203 10h119
q192 0 210 -10t18 -92t-10 -101q-50 -16 -121 -27v-859q78 -12 121 -26z" />
    <glyph glyph-name="iogonek" unicode="&#x12f;" horiz-adv-x="684" 
d="M634 203q10 -19 10 -101t-14 -90q-14 -7 -121 -11l4 -1q-82 -36 -141 -100t-59 -116t47 -51q39 0 142 48l7 -5v-203q-72 -51 -182 -51t-181 70t-71 182q0 110 110 228q-99 4 -107 8q-18 10 -18 92t10 101q60 20 137 30v563q-97 2 -130 9q-17 25 -17 95t9 98
q105 32 227 46t179 14h38v-829q78 -12 121 -26zM358 1140q-70 0 -120 49t-49 119q-1 70 49 120t120 49q70 1 120 -49t50 -120t-50 -119t-120 -49z" />
    <glyph glyph-name="Idotaccent" unicode="&#x130;" horiz-adv-x="688" 
d="M70 1115q-10 19 -10 101t18 92t203 10h119q192 0 210 -10t18 -92t-10 -101q-50 -16 -121 -27v-859q78 -12 121 -26q10 -19 10 -101t-18 -92t-210 -10h-119q-185 0 -203 10t-18 92t10 101q49 16 121 27v858q-72 11 -121 27zM170 1600q0 72 50 122t123 50q72 0 123 -50
t51 -122t-51 -122t-123 -50q-73 0 -123 50t-50 122z" />
    <glyph glyph-name="dotlessi" unicode="&#x131;" horiz-adv-x="684" 
d="M60 900q0 70 9 98q105 32 227 46t179 14h38v-829q78 -12 121 -26q10 -19 10 -101t-18 -92t-210 -10h-135q-185 0 -203 10t-18 92t10 101q60 20 137 30v563q-97 2 -130 9q-17 25 -17 95z" />
    <glyph glyph-name="IJ" unicode="&#x132;" horiz-adv-x="1326" 
d="M487 97q0 71 8 157t15 92q98 29 210 19q13 -23 28 -82q82 37 82 187v618q-74 11 -121 27q-10 16 -10 100t16 93q16 10 205 10h118q196 0 212 -10t16 -94q0 -83 -10 -99q-49 -16 -121 -27v-712q-1 -184 -137 -290t-354 -106q-50 0 -157 43v74zM70 1115q-10 19 -10 101
t18 92t203 10h119q192 0 210 -10t18 -92t-10 -101q-50 -16 -121 -27v-474q78 -12 121 -26q10 -19 10 -101t-18 -92t-210 -10h-119q-185 0 -203 10t-18 92t10 101q49 16 121 27v473q-72 11 -121 27zM812 1588q0 70 50 120t119 49q70 1 120 -49t50 -120q1 -70 -49 -119
t-120 -49t-120 49t-50 119zM173 1588q-1 70 49 120t120 49q70 1 120 -49t50 -120t-50 -119t-120 -49t-120 49t-49 119z" />
    <glyph glyph-name="ij" unicode="&#x133;" horiz-adv-x="1292" 
d="M187 375v401q-97 2 -130 9q-17 25 -17 95t9 98q105 32 227 46t179 14h38v-558q0 -253 178 -253q77 0 190 64v485q-97 2 -130 9q-17 25 -17 95t9 98q105 32 227 46t179 14h38v-1101q0 -254 -179 -357q-101 -58 -254 -58q-152 0 -293 74q0 213 23 302q44 15 102 20t96 -2
q30 -44 50 -113q67 5 108 47t41 129v99q-165 -98 -330 -98q-344 0 -344 395zM843 1308q-1 70 49 120t120 49q70 1 120 -49t50 -120t-50 -119t-120 -49t-120 49t-49 119zM172 1308q0 70 50 120t119 49q70 1 120 -49t50 -120q1 -70 -49 -119t-120 -49t-120 49t-50 119z" />
    <glyph glyph-name="Jcircumflex" unicode="&#x134;" horiz-adv-x="919" 
d="M80 97q0 71 8 157t15 92q98 29 210 19q13 -23 28 -82q82 37 82 187v618q-74 11 -121 27q-10 16 -10 100t16 93q16 10 205 10h118q196 0 212 -10t16 -94q0 -83 -10 -99q-49 -16 -121 -27v-712q0 -184 -136 -290t-355 -106q-49 0 -157 43v74zM579 1543h-8
q-219 -167 -390 -205q-11 16 -31 74t-27 99q267 138 450 329h10q183 -191 448 -329q-7 -41 -27 -99t-31 -74q-179 40 -394 205z" />
    <glyph glyph-name="jcircumflex" unicode="&#x135;" horiz-adv-x="651" 
d="M526 1058v-1121q0 -254 -179 -357q-101 -58 -254 -58q-152 0 -293 74q0 213 23 302q45 15 103 20t95 -2q30 -44 50 -113q67 5 108 47t41 129v817q-97 2 -130 9q-17 25 -17 95t9 98q106 32 228 46t178 14h38zM372 1345h-8q-219 -167 -390 -205q-12 16 -32 74t-26 99
q267 138 450 329h10q183 -191 448 -329q-6 -41 -26 -99t-32 -74q-179 40 -394 205z" />
    <glyph glyph-name="Kcommaaccent" unicode="&#x136;" horiz-adv-x="1375" 
d="M762 0q68 0 122 -46t54 -154t-91 -232t-196 -181l-65 81q75 126 75 198t-67 164q0 70 50 120t118 50zM587 203q10 -16 10 -100q1 -84 -17 -93q-18 -10 -197 -10h-101q-186 0 -198 7q-24 13 -24 95t10 101q43 14 121 26v859q-72 11 -121 27q-10 19 -10 101t18 92t197 10
h94q193 0 211 -10t17 -93q0 -84 -10 -100q-45 -14 -90 -22v-268h8l230 282q-25 8 -26 8q-10 19 -10 101q-1 82 17 92t204 10h119q193 0 211 -10t17 -92q0 -82 -10 -101q-48 -17 -171 -36l-321 -390q50 -83 146 -187t198 -186q47 45 80 62q37 -3 86 -38t70 -61
q-14 -113 -157 -299q-78 0 -176 51t-188 130q-193 171 -296 344l-31 -43v-237q45 -8 90 -22z" />
    <glyph glyph-name="kcommaaccent" unicode="&#x137;" horiz-adv-x="1249" 
d="M709 0q68 0 122 -46t54 -154t-91 -232t-196 -181l-65 81q75 126 75 198t-67 164q0 70 50 120t118 50zM592 203q10 -19 10 -101t-18 -92t-168 -10h-135q-185 0 -203 10t-18 92t10 101q60 20 137 30v953q-97 2 -130 9q-17 25 -17 95t9 98q105 32 227 46t179 14h38v-755
l127 128q-43 11 -50 14q-10 19 -10 101t18 92t203 10h88q193 0 211 -10t17 -92q0 -82 -10 -101q-43 -14 -121 -26l-4 -1l-245 -260q29 -54 95 -120t142 -120q52 51 89 70q37 -3 86 -38t70 -61q-14 -113 -157 -299q-283 0 -549 376v-127q43 -10 79 -26z" />
    <glyph glyph-name="Lacute" unicode="&#x139;" horiz-adv-x="1081" 
d="M70 1115q-10 16 -10 100t18 93q18 10 203 10h118q193 0 211 -10t17 -93q0 -84 -10 -100q-49 -16 -121 -27v-800h255q34 163 57 202q110 10 210 -18q7 -7 15 -93t8 -157v-222h-760q-185 0 -203 10t-18 93q0 84 10 100q47 16 121 27v858q-74 11 -121 27zM596 1847
q44 -23 84 -77t49 -110q-51 -74 -236 -182t-357 -140q-16 14 -40 72t-29 101q286 127 529 336z" />
    <glyph glyph-name="lacute" unicode="&#x13a;" horiz-adv-x="702" 
d="M91 1290q0 70 9 98q106 32 228 46t178 14h38v-1219q78 -12 121 -26q10 -19 10 -101q1 -82 -17 -92t-211 -10h-135q-186 0 -204 10t-17 92q0 82 10 101q60 20 137 30v953q-97 2 -130 9q-17 25 -17 95zM589 1957q43 -23 83 -77t50 -110q-51 -74 -236 -182t-357 -140
q-15 14 -39 72t-30 101q286 127 529 336z" />
    <glyph glyph-name="Lcommaaccent" unicode="&#x13b;" horiz-adv-x="1081" 
d="M587 -20q68 0 122 -46t54 -154t-91 -232t-196 -181l-65 81q75 126 75 198t-67 164q0 70 50 120t118 50zM70 1115q-10 16 -10 100t18 93q18 10 203 10h118q193 0 211 -10t17 -93q0 -84 -10 -100q-49 -16 -121 -27v-800h255q34 163 57 202q110 10 210 -18q7 -7 15 -93
t8 -157v-222h-760q-185 0 -203 10t-18 93q0 84 10 100q47 16 121 27v858q-74 11 -121 27z" />
    <glyph glyph-name="lcommaaccent" unicode="&#x13c;" horiz-adv-x="684" 
d="M362 -20q68 0 122 -46t54 -154t-91 -232t-196 -181l-65 81q75 126 75 198t-67 164q0 70 50 120t118 50zM60 1290q0 70 9 98q105 32 227 46t179 14h38v-1219q78 -12 121 -26q10 -19 10 -101t-18 -92t-210 -10h-135q-185 0 -203 10t-18 92t10 101q60 20 137 30v953
q-97 2 -130 9q-17 25 -17 95z" />
    <glyph glyph-name="Lcaron" unicode="&#x13d;" horiz-adv-x="1081" 
d="M70 1115q-10 16 -10 100t18 93q18 10 203 10h118q193 0 211 -10t17 -93q0 -84 -10 -100q-49 -16 -121 -27v-800h255q34 163 57 202q110 10 210 -18q7 -7 15 -93t8 -157v-222h-760q-185 0 -203 10t-18 93q0 84 10 100q47 16 121 27v858q-74 11 -121 27zM878 1448
q68 0 121 -46q54 -46 54 -155q0 -108 -90 -232t-195 -180l-66 81q75 126 75 198t-68 164q1 70 51 120t118 50z" />
    <glyph glyph-name="lcaron" unicode="&#x13e;" horiz-adv-x="1126" 
d="M830 1448q68 0 122 -46t54 -155q0 -108 -90 -232t-195 -180l-66 81q75 126 75 198t-68 164q0 70 50 120t118 50zM60 1290q0 70 9 98q105 32 227 46t179 14h38v-1219q78 -12 121 -26q10 -19 10 -101t-18 -92t-210 -10h-135q-185 0 -203 10t-18 92t10 101q60 20 137 30v953
q-97 2 -130 9q-17 25 -17 95z" />
    <glyph glyph-name="Ldot" unicode="&#x13f;" horiz-adv-x="1081" 
d="M760 920q0 58 40 98t98 40t98 -40t41 -98q-1 -58 -41 -96q-40 -40 -98 -40t-98 40q-40 38 -40 96zM70 1115q-10 16 -10 100t18 93q18 10 203 10h118q193 0 211 -10t17 -93q0 -84 -10 -100q-49 -16 -121 -27v-800h255q34 163 57 202q110 10 210 -18q7 -7 15 -93t8 -157
v-222h-760q-185 0 -203 10t-18 93q0 84 10 100q47 16 121 27v858q-74 11 -121 27z" />
    <glyph glyph-name="ldot" unicode="&#x140;" horiz-adv-x="1039" 
d="M642 728q0 58 40 98t98 40t98 -40t41 -98q-1 -58 -41 -96q-40 -40 -98 -40t-98 40q-40 38 -40 96zM60 1290q0 70 9 98q105 32 227 46t179 14h38v-1219q78 -12 121 -26q10 -19 10 -101t-18 -92t-210 -10h-135q-185 0 -203 10t-18 92t10 101q60 20 137 30v953q-97 2 -130 9
q-17 25 -17 95z" />
    <glyph glyph-name="lslash" unicode="&#x142;" horiz-adv-x="805" 
d="M675 203q10 -19 10 -101q1 -82 -17 -92t-211 -10h-135q-186 0 -204 10t-17 92q0 82 10 101q60 20 137 30v396l-121 -44l-107 287l228 83v231q-97 2 -130 9q-17 25 -17 95t9 98q106 32 228 46t178 14h38v-381l126 46l105 -288l-231 -84v-512q78 -12 121 -26z" />
    <glyph glyph-name="Nacute" unicode="&#x143;" horiz-adv-x="1485" 
d="M1079 1318h118q193 0 211 -10t17 -93q0 -84 -10 -100q-49 -16 -121 -27v-1088h-305l-492 785v-556q70 -11 120 -26q10 -16 10 -100q1 -84 -17 -93q-18 -10 -211 -10h-117q-186 0 -198 7q-24 13 -24 96q0 82 11 100q42 14 121 26v859q-71 11 -121 27q-10 19 -10 101
q-1 82 17 92t205 10h214l492 -786v556q-74 11 -121 27q-10 16 -10 100t18 93q18 10 203 10zM990 1847q44 -23 84 -77t49 -110q-51 -74 -236 -182t-357 -140q-16 14 -40 72t-29 101q286 127 529 336z" />
    <glyph glyph-name="nacute" unicode="&#x144;" horiz-adv-x="1358" 
d="M881 560q-1 251 -173 251q-86 0 -195 -62v-520q78 -12 121 -26q10 -19 10 -101t-18 -92t-210 -10h-135q-185 0 -203 10t-18 92t10 101q60 20 137 30v543q-97 2 -130 9q-17 25 -17 95t9 98q76 24 174 42t142 18h38l47 -103q99 63 181 93t182 30q177 0 265 -95t89 -298
v-436q78 -12 121 -26q10 -19 10 -101t-18 -92t-210 -10h-135q-185 0 -203 10t-18 92t10 101q60 20 137 30v327zM954 1567q44 -23 84 -77t49 -110q-51 -74 -236 -182t-357 -140q-16 14 -40 72t-29 101q286 127 529 336z" />
    <glyph glyph-name="Ncommaaccent" unicode="&#x145;" horiz-adv-x="1485" 
d="M774 0q68 0 122 -46t54 -154t-91 -232t-196 -181l-65 81q75 126 75 198t-67 164q0 70 50 120t118 50zM1079 1318h118q193 0 211 -10t17 -93q0 -84 -10 -100q-49 -16 -121 -27v-1088h-305l-492 785v-556q70 -11 120 -26q10 -16 10 -100q1 -84 -17 -93q-18 -10 -211 -10
h-117q-186 0 -198 7q-24 13 -24 96q0 82 11 100q42 14 121 26v859q-71 11 -121 27q-10 19 -10 101q-1 82 17 92t205 10h214l492 -786v556q-74 11 -121 27q-10 16 -10 100t18 93q18 10 203 10z" />
    <glyph glyph-name="ncommaaccent" unicode="&#x146;" horiz-adv-x="1358" 
d="M685 -20q68 0 122 -46t54 -154t-91 -232t-196 -181l-65 81q75 126 75 198t-67 164q0 70 50 120t118 50zM881 560q-1 251 -173 251q-86 0 -195 -62v-520q78 -12 121 -26q10 -19 10 -101t-18 -92t-210 -10h-135q-185 0 -203 10t-18 92t10 101q60 20 137 30v543
q-97 2 -130 9q-17 25 -17 95t9 98q76 24 174 42t142 18h38l47 -103q99 63 181 93t182 30q177 0 265 -95t89 -298v-436q78 -12 121 -26q10 -19 10 -101t-18 -92t-210 -10h-135q-185 0 -203 10t-18 92t10 101q60 20 137 30v327z" />
    <glyph glyph-name="Ncaron" unicode="&#x147;" horiz-adv-x="1485" 
d="M1079 1318h118q193 0 211 -10t17 -93q0 -84 -10 -100q-49 -16 -121 -27v-1088h-305l-492 785v-556q70 -11 120 -26q10 -16 10 -100q1 -84 -17 -93q-18 -10 -211 -10h-117q-186 0 -198 7q-24 13 -24 96q0 82 11 100q42 14 121 26v859q-71 11 -121 27q-10 19 -10 101
q-1 82 17 92t205 10h214l492 -786v556q-74 11 -121 27q-10 16 -10 100t18 93q18 10 203 10zM696 1615h8q215 165 394 205q12 -16 32 -74t26 -99q-265 -138 -448 -329h-10q-183 191 -450 329q6 41 26 99t32 74q171 -38 390 -205z" />
    <glyph glyph-name="ncaron" unicode="&#x148;" horiz-adv-x="1358" 
d="M881 560q-1 251 -173 251q-86 0 -195 -62v-520q78 -12 121 -26q10 -19 10 -101t-18 -92t-210 -10h-135q-185 0 -203 10t-18 92t10 101q60 20 137 30v543q-97 2 -130 9q-17 25 -17 95t9 98q76 24 174 42t142 18h38l47 -103q99 63 181 93t182 30q177 0 265 -95t89 -298
v-436q78 -12 121 -26q10 -19 10 -101t-18 -92t-210 -10h-135q-185 0 -203 10t-18 92t10 101q60 20 137 30v327zM683 1437h8q215 165 394 205q11 -16 31 -74t27 -99q-265 -138 -448 -329h-10q-183 191 -450 329q7 41 27 99t31 74q171 -38 390 -205z" />
    <glyph glyph-name="Eng" unicode="&#x14a;" horiz-adv-x="1485" 
d="M1197 1318q193 0 211 -10t17 -93q0 -84 -10 -100q-49 -16 -121 -27v-1170q0 -184 -136 -290t-355 -106q-49 0 -157 43v74q0 71 8 157t15 92q98 29 210 19q13 -23 28 -82q79 36 82 175l-492 785v-556q70 -11 120 -26q10 -16 10 -100q1 -84 -17 -93q-18 -10 -211 -10h-117
q-186 0 -198 7q-24 13 -24 96q0 82 11 100q42 14 121 26v859q-71 11 -121 27q-10 19 -10 101q-1 82 17 92t205 10h214l492 -786v556q-74 11 -121 27q-10 16 -10 100t18 93q18 10 203 10h118z" />
    <glyph glyph-name="eng" unicode="&#x14b;" horiz-adv-x="1297" 
d="M881 560q-1 251 -173 251q-86 0 -195 -62v-520q78 -12 121 -26q10 -19 10 -101t-18 -92t-210 -10h-135q-185 0 -203 10t-18 92t10 101q60 20 137 30v543q-97 2 -130 9q-17 25 -17 95t9 98q76 24 174 42t142 18h38l47 -103q99 63 181 93t182 30q177 0 265 -95t89 -298
v-728q0 -254 -179 -357q-101 -58 -254 -58q-152 0 -293 74q0 213 23 302q44 15 102 20t96 -2q30 -44 50 -113q67 5 108 47t41 129v581z" />
    <glyph glyph-name="Omacron" unicode="&#x14c;" horiz-adv-x="1515" 
d="M386 666q0 -172 101 -286t274 -113q173 0 271 107t97 280q1 173 -97 285t-271 112t-274 -107q-101 -106 -101 -278zM80 660q0 190 86 344t244 244q157 90 354 90t351 -90t237 -243q83 -155 83 -345q1 -190 -85 -345t-242 -245t-354 -90t-352 90t-238 244q-84 156 -84 346
zM1078 1716v-288h-642v288h642z" />
    <glyph glyph-name="omacron" unicode="&#x14d;" horiz-adv-x="1260" 
d="M393 522q-1 -126 63 -212t176 -85t174 81t61 208q0 128 -62 213q-63 86 -175 86t-174 -82q-62 -83 -63 -209zM80 518q0 240 152 390t402 150t398 -150t148 -388q0 -240 -152 -390t-402 -150t-398 149t-148 389zM964 1428v-288h-642v288h642z" />
    <glyph glyph-name="Ohungarumlaut" unicode="&#x150;" horiz-adv-x="1530" 
d="M386 666q0 -172 101 -286t274 -113q173 0 271 107t97 280q1 173 -97 285t-271 112t-274 -107q-101 -106 -101 -278zM80 660q0 190 86 344t244 244q157 90 354 90t351 -90t237 -243q83 -155 83 -345q1 -190 -85 -345t-242 -245t-354 -90t-352 90t-238 244q-84 156 -84 346
zM1265 1964q49 -8 103 -48t82 -89q-26 -85 -169 -245t-296 -244q-21 10 -61 58t-59 86q233 208 400 482zM738 1964q50 -8 104 -48t81 -89q-26 -85 -169 -245t-296 -244q-20 10 -60 58t-60 86q233 208 400 482z" />
    <glyph glyph-name="ohungarumlaut" unicode="&#x151;" horiz-adv-x="1260" 
d="M393 522q-1 -126 63 -212t176 -85t174 81t61 208q0 128 -62 213q-63 86 -175 86t-174 -82q-62 -83 -63 -209zM80 518q0 240 152 390t402 150t398 -150t148 -388q0 -240 -152 -390t-402 -150t-398 149t-148 389zM1150 1684q50 -8 104 -48t81 -89q-26 -85 -169 -245
t-296 -244q-20 10 -60 58t-60 86q233 208 400 482zM623 1684q49 -8 103 -48t82 -89q-26 -85 -169 -245t-296 -244q-21 10 -61 58t-59 86q233 208 400 482z" />
    <glyph glyph-name="OE" unicode="&#x152;" horiz-adv-x="1906" 
d="M386 666q0 -172 101 -286t276 -113q101 0 178 40v703q-80 41 -181 41q-172 0 -273 -107q-101 -106 -101 -278zM1247 1030v-234h222q22 76 33 93q104 9 196 -18q20 -63 20 -213t-20 -211q-92 -27 -196 -18q-14 21 -33 93h-222v-234h349q21 69 30 83q105 9 197 -18
q7 -7 15 -105t8 -180v-68h-850q-46 0 -64 1q-84 -21 -179 -21q-197 0 -351 90t-238 244t-84 346q0 190 86 344t244 244q157 90 354 90q94 0 177 -21l55 1h850v-68q0 -82 -8 -180t-15 -105q-92 -27 -197 -18q-10 15 -30 83h-349z" />
    <glyph glyph-name="oe" unicode="&#x153;" horiz-adv-x="1841" 
d="M632 225q112 1 174 81t61 208q0 128 -62 213q-63 86 -175 86t-174 -82q-62 -83 -63 -209t63 -212t176 -85zM1481 663q-18 163 -123 163q-54 0 -98 -45t-69 -118h290zM1411 -20q-239 0 -388 145q-151 -145 -399 -145t-396 149t-148 389t152 390t392 150q242 0 389 -131
q128 131 344 131q266 0 363 -201q51 -106 51 -246v-172h-595q18 -109 80 -169t144 -60t182 29t163 61l4 -3v-246q-142 -71 -338 -71z" />
    <glyph glyph-name="Racute" unicode="&#x154;" horiz-adv-x="1393" 
d="M496 649h37q205 1 299 49t95 146q0 98 -82 140t-287 43h-62v-378zM1231 876q0 -276 -209 -409q34 -82 104 -152q48 46 81 63q37 -3 86 -38t70 -61q-14 -113 -157 -299q-68 0 -144 37t-140 95q-135 124 -200 260q-101 -14 -226 -14v-128q83 -15 121 -27q10 -16 10 -100
q1 -84 -17 -93q-18 -10 -211 -10h-118q-185 0 -203 10t-18 93q0 84 10 100q37 12 121 27v858q-71 11 -121 27q-10 19 -10 101t18 92t204 10h285q330 0 497 -107t167 -335zM926 1847q44 -23 84 -77t49 -110q-51 -74 -236 -182t-357 -140q-16 14 -40 72t-29 101
q286 127 529 336z" />
    <glyph glyph-name="racute" unicode="&#x155;" horiz-adv-x="939" 
d="M634 203q10 -19 10 -101t-18 -92t-210 -10h-135q-185 0 -203 10t-18 92t10 101q60 20 137 30v543q-97 2 -130 9q-17 25 -17 95t9 98q76 24 174 42t142 18h38l45 -99q113 119 264 119q83 0 182 -45l5 -1q0 -213 -23 -302q-44 -15 -102 -20t-96 2q-25 35 -48 105
q-82 -19 -137 -74v-494q78 -12 121 -26zM691 1649q43 -23 83 -77t50 -110q-51 -74 -236 -182t-357 -140q-15 14 -39 72t-30 101q286 127 529 336z" />
    <glyph glyph-name="Rcommaaccent" unicode="&#x156;" horiz-adv-x="1393" 
d="M742 0q68 0 122 -46t54 -154t-91 -232t-196 -181l-65 81q75 126 75 198t-67 164q0 70 50 120t118 50zM496 649h37q205 1 299 49t95 146q0 98 -82 140t-287 43h-62v-378zM1231 876q0 -276 -209 -409q34 -82 104 -152q48 46 81 63q37 -3 86 -38t70 -61q-14 -113 -157 -299
q-68 0 -144 37t-140 95q-135 124 -200 260q-101 -14 -226 -14v-128q83 -15 121 -27q10 -16 10 -100q1 -84 -17 -93q-18 -10 -211 -10h-118q-185 0 -203 10t-18 93q0 84 10 100q37 12 121 27v858q-71 11 -121 27q-10 19 -10 101t18 92t204 10h285q330 0 497 -107t167 -335z
" />
    <glyph glyph-name="rcommaaccent" unicode="&#x157;" horiz-adv-x="939" 
d="M355 -20q68 0 122 -46t54 -154t-91 -232t-196 -181l-65 81q75 126 75 198t-67 164q0 70 50 120t118 50zM634 203q10 -19 10 -101t-18 -92t-210 -10h-135q-185 0 -203 10t-18 92t10 101q60 20 137 30v543q-97 2 -130 9q-17 25 -17 95t9 98q76 24 174 42t142 18h38l45 -99
q113 119 264 119q83 0 182 -45l5 -1q0 -213 -23 -302q-44 -15 -102 -20t-96 2q-25 35 -48 105q-82 -19 -137 -74v-494q78 -12 121 -26z" />
    <glyph glyph-name="Rcaron" unicode="&#x158;" horiz-adv-x="1393" 
d="M496 649h37q205 1 299 49t95 146q0 98 -82 140t-287 43h-62v-378zM1231 876q0 -276 -209 -409q34 -82 104 -152q48 46 81 63q37 -3 86 -38t70 -61q-14 -113 -157 -299q-68 0 -144 37t-140 95q-135 124 -200 260q-101 -14 -226 -14v-128q83 -15 121 -27q10 -16 10 -100
q1 -84 -17 -93q-18 -10 -211 -10h-118q-185 0 -203 10t-18 93q0 84 10 100q37 12 121 27v858q-71 11 -121 27q-10 19 -10 101t18 92t204 10h285q330 0 497 -107t167 -335zM636 1635h8q215 165 394 205q12 -16 32 -74t26 -99q-265 -138 -448 -329h-10q-183 191 -450 329
q6 41 26 99t32 74q171 -38 390 -205z" />
    <glyph glyph-name="rcaron" unicode="&#x159;" horiz-adv-x="987" 
d="M655 203q10 -19 10 -101q1 -82 -17 -92t-211 -10h-135q-186 0 -204 10t-17 92q0 82 10 101q60 20 137 30v543q-97 2 -130 9q-17 25 -17 95t9 98q76 24 174 42t142 18h38l45 -99q113 119 264 119q83 0 182 -45l5 -1q0 -213 -23 -302q-45 -15 -103 -20t-95 2
q-25 35 -48 105q-82 -19 -137 -74v-494q78 -12 121 -26zM508 1355h8q215 165 394 205q12 -16 32 -74t26 -99q-265 -138 -448 -329h-10q-183 191 -450 329q6 41 26 99t32 74q171 -38 390 -205z" />
    <glyph glyph-name="Sacute" unicode="&#x15a;" horiz-adv-x="1056" 
d="M102 149q0 83 8 180t15 104q92 27 198 18q24 -44 52 -176q45 -6 127 -6q82 1 134 33q54 32 54 75t-27 70t-71 45t-102 40q-56 22 -115 42q-124 43 -219 133q-96 90 -96 253q0 84 32 152q58 121 195 174q136 52 303 52t325 -56v-103q0 -83 -8 -181t-15 -104
q-92 -27 -198 -18q-24 40 -53 177q-13 1 -48 1q-82 0 -156 -22q-73 -22 -73 -77q0 -69 126 -121q56 -23 122 -47q158 -56 258 -132q126 -95 126 -259q0 -250 -244 -357q-134 -59 -335 -59t-315 101v68zM687 1847q43 -23 83 -77t50 -110q-51 -74 -236 -182t-357 -140
q-15 14 -39 72t-30 101q286 127 529 336z" />
    <glyph glyph-name="sacute" unicode="&#x15b;" horiz-adv-x="870" 
d="M53 734q-1 324 441 324q116 0 299 -60q0 -213 -23 -302q-44 -15 -102 -20t-96 2q-37 59 -53 125q-18 4 -50 4q-31 0 -71 -16q-40 -15 -40 -45t26 -50t66 -33t90 -29q113 -35 196 -102q84 -66 84 -204q0 -206 -196 -296q-115 -52 -282 -52t-292 72q0 213 23 302
q45 15 103 20t95 -2q37 -59 53 -125q15 -3 57 -3t88 18t46 54q1 36 -25 58t-66 34q-40 14 -90 26q-118 30 -190 84q-92 68 -91 216zM626 1567q44 -23 84 -77t49 -110q-51 -74 -236 -182t-357 -140q-16 14 -40 72t-29 101q286 127 529 336z" />
    <glyph glyph-name="Scircumflex" unicode="&#x15c;" horiz-adv-x="1056" 
d="M102 149q0 83 8 180t15 104q92 27 198 18q24 -44 52 -176q45 -6 127 -6q82 1 134 33q54 32 54 75t-27 70t-71 45t-102 40q-56 22 -115 42q-124 43 -219 133q-96 90 -96 253q0 84 32 152q58 121 195 174q136 52 303 52t325 -56v-103q0 -83 -8 -181t-15 -104
q-92 -27 -198 -18q-24 40 -53 177q-13 1 -48 1q-82 0 -156 -22q-73 -22 -73 -77q0 -69 126 -121q56 -23 122 -47q158 -56 258 -132q126 -95 126 -259q0 -250 -244 -357q-134 -59 -335 -59t-315 101v68zM538 1543h-8q-219 -167 -390 -205q-12 16 -32 74t-26 99
q267 138 450 329h10q183 -191 448 -329q-6 -41 -26 -99t-32 -74q-179 40 -394 205z" />
    <glyph glyph-name="scircumflex" unicode="&#x15d;" horiz-adv-x="967" 
d="M81 734q-1 324 441 324q116 0 299 -60q0 -213 -23 -302q-44 -15 -102 -20t-96 2q-37 59 -53 125q-18 4 -50 4q-31 0 -71 -16q-40 -15 -40 -45t26 -50t66 -33t90 -29q113 -35 196 -102q84 -66 84 -204q0 -206 -196 -296q-115 -53 -282 -52q-167 0 -292 72q0 213 23 302
q45 15 103 20t95 -2q37 -59 53 -125q15 -3 57 -3t88 18t46 54q1 36 -25 58t-66 34q-40 14 -90 26q-118 30 -190 84q-92 68 -91 216zM486 1263h-8q-219 -167 -390 -205q-12 16 -32 74t-26 99q267 138 450 329h10q183 -191 448 -329q-6 -41 -26 -99t-32 -74q-179 40 -394 205z
" />
    <glyph glyph-name="Scedilla" unicode="&#x15e;" horiz-adv-x="1056" 
d="M543 -49q68 -1 122 -47t54 -154t-91 -232t-196 -180l-65 81q75 125 75 197t-67 165q0 69 50 119t118 51zM102 149q0 83 8 180t15 104q92 27 198 18q24 -44 52 -176q45 -6 127 -6q82 1 134 33q54 32 54 75t-27 70t-71 45t-102 40q-56 22 -115 42q-124 43 -219 133
q-96 90 -96 253q0 84 32 152q58 121 195 174q136 52 303 52t325 -56v-103q0 -83 -8 -181t-15 -104q-92 -27 -198 -18q-24 40 -53 177q-13 1 -48 1q-82 0 -156 -22q-73 -22 -73 -77q0 -69 126 -121q56 -23 122 -47q158 -56 258 -132q126 -95 126 -259q0 -250 -244 -357
q-134 -59 -335 -59t-315 101v68z" />
    <glyph glyph-name="scedilla" unicode="&#x15f;" horiz-adv-x="870" 
d="M423 -30q68 0 122 -46t54 -154t-91 -232t-196 -181l-65 81q75 126 75 198t-67 164q0 70 50 120t118 50zM53 734q-1 324 441 324q116 0 299 -60q0 -213 -23 -302q-44 -15 -102 -20t-96 2q-37 59 -53 125q-18 4 -50 4q-31 0 -71 -16q-40 -15 -40 -45t26 -50t66 -33t90 -29
q113 -35 196 -102q84 -66 84 -204q0 -206 -196 -296q-115 -52 -282 -52t-292 72q0 213 23 302q45 15 103 20t95 -2q37 -59 53 -125q15 -3 57 -3t88 18t46 54q1 36 -25 58t-66 34q-40 14 -90 26q-118 30 -190 84q-92 68 -91 216z" />
    <glyph glyph-name="Scaron" unicode="&#x160;" horiz-adv-x="1056" 
d="M102 149q0 83 8 180t15 104q92 27 198 18q24 -44 52 -176q45 -6 127 -6q82 1 134 33q54 32 54 75t-27 70t-71 45t-102 40q-56 22 -115 42q-124 43 -219 133q-96 90 -96 253q0 84 32 152q58 121 195 174q136 52 303 52t325 -56v-103q0 -83 -8 -181t-15 -104
q-92 -27 -198 -18q-24 40 -53 177q-13 1 -48 1q-82 0 -156 -22q-73 -22 -73 -77q0 -69 126 -121q56 -23 122 -47q158 -56 258 -132q126 -95 126 -259q0 -250 -244 -357q-134 -59 -335 -59t-315 101v68zM530 1725h8q215 165 394 205q12 -16 32 -74t26 -99
q-265 -138 -448 -329h-10q-183 191 -450 329q6 41 26 99t32 74q171 -38 390 -205z" />
    <glyph glyph-name="scaron" unicode="&#x161;" horiz-adv-x="967" 
d="M82 734q0 324 442 324q116 0 298 -60q0 -213 -23 -302q-45 -15 -103 -20t-95 2q-37 59 -53 125q-18 4 -50 4t-72 -16q-40 -15 -39 -45q-1 -30 25 -50t66 -33t90 -29q113 -35 197 -102q84 -66 84 -204q0 -206 -196 -296q-115 -53 -282 -52q-167 0 -292 72q0 213 23 302
q44 15 102 20t96 -2q37 -59 53 -125q15 -3 57 -3t88 18t46 54t-26 58t-66 34q-40 14 -90 26q-116 30 -188 84q-92 68 -92 216zM478 1437h8q215 165 394 205q12 -16 32 -74t26 -99q-265 -138 -448 -329h-10q-183 191 -450 329q6 41 26 99t32 74q171 -38 390 -205z" />
    <glyph glyph-name="Tcedilla" unicode="&#x162;" horiz-adv-x="1163" 
d="M577 -20q68 0 122 -46t54 -154t-91 -232t-196 -181l-65 81q75 126 75 198t-67 164q0 70 50 120t118 50zM1123 1318v-183q1 -83 -7 -181t-15 -104q-93 -27 -197 -18q-29 47 -60 212h-110v-810q93 -13 148 -31q10 -16 10 -100t-18 -93q-18 -10 -210 -10h-173
q-185 0 -203 10t-18 92t10 101q55 18 148 31v810h-109q-31 -165 -60 -212q-104 -9 -197 18q-6 6 -14 104t-8 181v183h1083z" />
    <glyph glyph-name="tcedilla" unicode="&#x163;" horiz-adv-x="920" 
d="M498 -30q68 0 122 -46t54 -154t-91 -232t-196 -181l-65 81q75 126 75 198t-67 164q0 70 50 120t118 50zM443 1251v-213h277v-224h-277v-326q0 -196 89 -244q26 -14 62 -17q26 106 65 170q37 7 95 2t103 -20q23 -89 23 -302q-165 -97 -337 -97t-289 98t-117 306v430h-102
v224h102v186l293 27h13z" />
    <glyph glyph-name="Tcaron" unicode="&#x164;" horiz-adv-x="1163" 
d="M1123 1318v-183q1 -83 -7 -181t-15 -104q-93 -27 -197 -18q-29 47 -60 212h-110v-810q93 -13 148 -31q10 -16 10 -100t-18 -93q-18 -10 -210 -10h-173q-185 0 -203 10t-18 92t10 101q55 18 148 31v810h-109q-31 -165 -60 -212q-104 -9 -197 18q-6 6 -14 104t-8 181v183
h1083zM586 1725h8q215 165 394 205q12 -16 32 -74t26 -99q-265 -138 -448 -329h-10q-183 191 -450 329q6 41 26 99t32 74q171 -38 390 -205z" />
    <glyph glyph-name="tcaron" unicode="&#x165;" horiz-adv-x="1315" 
d="M443 1251v-213h277v-224h-277v-326q0 -196 89 -244q26 -14 62 -17q26 106 65 170q37 7 95 2t103 -20q23 -89 23 -302q-165 -97 -337 -97t-289 98t-117 306v430h-102v224h102v186l293 27h13zM1020 1448q68 0 121 -46q54 -46 54 -155q0 -108 -90 -232t-195 -180l-66 81
q75 126 75 198t-68 164q1 70 51 120t118 50z" />
    <glyph glyph-name="Tbar" unicode="&#x166;" horiz-adv-x="1163" 
d="M1123 1318v-183q1 -83 -7 -181t-15 -104q-93 -27 -197 -18q-29 47 -60 212h-110v-253h161v-288h-161v-269q93 -13 148 -31q10 -16 10 -100t-18 -93q-18 -10 -210 -10h-173q-185 0 -203 10t-18 92t10 101q55 18 148 31v269h-161v288h161v253h-109q-31 -165 -60 -212
q-104 -9 -197 18q-6 6 -14 104t-8 181v183h1083z" />
    <glyph glyph-name="tbar" unicode="&#x167;" horiz-adv-x="920" 
d="M443 1251v-213h277v-224h-277v-60h277v-224h-277v-42q0 -196 89 -244q26 -14 62 -17q26 106 65 170q37 7 95 2t103 -20q23 -89 23 -302q-165 -97 -337 -97t-289 98t-117 306v146h-102v224h102v60h-102v224h102v186l293 27h13z" />
    <glyph glyph-name="Utilde" unicode="&#x168;" horiz-adv-x="1469" 
d="M477 611q1 -180 55 -262t193 -82t203 86t64 254v481q-72 11 -121 27q-10 19 -10 101t18 92t204 10h118q193 0 211 -10t17 -93q0 -84 -10 -100q-49 -16 -121 -27v-487q0 -395 -233 -539q-133 -82 -331 -82q-271 0 -417 152t-146 469v487q-74 11 -121 27q-10 16 -10 100
t18 93q18 10 203 10h118q193 0 205 -7q24 -13 24 -95t-10 -101q-50 -16 -121 -27v-477zM650 1523q-39 1 -67 -23t-28 -70q-18 -2 -32 -2q-104 0 -157 49q14 105 88 183t185 78q45 0 92 -24t91 -48t86 -24q40 0 73 24t33 72q18 2 46 2t72 -13t71 -38q-13 -105 -94 -183
t-193 -78q-44 0 -92 24t-91 48q-44 24 -83 23z" />
    <glyph glyph-name="utilde" unicode="&#x169;" horiz-adv-x="1365" 
d="M493 480q0 -253 178 -253q77 0 190 64v485q-97 2 -130 9q-17 25 -17 95t9 98q105 32 227 46t179 14h38v-745q71 16 140 16q18 -65 18 -127t-11 -108q-167 -36 -316 -94h-39l-52 100q-4 7 -10 21q-97 -63 -178 -92t-178 -29q-176 0 -265 96t-89 299v401q-97 2 -130 9
q-17 25 -17 95t9 98q105 32 227 46t179 14h38v-558zM528 1235q-42 1 -70 -23t-28 -70q-18 -2 -32 -2q-104 0 -157 49q13 105 87 183t186 78q45 0 92 -24q48 -24 92 -48t84 -24t74 24q33 24 33 72q18 2 46 2t72 -13t71 -38q-13 -105 -94 -183t-193 -78q-55 0 -138 48t-125 47
z" />
    <glyph glyph-name="Umacron" unicode="&#x16a;" horiz-adv-x="1469" 
d="M477 611q1 -180 55 -262t193 -82t203 86t64 254v481q-72 11 -121 27q-10 19 -10 101t18 92t204 10h118q193 0 211 -10t17 -93q0 -84 -10 -100q-49 -16 -121 -27v-487q0 -395 -233 -539q-133 -82 -331 -82q-271 0 -417 152t-146 469v487q-74 11 -121 27q-10 16 -10 100
t18 93q18 10 203 10h118q193 0 205 -7q24 -13 24 -95t-10 -101q-50 -16 -121 -27v-477zM1041 1718v-288h-642v288h642z" />
    <glyph glyph-name="umacron" unicode="&#x16b;" horiz-adv-x="1365" 
d="M493 480q0 -253 178 -253q77 0 190 64v485q-97 2 -130 9q-17 25 -17 95t9 98q105 32 227 46t179 14h38v-745q71 16 140 16q18 -65 18 -127t-11 -108q-167 -36 -316 -94h-39l-52 100q-4 7 -10 21q-97 -63 -178 -92t-178 -29q-176 0 -265 96t-89 299v401q-97 2 -130 9
q-17 25 -17 95t9 98q105 32 227 46t179 14h38v-558zM987 1428v-288h-642v288h642z" />
    <glyph glyph-name="Uring" unicode="&#x16e;" horiz-adv-x="1469" 
d="M477 611q1 -180 55 -262t193 -82t203 86t64 254v481q-72 11 -121 27q-10 19 -10 101t18 92t204 10h118q193 0 211 -10t17 -93q0 -84 -10 -100q-49 -16 -121 -27v-487q0 -395 -233 -539q-133 -82 -331 -82q-271 0 -417 152t-146 469v487q-74 11 -121 27q-10 16 -10 100
t18 93q18 10 203 10h118q193 0 205 -7q24 -13 24 -95t-10 -101q-50 -16 -121 -27v-477zM668 1647q0 -25 20 -45t45 -20q26 0 46 20t20 45t-20 45t-46 20q-25 0 -45 -20t-20 -45zM513 1647q0 89 65 153q64 64 154 64t156 -64t66 -153q0 -87 -66 -153t-156 -66t-154 65
q-65 65 -65 154z" />
    <glyph glyph-name="uring" unicode="&#x16f;" horiz-adv-x="1365" 
d="M493 480q0 -253 178 -253q77 0 190 64v485q-97 2 -130 9q-17 25 -17 95t9 98q105 32 227 46t179 14h38v-745q71 16 140 16q18 -65 18 -127t-11 -108q-167 -36 -316 -94h-39l-52 100q-4 7 -10 21q-97 -63 -178 -92t-178 -29q-176 0 -265 96t-89 299v401q-97 2 -130 9
q-17 25 -17 95t9 98q105 32 227 46t179 14h38v-558zM607 1359q-1 -25 19 -45t46 -20t46 20t20 45t-20 45t-46 20t-46 -20t-19 -45zM452 1359q0 89 65 153t155 64t155 -64q66 -64 66 -153q0 -87 -66 -153q-65 -66 -155 -66t-155 65t-65 154z" />
    <glyph glyph-name="Uhungarumlaut" unicode="&#x170;" horiz-adv-x="1472" 
d="M477 611q1 -180 55 -262t193 -82t203 86t64 254v481q-72 11 -121 27q-10 19 -10 101t18 92t204 10h118q193 0 211 -10t17 -93q0 -84 -10 -100q-49 -16 -121 -27v-487q0 -395 -233 -539q-133 -82 -331 -82q-271 0 -417 152t-146 469v487q-74 11 -121 27q-10 16 -10 100
t18 93q18 10 203 10h118q193 0 205 -7q24 -13 24 -95t-10 -101q-50 -16 -121 -27v-477zM1247 1964q49 -8 103 -48t82 -89q-26 -85 -169 -245t-296 -244q-21 10 -61 58t-59 86q233 208 400 482zM720 1964q50 -8 104 -48t81 -89q-26 -85 -169 -245t-296 -244q-20 10 -60 58
t-60 86q233 208 400 482z" />
    <glyph glyph-name="uhungarumlaut" unicode="&#x171;" horiz-adv-x="1438" 
d="M493 480q0 -253 178 -253q77 0 190 64v485q-97 2 -130 9q-17 25 -17 95t9 98q105 32 227 46t179 14h38v-745q71 16 140 16q18 -65 18 -127t-11 -108q-167 -36 -316 -94h-39l-52 100q-4 7 -10 21q-97 -63 -178 -92t-178 -29q-176 0 -265 96t-89 299v401q-97 2 -130 9
q-17 25 -17 95t9 98q105 32 227 46t179 14h38v-558zM1213 1684q49 -8 103 -48t82 -89q-26 -85 -169 -245t-296 -244q-21 10 -61 58t-59 86q233 208 400 482zM686 1684q50 -8 104 -48t81 -89q-26 -85 -169 -245t-296 -244q-20 10 -60 58t-60 86q233 208 400 482z" />
    <glyph glyph-name="Uogonek" unicode="&#x172;" horiz-adv-x="1469" 
d="M1201 1318q193 0 211 -10t17 -93q0 -84 -10 -100q-49 -16 -121 -27v-487q0 -509 -384 -601q-81 -36 -140 -100t-59 -116t47 -51q39 0 142 48l7 -5v-203q-72 -51 -182 -51t-181 70t-71 180q0 109 103 222q-409 81 -409 607v487q-74 11 -121 27q-10 16 -10 100t18 93
q18 10 203 10h118q193 0 205 -7q24 -13 24 -95t-10 -101q-50 -16 -121 -27v-477q1 -180 55 -262t193 -82t203 86t64 254v481q-72 11 -121 27q-10 19 -10 101t18 92t204 10h118z" />
    <glyph glyph-name="uogonek" unicode="&#x173;" horiz-adv-x="1365" 
d="M493 480q0 -253 178 -253q77 0 190 64v485q-97 2 -130 9q-17 25 -17 95t9 98q105 32 227 46t179 14h38v-745q71 16 140 16q18 -65 18 -127t-11 -108q-160 -60 -254 -140t-93 -154q0 -47 47 -47q39 0 142 48l7 -5v-203q-72 -51 -182 -51t-181 70t-71 162q0 174 184 315
q-11 20 -16 32q-97 -63 -178 -92t-178 -29q-176 0 -265 96t-89 299v401q-97 2 -130 9q-17 25 -17 95t9 98q105 32 227 46t179 14h38v-558z" />
    <glyph glyph-name="Wcircumflex" unicode="&#x174;" horiz-adv-x="2136" 
d="M1526 1115q-10 16 -10 100t18 93q18 10 210 10h111q185 0 203 -10t18 -93q0 -84 -10 -100q-62 -20 -155 -33l-311 -1082h-313l-221 770l-220 -770h-313l-310 1083q-97 13 -153 32q-10 16 -10 100t18 93q18 10 203 10h118q187 0 199 -7q24 -13 23 -96q0 -82 -11 -100
q-34 -11 -77 -20l156 -548l221 771h314l220 -771l156 549q-34 6 -74 19zM1069 1543h-8q-219 -167 -390 -205q-11 16 -31 74t-27 99q267 138 450 329h10q183 -191 448 -329q-7 -41 -27 -99t-31 -74q-179 40 -394 205z" />
    <glyph glyph-name="wcircumflex" unicode="&#x175;" horiz-adv-x="1837" 
d="M1250 835q-10 19 -10 101t18 92t203 10h88q193 0 211 -10t17 -92q0 -82 -10 -101q-40 -13 -129 -26l-252 -809h-308l-152 477l-161 -477h-316l-252 809q-87 13 -127 26q-10 19 -10 101t18 92t210 10h88q186 0 204 -10t17 -92q0 -82 -10 -101q-25 -9 -66 -17l95 -292
l148 512h307l147 -511l95 291q-53 13 -63 17zM920 1345h-8q-219 -167 -390 -205q-12 16 -32 74t-26 99q267 138 450 329h10q183 -191 448 -329q-6 -41 -26 -99t-32 -74q-179 40 -394 205z" />
    <glyph glyph-name="Ycircumflex" unicode="&#x176;" horiz-adv-x="1270" 
d="M40 1115q-10 19 -10 101t18 92t203 10h111q186 0 198 -7q24 -13 24 -95q0 -81 -11 -101q-42 -13 -77 -19l136 -281l138 281q-33 6 -74 19q-10 19 -10 101t18 92t210 10h105q185 0 203 -10t18 -92t-10 -101q-62 -20 -155 -33l-288 -590v-263q76 -12 121 -26
q10 -19 10 -101t-16 -92t-191 -10h-154q-171 0 -189 10t-18 92t10 101q49 16 121 27v262l-288 591q-97 13 -153 32zM582 1543h-8q-219 -167 -390 -205q-12 16 -32 74t-26 99q267 138 450 329h10q183 -191 448 -329q-6 -41 -26 -99t-32 -74q-179 40 -394 205z" />
    <glyph glyph-name="ycircumflex" unicode="&#x177;" horiz-adv-x="1324" 
d="M737 835q-10 19 -10 101q-1 82 17 92t204 10h88q192 0 210 -10t18 -92t-10 -101q-48 -15 -134 -27l-273 -808q-80 -238 -192 -348q-111 -110 -273 -110t-313 72q0 213 23 302q44 15 102 20t96 -2q28 -43 47 -105h9q71 1 107 37t72 134h-48l-273 808q-89 12 -134 27
q-10 19 -10 101t18 92t210 10h88q186 0 204 -10t17 -92q0 -82 -10 -101q-25 -9 -64 -17l140 -418l140 418q-41 8 -66 17zM661 1344h-8q-219 -167 -390 -205q-11 17 -31 75t-27 98q267 138 450 329h10q183 -191 448 -329q-7 -40 -27 -98t-31 -75q-179 40 -394 205z" />
    <glyph glyph-name="Ydieresis" unicode="&#x178;" horiz-adv-x="1270" 
d="M40 1115q-10 19 -10 101t18 92t203 10h111q186 0 198 -7q24 -13 24 -95q0 -81 -11 -101q-42 -13 -77 -19l136 -281l138 281q-33 6 -74 19q-10 19 -10 101t18 92t210 10h105q185 0 203 -10t18 -92t-10 -101q-62 -20 -155 -33l-288 -590v-263q76 -12 121 -26
q10 -19 10 -101t-16 -92t-191 -10h-154q-171 0 -189 10t-18 92t10 101q49 16 121 27v262l-288 591q-97 13 -153 32zM754 1600q0 72 50 122t123 50q72 0 123 -50t51 -122t-51 -122t-123 -50q-73 0 -123 50t-50 122zM164 1600q0 72 50 122t123 50q72 0 123 -50t51 -122
t-51 -122t-123 -50q-73 0 -123 50t-50 122z" />
    <glyph glyph-name="Zacute" unicode="&#x179;" horiz-adv-x="1135" 
d="M98 1171v147h951l16 -16l-517 -1014h239q31 140 53 176q105 9 197 -18q7 -8 15 -104t7 -179v-163h-974l-15 15l516 1015h-218q-32 -135 -50 -162q-109 -8 -197 18q-7 8 -15 106t-8 179zM765 1847q43 -23 83 -77t50 -110q-51 -74 -236 -182t-357 -140q-15 14 -39 72
t-30 101q286 127 529 336z" />
    <glyph glyph-name="zacute" unicode="&#x17a;" horiz-adv-x="1053" 
d="M77 982v56h910l16 -16l-479 -780h180q6 26 24 68t29 59q37 7 95 2t103 -20q23 -89 23 -302v-49h-915l-13 13l480 783h-179q-20 -78 -53 -127q-38 -7 -96 -2t-102 20q-23 87 -23 295zM728 1649q44 -23 84 -77t49 -110q-51 -74 -236 -182t-357 -140q-16 14 -40 72t-29 101
q286 127 529 336z" />
    <glyph glyph-name="Zdotaccent" unicode="&#x17b;" horiz-adv-x="1135" 
d="M98 1171v147h951l16 -16l-517 -1014h239q31 140 53 176q105 9 197 -18q7 -8 15 -104t7 -179v-163h-974l-15 15l516 1015h-218q-32 -135 -50 -162q-109 -8 -197 18q-7 8 -15 106t-8 179zM418 1600q0 72 50 122t123 50q72 0 123 -50t51 -122t-51 -122t-123 -50
q-73 0 -123 50t-50 122z" />
    <glyph glyph-name="zdotaccent" unicode="&#x17c;" horiz-adv-x="1053" 
d="M77 982v56h910l16 -16l-479 -780h180q6 26 24 68t29 59q37 7 95 2t103 -20q21 -85 23 -295v-56h-915l-13 13l480 783h-179q-20 -78 -53 -127q-38 -7 -96 -2t-102 20q-23 87 -23 295zM387 1312q1 72 51 122t122 50t123 -50t51 -122t-51 -122t-123 -50t-122 50t-51 122z
" />
    <glyph glyph-name="Zcaron" unicode="&#x17d;" horiz-adv-x="1135" 
d="M98 1171v147h951l16 -16l-517 -1014h239q31 140 53 176q105 9 197 -18q7 -8 15 -104t7 -179v-163h-974l-15 15l516 1015h-218q-32 -135 -50 -162q-109 -8 -197 18q-7 8 -15 106t-8 179zM562 1635h8q215 165 394 205q12 -16 32 -74t26 -99q-265 -138 -448 -329h-10
q-183 191 -450 329q6 41 26 99t32 74q171 -38 390 -205z" />
    <glyph glyph-name="zcaron" unicode="&#x17e;" horiz-adv-x="1053" 
d="M77 982v56h910l16 -16l-479 -780h180q6 26 24 68t29 59q37 7 95 2t103 -20q23 -89 23 -302v-49h-915l-13 13l480 783h-179q-20 -78 -53 -127q-38 -7 -96 -2t-102 20q-23 87 -23 295zM521 1355h8q215 165 394 205q11 -16 31 -74t27 -99q-265 -138 -448 -329h-10
q-183 191 -450 329q7 41 27 99t31 74q171 -38 390 -205z" />
    <glyph glyph-name="florin" unicode="&#x192;" horiz-adv-x="743" 
d="M220 1043q0 405 421 405q99 0 230 -32q21 -3 52 -13q0 -213 -23 -302q-44 -15 -102 -20t-96 2q-36 54 -55 127q-120 -17 -121 -172h171v-224h-171v-877q0 -254 -179 -357q-101 -58 -254 -58q-152 0 -293 74q0 213 23 302q45 15 103 20t95 -2q30 -44 50 -113q67 5 108 47
t41 129v835h-147v224h147v5z" />
    <glyph glyph-name="lbar" unicode="&#x19a;" horiz-adv-x="805" 
d="M675 203q10 -19 10 -101q1 -82 -17 -92t-211 -10h-135q-186 0 -204 10t-17 92q0 82 10 101q60 20 137 30v396l-121 -44l-107 287l228 83v231q-97 2 -130 9q-17 25 -17 95t9 98q106 32 228 46t178 14h38v-381l126 46l105 -288l-231 -84v-512q78 -12 121 -26z" />
    <glyph glyph-name="Ezh" unicode="&#x1b7;" horiz-adv-x="1186" 
d="M803 400q0 175 -411 175h-88v280l271 175h-225q-20 -68 -30 -83q-105 -9 -197 18q-7 7 -15 105t-8 180v68h908v-285h-2l-299 -201q151 -27 241 -85q158 -105 158 -317t-131 -332q-132 -118 -364 -118q-145 0 -282 43t-227 106l70 260l8 7q78 -48 216 -92t212 -43
q74 0 134 33q61 33 61 106z" />
    <glyph glyph-name="Gstroke" unicode="&#x1e4;" horiz-adv-x="1402" 
d="M818 1338q143 0 343 -46v-111q0 -83 -8 -181t-15 -104q-72 -21 -112 -21t-84 3q-24 38 -52 170q-44 6 -112 6t-149 -34t-133 -88q-110 -117 -111 -268q0 -228 174 -342q89 -58 209 -58t224 62v39h-246v109h246v43h-246v268h526v-311h125v-109h-125v-365h-184l-76 46
q-126 -66 -260 -66q-186 0 -341 94t-243 252q-88 159 -88 361t124 375t350 240q121 36 264 36z" />
    <glyph glyph-name="gstroke" unicode="&#x1e5;" horiz-adv-x="1038" 
d="M476 -207q96 0 156 45q19 16 29 28h-307q26 -73 122 -73zM463 29h-64q-23 -24 -37 -54h315q-15 27 -59 41t-155 13zM466 828q-126 0 -126 -111q0 -118 126 -118t126 112q0 117 -126 117zM374 328q0 -72 193 -72t301 -82t108 -191v-8h47v-109h-70q-41 -103 -131 -170
q-176 -130 -364 -130q-187 0 -295 97q-90 79 -102 203h-46v109h57q29 102 113 186q-86 47 -86 139t76 183q-89 91 -89 235t108 242t276 98q104 0 185 -40q151 78 268 78l69 -196l-6 -14q-76 -14 -162 -50q22 -53 22 -120q0 -148 -108 -247t-276 -99q-40 0 -74 6
q-14 -30 -14 -48z" />
    <glyph glyph-name="Gcaron" unicode="&#x1e6;" horiz-adv-x="1352" 
d="M818 1338q143 0 343 -46v-111q0 -83 -8 -181t-15 -104q-72 -21 -112 -21t-84 3q-24 38 -52 170q-44 6 -112 6t-149 -34t-133 -88q-110 -117 -111 -268q0 -228 174 -342q89 -58 209 -58t224 62v191h-246v268h526v-785h-184l-76 46q-126 -66 -260 -66q-186 0 -341 94
t-243 252q-88 159 -88 361t124 375t350 240q121 36 264 36zM752 1650h8q215 165 394 205q12 -17 32 -75t26 -98q-265 -138 -448 -329h-10q-183 191 -450 329q6 40 26 98t32 75q171 -38 390 -205z" />
    <glyph glyph-name="gcaron" unicode="&#x1e7;" horiz-adv-x="1002" 
d="M337 -89q0 -118 141 -118q85 -1 142 43t57 103q1 59 -67 76q-54 14 -157 14h-64q-52 -57 -52 -118zM330 717q0 -118 126 -118t126 112q0 117 -126 117t-126 -111zM364 328q0 -72 193 -72t301 -82t108 -194t-80 -210t-201 -150q-122 -54 -251 -54q-174 0 -279 94t-105 237
q0 63 33 134t92 130q-86 49 -86 139t76 183q-89 92 -89 235q0 144 108 242t276 98q103 0 185 -40q153 78 268 78l69 -196l-6 -14q-79 -15 -162 -50q22 -54 22 -120q0 -150 -108 -248t-276 -98q-40 0 -74 6q-14 -28 -14 -48zM474 1395h8q215 165 394 205q12 -16 32 -74
t26 -99q-265 -138 -448 -329h-10q-183 191 -450 329q6 41 26 99t32 74q171 -38 390 -205z" />
    <glyph glyph-name="Kcaron" unicode="&#x1e8;" horiz-adv-x="1375" 
d="M587 203q10 -16 10 -100q1 -84 -17 -93q-18 -10 -197 -10h-101q-186 0 -198 7q-24 13 -24 95t10 101q43 14 121 26v859q-72 11 -121 27q-10 19 -10 101t18 92t197 10h94q193 0 211 -10t17 -93q0 -84 -10 -100q-45 -14 -90 -22v-268h8l230 282q-4 1 -18 3t-18 5
q-10 19 -10 101q-1 82 17 92t214 10h119q193 0 211 -10t17 -92q0 -82 -10 -101q-48 -17 -171 -36l-321 -390q50 -83 146 -187t198 -186q47 45 80 62q37 -3 86 -38t70 -61q-16 -126 -194 -299q-79 0 -207 88t-242 210q-115 122 -174 227l-31 -43v-237q45 -8 90 -22zM629 1650
h8q215 165 394 205q11 -17 31 -75t27 -98q-265 -138 -448 -329h-10q-183 191 -450 329q7 40 27 98t31 75q171 -38 390 -205z" />
    <glyph glyph-name="kcaron" unicode="&#x1e9;" horiz-adv-x="1229" 
d="M572 203q10 -19 10 -101t-18 -92t-168 -10h-135q-185 0 -203 10t-18 92t10 101q60 20 137 30v953q-97 2 -130 9q-17 25 -17 95t9 98q105 32 227 46t179 14h38v-755l127 128q-43 11 -50 14q-10 19 -10 101t18 92t203 10h88q193 0 211 -10t17 -92q0 -82 -10 -101
q-43 -14 -121 -26l-4 -1l-245 -260q29 -54 95 -120t142 -120q52 51 89 70q37 -3 86 -38t70 -61q-14 -113 -157 -299q-283 0 -549 376v-127q43 -10 79 -26zM348 1755h8q215 165 394 205q12 -16 32 -74t26 -99q-265 -138 -448 -329h-10q-183 191 -450 329q6 41 26 99t32 74
q171 -38 390 -205z" />
    <glyph glyph-name="Ezhcaron" unicode="&#x1ee;" horiz-adv-x="1186" 
d="M803 400q0 175 -411 175h-88v280l271 175h-225q-20 -68 -30 -83q-105 -9 -197 18q-7 7 -15 105t-8 180v68h908v-285h-2l-299 -201q151 -27 241 -85q158 -105 158 -317t-131 -332q-132 -118 -364 -118q-145 0 -282 43t-227 106l70 260l8 7q78 -48 216 -92t212 -43
q74 0 134 33q61 33 61 106zM623 1650h8q215 165 394 205q11 -17 31 -75t27 -98q-265 -138 -448 -329h-10q-183 191 -450 329q7 40 27 98t31 75q171 -38 390 -205z" />
    <glyph glyph-name="ezhcaron" unicode="&#x1ef;" horiz-adv-x="1186" 
d="M803 120q0 175 -411 175h-88v280l271 175h-225q-20 -68 -30 -83q-105 -9 -197 18q-7 7 -15 105t-8 180v68h908v-285h-2l-299 -201q151 -27 241 -85q158 -105 158 -317t-131 -332q-132 -118 -364 -118q-145 0 -282 43t-227 106l70 260l8 7q78 -48 216 -92t212 -43
q74 0 134 33q61 33 61 106zM584 1395h8q215 165 394 205q12 -16 32 -74t26 -99q-265 -138 -448 -329h-10q-183 191 -450 329q6 41 26 99t32 74q171 -38 390 -205z" />
    <glyph glyph-name="AEacute" unicode="&#x1fc;" horiz-adv-x="1987" 
d="M984 578l-159 430l-160 -430h319zM1799 658q0 -150 -20 -211q-92 -27 -196 -18q-14 21 -33 93h-227l82 -234h272q21 69 30 83q105 9 197 -18q7 -7 15 -105t8 -180v-68h-677q-192 0 -210 10t-18 92t10 101q41 12 79 19l-24 68h-524l-24 -68q38 -7 79 -19q10 -19 10 -101
t-18 -92t-210 -10h-118q-186 0 -198 7q-24 13 -24 95t10 101q64 19 156 32l380 1083h1321v-68q0 -82 -8 -180t-15 -105q-92 -27 -197 -18q-10 15 -30 83h-532l82 -234h323q22 76 33 93q104 9 196 -18q20 -63 20 -213zM1008 1337q-16 15 -40 73t-29 100q286 127 529 336
q44 -24 84 -78t49 -109q-51 -73 -236 -181t-357 -141z" />
    <glyph glyph-name="Oslashacute" unicode="&#x1fe;" horiz-adv-x="1515" 
d="M1129 655q0 163 -88 271l-239 -657q153 11 240 117t87 269zM386 654q0 -183 123 -295l251 692q-172 0 -273 -107t-101 -290zM1435 654q1 -184 -85 -339t-242 -245t-355 -90q-19 0 -55 2l-71 -195l-288 105l64 177q-151 87 -237 243t-86 347t86 345t244 244q157 90 354 90
q51 0 99 -6l64 175l288 -105l-64 -176q134 -90 209 -238q75 -150 75 -334zM495 1338q-15 14 -39 72t-30 101q286 127 529 336q43 -23 83 -77t50 -110q-51 -74 -236 -182t-357 -140z" />
    <glyph glyph-name="oslashacute" unicode="&#x1ff;" horiz-adv-x="1260" 
d="M867 497q0 91 -20 150l-151 -414q82 21 126 97t45 167zM393 536q0 -97 28 -163l158 435q-88 -18 -137 -96t-49 -176zM1180 522q0 -242 -152 -392t-402 -150h-22l-92 -252l-288 105l84 232q-108 70 -168 187t-60 264q0 242 152 392t402 150l35 -1l81 222l288 -105
l-76 -208q106 -72 162 -186t56 -258zM350 1140q-16 14 -40 72t-29 101q286 127 529 336q44 -23 84 -77t49 -110q-51 -74 -236 -182t-357 -140z" />
    <glyph glyph-name="uni023D" unicode="&#x23d;" horiz-adv-x="1081" 
d="M70 1115q-10 16 -10 100t18 93q18 10 203 10h118q193 0 211 -10t17 -93q0 -84 -10 -100q-49 -16 -121 -27v-212l150 55l105 -288l-255 -93v-262h255q34 163 57 202q110 10 210 -18q7 -7 15 -93t8 -157v-222h-760q-185 0 -203 10t-18 93q0 84 10 100q47 16 121 27v208
l-98 -35l-107 287l205 75v323q-74 11 -121 27z" />
    <glyph glyph-name="ezh" unicode="&#x292;" horiz-adv-x="1186" 
d="M803 120q0 175 -411 175h-88v280l271 175h-225q-20 -68 -30 -83q-105 -9 -197 18q-7 7 -15 105t-8 180v68h908v-285h-2l-299 -201q151 -27 241 -85q158 -105 158 -317t-131 -332q-132 -118 -364 -118q-145 0 -282 43t-227 106l70 260l8 7q78 -48 216 -92t212 -43
q74 0 134 33q61 33 61 106z" />
    <glyph glyph-name="circumflex" unicode="&#x2c6;" horiz-adv-x="1148" 
d="M576 1263h-8q-219 -167 -390 -205q-12 16 -32 74t-26 99q267 138 450 329h10q183 -191 448 -329q-6 -41 -26 -99t-32 -74q-179 40 -394 205z" />
    <glyph glyph-name="caron" unicode="&#x2c7;" horiz-adv-x="1148" 
d="M568 1355h8q215 165 394 205q12 -16 32 -74t26 -99q-265 -138 -448 -329h-10q-183 191 -450 329q6 41 26 99t32 74q171 -38 390 -205z" />
    <glyph glyph-name="breve" unicode="&#x2d8;" horiz-adv-x="919" 
d="M468 1058q-116 0 -201 39t-177 135q5 32 51 84t80 63q88 -94 235 -94t242 94q33 -11 78 -65t50 -87q-150 -169 -358 -169z" />
    <glyph glyph-name="dotaccent" unicode="&#x2d9;" horiz-adv-x="587" 
d="M120 1312q0 72 50 122t123 50q72 0 123 -50t51 -122t-51 -122t-123 -50q-73 0 -123 50t-50 122z" />
    <glyph glyph-name="ring" unicode="&#x2da;" horiz-adv-x="641" 
d="M255 1277q-1 -25 19 -45t46 -20t46 20t20 45t-20 45t-46 20t-46 -20t-19 -45zM100 1277q0 89 65 153t155 64t155 -64q66 -64 66 -153q0 -87 -66 -153q-65 -66 -155 -66t-155 65t-65 154z" />
    <glyph glyph-name="ogonek" unicode="&#x2db;" horiz-adv-x="554" 
d="M298 -216q0 -52 47 -51q39 0 142 48l7 -5v-203q-72 -51 -182 -51t-181 70t-71 166q0 95 61 183t153 149l224 -90q-82 -36 -141 -100t-59 -116z" />
    <glyph glyph-name="tilde" unicode="&#x2dc;" horiz-adv-x="1077" 
d="M404 1153q-39 1 -67 -23t-28 -70q-18 -2 -32 -2q-104 0 -157 49q14 105 88 183t185 78q45 0 92 -24t91 -48t86 -24q40 0 73 24t33 72q18 2 46 2t72 -13t71 -38q-13 -105 -94 -183t-193 -78q-44 0 -92 24t-91 48q-44 24 -83 23z" />
    <glyph glyph-name="hungarumlaut" unicode="&#x2dd;" horiz-adv-x="1352" 
d="M1047 1684q49 -8 103 -48t82 -89q-26 -85 -169 -245t-296 -244q-21 10 -61 58t-59 86q233 208 400 482zM520 1684q50 -8 104 -48t81 -89q-26 -85 -169 -245t-296 -244q-20 10 -60 58t-60 86q233 208 400 482z" />
    <glyph glyph-name="Ygrave" unicode="&#x1ef2;" horiz-adv-x="1270" 
d="M40 1115q-10 19 -10 101t18 92t203 10h111q186 0 198 -7q24 -13 24 -95q0 -81 -11 -101q-42 -13 -77 -19l136 -281l138 281q-33 6 -74 19q-10 19 -10 101t18 92t210 10h105q185 0 203 -10t18 -92t-10 -101q-62 -20 -155 -33l-288 -590v-263q76 -12 121 -26
q10 -19 10 -101t-16 -92t-191 -10h-154q-171 0 -189 10t-18 92t10 101q49 16 121 27v262l-288 591q-97 13 -153 32zM382 1847q243 -209 529 -336q-5 -43 -29 -101t-40 -72q-172 32 -357 140t-236 182q9 56 49 110t84 77z" />
    <glyph glyph-name="ygrave" unicode="&#x1ef3;" horiz-adv-x="1324" 
d="M737 835q-10 19 -10 101q-1 82 17 92t204 10h88q192 0 210 -10t18 -92t-10 -101q-48 -15 -134 -27l-273 -808q-80 -238 -192 -348q-111 -110 -273 -110t-313 72q0 213 23 302q44 15 102 20t96 -2q28 -43 47 -105h9q71 1 107 37t72 134h-48l-273 808q-89 12 -134 27
q-10 19 -10 101t18 92t210 10h88q186 0 204 -10t17 -92q0 -82 -10 -101q-25 -9 -64 -17l140 -418l140 418q-41 8 -66 17zM435 1567q243 -209 529 -336q-6 -43 -30 -101t-39 -72q-172 32 -357 140t-236 182q10 56 50 110t83 77z" />
    <glyph glyph-name="endash" unicode="&#x2013;" horiz-adv-x="1320" 
d="M1200 728v-288h-1080v288h1080z" />
    <glyph glyph-name="emdash" unicode="&#x2014;" horiz-adv-x="1466" 
d="M1346 728v-288h-1226v288h1226z" />
    <glyph glyph-name="quoteleft" unicode="&#x2018;" horiz-adv-x="591" 
d="M297 835q-69 1 -123 47t-54 154t90 232t197 180l64 -81q-74 -125 -74 -197t68 -165q0 -69 -50 -119t-118 -51z" />
    <glyph glyph-name="quoteright" unicode="&#x2019;" horiz-adv-x="591" 
d="M296 1448q68 0 121 -46q54 -46 54 -155q0 -108 -90 -232t-195 -180l-66 81q75 126 75 198t-68 164q1 70 51 120t118 50z" />
    <glyph glyph-name="quotesinglbase" unicode="&#x201a;" horiz-adv-x="592" 
d="M296 324q68 0 122 -46t54 -154t-91 -232t-196 -181l-65 81q75 126 75 198t-67 164q0 70 50 120t118 50z" />
    <glyph glyph-name="quotedblleft" unicode="&#x201c;" horiz-adv-x="1090" 
d="M794 835q-68 1 -121 47q-54 46 -54 154t90 232t195 180l66 -81q-75 -127 -75 -199t68 -163q-1 -69 -51 -119t-118 -51zM297 835q-69 1 -123 47t-54 154t90 232t197 180l64 -81q-74 -125 -74 -197t68 -165q0 -69 -50 -119t-118 -51z" />
    <glyph glyph-name="quotedblright" unicode="&#x201d;" horiz-adv-x="1090" 
d="M793 1448q69 0 123 -46t54 -155q0 -108 -90 -232t-197 -180l-64 81q74 126 74 198t-68 164q0 70 50 120t118 50zM296 1448q68 0 121 -46q54 -46 54 -155q0 -108 -90 -232t-195 -180l-66 81q75 126 75 198t-68 164q1 70 51 120t118 50z" />
    <glyph glyph-name="quotedblbase" unicode="&#x201e;" horiz-adv-x="1090" 
d="M793 324q69 0 123 -46t54 -155q0 -108 -90 -232t-197 -180l-64 81q74 126 74 198t-68 164q0 70 50 120t118 50zM296 324q68 0 121 -46q54 -46 54 -155q0 -108 -90 -232t-195 -180l-66 81q75 126 75 198t-68 164q1 70 51 120t118 50z" />
    <glyph glyph-name="dagger" unicode="&#x2020;" horiz-adv-x="946" 
d="M319 755h305q0 -276 -8 -707t-19 -526h-253q-12 95 -18 518t-7 715zM30 810v263h886v-263h-886zM624 1128h-305q0 153 27 320h253q25 -163 25 -320z" />
    <glyph glyph-name="daggerdbl" unicode="&#x2021;" horiz-adv-x="946" 
d="M319 -158h305q0 -158 -25 -320h-253q-27 167 -27 320zM30 -103v263h886v-263h-886zM319 755h305q0 -132 -18 -270q18 -138 18 -270h-305q0 133 19 270q-19 136 -19 270zM30 810v263h886v-263h-886zM624 1128h-305q0 153 27 320h253q25 -163 25 -320z" />
    <glyph glyph-name="bullet" unicode="&#x2022;" horiz-adv-x="901" 
d="M80 518q0 149 108 258t262 109q152 1 262 -109t109 -258q1 -148 -109 -258t-262 -109q-152 0 -262 109q-108 109 -108 258z" />
    <glyph glyph-name="ellipsis" unicode="&#x2026;" horiz-adv-x="1789" 
d="M1322 152q0 72 50 122t123 50q72 0 123 -50t51 -122t-51 -122t-123 -50q-73 0 -123 50t-50 122zM721 152q1 72 51 122t122 50t123 -50t51 -122t-51 -122t-123 -50t-122 50t-51 122zM120 152q0 72 50 122t123 50q72 0 123 -50t51 -122t-51 -122t-123 -50q-73 0 -123 50
t-50 122z" />
    <glyph glyph-name="perthousand" unicode="&#x2030;" horiz-adv-x="2497" 
d="M1991 314q0 -43 27 -72q26 -29 70 -29t72 30t29 73q0 43 -27 72q-26 29 -70 29t-72 -30t-29 -73zM1236 314q0 -43 27 -72t71 -29t72 30t28 73t-27 72t-71 29t-72 -30t-28 -73zM1763 314q0 142 93 238q92 98 236 98t234 -96t91 -238q0 -142 -93 -239q-92 -97 -236 -97
t-234 96t-91 238zM1008 314q0 142 93 238q93 98 237 98t234 -96t90 -238t-93 -239t-237 -97t-234 96t-90 238zM308 1002q0 -43 27 -72t71 -29t72 30t28 73t-27 72t-71 29t-72 -30t-28 -73zM1089 1236l251 -175l-686 -981l-252 174zM80 1002q0 142 93 238q93 98 237 98
t234 -96t90 -238t-93 -239t-237 -97t-234 96t-90 238z" />
    <glyph glyph-name="guilsinglleft" unicode="&#x2039;" horiz-adv-x="939" 
d="M554 1460l265 -154l-345 -597l345 -597l-265 -154l-434 751z" />
    <glyph glyph-name="guilsinglright" unicode="&#x203a;" horiz-adv-x="939" 
d="M120 112l345 597l-345 597l265 154l434 -751l-434 -751z" />
    <glyph glyph-name="fraction" unicode="&#x2044;" horiz-adv-x="1098" 
d="M767 1236l251 -175l-686 -981l-252 174z" />
    <glyph glyph-name="uni2063" unicode="&#x2063;" horiz-adv-x="600" 
 />
    <glyph glyph-name="Euro" unicode="&#x20ac;" horiz-adv-x="1378" 
d="M980 265q113 0 220 50l16 -12v-282q-180 -41 -277 -41q-216 0 -385 104t-254 285h-205l-10 10l99 228h49q-4 36 -4 84h-112l-10 10l99 228h68q75 185 254 297t417 112q178 0 353 -35l-110 -277q-140 23 -230 23q-223 0 -341 -120h530l8 -10l-93 -228h-537q0 -39 10 -84
h477l8 -10l-93 -228h-239q128 -104 292 -104z" />
    <glyph glyph-name="trademark" unicode="&#x2122;" horiz-adv-x="1440" 
d="M857 678h-164v660h164v-4l144 -269l145 273h164v-660h-164v310l-67 -125h-156l-66 124v-309zM624 1338v-157h-210v-503h-164v503h-210v157h584z" />
    <glyph glyph-name="estimated" unicode="&#x212e;" horiz-adv-x="1712" 
d="M1314 713v338q-107 110 -207 156t-249 48q-145 -3 -245 -49t-203 -155v-338h904zM410 627v-366q174 -196 460 -196q147 0 255 49t196 154h153v-55q-222 -233 -619 -233q-317 0 -541 187t-224 495t224 492t554 185q332 -1 543 -197t211 -515h-1212z" />
    <glyph glyph-name="minus" unicode="&#x2212;" horiz-adv-x="1198" 
d="M80 375v288h1038v-288h-1038z" />
    <glyph glyph-name="approxequal" unicode="&#x2248;" horiz-adv-x="1339" 
d="M311 40q-41 0 -99 16t-92 48q18 138 116 240t243 102q89 0 181 -62q93 -62 159 -61q65 0 109 32t44 93q30 3 62 3q32 -1 91 -19q58 -18 94 -50q-16 -138 -123 -240t-254 -102q-84 0 -181 62t-158 62t-99 -30t-37 -91q-15 -3 -56 -3zM311 597q-41 0 -99 16t-92 48
q18 139 116 241t243 101q89 1 181 -61q93 -62 159 -62q65 0 109 32t44 93q30 3 62 3t91 -18q58 -18 94 -51q-16 -137 -123 -239t-254 -103q-84 0 -181 62t-158 62t-99 -30t-37 -91q-15 -3 -56 -3z" />
    <glyph glyph-name="notequal" unicode="&#x2260;" horiz-adv-x="1198" 
d="M1118 375v-288h-546l-61 -168l-228 82l31 86h-234v288h339l105 288h-444v288h549l64 176l227 -83l-34 -93h232v-288h-337l-104 -288h441z" />
    <glyph glyph-name="lessequal" unicode="&#x2264;" horiz-adv-x="1218" 
d="M90 0v288h1038v-288h-1038zM919 1448l178 -249l-443 -310l444 -311l-177 -249l-801 560z" />
    <glyph glyph-name="greaterequal" unicode="&#x2265;" horiz-adv-x="1218" 
d="M90 0v288h1038v-288h-1038zM120 579l444 311l-443 310l178 249l799 -559l-801 -560z" />
    <glyph glyph-name="f.ss01" horiz-adv-x="720" 
d="M197 1043q0 405 421 405q99 0 230 -32q21 -3 52 -13q0 -213 -23 -302q-45 -15 -103 -20t-95 2q-36 54 -55 127q-120 -17 -121 -172h171v-224h-171v-837q0 -222 -47 -435h-306l-9 8q56 215 56 427v837h-147v224h147v5z" />
    <glyph glyph-name="g.ss01" horiz-adv-x="1195" 
d="M595 228q100 0 165 81v489q-52 14 -111 14q-124 0 -196 -74t-72 -204q0 -132 57 -219t157 -87zM1065 1058v-1088q0 -272 -217 -372q-120 -56 -268 -55q-146 0 -280 34t-201 71q0 213 23 302q44 15 102 20t96 -2q31 -49 54 -136q86 -26 170 -26t150 48q64 48 64 149v40
q-49 -31 -93 -47t-108 -16q-139 0 -249 72t-169 194q-59 121 -59 272q0 150 70 274t204 195t309 71q90 0 204 -27l187 27h11z" />
    <glyph glyph-name="g.ss02" horiz-adv-x="1240" 
d="M602 -20h-1q-197 0 -197 -78q0 -44 61 -70t141 -26t138 50q59 50 59 147v40q-49 -31 -93 -47t-108 -16zM640 228q100 0 165 81v489q-52 14 -111 14q-124 0 -196 -74t-72 -204q0 -132 57 -219t157 -87zM1110 -30q0 -428 -540 -428q-202 0 -336 84t-134 227q0 166 188 251
q-163 155 -163 408q1 156 71 280t204 195t308 71q90 0 204 -27l187 27h11v-1088z" />
    <glyph glyph-name="zero.osf" horiz-adv-x="1237" 
d="M386 546q0 -100 26 -166t80 -111q56 -44 132 -44q76 -1 127 41q99 79 99 251q0 125 -58 211t-168 85q-112 1 -175 -83t-63 -184zM80 500q0 130 40 229t110 172t172 115t242 42t262 -72t187 -194q64 -120 64 -270t-66 -273t-190 -196t-284 -73q-159 0 -283 73t-189 195
t-65 252z" />
    <glyph glyph-name="one.osf" horiz-adv-x="931" 
d="M791 203q10 -19 10 -101q1 -82 -17 -92t-211 -10h-135q-186 0 -204 10t-17 92q0 82 10 101q60 20 137 30v492q-129 -46 -264 -46v265q198 0 338 94h232v-809q78 -12 121 -26z" />
    <glyph glyph-name="two.osf" horiz-adv-x="1021" 
d="M490 1058q134 0 220 -36t130 -72q98 -79 98 -206q0 -128 -80 -250t-202 -211h325v-283h-881v283q125 37 247 109q123 72 201 154q78 83 78 148q0 77 -168 77q-22 0 -64 -4q-21 -149 -60 -219q-106 -9 -198 18q-7 6 -15 104t-8 181v103q166 104 377 104z" />
    <glyph glyph-name="three.osf" horiz-adv-x="1098" 
d="M351 542h125q90 0 156 46t65 92q0 96 -176 95q-51 0 -100 -10q-20 -90 -44 -132q-106 -9 -198 18q-7 7 -15 105t-8 180q203 122 418 122t338 -111q92 -83 92 -220q0 -195 -143 -320q177 -119 177 -322q0 -81 -32 -148q-57 -118 -191 -178q-133 -59 -260 -59t-247 38
t-208 97q0 83 8 181t15 104q92 27 198 18q23 -43 45 -134q90 -22 174 -22t140 36t56 93q0 58 -72 107t-199 49h-114v275z" />
    <glyph glyph-name="four.osf" horiz-adv-x="1149" 
d="M672 253v359l-245 -359h245zM966 1059v-806h148v-283h-148v-229h-294v229h-592v283l549 806h337z" />
    <glyph glyph-name="five.osf" horiz-adv-x="1184" 
d="M1050 1038v-284h-547l-18 -177q311 -11 465 -112t154 -314t-132 -331t-363 -118q-142 0 -279 42t-230 107q0 213 23 302q45 15 103 20t95 -2q30 -45 55 -140q146 -48 221 -48q75 -1 121 21q83 40 83 118q0 175 -411 175h-234l77 741h817z" />
    <glyph glyph-name="six.osf" horiz-adv-x="1101" 
d="M553 567q-67 0 -165 -66q-3 -29 -3 -66q1 -103 51 -159t122 -56t112 55t40 129t-45 118q-45 45 -112 45zM918 1338v-284q-416 0 -485 -277q67 30 157 30q186 0 308 -107t123 -276q-1 -128 -65 -236q-124 -207 -405 -208q-283 0 -401 198q-70 117 -70 279q0 567 378 779
q183 102 460 102z" />
    <glyph glyph-name="seven.osf" horiz-adv-x="1034" 
d="M60 845v193h944l-533 -1318h-336l417 1030h-213q-18 -138 -58 -208q-106 -9 -198 18q-7 6 -15 104t-8 181z" />
    <glyph glyph-name="eight.osf" horiz-adv-x="1121" 
d="M560 220q68 0 118 34t50 101t-105 124q-22 12 -63 32q-108 -52 -127 -75q-40 -46 -40 -97q-1 -51 49 -85t118 -34zM687 994q0 50 -38 78t-89 28q-50 0 -88 -28t-38 -78q0 -52 32 -84t94 -58q61 26 94 58q33 34 33 84zM991 985q0 -97 -50 -170t-162 -127q134 -53 208 -135
t74 -214q0 -87 -43 -157t-115 -113q-149 -89 -343 -89q-284 0 -426 162q-74 84 -74 212q0 129 83 209q83 81 199 125q-108 53 -160 126t-52 183t62 188q122 153 368 153q172 0 302 -87q129 -87 129 -266z" />
    <glyph glyph-name="nine.osf" horiz-adv-x="1101" 
d="M548 471q67 0 165 66q3 29 3 66q0 103 -50 159t-124 56q-72 0 -112 -55t-39 -129q0 -74 45 -118q45 -45 112 -45zM183 -16q415 0 485 276q-68 -29 -157 -29q-187 0 -309 107t-122 276q0 128 64 236q124 208 406 208t400 -198q70 -117 71 -279q0 -567 -378 -779
q-183 -103 -460 -102v284z" />
    <glyph glyph-name="zero.tf" horiz-adv-x="1262" 
d="M856 700q0 392 -227 393q-113 1 -168 -103t-55 -324q0 -441 223 -441q75 0 123 40q104 85 104 435zM627 -20q-117 0 -210 43t-151 111t-96 162q-70 167 -70 375q0 327 142 497t383 170q240 0 388 -169q149 -169 149 -515q-6 -334 -150 -504t-385 -170z" />
    <glyph glyph-name="one.tf" horiz-adv-x="901" 
d="M791 203q10 -19 10 -101q1 -82 -17 -92t-211 -10h-135q-186 0 -204 10t-17 92q0 82 10 101q60 20 137 30v772q-129 -46 -264 -46v265q198 0 338 94h232v-1089q78 -12 121 -26z" />
    <glyph glyph-name="two.tf" horiz-adv-x="1134" 
d="M100 0v283q100 36 203 107q103 70 185 156t134 184t51 175q-1 79 -61 115t-119 36t-98 -6q-7 -66 -26 -132t-35 -96q-106 -9 -198 18q-7 6 -15 104t-8 181v103q176 110 408 110q231 0 359 -128q96 -96 97 -257q0 -275 -241 -537q-65 -70 -142 -133h440v-283h-934z" />
    <glyph glyph-name="three.tf" horiz-adv-x="1138" 
d="M351 822h125q90 0 156 46t65 92q0 96 -176 95q-51 0 -100 -10q-20 -90 -44 -132q-106 -9 -198 18q-7 7 -15 105t-8 180q203 122 418 122t338 -111q92 -83 92 -220q0 -195 -143 -320q177 -119 177 -322q0 -81 -32 -148q-57 -119 -202 -183q-228 -100 -496 -16
q-120 38 -208 97q0 83 8 181t15 104q92 27 198 18q23 -43 45 -134q90 -22 174 -22t140 36t56 93q0 58 -72 107t-199 49h-114v275z" />
    <glyph glyph-name="four.tf" horiz-adv-x="1234" 
d="M692 512v359l-245 -359h245zM986 1318v-806h148v-283h-148v-229h-294v229h-592v283l549 806h337z" />
    <glyph glyph-name="five.tf" horiz-adv-x="1204" 
d="M1050 1322v-284h-547l-18 -183q311 -11 465 -112t154 -314t-132 -331t-363 -118q-142 0 -279 42t-230 107q0 213 23 302q45 15 103 20t95 -2q30 -45 55 -140q146 -48 221 -48q75 -1 121 21q83 40 83 118q0 175 -411 175h-234l77 747h817z" />
    <glyph glyph-name="six.tf" 
d="M573 567q-67 0 -165 -66q-3 -29 -3 -66q1 -103 51 -159t122 -56t112 55t40 129t-45 118q-45 45 -112 45zM938 1338v-284q-416 0 -485 -277q67 30 157 30q186 0 308 -107t123 -276q-1 -128 -65 -236q-124 -208 -405 -208q-283 0 -401 198q-70 117 -70 279q0 567 378 779
q183 102 460 102z" />
    <glyph glyph-name="seven.tf" horiz-adv-x="1144" 
d="M100 1125v193h944l-533 -1318h-336l417 1030h-213q-18 -138 -58 -208q-106 -9 -198 18q-7 6 -15 104t-8 181z" />
    <glyph glyph-name="eight.tf" horiz-adv-x="1201" 
d="M600 220q68 0 118 34t50 101t-105 124q-22 12 -63 32q-108 -52 -127 -75q-40 -46 -40 -97q-1 -51 49 -85t118 -34zM727 994q0 50 -38 78t-89 28q-50 0 -88 -28t-38 -78q0 -52 32 -84t94 -58q61 26 94 58q33 34 33 84zM1031 985q0 -97 -50 -170t-162 -127
q134 -53 208 -135t74 -214q0 -87 -43 -157t-115 -113q-149 -89 -343 -89q-284 0 -426 162q-74 84 -74 212q0 129 83 209q83 81 199 125q-108 53 -160 126t-52 183t62 188q122 153 368 153q172 0 302 -87q129 -87 129 -266z" />
    <glyph glyph-name="nine.tf" 
d="M568 751q67 0 165 66q3 29 3 66q0 103 -50 159t-124 56q-72 0 -112 -55t-39 -129q0 -74 45 -118q45 -45 112 -45zM203 264q415 0 485 276q-68 -29 -157 -29q-187 0 -309 107t-122 276q0 128 64 236q124 208 406 208t400 -198q70 -117 71 -279q0 -567 -378 -779
q-183 -102 -460 -102v284z" />
    <glyph glyph-name="zero.tosf" horiz-adv-x="1277" 
d="M406 546q0 -100 26 -166t80 -111q56 -44 132 -44q76 -1 127 41q99 79 99 251q0 125 -58 211t-168 85q-112 1 -175 -83t-63 -184zM100 500q0 130 40 229t110 172t172 115t242 42t262 -72t187 -194q64 -120 64 -270t-66 -273t-190 -196t-284 -73q-159 0 -283 73t-189 195
t-65 252z" />
    <glyph glyph-name="one.tosf" horiz-adv-x="901" 
d="M791 203q10 -19 10 -101q1 -82 -17 -92t-211 -10h-135q-186 0 -204 10t-17 92q0 82 10 101q60 20 137 30v492q-129 -46 -264 -46v265q198 0 338 94h232v-809q78 -12 121 -26z" />
    <glyph glyph-name="two.tosf" horiz-adv-x="1081" 
d="M490 1058q134 0 220 -36t130 -72q98 -79 98 -206q0 -128 -80 -250t-202 -211h325v-283h-881v283q125 37 247 109q123 72 201 154q78 83 78 148q0 77 -168 77q-22 0 -64 -4q-21 -149 -60 -219q-106 -9 -198 18q-7 6 -15 104t-8 181v103q166 104 377 104z" />
    <glyph glyph-name="three.tosf" horiz-adv-x="1138" 
d="M351 542h125q90 0 156 46t65 92q0 96 -176 95q-51 0 -100 -10q-20 -90 -44 -132q-106 -9 -198 18q-7 7 -15 105t-8 180q203 122 418 122t338 -111q92 -83 92 -220q0 -195 -143 -320q177 -119 177 -322q0 -81 -32 -148q-57 -118 -191 -178q-133 -59 -260 -59t-247 38
t-208 97q0 83 8 181t15 104q92 27 198 18q23 -43 45 -134q90 -22 174 -22t140 36t56 93q0 58 -72 107t-199 49h-114v275z" />
    <glyph glyph-name="four.tosf" horiz-adv-x="1234" 
d="M692 253v359l-245 -359h245zM986 1059v-806h148v-283h-148v-229h-294v229h-592v283l549 806h337z" />
    <glyph glyph-name="five.tosf" horiz-adv-x="1204" 
d="M1050 1038v-284h-547l-18 -177q311 -11 465 -112t154 -314t-132 -331t-363 -118q-142 0 -279 42t-230 107q0 213 23 302q45 15 103 20t95 -2q30 -45 55 -140q146 -48 221 -48q75 -1 121 21q83 40 83 118q0 175 -411 175h-234l77 741h817z" />
    <glyph glyph-name="six.tosf" 
d="M573 567q-67 0 -165 -66q-3 -29 -3 -66q1 -103 51 -159t122 -56t112 55t40 129t-45 118q-45 45 -112 45zM938 1338v-284q-416 0 -485 -277q67 30 157 30q186 0 308 -107t123 -276q-1 -128 -65 -236q-124 -208 -405 -208q-283 0 -401 198q-70 117 -70 279q0 567 378 779
q183 102 460 102z" />
    <glyph glyph-name="seven.tosf" horiz-adv-x="1144" 
d="M100 845v193h944l-533 -1318h-336l417 1030h-213q-18 -138 -58 -208q-106 -9 -198 18q-7 6 -15 104t-8 181z" />
    <glyph glyph-name="eight.tosf" horiz-adv-x="1201" 
d="M600 220q68 0 118 34t50 101t-105 124q-22 12 -63 32q-108 -52 -127 -75q-40 -46 -40 -97q-1 -51 49 -85t118 -34zM727 994q0 50 -38 78t-89 28q-50 0 -88 -28t-38 -78q0 -52 32 -84t94 -58q61 26 94 58q33 34 33 84zM1031 985q0 -97 -50 -170t-162 -127
q134 -53 208 -135t74 -214q0 -87 -43 -157t-115 -113q-149 -89 -343 -89q-284 0 -426 162q-74 84 -74 212q0 129 83 209q83 81 199 125q-108 53 -160 126t-52 183t62 188q122 153 368 153q172 0 302 -87q129 -87 129 -266z" />
    <glyph glyph-name="nine.tosf" 
d="M568 471q67 0 165 66q3 29 3 66q0 103 -50 159t-124 56q-72 0 -112 -55t-39 -129q0 -74 45 -118q45 -45 112 -45zM203 -300v284q415 0 485 276q-68 -29 -157 -29q-187 0 -309 107t-122 276q0 128 64 236q124 208 406 208t400 -198q70 -117 71 -279q0 -567 -378 -779
q-183 -102 -460 -102z" />
    <glyph glyph-name="null" horiz-adv-x="0" 
 />
    </font>
</defs>
</svg>
